<?xml version="1.0" encoding="UTF-8"?>
<svg xmlns="http://www.w3.org/2000/svg" width="1440" height="1500" viewBox="0 0 1440 1500">
  <title>Ozon Design — Каталог — EMPTY</title>
  <desc>Ozon Design — импортируемый экран для Figma Design. Корневой фрейм: FRAME__DESKTOP__CATALOG__EMPTY.</desc>
  <defs>
    <linearGradient id="heroShade" x1="0" y1="0" x2="1" y2="0"><stop offset="0" stop-color="#101318" stop-opacity=".58"/><stop offset=".62" stop-color="#101318" stop-opacity=".05"/><stop offset="1" stop-color="#101318" stop-opacity=".12"/></linearGradient>
  </defs>
  <g id="FRAME__DESKTOP__CATALOG__EMPTY" data-name="FRAME__DESKTOP__CATALOG__EMPTY"><rect x="0" y="0" width="1440" height="1500" rx="0" fill="#FFFFFF" /><rect x="0" y="0" width="1440" height="88" rx="0" fill="#FFFFFF" /><text x="80" y="54" font-family="Onest, Inter, Arial, sans-serif" font-size="22" font-weight="700" fill="#13151A" text-anchor="start" letter-spacing="0" opacity="1"><tspan x="80" dy="0">Ozon Design</tspan></text><g id="HOTSPOT__HEADER__CATALOG" data-name="HOTSPOT__HEADER__CATALOG"><text x="535.5" y="52" font-family="Onest, Inter, Arial, sans-serif" font-size="14" font-weight="650" fill="#005BFF" text-anchor="middle" letter-spacing="0" opacity="1"><tspan x="535.5" dy="0">Каталог</tspan></text><rect id="HOTSPOT__HEADER__CATALOG__TARGET" data-name="HOTSPOT__HEADER__CATALOG__TARGET" x="490" y="22" width="91" height="44" rx="8" fill="#FFFFFF" fill-opacity="0.001"/></g><g id="HOTSPOT__HEADER__COMPANY" data-name="HOTSPOT__HEADER__COMPANY"><text x="649" y="52" font-family="Onest, Inter, Arial, sans-serif" font-size="14" font-weight="650" fill="#13151A" text-anchor="middle" letter-spacing="0" opacity="1"><tspan x="649" dy="0">Компании</tspan></text><rect id="HOTSPOT__HEADER__COMPANY__TARGET" data-name="HOTSPOT__HEADER__COMPANY__TARGET" x="599" y="22" width="100" height="44" rx="8" fill="#FFFFFF" fill-opacity="0.001"/></g><g id="HOTSPOT__HEADER__COLLECTION" data-name="HOTSPOT__HEADER__COLLECTION"><text x="767" y="52" font-family="Onest, Inter, Arial, sans-serif" font-size="14" font-weight="650" fill="#13151A" text-anchor="middle" letter-spacing="0" opacity="1"><tspan x="767" dy="0">Подборки</tspan></text><rect id="HOTSPOT__HEADER__COLLECTION__TARGET" data-name="HOTSPOT__HEADER__COLLECTION__TARGET" x="717" y="22" width="100" height="44" rx="8" fill="#FFFFFF" fill-opacity="0.001"/></g><g id="HOTSPOT__HEADER__ABOUT" data-name="HOTSPOT__HEADER__ABOUT"><text x="889.5" y="52" font-family="Onest, Inter, Arial, sans-serif" font-size="14" font-weight="650" fill="#13151A" text-anchor="middle" letter-spacing="0" opacity="1"><tspan x="889.5" dy="0">О проекте</tspan></text><rect id="HOTSPOT__HEADER__ABOUT__TARGET" data-name="HOTSPOT__HEADER__ABOUT__TARGET" x="835" y="22" width="109" height="44" rx="8" fill="#FFFFFF" fill-opacity="0.001"/></g><g id="HOTSPOT__HEADER__SEARCH" data-name="HOTSPOT__HEADER__SEARCH"><rect x="1120" y="22" width="102" height="44" rx="22" fill="#F5F6F8" /><g transform="translate(1136 32) scale(0.92)"><circle cx="10.5" cy="10.5" r="6.5" fill="none" stroke="#6C717C" stroke-width="1.8"/><path d="m15.5 15.5 5 5" stroke="#6C717C" stroke-width="1.8" stroke-linecap="round"/></g><text x="1170" y="50" font-family="Onest, Inter, Arial, sans-serif" font-size="13" font-weight="600" fill="#6C717C" text-anchor="start" letter-spacing="0" opacity="1"><tspan x="1170" dy="0">Поиск</tspan></text><rect id="HOTSPOT__HEADER__SEARCH__TARGET" data-name="HOTSPOT__HEADER__SEARCH__TARGET" x="1120" y="22" width="102" height="44" rx="8" fill="#FFFFFF" fill-opacity="0.001"/></g><g id="HOTSPOT__HEADER__FAVORITES" data-name="HOTSPOT__HEADER__FAVORITES"><rect x="1236" y="22" width="124" height="44" rx="22" fill="#FFF0F6" /><g transform="translate(1250 32) scale(0.92)"><path d="M20.8 4.7a5.5 5.5 0 0 0-7.8 0L12 5.8l-1.1-1.1a5.5 5.5 0 1 0-7.8 7.8l1.1 1L12 21l7.8-7.5 1-1a5.5 5.5 0 0 0 0-7.8Z" fill="none" stroke="#F43F8C" stroke-width="1.8" stroke-linecap="round" stroke-linejoin="round"/></g><text x="1282" y="50" font-family="Onest, Inter, Arial, sans-serif" font-size="13" font-weight="650" fill="#F43F8C" text-anchor="start" letter-spacing="0" opacity="1"><tspan x="1282" dy="0">Избранное 0</tspan></text><rect id="HOTSPOT__HEADER__FAVORITES__TARGET" data-name="HOTSPOT__HEADER__FAVORITES__TARGET" x="1236" y="22" width="124" height="44" rx="8" fill="#FFFFFF" fill-opacity="0.001"/></g><line x1="0" y1="87" x2="1440" y2="87" stroke="#E7E9ED" stroke-width="1" /><text x="80" y="190" font-family="Onest, Inter, Arial, sans-serif" font-size="48" font-weight="730" fill="#13151A" text-anchor="start" letter-spacing="0" opacity="1"><tspan x="80" dy="0">Каталог дизайна</tspan></text><text x="80" y="236" font-family="Onest, Inter, Arial, sans-serif" font-size="17" font-weight="430" fill="#6C717C" text-anchor="start" letter-spacing="0" opacity="1"><tspan x="80" dy="0">По выбранным параметрам ничего не найдено</tspan></text><g id="HOTSPOT__CATALOG__SEARCH" data-name="HOTSPOT__CATALOG__SEARCH"><rect x="80" y="298" width="550" height="54" rx="12" fill="#FFFFFF" stroke="#E7E9ED"/><g transform="translate(100 313) scale(1)"><circle cx="10.5" cy="10.5" r="6.5" fill="none" stroke="#6C717C" stroke-width="1.8"/><path d="m15.5 15.5 5 5" stroke="#6C717C" stroke-width="1.8" stroke-linecap="round"/></g><text x="138" y="332" font-family="Onest, Inter, Arial, sans-serif" font-size="14" font-weight="450" fill="#6C717C" text-anchor="start" letter-spacing="0" opacity="1"><tspan x="138" dy="0">Поиск по названию, компании или стилю</tspan></text><rect id="HOTSPOT__CATALOG__SEARCH__TARGET" data-name="HOTSPOT__CATALOG__SEARCH__TARGET" x="80" y="298" width="550" height="54" rx="8" fill="#FFFFFF" fill-opacity="0.001"/></g><text x="680" y="332" font-family="Onest, Inter, Arial, sans-serif" font-size="14" font-weight="600" fill="#6C717C" text-anchor="start" letter-spacing="0" opacity="1"><tspan x="680" dy="0">0 проектов</tspan></text><g id="HOTSPOT__CATALOG__GRID" data-name="HOTSPOT__CATALOG__GRID"><rect x="1002" y="298" width="54" height="54" rx="12" fill="#EEF4FF" /><g transform="translate(1017 313) scale(1)"><path d="M4 4h6v6H4zM14 4h6v6h-6zM4 14h6v6H4zM14 14h6v6h-6z" fill="none" stroke="#005BFF" stroke-width="1.7"/></g><rect id="HOTSPOT__CATALOG__GRID__TARGET" data-name="HOTSPOT__CATALOG__GRID__TARGET" x="1002" y="298" width="54" height="54" rx="8" fill="#FFFFFF" fill-opacity="0.001"/></g><g id="HOTSPOT__CATALOG__LIST" data-name="HOTSPOT__CATALOG__LIST"><rect x="1068" y="298" width="54" height="54" rx="12" fill="#FFFFFF" stroke="#E7E9ED"/><g transform="translate(1083 313) scale(1)"><path d="M8 6h12M8 12h12M8 18h12" stroke="#6C717C" stroke-width="1.8" stroke-linecap="round"/><circle cx="4" cy="6" r="1.5" fill="#6C717C"/><circle cx="4" cy="12" r="1.5" fill="#6C717C"/><circle cx="4" cy="18" r="1.5" fill="#6C717C"/></g><rect id="HOTSPOT__CATALOG__LIST__TARGET" data-name="HOTSPOT__CATALOG__LIST__TARGET" x="1068" y="298" width="54" height="54" rx="8" fill="#FFFFFF" fill-opacity="0.001"/></g><g id="HOTSPOT__CATALOG__SORT" data-name="HOTSPOT__CATALOG__SORT"><rect x="1138" y="298" width="222" height="54" rx="12" fill="#FFFFFF" stroke="#E7E9ED"/><text x="1158" y="332" font-family="Onest, Inter, Arial, sans-serif" font-size="14" font-weight="600" fill="#13151A" text-anchor="start" letter-spacing="0" opacity="1"><tspan x="1158" dy="0">Сначала новые</tspan></text><text x="1337" y="332" font-family="Onest, Inter, Arial, sans-serif" font-size="18" font-weight="600" fill="#6C717C" text-anchor="start" letter-spacing="0" opacity="1"><tspan x="1337" dy="0">⌄</tspan></text><rect id="HOTSPOT__CATALOG__SORT__TARGET" data-name="HOTSPOT__CATALOG__SORT__TARGET" x="1138" y="298" width="222" height="54" rx="8" fill="#FFFFFF" fill-opacity="0.001"/></g><g id="HOTSPOT__FILTER_CHIP__АРХИТЕКТУРА" data-name="HOTSPOT__FILTER_CHIP__АРХИТЕКТУРА"><rect x="400" y="385" width="122" height="42" rx="21" fill="#005BFF" /><text x="461" y="412" font-family="Onest, Inter, Arial, sans-serif" font-size="13" font-weight="600" fill="#FFFFFF" text-anchor="middle" letter-spacing="0" opacity="1"><tspan x="461" dy="0">Архитектура</tspan></text><rect id="HOTSPOT__FILTER_CHIP__АРХИТЕКТУРА__TARGET" data-name="HOTSPOT__FILTER_CHIP__АРХИТЕКТУРА__TARGET" x="400" y="385" width="122" height="42" rx="8" fill="#FFFFFF" fill-opacity="0.001"/></g><g id="HOTSPOT__FILTER_CHIP__КУХНЯ" data-name="HOTSPOT__FILTER_CHIP__КУХНЯ"><rect x="532" y="385" width="118" height="42" rx="21" fill="#005BFF" /><text x="591" y="412" font-family="Onest, Inter, Arial, sans-serif" font-size="13" font-weight="600" fill="#FFFFFF" text-anchor="middle" letter-spacing="0" opacity="1"><tspan x="591" dy="0">Кухня</tspan></text><rect id="HOTSPOT__FILTER_CHIP__КУХНЯ__TARGET" data-name="HOTSPOT__FILTER_CHIP__КУХНЯ__TARGET" x="532" y="385" width="118" height="42" rx="8" fill="#FFFFFF" fill-opacity="0.001"/></g><g id="HOTSPOT__FILTER_CHIP__ЛОФТ" data-name="HOTSPOT__FILTER_CHIP__ЛОФТ"><rect x="660" y="385" width="118" height="42" rx="21" fill="#005BFF" /><text x="719" y="412" font-family="Onest, Inter, Arial, sans-serif" font-size="13" font-weight="600" fill="#FFFFFF" text-anchor="middle" letter-spacing="0" opacity="1"><tspan x="719" dy="0">Лофт</tspan></text><rect id="HOTSPOT__FILTER_CHIP__ЛОФТ__TARGET" data-name="HOTSPOT__FILTER_CHIP__ЛОФТ__TARGET" x="660" y="385" width="118" height="42" rx="8" fill="#FFFFFF" fill-opacity="0.001"/></g><text x="80" y="455" font-family="Onest, Inter, Arial, sans-serif" font-size="22" font-weight="680" fill="#13151A" text-anchor="start" letter-spacing="0" opacity="1"><tspan x="80" dy="0">Фильтры</tspan></text><g id="HOTSPOT__FILTERS__RESET" data-name="HOTSPOT__FILTERS__RESET"><text x="336" y="454" font-family="Onest, Inter, Arial, sans-serif" font-size="13" font-weight="650" fill="#005BFF" text-anchor="end" letter-spacing="0" opacity="1"><tspan x="336" dy="0">Сбросить</tspan></text><rect id="HOTSPOT__FILTERS__RESET__TARGET" data-name="HOTSPOT__FILTERS__RESET__TARGET" x="260" y="426" width="80" height="40" rx="8" fill="#FFFFFF" fill-opacity="0.001"/></g><text x="80" y="495" font-family="Onest, Inter, Arial, sans-serif" font-size="14" font-weight="650" fill="#13151A" text-anchor="start" letter-spacing="0" opacity="1"><tspan x="80" dy="0">Категория</tspan></text><g id="HOTSPOT__FILTER__КАТЕГОРИЯ__ИНТЕРЬЕР" data-name="HOTSPOT__FILTER__КАТЕГОРИЯ__ИНТЕРЬЕР"><rect x="82" y="508" width="16" height="16" rx="4" fill="#FFFFFF" stroke="#E7E9ED"/><text x="110" y="521" font-family="Onest, Inter, Arial, sans-serif" font-size="13" font-weight="450" fill="#13151A" text-anchor="start" letter-spacing="0" opacity="1"><tspan x="110" dy="0">Интерьер</tspan></text><rect id="HOTSPOT__FILTER__КАТЕГОРИЯ__ИНТЕРЬЕР__TARGET" data-name="HOTSPOT__FILTER__КАТЕГОРИЯ__ИНТЕРЬЕР__TARGET" x="80" y="502" width="260" height="30" rx="8" fill="#FFFFFF" fill-opacity="0.001"/></g><rect x="80" y="532" width="260" height="30" rx="7" fill="#EEF4FF" /><g id="HOTSPOT__FILTER__КАТЕГОРИЯ__АРХИТЕКТУРА" data-name="HOTSPOT__FILTER__КАТЕГОРИЯ__АРХИТЕКТУРА"><rect x="82" y="538" width="16" height="16" rx="4" fill="#005BFF" /><path d="m86 546 3 3 6-7" fill="none" stroke="#fff" stroke-width="2" stroke-linecap="round"/><text x="110" y="551" font-family="Onest, Inter, Arial, sans-serif" font-size="13" font-weight="620" fill="#005BFF" text-anchor="start" letter-spacing="0" opacity="1"><tspan x="110" dy="0">Архитектура</tspan></text><rect id="HOTSPOT__FILTER__КАТЕГОРИЯ__АРХИТЕКТУРА__TARGET" data-name="HOTSPOT__FILTER__КАТЕГОРИЯ__АРХИТЕКТУРА__TARGET" x="80" y="532" width="260" height="30" rx="8" fill="#FFFFFF" fill-opacity="0.001"/></g><g id="HOTSPOT__FILTER__КАТЕГОРИЯ__ЛАНДШАФТ" data-name="HOTSPOT__FILTER__КАТЕГОРИЯ__ЛАНДШАФТ"><rect x="82" y="568" width="16" height="16" rx="4" fill="#FFFFFF" stroke="#E7E9ED"/><text x="110" y="581" font-family="Onest, Inter, Arial, sans-serif" font-size="13" font-weight="450" fill="#13151A" text-anchor="start" letter-spacing="0" opacity="1"><tspan x="110" dy="0">Ландшафт</tspan></text><rect id="HOTSPOT__FILTER__КАТЕГОРИЯ__ЛАНДШАФТ__TARGET" data-name="HOTSPOT__FILTER__КАТЕГОРИЯ__ЛАНДШАФТ__TARGET" x="80" y="562" width="260" height="30" rx="8" fill="#FFFFFF" fill-opacity="0.001"/></g><g id="HOTSPOT__FILTER__КАТЕГОРИЯ__МЕБЕЛЬ" data-name="HOTSPOT__FILTER__КАТЕГОРИЯ__МЕБЕЛЬ"><rect x="82" y="598" width="16" height="16" rx="4" fill="#FFFFFF" stroke="#E7E9ED"/><text x="110" y="611" font-family="Onest, Inter, Arial, sans-serif" font-size="13" font-weight="450" fill="#13151A" text-anchor="start" letter-spacing="0" opacity="1"><tspan x="110" dy="0">Мебель</tspan></text><rect id="HOTSPOT__FILTER__КАТЕГОРИЯ__МЕБЕЛЬ__TARGET" data-name="HOTSPOT__FILTER__КАТЕГОРИЯ__МЕБЕЛЬ__TARGET" x="80" y="592" width="260" height="30" rx="8" fill="#FFFFFF" fill-opacity="0.001"/></g><g id="HOTSPOT__FILTER__КАТЕГОРИЯ__ОСВЕЩЕНИЕ" data-name="HOTSPOT__FILTER__КАТЕГОРИЯ__ОСВЕЩЕНИЕ"><rect x="82" y="628" width="16" height="16" rx="4" fill="#FFFFFF" stroke="#E7E9ED"/><text x="110" y="641" font-family="Onest, Inter, Arial, sans-serif" font-size="13" font-weight="450" fill="#13151A" text-anchor="start" letter-spacing="0" opacity="1"><tspan x="110" dy="0">Освещение</tspan></text><rect id="HOTSPOT__FILTER__КАТЕГОРИЯ__ОСВЕЩЕНИЕ__TARGET" data-name="HOTSPOT__FILTER__КАТЕГОРИЯ__ОСВЕЩЕНИЕ__TARGET" x="80" y="622" width="260" height="30" rx="8" fill="#FFFFFF" fill-opacity="0.001"/></g><line x1="80" y1="669" x2="340" y2="669" stroke="#E7E9ED" stroke-width="1" /><text x="80" y="699" font-family="Onest, Inter, Arial, sans-serif" font-size="14" font-weight="650" fill="#13151A" text-anchor="start" letter-spacing="0" opacity="1"><tspan x="80" dy="0">Пространство</tspan></text><g id="HOTSPOT__FILTER__ПРОСТРАНСТВО__ГОСТИНАЯ" data-name="HOTSPOT__FILTER__ПРОСТРАНСТВО__ГОСТИНАЯ"><rect x="82" y="712" width="16" height="16" rx="4" fill="#FFFFFF" stroke="#E7E9ED"/><text x="110" y="725" font-family="Onest, Inter, Arial, sans-serif" font-size="13" font-weight="450" fill="#13151A" text-anchor="start" letter-spacing="0" opacity="1"><tspan x="110" dy="0">Гостиная</tspan></text><rect id="HOTSPOT__FILTER__ПРОСТРАНСТВО__ГОСТИНАЯ__TARGET" data-name="HOTSPOT__FILTER__ПРОСТРАНСТВО__ГОСТИНАЯ__TARGET" x="80" y="706" width="260" height="30" rx="8" fill="#FFFFFF" fill-opacity="0.001"/></g><rect x="80" y="736" width="260" height="30" rx="7" fill="#EEF4FF" /><g id="HOTSPOT__FILTER__ПРОСТРАНСТВО__КУХНЯ" data-name="HOTSPOT__FILTER__ПРОСТРАНСТВО__КУХНЯ"><rect x="82" y="742" width="16" height="16" rx="4" fill="#005BFF" /><path d="m86 750 3 3 6-7" fill="none" stroke="#fff" stroke-width="2" stroke-linecap="round"/><text x="110" y="755" font-family="Onest, Inter, Arial, sans-serif" font-size="13" font-weight="620" fill="#005BFF" text-anchor="start" letter-spacing="0" opacity="1"><tspan x="110" dy="0">Кухня</tspan></text><rect id="HOTSPOT__FILTER__ПРОСТРАНСТВО__КУХНЯ__TARGET" data-name="HOTSPOT__FILTER__ПРОСТРАНСТВО__КУХНЯ__TARGET" x="80" y="736" width="260" height="30" rx="8" fill="#FFFFFF" fill-opacity="0.001"/></g><g id="HOTSPOT__FILTER__ПРОСТРАНСТВО__СПАЛЬНЯ" data-name="HOTSPOT__FILTER__ПРОСТРАНСТВО__СПАЛЬНЯ"><rect x="82" y="772" width="16" height="16" rx="4" fill="#FFFFFF" stroke="#E7E9ED"/><text x="110" y="785" font-family="Onest, Inter, Arial, sans-serif" font-size="13" font-weight="450" fill="#13151A" text-anchor="start" letter-spacing="0" opacity="1"><tspan x="110" dy="0">Спальня</tspan></text><rect id="HOTSPOT__FILTER__ПРОСТРАНСТВО__СПАЛЬНЯ__TARGET" data-name="HOTSPOT__FILTER__ПРОСТРАНСТВО__СПАЛЬНЯ__TARGET" x="80" y="766" width="260" height="30" rx="8" fill="#FFFFFF" fill-opacity="0.001"/></g><g id="HOTSPOT__FILTER__ПРОСТРАНСТВО__КАБИНЕТ" data-name="HOTSPOT__FILTER__ПРОСТРАНСТВО__КАБИНЕТ"><rect x="82" y="802" width="16" height="16" rx="4" fill="#FFFFFF" stroke="#E7E9ED"/><text x="110" y="815" font-family="Onest, Inter, Arial, sans-serif" font-size="13" font-weight="450" fill="#13151A" text-anchor="start" letter-spacing="0" opacity="1"><tspan x="110" dy="0">Кабинет</tspan></text><rect id="HOTSPOT__FILTER__ПРОСТРАНСТВО__КАБИНЕТ__TARGET" data-name="HOTSPOT__FILTER__ПРОСТРАНСТВО__КАБИНЕТ__TARGET" x="80" y="796" width="260" height="30" rx="8" fill="#FFFFFF" fill-opacity="0.001"/></g><g id="HOTSPOT__FILTER__ПРОСТРАНСТВО__ЗАГОРОДНЫЙ_ДОМ" data-name="HOTSPOT__FILTER__ПРОСТРАНСТВО__ЗАГОРОДНЫЙ_ДОМ"><rect x="82" y="832" width="16" height="16" rx="4" fill="#FFFFFF" stroke="#E7E9ED"/><text x="110" y="845" font-family="Onest, Inter, Arial, sans-serif" font-size="13" font-weight="450" fill="#13151A" text-anchor="start" letter-spacing="0" opacity="1"><tspan x="110" dy="0">Загородный дом</tspan></text><rect id="HOTSPOT__FILTER__ПРОСТРАНСТВО__ЗАГОРОДНЫЙ_ДОМ__TARGET" data-name="HOTSPOT__FILTER__ПРОСТРАНСТВО__ЗАГОРОДНЫЙ_ДОМ__TARGET" x="80" y="826" width="260" height="30" rx="8" fill="#FFFFFF" fill-opacity="0.001"/></g><g id="HOTSPOT__FILTER__ПРОСТРАНСТВО__САД" data-name="HOTSPOT__FILTER__ПРОСТРАНСТВО__САД"><rect x="82" y="862" width="16" height="16" rx="4" fill="#FFFFFF" stroke="#E7E9ED"/><text x="110" y="875" font-family="Onest, Inter, Arial, sans-serif" font-size="13" font-weight="450" fill="#13151A" text-anchor="start" letter-spacing="0" opacity="1"><tspan x="110" dy="0">Сад</tspan></text><rect id="HOTSPOT__FILTER__ПРОСТРАНСТВО__САД__TARGET" data-name="HOTSPOT__FILTER__ПРОСТРАНСТВО__САД__TARGET" x="80" y="856" width="260" height="30" rx="8" fill="#FFFFFF" fill-opacity="0.001"/></g><line x1="80" y1="903" x2="340" y2="903" stroke="#E7E9ED" stroke-width="1" /><text x="80" y="933" font-family="Onest, Inter, Arial, sans-serif" font-size="14" font-weight="650" fill="#13151A" text-anchor="start" letter-spacing="0" opacity="1"><tspan x="80" dy="0">Стиль</tspan></text><g id="HOTSPOT__FILTER__СТИЛЬ__МИНИМАЛИЗМ" data-name="HOTSPOT__FILTER__СТИЛЬ__МИНИМАЛИЗМ"><rect x="82" y="946" width="16" height="16" rx="4" fill="#FFFFFF" stroke="#E7E9ED"/><text x="110" y="959" font-family="Onest, Inter, Arial, sans-serif" font-size="13" font-weight="450" fill="#13151A" text-anchor="start" letter-spacing="0" opacity="1"><tspan x="110" dy="0">Минимализм</tspan></text><rect id="HOTSPOT__FILTER__СТИЛЬ__МИНИМАЛИЗМ__TARGET" data-name="HOTSPOT__FILTER__СТИЛЬ__МИНИМАЛИЗМ__TARGET" x="80" y="940" width="260" height="30" rx="8" fill="#FFFFFF" fill-opacity="0.001"/></g><g id="HOTSPOT__FILTER__СТИЛЬ__СОВРЕМЕННЫЙ" data-name="HOTSPOT__FILTER__СТИЛЬ__СОВРЕМЕННЫЙ"><rect x="82" y="976" width="16" height="16" rx="4" fill="#FFFFFF" stroke="#E7E9ED"/><text x="110" y="989" font-family="Onest, Inter, Arial, sans-serif" font-size="13" font-weight="450" fill="#13151A" text-anchor="start" letter-spacing="0" opacity="1"><tspan x="110" dy="0">Современный</tspan></text><rect id="HOTSPOT__FILTER__СТИЛЬ__СОВРЕМЕННЫЙ__TARGET" data-name="HOTSPOT__FILTER__СТИЛЬ__СОВРЕМЕННЫЙ__TARGET" x="80" y="970" width="260" height="30" rx="8" fill="#FFFFFF" fill-opacity="0.001"/></g><g id="HOTSPOT__FILTER__СТИЛЬ__СКАНДИНАВСКИЙ" data-name="HOTSPOT__FILTER__СТИЛЬ__СКАНДИНАВСКИЙ"><rect x="82" y="1006" width="16" height="16" rx="4" fill="#FFFFFF" stroke="#E7E9ED"/><text x="110" y="1019" font-family="Onest, Inter, Arial, sans-serif" font-size="13" font-weight="450" fill="#13151A" text-anchor="start" letter-spacing="0" opacity="1"><tspan x="110" dy="0">Скандинавский</tspan></text><rect id="HOTSPOT__FILTER__СТИЛЬ__СКАНДИНАВСКИЙ__TARGET" data-name="HOTSPOT__FILTER__СТИЛЬ__СКАНДИНАВСКИЙ__TARGET" x="80" y="1000" width="260" height="30" rx="8" fill="#FFFFFF" fill-opacity="0.001"/></g><g id="HOTSPOT__FILTER__СТИЛЬ__НЕОКЛАССИКА" data-name="HOTSPOT__FILTER__СТИЛЬ__НЕОКЛАССИКА"><rect x="82" y="1036" width="16" height="16" rx="4" fill="#FFFFFF" stroke="#E7E9ED"/><text x="110" y="1049" font-family="Onest, Inter, Arial, sans-serif" font-size="13" font-weight="450" fill="#13151A" text-anchor="start" letter-spacing="0" opacity="1"><tspan x="110" dy="0">Неоклассика</tspan></text><rect id="HOTSPOT__FILTER__СТИЛЬ__НЕОКЛАССИКА__TARGET" data-name="HOTSPOT__FILTER__СТИЛЬ__НЕОКЛАССИКА__TARGET" x="80" y="1030" width="260" height="30" rx="8" fill="#FFFFFF" fill-opacity="0.001"/></g><rect x="80" y="1060" width="260" height="30" rx="7" fill="#EEF4FF" /><g id="HOTSPOT__FILTER__СТИЛЬ__ЛОФТ" data-name="HOTSPOT__FILTER__СТИЛЬ__ЛОФТ"><rect x="82" y="1066" width="16" height="16" rx="4" fill="#005BFF" /><path d="m86 1074 3 3 6-7" fill="none" stroke="#fff" stroke-width="2" stroke-linecap="round"/><text x="110" y="1079" font-family="Onest, Inter, Arial, sans-serif" font-size="13" font-weight="620" fill="#005BFF" text-anchor="start" letter-spacing="0" opacity="1"><tspan x="110" dy="0">Лофт</tspan></text><rect id="HOTSPOT__FILTER__СТИЛЬ__ЛОФТ__TARGET" data-name="HOTSPOT__FILTER__СТИЛЬ__ЛОФТ__TARGET" x="80" y="1060" width="260" height="30" rx="8" fill="#FFFFFF" fill-opacity="0.001"/></g><g id="HOTSPOT__FILTER__СТИЛЬ__ЭКОСТИЛЬ" data-name="HOTSPOT__FILTER__СТИЛЬ__ЭКОСТИЛЬ"><rect x="82" y="1096" width="16" height="16" rx="4" fill="#FFFFFF" stroke="#E7E9ED"/><text x="110" y="1109" font-family="Onest, Inter, Arial, sans-serif" font-size="13" font-weight="450" fill="#13151A" text-anchor="start" letter-spacing="0" opacity="1"><tspan x="110" dy="0">Экостиль</tspan></text><rect id="HOTSPOT__FILTER__СТИЛЬ__ЭКОСТИЛЬ__TARGET" data-name="HOTSPOT__FILTER__СТИЛЬ__ЭКОСТИЛЬ__TARGET" x="80" y="1090" width="260" height="30" rx="8" fill="#FFFFFF" fill-opacity="0.001"/></g><line x1="80" y1="1137" x2="340" y2="1137" stroke="#E7E9ED" stroke-width="1" /><text x="80" y="1167" font-family="Onest, Inter, Arial, sans-serif" font-size="14" font-weight="650" fill="#13151A" text-anchor="start" letter-spacing="0" opacity="1"><tspan x="80" dy="0">Компания</tspan></text><g id="HOTSPOT__FILTER__КОМПАНИЯ__NORDFORM_STUDIO" data-name="HOTSPOT__FILTER__КОМПАНИЯ__NORDFORM_STUDIO"><rect x="82" y="1180" width="16" height="16" rx="4" fill="#FFFFFF" stroke="#E7E9ED"/><text x="110" y="1193" font-family="Onest, Inter, Arial, sans-serif" font-size="13" font-weight="450" fill="#13151A" text-anchor="start" letter-spacing="0" opacity="1"><tspan x="110" dy="0">Nordform Studio</tspan></text><rect id="HOTSPOT__FILTER__КОМПАНИЯ__NORDFORM_STUDIO__TARGET" data-name="HOTSPOT__FILTER__КОМПАНИЯ__NORDFORM_STUDIO__TARGET" x="80" y="1174" width="260" height="30" rx="8" fill="#FFFFFF" fill-opacity="0.001"/></g><g id="HOTSPOT__FILTER__КОМПАНИЯ__TERRA_BUREAU" data-name="HOTSPOT__FILTER__КОМПАНИЯ__TERRA_BUREAU"><rect x="82" y="1210" width="16" height="16" rx="4" fill="#FFFFFF" stroke="#E7E9ED"/><text x="110" y="1223" font-family="Onest, Inter, Arial, sans-serif" font-size="13" font-weight="450" fill="#13151A" text-anchor="start" letter-spacing="0" opacity="1"><tspan x="110" dy="0">Terra Bureau</tspan></text><rect id="HOTSPOT__FILTER__КОМПАНИЯ__TERRA_BUREAU__TARGET" data-name="HOTSPOT__FILTER__КОМПАНИЯ__TERRA_BUREAU__TARGET" x="80" y="1204" width="260" height="30" rx="8" fill="#FFFFFF" fill-opacity="0.001"/></g><g id="HOTSPOT__FILTER__КОМПАНИЯ__FORMA_LAB" data-name="HOTSPOT__FILTER__КОМПАНИЯ__FORMA_LAB"><rect x="82" y="1240" width="16" height="16" rx="4" fill="#FFFFFF" stroke="#E7E9ED"/><text x="110" y="1253" font-family="Onest, Inter, Arial, sans-serif" font-size="13" font-weight="450" fill="#13151A" text-anchor="start" letter-spacing="0" opacity="1"><tspan x="110" dy="0">Forma Lab</tspan></text><rect id="HOTSPOT__FILTER__КОМПАНИЯ__FORMA_LAB__TARGET" data-name="HOTSPOT__FILTER__КОМПАНИЯ__FORMA_LAB__TARGET" x="80" y="1234" width="260" height="30" rx="8" fill="#FFFFFF" fill-opacity="0.001"/></g><g id="HOTSPOT__FILTER__КОМПАНИЯ__LINEA_INTERIOR" data-name="HOTSPOT__FILTER__КОМПАНИЯ__LINEA_INTERIOR"><rect x="82" y="1270" width="16" height="16" rx="4" fill="#FFFFFF" stroke="#E7E9ED"/><text x="110" y="1283" font-family="Onest, Inter, Arial, sans-serif" font-size="13" font-weight="450" fill="#13151A" text-anchor="start" letter-spacing="0" opacity="1"><tspan x="110" dy="0">Linea Interior</tspan></text><rect id="HOTSPOT__FILTER__КОМПАНИЯ__LINEA_INTERIOR__TARGET" data-name="HOTSPOT__FILTER__КОМПАНИЯ__LINEA_INTERIOR__TARGET" x="80" y="1264" width="260" height="30" rx="8" fill="#FFFFFF" fill-opacity="0.001"/></g><g id="HOTSPOT__FILTER__КОМПАНИЯ__LUMEN_ATELIER" data-name="HOTSPOT__FILTER__КОМПАНИЯ__LUMEN_ATELIER"><rect x="82" y="1300" width="16" height="16" rx="4" fill="#FFFFFF" stroke="#E7E9ED"/><text x="110" y="1313" font-family="Onest, Inter, Arial, sans-serif" font-size="13" font-weight="450" fill="#13151A" text-anchor="start" letter-spacing="0" opacity="1"><tspan x="110" dy="0">Lumen Atelier</tspan></text><rect id="HOTSPOT__FILTER__КОМПАНИЯ__LUMEN_ATELIER__TARGET" data-name="HOTSPOT__FILTER__КОМПАНИЯ__LUMEN_ATELIER__TARGET" x="80" y="1294" width="260" height="30" rx="8" fill="#FFFFFF" fill-opacity="0.001"/></g><g id="HOTSPOT__FILTER__КОМПАНИЯ__ATELIER_GREEN" data-name="HOTSPOT__FILTER__КОМПАНИЯ__ATELIER_GREEN"><rect x="82" y="1330" width="16" height="16" rx="4" fill="#FFFFFF" stroke="#E7E9ED"/><text x="110" y="1343" font-family="Onest, Inter, Arial, sans-serif" font-size="13" font-weight="450" fill="#13151A" text-anchor="start" letter-spacing="0" opacity="1"><tspan x="110" dy="0">Atelier Green</tspan></text><rect id="HOTSPOT__FILTER__КОМПАНИЯ__ATELIER_GREEN__TARGET" data-name="HOTSPOT__FILTER__КОМПАНИЯ__ATELIER_GREEN__TARGET" x="80" y="1324" width="260" height="30" rx="8" fill="#FFFFFF" fill-opacity="0.001"/></g><line x1="80" y1="1371" x2="340" y2="1371" stroke="#E7E9ED" stroke-width="1" /><text x="80" y="1401" font-family="Onest, Inter, Arial, sans-serif" font-size="14" font-weight="650" fill="#13151A" text-anchor="start" letter-spacing="0" opacity="1"><tspan x="80" dy="0">Цветовая гамма</tspan></text><g id="HOTSPOT__FILTER__ЦВЕТОВАЯ_ГАММА__СВЕТЛАЯ" data-name="HOTSPOT__FILTER__ЦВЕТОВАЯ_ГАММА__СВЕТЛАЯ"><rect x="82" y="1414" width="16" height="16" rx="4" fill="#FFFFFF" stroke="#E7E9ED"/><text x="110" y="1427" font-family="Onest, Inter, Arial, sans-serif" font-size="13" font-weight="450" fill="#13151A" text-anchor="start" letter-spacing="0" opacity="1"><tspan x="110" dy="0">Светлая</tspan></text><rect id="HOTSPOT__FILTER__ЦВЕТОВАЯ_ГАММА__СВЕТЛАЯ__TARGET" data-name="HOTSPOT__FILTER__ЦВЕТОВАЯ_ГАММА__СВЕТЛАЯ__TARGET" x="80" y="1408" width="260" height="30" rx="8" fill="#FFFFFF" fill-opacity="0.001"/></g><g id="HOTSPOT__FILTER__ЦВЕТОВАЯ_ГАММА__ТЁМНАЯ" data-name="HOTSPOT__FILTER__ЦВЕТОВАЯ_ГАММА__ТЁМНАЯ"><rect x="82" y="1444" width="16" height="16" rx="4" fill="#FFFFFF" stroke="#E7E9ED"/><text x="110" y="1457" font-family="Onest, Inter, Arial, sans-serif" font-size="13" font-weight="450" fill="#13151A" text-anchor="start" letter-spacing="0" opacity="1"><tspan x="110" dy="0">Тёмная</tspan></text><rect id="HOTSPOT__FILTER__ЦВЕТОВАЯ_ГАММА__ТЁМНАЯ__TARGET" data-name="HOTSPOT__FILTER__ЦВЕТОВАЯ_ГАММА__ТЁМНАЯ__TARGET" x="80" y="1438" width="260" height="30" rx="8" fill="#FFFFFF" fill-opacity="0.001"/></g><g id="HOTSPOT__FILTER__ЦВЕТОВАЯ_ГАММА__ТЁПЛАЯ" data-name="HOTSPOT__FILTER__ЦВЕТОВАЯ_ГАММА__ТЁПЛАЯ"><rect x="82" y="1474" width="16" height="16" rx="4" fill="#FFFFFF" stroke="#E7E9ED"/><text x="110" y="1487" font-family="Onest, Inter, Arial, sans-serif" font-size="13" font-weight="450" fill="#13151A" text-anchor="start" letter-spacing="0" opacity="1"><tspan x="110" dy="0">Тёплая</tspan></text><rect id="HOTSPOT__FILTER__ЦВЕТОВАЯ_ГАММА__ТЁПЛАЯ__TARGET" data-name="HOTSPOT__FILTER__ЦВЕТОВАЯ_ГАММА__ТЁПЛАЯ__TARGET" x="80" y="1468" width="260" height="30" rx="8" fill="#FFFFFF" fill-opacity="0.001"/></g><g id="HOTSPOT__FILTER__ЦВЕТОВАЯ_ГАММА__ХОЛОДНАЯ" data-name="HOTSPOT__FILTER__ЦВЕТОВАЯ_ГАММА__ХОЛОДНАЯ"><rect x="82" y="1504" width="16" height="16" rx="4" fill="#FFFFFF" stroke="#E7E9ED"/><text x="110" y="1517" font-family="Onest, Inter, Arial, sans-serif" font-size="13" font-weight="450" fill="#13151A" text-anchor="start" letter-spacing="0" opacity="1"><tspan x="110" dy="0">Холодная</tspan></text><rect id="HOTSPOT__FILTER__ЦВЕТОВАЯ_ГАММА__ХОЛОДНАЯ__TARGET" data-name="HOTSPOT__FILTER__ЦВЕТОВАЯ_ГАММА__ХОЛОДНАЯ__TARGET" x="80" y="1498" width="260" height="30" rx="8" fill="#FFFFFF" fill-opacity="0.001"/></g><g id="HOTSPOT__FILTER__ЦВЕТОВАЯ_ГАММА__КОНТРАСТНАЯ" data-name="HOTSPOT__FILTER__ЦВЕТОВАЯ_ГАММА__КОНТРАСТНАЯ"><rect x="82" y="1534" width="16" height="16" rx="4" fill="#FFFFFF" stroke="#E7E9ED"/><text x="110" y="1547" font-family="Onest, Inter, Arial, sans-serif" font-size="13" font-weight="450" fill="#13151A" text-anchor="start" letter-spacing="0" opacity="1"><tspan x="110" dy="0">Контрастная</tspan></text><rect id="HOTSPOT__FILTER__ЦВЕТОВАЯ_ГАММА__КОНТРАСТНАЯ__TARGET" data-name="HOTSPOT__FILTER__ЦВЕТОВАЯ_ГАММА__КОНТРАСТНАЯ__TARGET" x="80" y="1528" width="260" height="30" rx="8" fill="#FFFFFF" fill-opacity="0.001"/></g><line x1="80" y1="1575" x2="340" y2="1575" stroke="#E7E9ED" stroke-width="1" /><text x="80" y="1605" font-family="Onest, Inter, Arial, sans-serif" font-size="14" font-weight="650" fill="#13151A" text-anchor="start" letter-spacing="0" opacity="1"><tspan x="80" dy="0">Площадь</tspan></text><g id="HOTSPOT__FILTER__ПЛОЩАДЬ__ДО_30_М2" data-name="HOTSPOT__FILTER__ПЛОЩАДЬ__ДО_30_М2"><rect x="82" y="1618" width="16" height="16" rx="4" fill="#FFFFFF" stroke="#E7E9ED"/><text x="110" y="1631" font-family="Onest, Inter, Arial, sans-serif" font-size="13" font-weight="450" fill="#13151A" text-anchor="start" letter-spacing="0" opacity="1"><tspan x="110" dy="0">до 30 м²</tspan></text><rect id="HOTSPOT__FILTER__ПЛОЩАДЬ__ДО_30_М2__TARGET" data-name="HOTSPOT__FILTER__ПЛОЩАДЬ__ДО_30_М2__TARGET" x="80" y="1612" width="260" height="30" rx="8" fill="#FFFFFF" fill-opacity="0.001"/></g><g id="HOTSPOT__FILTER__ПЛОЩАДЬ__30_60_М2" data-name="HOTSPOT__FILTER__ПЛОЩАДЬ__30_60_М2"><rect x="82" y="1648" width="16" height="16" rx="4" fill="#FFFFFF" stroke="#E7E9ED"/><text x="110" y="1661" font-family="Onest, Inter, Arial, sans-serif" font-size="13" font-weight="450" fill="#13151A" text-anchor="start" letter-spacing="0" opacity="1"><tspan x="110" dy="0">30–60 м²</tspan></text><rect id="HOTSPOT__FILTER__ПЛОЩАДЬ__30_60_М2__TARGET" data-name="HOTSPOT__FILTER__ПЛОЩАДЬ__30_60_М2__TARGET" x="80" y="1642" width="260" height="30" rx="8" fill="#FFFFFF" fill-opacity="0.001"/></g><g id="HOTSPOT__FILTER__ПЛОЩАДЬ__60_100_М2" data-name="HOTSPOT__FILTER__ПЛОЩАДЬ__60_100_М2"><rect x="82" y="1678" width="16" height="16" rx="4" fill="#FFFFFF" stroke="#E7E9ED"/><text x="110" y="1691" font-family="Onest, Inter, Arial, sans-serif" font-size="13" font-weight="450" fill="#13151A" text-anchor="start" letter-spacing="0" opacity="1"><tspan x="110" dy="0">60–100 м²</tspan></text><rect id="HOTSPOT__FILTER__ПЛОЩАДЬ__60_100_М2__TARGET" data-name="HOTSPOT__FILTER__ПЛОЩАДЬ__60_100_М2__TARGET" x="80" y="1672" width="260" height="30" rx="8" fill="#FFFFFF" fill-opacity="0.001"/></g><g id="HOTSPOT__FILTER__ПЛОЩАДЬ__БОЛЕЕ_100_М2" data-name="HOTSPOT__FILTER__ПЛОЩАДЬ__БОЛЕЕ_100_М2"><rect x="82" y="1708" width="16" height="16" rx="4" fill="#FFFFFF" stroke="#E7E9ED"/><text x="110" y="1721" font-family="Onest, Inter, Arial, sans-serif" font-size="13" font-weight="450" fill="#13151A" text-anchor="start" letter-spacing="0" opacity="1"><tspan x="110" dy="0">более 100 м²</tspan></text><rect id="HOTSPOT__FILTER__ПЛОЩАДЬ__БОЛЕЕ_100_М2__TARGET" data-name="HOTSPOT__FILTER__ПЛОЩАДЬ__БОЛЕЕ_100_М2__TARGET" x="80" y="1702" width="260" height="30" rx="8" fill="#FFFFFF" fill-opacity="0.001"/></g><line x1="80" y1="1749" x2="340" y2="1749" stroke="#E7E9ED" stroke-width="1" /><line x1="370" y1="420" x2="370" y2="1380" stroke="#E7E9ED" stroke-width="1" /><rect x="400" y="470" width="960" height="480" rx="22" fill="#F5F6F8" /><circle cx="880" cy="610" r="54" fill="#EEF4FF" /><g transform="translate(852 582) scale(2.33)"><circle cx="10.5" cy="10.5" r="6.5" fill="none" stroke="#005BFF" stroke-width="1.8"/><path d="m15.5 15.5 5 5" stroke="#005BFF" stroke-width="1.8" stroke-linecap="round"/></g><text x="880" y="730" font-family="Onest, Inter, Arial, sans-serif" font-size="30" font-weight="680" fill="#13151A" text-anchor="middle" letter-spacing="0" opacity="1"><tspan x="880" dy="0">Подходящих проектов пока нет</tspan></text><text x="880" y="778" font-family="Onest, Inter, Arial, sans-serif" font-size="16" font-weight="430" fill="#6C717C" text-anchor="middle" letter-spacing="0" opacity="1"><tspan x="880" dy="0">Измените параметры или сбросьте фильтры</tspan></text><g id="HOTSPOT__EMPTY__RESET_FILTERS" data-name="HOTSPOT__EMPTY__RESET_FILTERS"><rect x="786" y="825" width="188" height="52" rx="12" fill="#005BFF" /><text x="880" y="858" font-family="Onest, Inter, Arial, sans-serif" font-size="14" font-weight="650" fill="#FFFFFF" text-anchor="middle" letter-spacing="0" opacity="1"><tspan x="880" dy="0">Сбросить фильтры</tspan></text><rect id="HOTSPOT__EMPTY__RESET_FILTERS__TARGET" data-name="HOTSPOT__EMPTY__RESET_FILTERS__TARGET" x="786" y="825" width="188" height="52" rx="8" fill="#FFFFFF" fill-opacity="0.001"/></g></g>
</svg>