<?xml version="1.0" encoding="UTF-8"?>
<svg xmlns="http://www.w3.org/2000/svg" width="1440" height="4970" viewBox="0 0 1440 4970">
  <title>Ozon Design — Северная гостиная</title>
  <desc>Ozon Design — импортируемый экран для Figma Design. Корневой фрейм: FRAME__DESKTOP__PROJECT__NORDIC_LIVING.</desc>
  <defs>
    <linearGradient id="heroShade" x1="0" y1="0" x2="1" y2="0"><stop offset="0" stop-color="#101318" stop-opacity=".58"/><stop offset=".62" stop-color="#101318" stop-opacity=".05"/><stop offset="1" stop-color="#101318" stop-opacity=".12"/></linearGradient>
  </defs>
  <g id="FRAME__DESKTOP__PROJECT__NORDIC_LIVING" data-name="FRAME__DESKTOP__PROJECT__NORDIC_LIVING"><rect x="0" y="0" width="1440" height="4970" rx="0" fill="#FFFFFF" /><rect x="0" y="0" width="1440" height="88" rx="0" fill="#FFFFFF" /><text x="80" y="54" font-family="Onest, Inter, Arial, sans-serif" font-size="22" font-weight="700" fill="#13151A" text-anchor="start" letter-spacing="0" opacity="1"><tspan x="80" dy="0">Ozon Design</tspan></text><g id="HOTSPOT__HEADER__CATALOG" data-name="HOTSPOT__HEADER__CATALOG"><text x="535.5" y="52" font-family="Onest, Inter, Arial, sans-serif" font-size="14" font-weight="650" fill="#13151A" text-anchor="middle" letter-spacing="0" opacity="1"><tspan x="535.5" dy="0">Каталог</tspan></text><rect id="HOTSPOT__HEADER__CATALOG__TARGET" data-name="HOTSPOT__HEADER__CATALOG__TARGET" x="490" y="22" width="91" height="44" rx="8" fill="#FFFFFF" fill-opacity="0.001"/></g><g id="HOTSPOT__HEADER__COMPANY" data-name="HOTSPOT__HEADER__COMPANY"><text x="649" y="52" font-family="Onest, Inter, Arial, sans-serif" font-size="14" font-weight="650" fill="#13151A" text-anchor="middle" letter-spacing="0" opacity="1"><tspan x="649" dy="0">Компании</tspan></text><rect id="HOTSPOT__HEADER__COMPANY__TARGET" data-name="HOTSPOT__HEADER__COMPANY__TARGET" x="599" y="22" width="100" height="44" rx="8" fill="#FFFFFF" fill-opacity="0.001"/></g><g id="HOTSPOT__HEADER__COLLECTION" data-name="HOTSPOT__HEADER__COLLECTION"><text x="767" y="52" font-family="Onest, Inter, Arial, sans-serif" font-size="14" font-weight="650" fill="#13151A" text-anchor="middle" letter-spacing="0" opacity="1"><tspan x="767" dy="0">Подборки</tspan></text><rect id="HOTSPOT__HEADER__COLLECTION__TARGET" data-name="HOTSPOT__HEADER__COLLECTION__TARGET" x="717" y="22" width="100" height="44" rx="8" fill="#FFFFFF" fill-opacity="0.001"/></g><g id="HOTSPOT__HEADER__ABOUT" data-name="HOTSPOT__HEADER__ABOUT"><text x="889.5" y="52" font-family="Onest, Inter, Arial, sans-serif" font-size="14" font-weight="650" fill="#13151A" text-anchor="middle" letter-spacing="0" opacity="1"><tspan x="889.5" dy="0">О проекте</tspan></text><rect id="HOTSPOT__HEADER__ABOUT__TARGET" data-name="HOTSPOT__HEADER__ABOUT__TARGET" x="835" y="22" width="109" height="44" rx="8" fill="#FFFFFF" fill-opacity="0.001"/></g><g id="HOTSPOT__HEADER__SEARCH" data-name="HOTSPOT__HEADER__SEARCH"><rect x="1120" y="22" width="102" height="44" rx="22" fill="#F5F6F8" /><g transform="translate(1136 32) scale(0.92)"><circle cx="10.5" cy="10.5" r="6.5" fill="none" stroke="#6C717C" stroke-width="1.8"/><path d="m15.5 15.5 5 5" stroke="#6C717C" stroke-width="1.8" stroke-linecap="round"/></g><text x="1170" y="50" font-family="Onest, Inter, Arial, sans-serif" font-size="13" font-weight="600" fill="#6C717C" text-anchor="start" letter-spacing="0" opacity="1"><tspan x="1170" dy="0">Поиск</tspan></text><rect id="HOTSPOT__HEADER__SEARCH__TARGET" data-name="HOTSPOT__HEADER__SEARCH__TARGET" x="1120" y="22" width="102" height="44" rx="8" fill="#FFFFFF" fill-opacity="0.001"/></g><g id="HOTSPOT__HEADER__FAVORITES" data-name="HOTSPOT__HEADER__FAVORITES"><rect x="1236" y="22" width="124" height="44" rx="22" fill="#FFF0F6" /><g transform="translate(1250 32) scale(0.92)"><path d="M20.8 4.7a5.5 5.5 0 0 0-7.8 0L12 5.8l-1.1-1.1a5.5 5.5 0 1 0-7.8 7.8l1.1 1L12 21l7.8-7.5 1-1a5.5 5.5 0 0 0 0-7.8Z" fill="none" stroke="#F43F8C" stroke-width="1.8" stroke-linecap="round" stroke-linejoin="round"/></g><text x="1282" y="50" font-family="Onest, Inter, Arial, sans-serif" font-size="13" font-weight="650" fill="#F43F8C" text-anchor="start" letter-spacing="0" opacity="1"><tspan x="1282" dy="0">Избранное 0</tspan></text><rect id="HOTSPOT__HEADER__FAVORITES__TARGET" data-name="HOTSPOT__HEADER__FAVORITES__TARGET" x="1236" y="22" width="124" height="44" rx="8" fill="#FFFFFF" fill-opacity="0.001"/></g><line x1="0" y1="87" x2="1440" y2="87" stroke="#E7E9ED" stroke-width="1" /><text x="80" y="143" font-family="Onest, Inter, Arial, sans-serif" font-size="13" font-weight="550" fill="#6C717C" text-anchor="start" letter-spacing="0" opacity="1"><tspan x="80" dy="0">Каталог / Интерьер / Северная гостиная</tspan></text><g id="ART__PROJECT_HERO" data-name="ART__PROJECT_HERO" transform="translate(80 180)">
    <defs><clipPath id="ART_CLIP_37"><rect width="1200" height="760" rx="30"/></clipPath></defs>
    <g transform="scale(0.65 0.78)" clip-path="url(#ART_CLIP_37)"><rect x="0" y="0" width="1200" height="760" rx="0" fill="#E9E1D5" /><rect x="0" y="540" width="1200" height="220" rx="0" fill="#C69479" opacity=".64"/>
    <rect x="760" y="82" width="310" height="340" rx="6" fill="#CFE0E2" />
    <line x1="915" y1="82" x2="915" y2="422" stroke="#F7F5EF" stroke-width="8" /><line x1="760" y1="250" x2="1070" y2="250" stroke="#F7F5EF" stroke-width="8" />
    <ellipse cx="570" cy="626" rx="360" ry="72" fill="#EFE9DF" opacity=".86"/>
    <rect x="365" y="390" width="405" height="168" rx="28" fill="#F5F2EC" /><rect x="405" y="312" width="326" height="148" rx="26" fill="#EBE8E1" />
    <rect x="436" y="370" width="108" height="92" rx="16" fill="#94AAA5" /><rect x="620" y="370" width="105" height="92" rx="16" fill="#C69479" />
    <rect x="792" y="526" width="174" height="38" rx="14" fill="#2D3334" /><line x1="879" y1="558" x2="879" y2="650" stroke="#2D3334" stroke-width="16" stroke-linecap="round"/>
    <line x1="1010" y1="275" x2="1010" y2="565" stroke="#2D3334" stroke-width="12" stroke-linecap="round"/>
    <path d="M948 285c17-76 104-76 125 0Z" fill="#2D3334"/>
    <circle cx="206" cy="250" r="78" fill="#94AAA5" opacity=".20"/>
    <path d="M207 190v235M150 268l57-47 61 46M164 327l43-41 52 42" stroke="#2D3334" stroke-width="8" stroke-linecap="round" opacity=".58" fill="none"/>
    <rect x="168" y="423" width="84" height="128" rx="18" fill="#2D3334" opacity=".72"/></g>
  </g><text x="920" y="238" font-family="Onest, Inter, Arial, sans-serif" font-size="13" font-weight="650" fill="#005BFF" text-anchor="start" letter-spacing="0" opacity="1"><tspan x="920" dy="0">Интерьер · Скандинавский минимализм</tspan></text><text x="920" y="312" font-family="Onest, Inter, Arial, sans-serif" font-size="58" font-weight="760" fill="#13151A" text-anchor="start" letter-spacing="0" opacity="1"><tspan x="920" dy="0">Северная</tspan><tspan x="920" dy="64">гостиная</tspan></text><text x="920" y="470" font-family="Onest, Inter, Arial, sans-serif" font-size="18" font-weight="650" fill="#13151A" text-anchor="start" letter-spacing="0" opacity="1"><tspan x="920" dy="0">Nordform Studio</tspan></text><text x="920" y="518" font-family="Onest, Inter, Arial, sans-serif" font-size="18" font-weight="650" fill="#6C717C" text-anchor="start" letter-spacing="0" opacity="1"><tspan x="920" dy="0">42 м²</tspan></text><g id="HOTSPOT__PROJECT__ADD_FAVORITE" data-name="HOTSPOT__PROJECT__ADD_FAVORITE"><rect x="920" y="590" width="260" height="54" rx="12" fill="#FFF0F6" /><g transform="translate(942 605) scale(1)"><path d="M20.8 4.7a5.5 5.5 0 0 0-7.8 0L12 5.8l-1.1-1.1a5.5 5.5 0 1 0-7.8 7.8l1.1 1L12 21l7.8-7.5 1-1a5.5 5.5 0 0 0 0-7.8Z" fill="none" stroke="#F43F8C" stroke-width="1.8" stroke-linecap="round" stroke-linejoin="round"/></g><text x="982" y="624" font-family="Onest, Inter, Arial, sans-serif" font-size="14" font-weight="650" fill="#F43F8C" text-anchor="start" letter-spacing="0" opacity="1"><tspan x="982" dy="0">Добавить в избранное</tspan></text><rect id="HOTSPOT__PROJECT__ADD_FAVORITE__TARGET" data-name="HOTSPOT__PROJECT__ADD_FAVORITE__TARGET" x="920" y="590" width="260" height="54" rx="8" fill="#FFFFFF" fill-opacity="0.001"/></g><text x="80" y="900" font-family="Onest, Inter, Arial, sans-serif" font-size="34" font-weight="700" fill="#13151A" text-anchor="start" letter-spacing="0" opacity="1"><tspan x="80" dy="0">О проекте</tspan></text><text x="80" y="972" font-family="Onest, Inter, Arial, sans-serif" font-size="20" font-weight="430" fill="#363A43" text-anchor="start" letter-spacing="0" opacity="1"><tspan x="80" dy="0">Светлая гостиная для городской квартиры, построенная на сочетании натурального дерева,</tspan><tspan x="80" dy="32">мягкого текстиля и спокойных нейтральных оттенков. Пространство разделено на зону отдыха,</tspan><tspan x="80" dy="32">чтения и общения без визуальной перегрузки.</tspan></text><rect x="80" y="1135" width="1280" height="1" rx="0" fill="#E7E9ED" /><text x="80" y="1210" font-family="Onest, Inter, Arial, sans-serif" font-size="24" font-weight="680" fill="#13151A" text-anchor="start" letter-spacing="0" opacity="1"><tspan x="80" dy="0">Задача</tspan></text><text x="80" y="1268" font-family="Onest, Inter, Arial, sans-serif" font-size="16" font-weight="430" fill="#6C717C" text-anchor="start" letter-spacing="0" opacity="1"><tspan x="80" dy="0">Объединить гостиную и столовую, сохранить ощущение</tspan><tspan x="80" dy="26">воздуха и предусмотреть разные сценарии для семьи из</tspan><tspan x="80" dy="26">трёх человек.</tspan></text><text x="720" y="1210" font-family="Onest, Inter, Arial, sans-serif" font-size="24" font-weight="680" fill="#13151A" text-anchor="start" letter-spacing="0" opacity="1"><tspan x="720" dy="0">Концепция</tspan></text><text x="720" y="1268" font-family="Onest, Inter, Arial, sans-serif" font-size="16" font-weight="430" fill="#6C717C" text-anchor="start" letter-spacing="0" opacity="1"><tspan x="720" dy="0">Спокойная северная палитра, честные материалы и мягкие</tspan><tspan x="720" dy="26">округлые формы. Центром композиции стал модульный диван,</tspan><tspan x="720" dy="26">направленный к окну.</tspan></text><rect x="80" y="1435" width="1280" height="370" rx="22" fill="#F5F6F8" /><text x="120" y="1500" font-family="Onest, Inter, Arial, sans-serif" font-size="30" font-weight="690" fill="#13151A" text-anchor="start" letter-spacing="0" opacity="1"><tspan x="120" dy="0">Основные решения</tspan></text><circle cx="141" cy="1573" r="21" fill="#EEF4FF" /><text x="141" y="1579" font-family="Onest, Inter, Arial, sans-serif" font-size="11" font-weight="700" fill="#005BFF" text-anchor="middle" letter-spacing="0" opacity="1"><tspan x="141" dy="0">01</tspan></text><text x="180" y="1580" font-family="Onest, Inter, Arial, sans-serif" font-size="16" font-weight="550" fill="#13151A" text-anchor="start" letter-spacing="0" opacity="1"><tspan x="180" dy="0">Зонирование светом и ковром вместо</tspan><tspan x="180" dy="24">перегородок</tspan></text><circle cx="741" cy="1573" r="21" fill="#FFF0F6" /><text x="741" y="1579" font-family="Onest, Inter, Arial, sans-serif" font-size="11" font-weight="700" fill="#F43F8C" text-anchor="middle" letter-spacing="0" opacity="1"><tspan x="741" dy="0">02</tspan></text><text x="780" y="1580" font-family="Onest, Inter, Arial, sans-serif" font-size="16" font-weight="550" fill="#13151A" text-anchor="start" letter-spacing="0" opacity="1"><tspan x="780" dy="0">Встроенное хранение в цвет стен</tspan></text><circle cx="141" cy="1673" r="21" fill="#EEF4FF" /><text x="141" y="1679" font-family="Onest, Inter, Arial, sans-serif" font-size="11" font-weight="700" fill="#005BFF" text-anchor="middle" letter-spacing="0" opacity="1"><tspan x="141" dy="0">03</tspan></text><text x="180" y="1680" font-family="Onest, Inter, Arial, sans-serif" font-size="16" font-weight="550" fill="#13151A" text-anchor="start" letter-spacing="0" opacity="1"><tspan x="180" dy="0">Тёплая подсветка для вечернего сценария</tspan></text><circle cx="741" cy="1673" r="21" fill="#FFF0F6" /><text x="741" y="1679" font-family="Onest, Inter, Arial, sans-serif" font-size="11" font-weight="700" fill="#F43F8C" text-anchor="middle" letter-spacing="0" opacity="1"><tspan x="741" dy="0">04</tspan></text><text x="780" y="1680" font-family="Onest, Inter, Arial, sans-serif" font-size="16" font-weight="550" fill="#13151A" text-anchor="start" letter-spacing="0" opacity="1"><tspan x="780" dy="0">Мобильные столики для разных сценариев</tspan><tspan x="780" dy="24">общения</tspan></text><text x="80" y="1900" font-family="Onest, Inter, Arial, sans-serif" font-size="30" font-weight="690" fill="#13151A" text-anchor="start" letter-spacing="0" opacity="1"><tspan x="80" dy="0">Материалы</tspan></text><g id="MATERIAL__1" data-name="MATERIAL__1"><rect x="80" y="1940" width="165" height="42" rx="21" fill="#FFFFFF" stroke="#E7E9ED"/><text x="162.5" y="1967" font-family="Onest, Inter, Arial, sans-serif" font-size="13" font-weight="600" fill="#13151A" text-anchor="middle" letter-spacing="0" opacity="1"><tspan x="162.5" dy="0">Натуральный дуб</tspan></text><rect id="MATERIAL__1__TARGET" data-name="MATERIAL__1__TARGET" x="80" y="1940" width="165" height="42" rx="8" fill="#FFFFFF" fill-opacity="0.001"/></g><g id="MATERIAL__2" data-name="MATERIAL__2"><rect x="265" y="1940" width="165" height="42" rx="21" fill="#FFFFFF" stroke="#E7E9ED"/><text x="347.5" y="1967" font-family="Onest, Inter, Arial, sans-serif" font-size="13" font-weight="600" fill="#13151A" text-anchor="middle" letter-spacing="0" opacity="1"><tspan x="347.5" dy="0">Матовая краска</tspan></text><rect id="MATERIAL__2__TARGET" data-name="MATERIAL__2__TARGET" x="265" y="1940" width="165" height="42" rx="8" fill="#FFFFFF" fill-opacity="0.001"/></g><g id="MATERIAL__3" data-name="MATERIAL__3"><rect x="450" y="1940" width="165" height="42" rx="21" fill="#FFFFFF" stroke="#E7E9ED"/><text x="532.5" y="1967" font-family="Onest, Inter, Arial, sans-serif" font-size="13" font-weight="600" fill="#13151A" text-anchor="middle" letter-spacing="0" opacity="1"><tspan x="532.5" dy="0">Лён</tspan></text><rect id="MATERIAL__3__TARGET" data-name="MATERIAL__3__TARGET" x="450" y="1940" width="165" height="42" rx="8" fill="#FFFFFF" fill-opacity="0.001"/></g><g id="MATERIAL__4" data-name="MATERIAL__4"><rect x="635" y="1940" width="165" height="42" rx="21" fill="#FFFFFF" stroke="#E7E9ED"/><text x="717.5" y="1967" font-family="Onest, Inter, Arial, sans-serif" font-size="13" font-weight="600" fill="#13151A" text-anchor="middle" letter-spacing="0" opacity="1"><tspan x="717.5" dy="0">Шерсть</tspan></text><rect id="MATERIAL__4__TARGET" data-name="MATERIAL__4__TARGET" x="635" y="1940" width="165" height="42" rx="8" fill="#FFFFFF" fill-opacity="0.001"/></g><g id="MATERIAL__5" data-name="MATERIAL__5"><rect x="820" y="1940" width="165" height="42" rx="21" fill="#FFFFFF" stroke="#E7E9ED"/><text x="902.5" y="1967" font-family="Onest, Inter, Arial, sans-serif" font-size="13" font-weight="600" fill="#13151A" text-anchor="middle" letter-spacing="0" opacity="1"><tspan x="902.5" dy="0">Керамика</tspan></text><rect id="MATERIAL__5__TARGET" data-name="MATERIAL__5__TARGET" x="820" y="1940" width="165" height="42" rx="8" fill="#FFFFFF" fill-opacity="0.001"/></g><text x="80" y="2055" font-family="Onest, Inter, Arial, sans-serif" font-size="30" font-weight="690" fill="#13151A" text-anchor="start" letter-spacing="0" opacity="1"><tspan x="80" dy="0">Цветовая палитра</tspan></text><rect x="80" y="2100" width="92" height="92" rx="16" fill="#F3EFE8" /><text x="126" y="2220" font-family="Onest, Inter, Arial, sans-serif" font-size="11" font-weight="600" fill="#6C717C" text-anchor="middle" letter-spacing="0" opacity="1"><tspan x="126" dy="0">#F3EFE8</tspan></text><rect x="192" y="2100" width="92" height="92" rx="16" fill="#D6CBBE" /><text x="238" y="2220" font-family="Onest, Inter, Arial, sans-serif" font-size="11" font-weight="600" fill="#6C717C" text-anchor="middle" letter-spacing="0" opacity="1"><tspan x="238" dy="0">#D6CBBE</tspan></text><rect x="304" y="2100" width="92" height="92" rx="16" fill="#91A49F" /><text x="350" y="2220" font-family="Onest, Inter, Arial, sans-serif" font-size="11" font-weight="600" fill="#6C717C" text-anchor="middle" letter-spacing="0" opacity="1"><tspan x="350" dy="0">#91A49F</tspan></text><rect x="416" y="2100" width="92" height="92" rx="16" fill="#7B6556" /><text x="462" y="2220" font-family="Onest, Inter, Arial, sans-serif" font-size="11" font-weight="600" fill="#6C717C" text-anchor="middle" letter-spacing="0" opacity="1"><tspan x="462" dy="0">#7B6556</tspan></text><rect x="528" y="2100" width="92" height="92" rx="16" fill="#24282B" /><text x="574" y="2220" font-family="Onest, Inter, Arial, sans-serif" font-size="11" font-weight="600" fill="#6C717C" text-anchor="middle" letter-spacing="0" opacity="1"><tspan x="574" dy="0">#24282B</tspan></text><text x="80" y="2350" font-family="Onest, Inter, Arial, sans-serif" font-size="40" font-weight="700" fill="#13151A" text-anchor="start" letter-spacing="0" opacity="1"><tspan x="80" dy="0">Галерея проекта</tspan></text><g id="HOTSPOT__GALLERY__1" data-name="HOTSPOT__GALLERY__1"><g id="ART__GALLERY_1" data-name="ART__GALLERY_1" transform="translate(80 2420)">
    <defs><clipPath id="ART_CLIP_38"><rect width="1200" height="760" rx="30"/></clipPath></defs>
    <g transform="scale(0.34 0.36)" clip-path="url(#ART_CLIP_38)"><rect x="0" y="0" width="1200" height="760" rx="0" fill="#E9E1D5" /><rect x="0" y="540" width="1200" height="220" rx="0" fill="#C69479" opacity=".64"/>
    <rect x="760" y="82" width="310" height="340" rx="6" fill="#CFE0E2" />
    <line x1="915" y1="82" x2="915" y2="422" stroke="#F7F5EF" stroke-width="8" /><line x1="760" y1="250" x2="1070" y2="250" stroke="#F7F5EF" stroke-width="8" />
    <ellipse cx="570" cy="626" rx="360" ry="72" fill="#EFE9DF" opacity=".86"/>
    <rect x="365" y="390" width="405" height="168" rx="28" fill="#F5F2EC" /><rect x="405" y="312" width="326" height="148" rx="26" fill="#EBE8E1" />
    <rect x="436" y="370" width="108" height="92" rx="16" fill="#94AAA5" /><rect x="620" y="370" width="105" height="92" rx="16" fill="#C69479" />
    <rect x="792" y="526" width="174" height="38" rx="14" fill="#2D3334" /><line x1="879" y1="558" x2="879" y2="650" stroke="#2D3334" stroke-width="16" stroke-linecap="round"/>
    <line x1="1010" y1="275" x2="1010" y2="565" stroke="#2D3334" stroke-width="12" stroke-linecap="round"/>
    <path d="M948 285c17-76 104-76 125 0Z" fill="#2D3334"/>
    <circle cx="206" cy="250" r="78" fill="#94AAA5" opacity=".20"/>
    <path d="M207 190v235M150 268l57-47 61 46M164 327l43-41 52 42" stroke="#2D3334" stroke-width="8" stroke-linecap="round" opacity=".58" fill="none"/>
    <rect x="168" y="423" width="84" height="128" rx="18" fill="#2D3334" opacity=".72"/></g>
  </g><rect id="HOTSPOT__GALLERY__1__TARGET" data-name="HOTSPOT__GALLERY__1__TARGET" x="80" y="2420" width="406" height="270" rx="8" fill="#FFFFFF" fill-opacity="0.001"/></g><g id="HOTSPOT__GALLERY__2" data-name="HOTSPOT__GALLERY__2"><g id="ART__GALLERY_2" data-name="ART__GALLERY_2" transform="translate(506 2420)">
    <defs><clipPath id="ART_CLIP_39"><rect width="1200" height="760" rx="30"/></clipPath></defs>
    <g transform="scale(0.34 0.36)" clip-path="url(#ART_CLIP_39)"><rect x="0" y="0" width="1200" height="760" rx="0" fill="#DFE8E8" /><rect x="0" y="540" width="1200" height="220" rx="0" fill="#D1B191" opacity=".64"/>
    <rect x="760" y="82" width="310" height="340" rx="6" fill="#CFE0E2" />
    <line x1="915" y1="82" x2="915" y2="422" stroke="#F7F5EF" stroke-width="8" /><line x1="760" y1="250" x2="1070" y2="250" stroke="#F7F5EF" stroke-width="8" />
    <ellipse cx="570" cy="626" rx="360" ry="72" fill="#EFE9DF" opacity=".86"/>
    <rect x="365" y="390" width="405" height="168" rx="28" fill="#F5F2EC" /><rect x="405" y="312" width="326" height="148" rx="26" fill="#EBE8E1" />
    <rect x="436" y="370" width="108" height="92" rx="16" fill="#8FA8A5" /><rect x="620" y="370" width="105" height="92" rx="16" fill="#D1B191" />
    <rect x="792" y="526" width="174" height="38" rx="14" fill="#34393A" /><line x1="879" y1="558" x2="879" y2="650" stroke="#34393A" stroke-width="16" stroke-linecap="round"/>
    <line x1="1010" y1="275" x2="1010" y2="565" stroke="#34393A" stroke-width="12" stroke-linecap="round"/>
    <path d="M948 285c17-76 104-76 125 0Z" fill="#34393A"/>
    <circle cx="206" cy="250" r="78" fill="#8FA8A5" opacity=".20"/>
    <path d="M207 190v235M150 268l57-47 61 46M164 327l43-41 52 42" stroke="#34393A" stroke-width="8" stroke-linecap="round" opacity=".58" fill="none"/>
    <rect x="168" y="423" width="84" height="128" rx="18" fill="#34393A" opacity=".72"/></g>
  </g><rect id="HOTSPOT__GALLERY__2__TARGET" data-name="HOTSPOT__GALLERY__2__TARGET" x="506" y="2420" width="406" height="270" rx="8" fill="#FFFFFF" fill-opacity="0.001"/></g><g id="HOTSPOT__GALLERY__3" data-name="HOTSPOT__GALLERY__3"><g id="ART__GALLERY_3" data-name="ART__GALLERY_3" transform="translate(932 2420)">
    <defs><clipPath id="ART_CLIP_40"><rect width="1200" height="760" rx="30"/></clipPath></defs>
    <g transform="scale(0.34 0.36)" clip-path="url(#ART_CLIP_40)"><rect x="0" y="0" width="1200" height="760" rx="0" fill="#EFE5DA" /><rect x="0" y="540" width="1200" height="220" rx="0" fill="#839994" opacity=".64"/>
    <rect x="760" y="82" width="310" height="340" rx="6" fill="#CFE0E2" />
    <line x1="915" y1="82" x2="915" y2="422" stroke="#F7F5EF" stroke-width="8" /><line x1="760" y1="250" x2="1070" y2="250" stroke="#F7F5EF" stroke-width="8" />
    <ellipse cx="570" cy="626" rx="360" ry="72" fill="#EFE9DF" opacity=".86"/>
    <rect x="365" y="390" width="405" height="168" rx="28" fill="#F5F2EC" /><rect x="405" y="312" width="326" height="148" rx="26" fill="#EBE8E1" />
    <rect x="436" y="370" width="108" height="92" rx="16" fill="#B89379" /><rect x="620" y="370" width="105" height="92" rx="16" fill="#839994" />
    <rect x="792" y="526" width="174" height="38" rx="14" fill="#282D2E" /><line x1="879" y1="558" x2="879" y2="650" stroke="#282D2E" stroke-width="16" stroke-linecap="round"/>
    <line x1="1010" y1="275" x2="1010" y2="565" stroke="#282D2E" stroke-width="12" stroke-linecap="round"/>
    <path d="M948 285c17-76 104-76 125 0Z" fill="#282D2E"/>
    <circle cx="206" cy="250" r="78" fill="#B89379" opacity=".20"/>
    <path d="M207 190v235M150 268l57-47 61 46M164 327l43-41 52 42" stroke="#282D2E" stroke-width="8" stroke-linecap="round" opacity=".58" fill="none"/>
    <rect x="168" y="423" width="84" height="128" rx="18" fill="#282D2E" opacity=".72"/></g>
  </g><rect id="HOTSPOT__GALLERY__3__TARGET" data-name="HOTSPOT__GALLERY__3__TARGET" x="932" y="2420" width="406" height="270" rx="8" fill="#FFFFFF" fill-opacity="0.001"/></g><g id="HOTSPOT__GALLERY__4" data-name="HOTSPOT__GALLERY__4"><g id="ART__GALLERY_4" data-name="ART__GALLERY_4" transform="translate(80 2720)">
    <defs><clipPath id="ART_CLIP_41"><rect width="1200" height="760" rx="30"/></clipPath></defs>
    <g transform="scale(0.34 0.36)" clip-path="url(#ART_CLIP_41)"><rect x="0" y="0" width="1200" height="760" rx="0" fill="#DEDAD1" /><rect x="0" y="540" width="1200" height="220" rx="0" fill="#B78267" opacity=".64"/>
    <rect x="760" y="82" width="310" height="340" rx="6" fill="#CFE0E2" />
    <line x1="915" y1="82" x2="915" y2="422" stroke="#F7F5EF" stroke-width="8" /><line x1="760" y1="250" x2="1070" y2="250" stroke="#F7F5EF" stroke-width="8" />
    <ellipse cx="570" cy="626" rx="360" ry="72" fill="#EFE9DF" opacity=".86"/>
    <rect x="365" y="390" width="405" height="168" rx="28" fill="#F5F2EC" /><rect x="405" y="312" width="326" height="148" rx="26" fill="#EBE8E1" />
    <rect x="436" y="370" width="108" height="92" rx="16" fill="#76918A" /><rect x="620" y="370" width="105" height="92" rx="16" fill="#B78267" />
    <rect x="792" y="526" width="174" height="38" rx="14" fill="#222829" /><line x1="879" y1="558" x2="879" y2="650" stroke="#222829" stroke-width="16" stroke-linecap="round"/>
    <line x1="1010" y1="275" x2="1010" y2="565" stroke="#222829" stroke-width="12" stroke-linecap="round"/>
    <path d="M948 285c17-76 104-76 125 0Z" fill="#222829"/>
    <circle cx="206" cy="250" r="78" fill="#76918A" opacity=".20"/>
    <path d="M207 190v235M150 268l57-47 61 46M164 327l43-41 52 42" stroke="#222829" stroke-width="8" stroke-linecap="round" opacity=".58" fill="none"/>
    <rect x="168" y="423" width="84" height="128" rx="18" fill="#222829" opacity=".72"/></g>
  </g><rect id="HOTSPOT__GALLERY__4__TARGET" data-name="HOTSPOT__GALLERY__4__TARGET" x="80" y="2720" width="406" height="270" rx="8" fill="#FFFFFF" fill-opacity="0.001"/></g><g id="HOTSPOT__GALLERY__5" data-name="HOTSPOT__GALLERY__5"><g id="ART__GALLERY_5" data-name="ART__GALLERY_5" transform="translate(506 2720)">
    <defs><clipPath id="ART_CLIP_42"><rect width="1200" height="760" rx="30"/></clipPath></defs>
    <g transform="scale(0.34 0.36)" clip-path="url(#ART_CLIP_42)"><rect x="0" y="0" width="1200" height="760" rx="0" fill="#E8DED1" /><rect x="0" y="540" width="1200" height="220" rx="0" fill="#C9A17E" opacity=".64"/>
    <rect x="760" y="82" width="310" height="340" rx="6" fill="#CFE0E2" />
    <line x1="915" y1="82" x2="915" y2="422" stroke="#F7F5EF" stroke-width="8" /><line x1="760" y1="250" x2="1070" y2="250" stroke="#F7F5EF" stroke-width="8" />
    <ellipse cx="570" cy="626" rx="360" ry="72" fill="#EFE9DF" opacity=".86"/>
    <rect x="365" y="390" width="405" height="168" rx="28" fill="#F5F2EC" /><rect x="405" y="312" width="326" height="148" rx="26" fill="#EBE8E1" />
    <rect x="436" y="370" width="108" height="92" rx="16" fill="#A3B4A7" /><rect x="620" y="370" width="105" height="92" rx="16" fill="#C9A17E" />
    <rect x="792" y="526" width="174" height="38" rx="14" fill="#37302C" /><line x1="879" y1="558" x2="879" y2="650" stroke="#37302C" stroke-width="16" stroke-linecap="round"/>
    <line x1="1010" y1="275" x2="1010" y2="565" stroke="#37302C" stroke-width="12" stroke-linecap="round"/>
    <path d="M948 285c17-76 104-76 125 0Z" fill="#37302C"/>
    <circle cx="206" cy="250" r="78" fill="#A3B4A7" opacity=".20"/>
    <path d="M207 190v235M150 268l57-47 61 46M164 327l43-41 52 42" stroke="#37302C" stroke-width="8" stroke-linecap="round" opacity=".58" fill="none"/>
    <rect x="168" y="423" width="84" height="128" rx="18" fill="#37302C" opacity=".72"/></g>
  </g><rect id="HOTSPOT__GALLERY__5__TARGET" data-name="HOTSPOT__GALLERY__5__TARGET" x="506" y="2720" width="406" height="270" rx="8" fill="#FFFFFF" fill-opacity="0.001"/></g><g id="HOTSPOT__GALLERY__6" data-name="HOTSPOT__GALLERY__6"><g id="ART__GALLERY_6" data-name="ART__GALLERY_6" transform="translate(932 2720)">
    <defs><clipPath id="ART_CLIP_43"><rect width="1200" height="760" rx="30"/></clipPath></defs>
    <g transform="scale(0.34 0.36)" clip-path="url(#ART_CLIP_43)"><rect x="0" y="0" width="1200" height="760" rx="0" fill="#747D80" /><rect x="0" y="540" width="1200" height="220" rx="0" fill="#C18A65" opacity=".64"/>
    <rect x="760" y="82" width="310" height="340" rx="6" fill="#CFE0E2" />
    <line x1="915" y1="82" x2="915" y2="422" stroke="#F7F5EF" stroke-width="8" /><line x1="760" y1="250" x2="1070" y2="250" stroke="#F7F5EF" stroke-width="8" />
    <ellipse cx="570" cy="626" rx="360" ry="72" fill="#EFE9DF" opacity=".86"/>
    <rect x="365" y="390" width="405" height="168" rx="28" fill="#F5F2EC" /><rect x="405" y="312" width="326" height="148" rx="26" fill="#EBE8E1" />
    <rect x="436" y="370" width="108" height="92" rx="16" fill="#30494B" /><rect x="620" y="370" width="105" height="92" rx="16" fill="#C18A65" />
    <rect x="792" y="526" width="174" height="38" rx="14" fill="#F2D49A" /><line x1="879" y1="558" x2="879" y2="650" stroke="#F2D49A" stroke-width="16" stroke-linecap="round"/>
    <line x1="1010" y1="275" x2="1010" y2="565" stroke="#F2D49A" stroke-width="12" stroke-linecap="round"/>
    <path d="M948 285c17-76 104-76 125 0Z" fill="#F2D49A"/>
    <circle cx="206" cy="250" r="78" fill="#30494B" opacity=".20"/>
    <path d="M207 190v235M150 268l57-47 61 46M164 327l43-41 52 42" stroke="#F2D49A" stroke-width="8" stroke-linecap="round" opacity=".58" fill="none"/>
    <rect x="168" y="423" width="84" height="128" rx="18" fill="#F2D49A" opacity=".72"/></g>
  </g><rect id="HOTSPOT__GALLERY__6__TARGET" data-name="HOTSPOT__GALLERY__6__TARGET" x="932" y="2720" width="406" height="270" rx="8" fill="#FFFFFF" fill-opacity="0.001"/></g><rect x="80" y="3090" width="1280" height="350" rx="22" fill="#EEF4FF" /><circle cx="160" cy="3190" r="48" fill="#005BFF" /><text x="160" y="3198" font-family="Onest, Inter, Arial, sans-serif" font-size="16" font-weight="750" fill="#FFFFFF" text-anchor="middle" letter-spacing="0" opacity="1"><tspan x="160" dy="0">NF</tspan></text><text x="240" y="3162" font-family="Onest, Inter, Arial, sans-serif" font-size="30" font-weight="690" fill="#13151A" text-anchor="start" letter-spacing="0" opacity="1"><tspan x="240" dy="0">Nordform Studio</tspan></text><text x="240" y="3215" font-family="Onest, Inter, Arial, sans-serif" font-size="16" font-weight="430" fill="#6C717C" text-anchor="start" letter-spacing="0" opacity="1"><tspan x="240" dy="0">Студия современных интерьеров, работающая с жилыми пространствами и</tspan><tspan x="240" dy="25">предметным дизайном.</tspan></text><g id="HOTSPOT__PROJECT__OPEN_COMPANY" data-name="HOTSPOT__PROJECT__OPEN_COMPANY"><rect x="240" y="3295" width="244" height="52" rx="12" fill="#005BFF" /><text x="362" y="3328" font-family="Onest, Inter, Arial, sans-serif" font-size="14" font-weight="650" fill="#FFFFFF" text-anchor="middle" letter-spacing="0" opacity="1"><tspan x="362" dy="0">Открыть профиль компании</tspan></text><rect id="HOTSPOT__PROJECT__OPEN_COMPANY__TARGET" data-name="HOTSPOT__PROJECT__OPEN_COMPANY__TARGET" x="240" y="3295" width="244" height="52" rx="8" fill="#FFFFFF" fill-opacity="0.001"/></g><text x="80" y="3550" font-family="Onest, Inter, Arial, sans-serif" font-size="38" font-weight="700" fill="#13151A" text-anchor="start" letter-spacing="0" opacity="1"><tspan x="80" dy="0">Товары из проекта</tspan></text><g id="HOTSPOT__PRODUCT__SOFA__PREVIEW" data-name="HOTSPOT__PRODUCT__SOFA__PREVIEW"><rect x="80" y="3615" width="406" height="420" rx="18" fill="#FFFFFF" stroke="#E7E9ED"/><g id="ART__sofa" data-name="ART__sofa" transform="translate(80 3615)">
    <defs><clipPath id="ART_CLIP_44"><rect width="1200" height="760" rx="30"/></clipPath></defs>
    <g transform="scale(0.34 0.33)" clip-path="url(#ART_CLIP_44)"><rect x="0" y="0" width="1200" height="760" rx="0" fill="#E9E3D9" /><circle cx="980" cy="130" r="170" fill="#B4C2BB" opacity=".16"/><circle cx="185" cy="620" r="220" fill="#C48C71" opacity=".18"/><rect x="250" y="345" width="700" height="235" rx="60" fill="#B4C2BB" /><rect x="305" y="245" width="590" height="220" rx="62" fill="#EDE9E2" /><rect x="355" y="315" width="180" height="150" rx="34" fill="#C48C71" /><rect x="660" y="315" width="180" height="150" rx="34" fill="#B4C2BB" opacity=".78"/></g>
  </g><text x="98" y="3897" font-family="Onest, Inter, Arial, sans-serif" font-size="12" font-weight="500" fill="#6C717C" text-anchor="start" letter-spacing="0" opacity="1"><tspan x="98" dy="0">Диваны</tspan></text><text x="98" y="3931" font-family="Onest, Inter, Arial, sans-serif" font-size="18" font-weight="650" fill="#13151A" text-anchor="start" letter-spacing="0" opacity="1"><tspan x="98" dy="0">Модульный диван Norr</tspan></text><text x="98" y="3975" font-family="Onest, Inter, Arial, sans-serif" font-size="18" font-weight="700" fill="#13151A" text-anchor="start" letter-spacing="0" opacity="1"><tspan x="98" dy="0">129 990 ₽</tspan></text><g transform="translate(410 3961) scale(0.75)"><path d="m12 3 2.7 5.6 6.2.9-4.5 4.4 1.1 6.1-5.5-2.9L6.5 20l1.1-6.1-4.5-4.4 6.2-.9Z" fill="#F2A900"/></g><text x="438" y="3975" font-family="Onest, Inter, Arial, sans-serif" font-size="13" font-weight="600" fill="#6C717C" text-anchor="start" letter-spacing="0" opacity="1"><tspan x="438" dy="0">4.9</tspan></text><rect x="98" y="3993" width="370" height="1" rx="0" fill="#E7E9ED" /><text x="98" y="4021" font-family="Onest, Inter, Arial, sans-serif" font-size="13" font-weight="650" fill="#005BFF" text-anchor="start" letter-spacing="0" opacity="1"><tspan x="98" dy="0">Посмотреть на Ozon</tspan></text><g transform="translate(444 4004) scale(0.75)"><path d="M5 12h14m-5-5 5 5-5 5" fill="none" stroke="#005BFF" stroke-width="1.8" stroke-linecap="round" stroke-linejoin="round"/></g><rect id="HOTSPOT__PRODUCT__SOFA__PREVIEW__TARGET" data-name="HOTSPOT__PRODUCT__SOFA__PREVIEW__TARGET" x="80" y="3615" width="406" height="420" rx="8" fill="#FFFFFF" fill-opacity="0.001"/></g><g id="HOTSPOT__PRODUCT__TABLE__PREVIEW" data-name="HOTSPOT__PRODUCT__TABLE__PREVIEW"><rect x="506" y="3615" width="406" height="420" rx="18" fill="#FFFFFF" stroke="#E7E9ED"/><g id="ART__table" data-name="ART__table" transform="translate(506 3615)">
    <defs><clipPath id="ART_CLIP_45"><rect width="1200" height="760" rx="30"/></clipPath></defs>
    <g transform="scale(0.34 0.33)" clip-path="url(#ART_CLIP_45)"><rect x="0" y="0" width="1200" height="760" rx="0" fill="#EEE5D8" /><circle cx="980" cy="130" r="170" fill="#AF7E57" opacity=".16"/><circle cx="185" cy="620" r="220" fill="#869990" opacity=".18"/><ellipse cx="600" cy="350" rx="330" ry="115" fill="#869990"/><line x1="520" y1="405" x2="430" y2="650" stroke="#352D28" stroke-width="38" stroke-linecap="round"/><line x1="680" y1="405" x2="770" y2="650" stroke="#352D28" stroke-width="38" stroke-linecap="round"/></g>
  </g><text x="524" y="3897" font-family="Onest, Inter, Arial, sans-serif" font-size="12" font-weight="500" fill="#6C717C" text-anchor="start" letter-spacing="0" opacity="1"><tspan x="524" dy="0">Столы</tspan></text><text x="524" y="3931" font-family="Onest, Inter, Arial, sans-serif" font-size="18" font-weight="650" fill="#13151A" text-anchor="start" letter-spacing="0" opacity="1"><tspan x="524" dy="0">Журнальный стол Oak 60</tspan></text><text x="524" y="3975" font-family="Onest, Inter, Arial, sans-serif" font-size="18" font-weight="700" fill="#13151A" text-anchor="start" letter-spacing="0" opacity="1"><tspan x="524" dy="0">24 990 ₽</tspan></text><g transform="translate(836 3961) scale(0.75)"><path d="m12 3 2.7 5.6 6.2.9-4.5 4.4 1.1 6.1-5.5-2.9L6.5 20l1.1-6.1-4.5-4.4 6.2-.9Z" fill="#F2A900"/></g><text x="864" y="3975" font-family="Onest, Inter, Arial, sans-serif" font-size="13" font-weight="600" fill="#6C717C" text-anchor="start" letter-spacing="0" opacity="1"><tspan x="864" dy="0">4.8</tspan></text><rect x="524" y="3993" width="370" height="1" rx="0" fill="#E7E9ED" /><text x="524" y="4021" font-family="Onest, Inter, Arial, sans-serif" font-size="13" font-weight="650" fill="#005BFF" text-anchor="start" letter-spacing="0" opacity="1"><tspan x="524" dy="0">Посмотреть на Ozon</tspan></text><g transform="translate(870 4004) scale(0.75)"><path d="M5 12h14m-5-5 5 5-5 5" fill="none" stroke="#005BFF" stroke-width="1.8" stroke-linecap="round" stroke-linejoin="round"/></g><rect id="HOTSPOT__PRODUCT__TABLE__PREVIEW__TARGET" data-name="HOTSPOT__PRODUCT__TABLE__PREVIEW__TARGET" x="506" y="3615" width="406" height="420" rx="8" fill="#FFFFFF" fill-opacity="0.001"/></g><g id="HOTSPOT__PRODUCT__LAMP__PREVIEW" data-name="HOTSPOT__PRODUCT__LAMP__PREVIEW"><rect x="932" y="3615" width="406" height="420" rx="18" fill="#FFFFFF" stroke="#E7E9ED"/><g id="ART__lamp" data-name="ART__lamp" transform="translate(932 3615)">
    <defs><clipPath id="ART_CLIP_46"><rect width="1200" height="760" rx="30"/></clipPath></defs>
    <g transform="scale(0.34 0.33)" clip-path="url(#ART_CLIP_46)"><rect x="0" y="0" width="1200" height="760" rx="0" fill="#DFE7EF" /><circle cx="980" cy="130" r="170" fill="#7C94AF" opacity=".16"/><circle cx="185" cy="620" r="220" fill="#F3B27F" opacity=".18"/><line x1="610" y1="165" x2="610" y2="555" stroke="#252A31" stroke-width="30" stroke-linecap="round"/><path d="M430 276c32-165 308-165 340 0Z" fill="#7C94AF"/><ellipse cx="610" cy="588" rx="180" ry="44" fill="#252A31"/></g>
  </g><text x="950" y="3897" font-family="Onest, Inter, Arial, sans-serif" font-size="12" font-weight="500" fill="#6C717C" text-anchor="start" letter-spacing="0" opacity="1"><tspan x="950" dy="0">Освещение</tspan></text><text x="950" y="3931" font-family="Onest, Inter, Arial, sans-serif" font-size="18" font-weight="650" fill="#13151A" text-anchor="start" letter-spacing="0" opacity="1"><tspan x="950" dy="0">Напольный светильник Arc</tspan></text><text x="950" y="3975" font-family="Onest, Inter, Arial, sans-serif" font-size="18" font-weight="700" fill="#13151A" text-anchor="start" letter-spacing="0" opacity="1"><tspan x="950" dy="0">18 990 ₽</tspan></text><g transform="translate(1262 3961) scale(0.75)"><path d="m12 3 2.7 5.6 6.2.9-4.5 4.4 1.1 6.1-5.5-2.9L6.5 20l1.1-6.1-4.5-4.4 6.2-.9Z" fill="#F2A900"/></g><text x="1290" y="3975" font-family="Onest, Inter, Arial, sans-serif" font-size="13" font-weight="600" fill="#6C717C" text-anchor="start" letter-spacing="0" opacity="1"><tspan x="1290" dy="0">4.7</tspan></text><rect x="950" y="3993" width="370" height="1" rx="0" fill="#E7E9ED" /><text x="950" y="4021" font-family="Onest, Inter, Arial, sans-serif" font-size="13" font-weight="650" fill="#005BFF" text-anchor="start" letter-spacing="0" opacity="1"><tspan x="950" dy="0">Посмотреть на Ozon</tspan></text><g transform="translate(1296 4004) scale(0.75)"><path d="M5 12h14m-5-5 5 5-5 5" fill="none" stroke="#005BFF" stroke-width="1.8" stroke-linecap="round" stroke-linejoin="round"/></g><rect id="HOTSPOT__PRODUCT__LAMP__PREVIEW__TARGET" data-name="HOTSPOT__PRODUCT__LAMP__PREVIEW__TARGET" x="932" y="3615" width="406" height="420" rx="8" fill="#FFFFFF" fill-opacity="0.001"/></g><g id="HOTSPOT__PROJECT__OPEN_COLLECTION" data-name="HOTSPOT__PROJECT__OPEN_COLLECTION"><rect x="80" y="4075" width="234" height="52" rx="12" fill="#13151A" /><text x="197" y="4108" font-family="Onest, Inter, Arial, sans-serif" font-size="14" font-weight="650" fill="#FFFFFF" text-anchor="middle" letter-spacing="0" opacity="1"><tspan x="197" dy="0">Смотреть товары проекта</tspan></text><rect id="HOTSPOT__PROJECT__OPEN_COLLECTION__TARGET" data-name="HOTSPOT__PROJECT__OPEN_COLLECTION__TARGET" x="80" y="4075" width="234" height="52" rx="8" fill="#FFFFFF" fill-opacity="0.001"/></g><text x="80" y="4250" font-family="Onest, Inter, Arial, sans-serif" font-size="38" font-weight="700" fill="#13151A" text-anchor="start" letter-spacing="0" opacity="1"><tspan x="80" dy="0">Похожие проекты</tspan></text><g id="HOTSPOT__PROJECT__OAK_DINING" data-name="HOTSPOT__PROJECT__OAK_DINING"><rect x="80" y="4320" width="406" height="370" rx="18" fill="#FFFFFF" /><g id="ART__oak-dining" data-name="ART__oak-dining" transform="translate(80 4320)">
    <defs><clipPath id="ART_CLIP_47"><rect width="1200" height="760" rx="30"/></clipPath></defs>
    <g transform="scale(0.34 0.33)" clip-path="url(#ART_CLIP_47)"><rect x="0" y="0" width="1200" height="760" rx="0" fill="#EADFCF" /><rect x="0" y="540" width="1200" height="220" rx="0" fill="#7B9189" opacity=".64"/>
    <rect x="760" y="82" width="310" height="340" rx="6" fill="#CFE0E2" />
    <line x1="915" y1="82" x2="915" y2="422" stroke="#F7F5EF" stroke-width="8" /><line x1="760" y1="250" x2="1070" y2="250" stroke="#F7F5EF" stroke-width="8" />
    <ellipse cx="570" cy="626" rx="360" ry="72" fill="#EFE9DF" opacity=".86"/>
    <rect x="365" y="390" width="405" height="168" rx="28" fill="#F5F2EC" /><rect x="405" y="312" width="326" height="148" rx="26" fill="#EBE8E1" />
    <rect x="436" y="370" width="108" height="92" rx="16" fill="#C09A72" /><rect x="620" y="370" width="105" height="92" rx="16" fill="#7B9189" />
    <rect x="792" y="526" width="174" height="38" rx="14" fill="#382F2A" /><line x1="879" y1="558" x2="879" y2="650" stroke="#382F2A" stroke-width="16" stroke-linecap="round"/>
    <line x1="1010" y1="275" x2="1010" y2="565" stroke="#382F2A" stroke-width="12" stroke-linecap="round"/>
    <path d="M948 285c17-76 104-76 125 0Z" fill="#382F2A"/>
    <circle cx="206" cy="250" r="78" fill="#C09A72" opacity=".20"/>
    <path d="M207 190v235M150 268l57-47 61 46M164 327l43-41 52 42" stroke="#382F2A" stroke-width="8" stroke-linecap="round" opacity=".58" fill="none"/>
    <rect x="168" y="423" width="84" height="128" rx="18" fill="#382F2A" opacity=".72"/></g>
  </g>
    <circle cx="452" cy="4350" r="21" fill="#FFFFFF" fill-opacity=".94"/>
    <g transform="translate(440 4338) scale(1)"><path d="M20.8 4.7a5.5 5.5 0 0 0-7.8 0L12 5.8l-1.1-1.1a5.5 5.5 0 1 0-7.8 7.8l1.1 1L12 21l7.8-7.5 1-1a5.5 5.5 0 0 0 0-7.8Z" fill="none" stroke="#13151A" stroke-width="1.8" stroke-linecap="round" stroke-linejoin="round"/></g>
    <text x="80" y="4595" font-family="Onest, Inter, Arial, sans-serif" font-size="12" font-weight="500" fill="#6C717C" text-anchor="start" letter-spacing="0" opacity="1"><tspan x="80" dy="0">Интерьер · Скандинавский · 34 м²</tspan></text>
    <text x="80" y="4628" font-family="Onest, Inter, Arial, sans-serif" font-size="22" font-weight="650" fill="#13151A" text-anchor="start" letter-spacing="0" opacity="1"><tspan x="80" dy="0">Столовая из светлого дуба</tspan></text>
    <text x="80" y="4664" font-family="Onest, Inter, Arial, sans-serif" font-size="13" font-weight="650" fill="#005BFF" text-anchor="start" letter-spacing="0" opacity="1"><tspan x="80" dy="0">Nordform Studio</tspan></text>
    <rect id="HOTSPOT__PROJECT__OAK_DINING__TARGET" data-name="HOTSPOT__PROJECT__OAK_DINING__TARGET" x="80" y="4320" width="406" height="370" rx="8" fill="#FFFFFF" fill-opacity="0.001"/></g><g id="HOTSPOT__PROJECT__QUIET_OFFICE" data-name="HOTSPOT__PROJECT__QUIET_OFFICE"><rect x="506" y="4320" width="406" height="370" rx="18" fill="#FFFFFF" /><g id="ART__quiet-office" data-name="ART__quiet-office" transform="translate(506 4320)">
    <defs><clipPath id="ART_CLIP_48"><rect width="1200" height="760" rx="30"/></clipPath></defs>
    <g transform="scale(0.34 0.33)" clip-path="url(#ART_CLIP_48)"><rect x="0" y="0" width="1200" height="760" rx="0" fill="#9B9388" /><rect x="0" y="540" width="1200" height="220" rx="0" fill="#B47D5D" opacity=".64"/>
    <rect x="760" y="82" width="310" height="340" rx="6" fill="#CFE0E2" />
    <line x1="915" y1="82" x2="915" y2="422" stroke="#F7F5EF" stroke-width="8" /><line x1="760" y1="250" x2="1070" y2="250" stroke="#F7F5EF" stroke-width="8" />
    <ellipse cx="570" cy="626" rx="360" ry="72" fill="#EFE9DF" opacity=".86"/>
    <rect x="365" y="390" width="405" height="168" rx="28" fill="#F5F2EC" /><rect x="405" y="312" width="326" height="148" rx="26" fill="#EBE8E1" />
    <rect x="436" y="370" width="108" height="92" rx="16" fill="#40484A" /><rect x="620" y="370" width="105" height="92" rx="16" fill="#B47D5D" />
    <rect x="792" y="526" width="174" height="38" rx="14" fill="#202426" /><line x1="879" y1="558" x2="879" y2="650" stroke="#202426" stroke-width="16" stroke-linecap="round"/>
    <line x1="1010" y1="275" x2="1010" y2="565" stroke="#202426" stroke-width="12" stroke-linecap="round"/>
    <path d="M948 285c17-76 104-76 125 0Z" fill="#202426"/>
    <circle cx="206" cy="250" r="78" fill="#40484A" opacity=".20"/>
    <path d="M207 190v235M150 268l57-47 61 46M164 327l43-41 52 42" stroke="#202426" stroke-width="8" stroke-linecap="round" opacity=".58" fill="none"/>
    <rect x="168" y="423" width="84" height="128" rx="18" fill="#202426" opacity=".72"/></g>
  </g>
    <circle cx="878" cy="4350" r="21" fill="#FFFFFF" fill-opacity=".94"/>
    <g transform="translate(866 4338) scale(1)"><path d="M20.8 4.7a5.5 5.5 0 0 0-7.8 0L12 5.8l-1.1-1.1a5.5 5.5 0 1 0-7.8 7.8l1.1 1L12 21l7.8-7.5 1-1a5.5 5.5 0 0 0 0-7.8Z" fill="none" stroke="#13151A" stroke-width="1.8" stroke-linecap="round" stroke-linejoin="round"/></g>
    <text x="506" y="4595" font-family="Onest, Inter, Arial, sans-serif" font-size="12" font-weight="500" fill="#6C717C" text-anchor="start" letter-spacing="0" opacity="1"><tspan x="506" dy="0">Интерьер · Минимализм · 18 м²</tspan></text>
    <text x="506" y="4628" font-family="Onest, Inter, Arial, sans-serif" font-size="22" font-weight="650" fill="#13151A" text-anchor="start" letter-spacing="0" opacity="1"><tspan x="506" dy="0">Тихий кабинет</tspan></text>
    <text x="506" y="4664" font-family="Onest, Inter, Arial, sans-serif" font-size="13" font-weight="650" fill="#005BFF" text-anchor="start" letter-spacing="0" opacity="1"><tspan x="506" dy="0">Forma Lab</tspan></text>
    <rect id="HOTSPOT__PROJECT__QUIET_OFFICE__TARGET" data-name="HOTSPOT__PROJECT__QUIET_OFFICE__TARGET" x="506" y="4320" width="406" height="370" rx="8" fill="#FFFFFF" fill-opacity="0.001"/></g><g id="HOTSPOT__PROJECT__SOFT_BEDROOM" data-name="HOTSPOT__PROJECT__SOFT_BEDROOM"><rect x="932" y="4320" width="406" height="370" rx="18" fill="#FFFFFF" /><g id="ART__soft-bedroom" data-name="ART__soft-bedroom" transform="translate(932 4320)">
    <defs><clipPath id="ART_CLIP_49"><rect width="1200" height="760" rx="30"/></clipPath></defs>
    <g transform="scale(0.34 0.33)" clip-path="url(#ART_CLIP_49)"><rect x="0" y="0" width="1200" height="760" rx="0" fill="#EEE0DD" /><rect x="0" y="540" width="1200" height="220" rx="0" fill="#A8B5AC" opacity=".64"/>
    <rect x="760" y="82" width="310" height="340" rx="6" fill="#CFE0E2" />
    <line x1="915" y1="82" x2="915" y2="422" stroke="#F7F5EF" stroke-width="8" /><line x1="760" y1="250" x2="1070" y2="250" stroke="#F7F5EF" stroke-width="8" />
    <ellipse cx="570" cy="626" rx="360" ry="72" fill="#EFE9DF" opacity=".86"/>
    <rect x="365" y="390" width="405" height="168" rx="28" fill="#F5F2EC" /><rect x="405" y="312" width="326" height="148" rx="26" fill="#EBE8E1" />
    <rect x="436" y="370" width="108" height="92" rx="16" fill="#CFAFA7" /><rect x="620" y="370" width="105" height="92" rx="16" fill="#A8B5AC" />
    <rect x="792" y="526" width="174" height="38" rx="14" fill="#4B4140" /><line x1="879" y1="558" x2="879" y2="650" stroke="#4B4140" stroke-width="16" stroke-linecap="round"/>
    <line x1="1010" y1="275" x2="1010" y2="565" stroke="#4B4140" stroke-width="12" stroke-linecap="round"/>
    <path d="M948 285c17-76 104-76 125 0Z" fill="#4B4140"/>
    <circle cx="206" cy="250" r="78" fill="#CFAFA7" opacity=".20"/>
    <path d="M207 190v235M150 268l57-47 61 46M164 327l43-41 52 42" stroke="#4B4140" stroke-width="8" stroke-linecap="round" opacity=".58" fill="none"/>
    <rect x="168" y="423" width="84" height="128" rx="18" fill="#4B4140" opacity=".72"/></g>
  </g>
    <circle cx="1304" cy="4350" r="21" fill="#FFFFFF" fill-opacity=".94"/>
    <g transform="translate(1292 4338) scale(1)"><path d="M20.8 4.7a5.5 5.5 0 0 0-7.8 0L12 5.8l-1.1-1.1a5.5 5.5 0 1 0-7.8 7.8l1.1 1L12 21l7.8-7.5 1-1a5.5 5.5 0 0 0 0-7.8Z" fill="none" stroke="#13151A" stroke-width="1.8" stroke-linecap="round" stroke-linejoin="round"/></g>
    <text x="932" y="4595" font-family="Onest, Inter, Arial, sans-serif" font-size="12" font-weight="500" fill="#6C717C" text-anchor="start" letter-spacing="0" opacity="1"><tspan x="932" dy="0">Интерьер · Современный · 26 м²</tspan></text>
    <text x="932" y="4628" font-family="Onest, Inter, Arial, sans-serif" font-size="22" font-weight="650" fill="#13151A" text-anchor="start" letter-spacing="0" opacity="1"><tspan x="932" dy="0">Спальня с мягким светом</tspan></text>
    <text x="932" y="4664" font-family="Onest, Inter, Arial, sans-serif" font-size="13" font-weight="650" fill="#005BFF" text-anchor="start" letter-spacing="0" opacity="1"><tspan x="932" dy="0">Nordform Studio</tspan></text>
    <rect id="HOTSPOT__PROJECT__SOFT_BEDROOM__TARGET" data-name="HOTSPOT__PROJECT__SOFT_BEDROOM__TARGET" x="932" y="4320" width="406" height="370" rx="8" fill="#FFFFFF" fill-opacity="0.001"/></g><rect x="0" y="4720" width="1440" height="250" rx="0" fill="#13151A" /><text x="80" y="4798" font-family="Onest, Inter, Arial, sans-serif" font-size="28" font-weight="700" fill="#FFFFFF" text-anchor="start" letter-spacing="0" opacity="1"><tspan x="80" dy="0">Ozon Design</tspan></text><text x="80" y="4845" font-family="Onest, Inter, Arial, sans-serif" font-size="15" font-weight="400" fill="#C4C7CD" text-anchor="start" letter-spacing="0" opacity="1"><tspan x="80" dy="0">Каталог готовых дизайн-решений от студий и брендов</tspan></text><text x="80" y="4910" font-family="Onest, Inter, Arial, sans-serif" font-size="13" font-weight="600" fill="#FFFFFF" text-anchor="start" letter-spacing="0" opacity="1"><tspan x="80" dy="0">Каталог Компании Подборки О проекте Избранное</tspan></text><text x="1360" y="4910" font-family="Onest, Inter, Arial, sans-serif" font-size="12" font-weight="450" fill="#9B9FA8" text-anchor="end" letter-spacing="0" opacity="1"><tspan x="1360" dy="0">Демонстрационный прототип</tspan></text></g>
</svg>