<?xml version="1.0" encoding="UTF-8"?>
<svg xmlns="http://www.w3.org/2000/svg" width="1440" height="2860" viewBox="0 0 1440 2860">
  <title>Ozon Design — Nordform Studio</title>
  <desc>Ozon Design — импортируемый экран для Figma Design. Корневой фрейм: FRAME__DESKTOP__COMPANY__NORDFORM.</desc>
  <defs>
    <linearGradient id="heroShade" x1="0" y1="0" x2="1" y2="0"><stop offset="0" stop-color="#101318" stop-opacity=".58"/><stop offset=".62" stop-color="#101318" stop-opacity=".05"/><stop offset="1" stop-color="#101318" stop-opacity=".12"/></linearGradient>
  </defs>
  <g id="FRAME__DESKTOP__COMPANY__NORDFORM" data-name="FRAME__DESKTOP__COMPANY__NORDFORM"><rect x="0" y="0" width="1440" height="2860" rx="0" fill="#FFFFFF" /><rect x="0" y="0" width="1440" height="88" rx="0" fill="#FFFFFF" /><text x="80" y="54" font-family="Onest, Inter, Arial, sans-serif" font-size="22" font-weight="700" fill="#13151A" text-anchor="start" letter-spacing="0" opacity="1"><tspan x="80" dy="0">Ozon Design</tspan></text><g id="HOTSPOT__HEADER__CATALOG" data-name="HOTSPOT__HEADER__CATALOG"><text x="535.5" y="52" font-family="Onest, Inter, Arial, sans-serif" font-size="14" font-weight="650" fill="#13151A" text-anchor="middle" letter-spacing="0" opacity="1"><tspan x="535.5" dy="0">Каталог</tspan></text><rect id="HOTSPOT__HEADER__CATALOG__TARGET" data-name="HOTSPOT__HEADER__CATALOG__TARGET" x="490" y="22" width="91" height="44" rx="8" fill="#FFFFFF" fill-opacity="0.001"/></g><g id="HOTSPOT__HEADER__COMPANY" data-name="HOTSPOT__HEADER__COMPANY"><text x="649" y="52" font-family="Onest, Inter, Arial, sans-serif" font-size="14" font-weight="650" fill="#005BFF" text-anchor="middle" letter-spacing="0" opacity="1"><tspan x="649" dy="0">Компании</tspan></text><rect id="HOTSPOT__HEADER__COMPANY__TARGET" data-name="HOTSPOT__HEADER__COMPANY__TARGET" x="599" y="22" width="100" height="44" rx="8" fill="#FFFFFF" fill-opacity="0.001"/></g><g id="HOTSPOT__HEADER__COLLECTION" data-name="HOTSPOT__HEADER__COLLECTION"><text x="767" y="52" font-family="Onest, Inter, Arial, sans-serif" font-size="14" font-weight="650" fill="#13151A" text-anchor="middle" letter-spacing="0" opacity="1"><tspan x="767" dy="0">Подборки</tspan></text><rect id="HOTSPOT__HEADER__COLLECTION__TARGET" data-name="HOTSPOT__HEADER__COLLECTION__TARGET" x="717" y="22" width="100" height="44" rx="8" fill="#FFFFFF" fill-opacity="0.001"/></g><g id="HOTSPOT__HEADER__ABOUT" data-name="HOTSPOT__HEADER__ABOUT"><text x="889.5" y="52" font-family="Onest, Inter, Arial, sans-serif" font-size="14" font-weight="650" fill="#13151A" text-anchor="middle" letter-spacing="0" opacity="1"><tspan x="889.5" dy="0">О проекте</tspan></text><rect id="HOTSPOT__HEADER__ABOUT__TARGET" data-name="HOTSPOT__HEADER__ABOUT__TARGET" x="835" y="22" width="109" height="44" rx="8" fill="#FFFFFF" fill-opacity="0.001"/></g><g id="HOTSPOT__HEADER__SEARCH" data-name="HOTSPOT__HEADER__SEARCH"><rect x="1120" y="22" width="102" height="44" rx="22" fill="#F5F6F8" /><g transform="translate(1136 32) scale(0.92)"><circle cx="10.5" cy="10.5" r="6.5" fill="none" stroke="#6C717C" stroke-width="1.8"/><path d="m15.5 15.5 5 5" stroke="#6C717C" stroke-width="1.8" stroke-linecap="round"/></g><text x="1170" y="50" font-family="Onest, Inter, Arial, sans-serif" font-size="13" font-weight="600" fill="#6C717C" text-anchor="start" letter-spacing="0" opacity="1"><tspan x="1170" dy="0">Поиск</tspan></text><rect id="HOTSPOT__HEADER__SEARCH__TARGET" data-name="HOTSPOT__HEADER__SEARCH__TARGET" x="1120" y="22" width="102" height="44" rx="8" fill="#FFFFFF" fill-opacity="0.001"/></g><g id="HOTSPOT__HEADER__FAVORITES" data-name="HOTSPOT__HEADER__FAVORITES"><rect x="1236" y="22" width="124" height="44" rx="22" fill="#FFF0F6" /><g transform="translate(1250 32) scale(0.92)"><path d="M20.8 4.7a5.5 5.5 0 0 0-7.8 0L12 5.8l-1.1-1.1a5.5 5.5 0 1 0-7.8 7.8l1.1 1L12 21l7.8-7.5 1-1a5.5 5.5 0 0 0 0-7.8Z" fill="#F43F8C"/></g><text x="1282" y="50" font-family="Onest, Inter, Arial, sans-serif" font-size="13" font-weight="650" fill="#F43F8C" text-anchor="start" letter-spacing="0" opacity="1"><tspan x="1282" dy="0">Избранное 1</tspan></text><rect id="HOTSPOT__HEADER__FAVORITES__TARGET" data-name="HOTSPOT__HEADER__FAVORITES__TARGET" x="1236" y="22" width="124" height="44" rx="8" fill="#FFFFFF" fill-opacity="0.001"/></g><line x1="0" y1="87" x2="1440" y2="87" stroke="#E7E9ED" stroke-width="1" /><g id="ART__NORDFORM_COVER" data-name="ART__NORDFORM_COVER" transform="translate(80 126)">
    <defs><clipPath id="ART_CLIP_69"><rect width="1200" height="760" rx="30"/></clipPath></defs>
    <g transform="scale(1.07 0.66)" clip-path="url(#ART_CLIP_69)"><rect x="0" y="0" width="1200" height="760" rx="0" fill="#DFE8E8" /><rect x="0" y="540" width="1200" height="220" rx="0" fill="#D1B191" opacity=".64"/>
    <rect x="760" y="82" width="310" height="340" rx="6" fill="#CFE0E2" />
    <line x1="915" y1="82" x2="915" y2="422" stroke="#F7F5EF" stroke-width="8" /><line x1="760" y1="250" x2="1070" y2="250" stroke="#F7F5EF" stroke-width="8" />
    <ellipse cx="570" cy="626" rx="360" ry="72" fill="#EFE9DF" opacity=".86"/>
    <rect x="365" y="390" width="405" height="168" rx="28" fill="#F5F2EC" /><rect x="405" y="312" width="326" height="148" rx="26" fill="#EBE8E1" />
    <rect x="436" y="370" width="108" height="92" rx="16" fill="#8FA8A5" /><rect x="620" y="370" width="105" height="92" rx="16" fill="#D1B191" />
    <rect x="792" y="526" width="174" height="38" rx="14" fill="#34393A" /><line x1="879" y1="558" x2="879" y2="650" stroke="#34393A" stroke-width="16" stroke-linecap="round"/>
    <line x1="1010" y1="275" x2="1010" y2="565" stroke="#34393A" stroke-width="12" stroke-linecap="round"/>
    <path d="M948 285c17-76 104-76 125 0Z" fill="#34393A"/>
    <circle cx="206" cy="250" r="78" fill="#8FA8A5" opacity=".20"/>
    <path d="M207 190v235M150 268l57-47 61 46M164 327l43-41 52 42" stroke="#34393A" stroke-width="8" stroke-linecap="round" opacity=".58" fill="none"/>
    <rect x="168" y="423" width="84" height="128" rx="18" fill="#34393A" opacity=".72"/></g>
  </g><rect x="80" y="126" width="1280" height="500" rx="24" fill="url(#heroShade)" /><circle cx="150" cy="530" r="44" fill="#005BFF" /><text x="150" y="539" font-family="Onest, Inter, Arial, sans-serif" font-size="15" font-weight="750" fill="#FFFFFF" text-anchor="middle" letter-spacing="0" opacity="1"><tspan x="150" dy="0">NF</tspan></text><text x="220" y="526" font-family="Onest, Inter, Arial, sans-serif" font-size="46" font-weight="730" fill="#FFFFFF" text-anchor="start" letter-spacing="0" opacity="1"><tspan x="220" dy="0">Nordform Studio</tspan></text><text x="220" y="574" font-family="Onest, Inter, Arial, sans-serif" font-size="16" font-weight="430" fill="#FFFFFF" text-anchor="start" letter-spacing="0" opacity="1"><tspan x="220" dy="0">Спокойные современные интерьеры и предметный дизайн</tspan></text><text x="80" y="740" font-family="Onest, Inter, Arial, sans-serif" font-size="34" font-weight="700" fill="#13151A" text-anchor="start" letter-spacing="0" opacity="1"><tspan x="80" dy="0">О студии</tspan></text><text x="80" y="812" font-family="Onest, Inter, Arial, sans-serif" font-size="20" font-weight="430" fill="#363A43" text-anchor="start" letter-spacing="0" opacity="1"><tspan x="80" dy="0">Nordform Studio создаёт спокойные современные интерьеры, в которых</tspan><tspan x="80" dy="32">функциональность сочетается с натуральными материалами и выразительной</tspan><tspan x="80" dy="32">архитектурой пространства.</tspan></text><g id="HOTSPOT__COMPANY__SCROLL_PROJECTS" data-name="HOTSPOT__COMPANY__SCROLL_PROJECTS"><rect x="1110" y="760" width="210" height="52" rx="12" fill="#005BFF" /><text x="1215" y="793" font-family="Onest, Inter, Arial, sans-serif" font-size="14" font-weight="650" fill="#FFFFFF" text-anchor="middle" letter-spacing="0" opacity="1"><tspan x="1215" dy="0">Смотреть проекты</tspan></text><rect id="HOTSPOT__COMPANY__SCROLL_PROJECTS__TARGET" data-name="HOTSPOT__COMPANY__SCROLL_PROJECTS__TARGET" x="1110" y="760" width="210" height="52" rx="8" fill="#FFFFFF" fill-opacity="0.001"/></g><rect x="80" y="990" width="300" height="132" rx="16" fill="#EEF4FF" /><text x="102" y="1032" font-family="Onest, Inter, Arial, sans-serif" font-size="12" font-weight="600" fill="#6C717C" text-anchor="start" letter-spacing="0" opacity="1"><tspan x="102" dy="0">Специализация</tspan></text><text x="102" y="1080" font-family="Onest, Inter, Arial, sans-serif" font-size="17" font-weight="650" fill="#13151A" text-anchor="start" letter-spacing="0" opacity="1"><tspan x="102" dy="0">Жилые интерьеры</tspan></text><rect x="400" y="990" width="300" height="132" rx="16" fill="#F2EEE7" /><text x="422" y="1032" font-family="Onest, Inter, Arial, sans-serif" font-size="12" font-weight="600" fill="#6C717C" text-anchor="start" letter-spacing="0" opacity="1"><tspan x="422" dy="0">Города</tspan></text><text x="422" y="1080" font-family="Onest, Inter, Arial, sans-serif" font-size="17" font-weight="650" fill="#13151A" text-anchor="start" letter-spacing="0" opacity="1"><tspan x="422" dy="0">Москва · Петербург</tspan></text><rect x="720" y="990" width="300" height="132" rx="16" fill="#EEF4FF" /><text x="742" y="1032" font-family="Onest, Inter, Arial, sans-serif" font-size="12" font-weight="600" fill="#6C717C" text-anchor="start" letter-spacing="0" opacity="1"><tspan x="742" dy="0">Проекты</tspan></text><text x="742" y="1080" font-family="Onest, Inter, Arial, sans-serif" font-size="17" font-weight="650" fill="#13151A" text-anchor="start" letter-spacing="0" opacity="1"><tspan x="742" dy="0">6 в каталоге</tspan></text><rect x="1040" y="990" width="300" height="132" rx="16" fill="#F2EEE7" /><text x="1062" y="1032" font-family="Onest, Inter, Arial, sans-serif" font-size="12" font-weight="600" fill="#6C717C" text-anchor="start" letter-spacing="0" opacity="1"><tspan x="1062" dy="0">Стили</tspan></text><text x="1062" y="1080" font-family="Onest, Inter, Arial, sans-serif" font-size="17" font-weight="650" fill="#13151A" text-anchor="start" letter-spacing="0" opacity="1"><tspan x="1062" dy="0">Скандинавский · Минимализм</tspan></text><text x="80" y="1250" font-family="Onest, Inter, Arial, sans-serif" font-size="40" font-weight="700" fill="#13151A" text-anchor="start" letter-spacing="0" opacity="1"><tspan x="80" dy="0">Проекты Nordform Studio</tspan></text><g id="HOTSPOT__COMPANY__OPEN_NORDIC_LIVING" data-name="HOTSPOT__COMPANY__OPEN_NORDIC_LIVING"><rect x="80" y="1320" width="406" height="370" rx="18" fill="#FFFFFF" /><g id="ART__nordic-living" data-name="ART__nordic-living" transform="translate(80 1320)">
    <defs><clipPath id="ART_CLIP_70"><rect width="1200" height="760" rx="30"/></clipPath></defs>
    <g transform="scale(0.34 0.33)" clip-path="url(#ART_CLIP_70)"><rect x="0" y="0" width="1200" height="760" rx="0" fill="#E9E1D5" /><rect x="0" y="540" width="1200" height="220" rx="0" fill="#C69479" opacity=".64"/>
    <rect x="760" y="82" width="310" height="340" rx="6" fill="#CFE0E2" />
    <line x1="915" y1="82" x2="915" y2="422" stroke="#F7F5EF" stroke-width="8" /><line x1="760" y1="250" x2="1070" y2="250" stroke="#F7F5EF" stroke-width="8" />
    <ellipse cx="570" cy="626" rx="360" ry="72" fill="#EFE9DF" opacity=".86"/>
    <rect x="365" y="390" width="405" height="168" rx="28" fill="#F5F2EC" /><rect x="405" y="312" width="326" height="148" rx="26" fill="#EBE8E1" />
    <rect x="436" y="370" width="108" height="92" rx="16" fill="#94AAA5" /><rect x="620" y="370" width="105" height="92" rx="16" fill="#C69479" />
    <rect x="792" y="526" width="174" height="38" rx="14" fill="#2D3334" /><line x1="879" y1="558" x2="879" y2="650" stroke="#2D3334" stroke-width="16" stroke-linecap="round"/>
    <line x1="1010" y1="275" x2="1010" y2="565" stroke="#2D3334" stroke-width="12" stroke-linecap="round"/>
    <path d="M948 285c17-76 104-76 125 0Z" fill="#2D3334"/>
    <circle cx="206" cy="250" r="78" fill="#94AAA5" opacity=".20"/>
    <path d="M207 190v235M150 268l57-47 61 46M164 327l43-41 52 42" stroke="#2D3334" stroke-width="8" stroke-linecap="round" opacity=".58" fill="none"/>
    <rect x="168" y="423" width="84" height="128" rx="18" fill="#2D3334" opacity=".72"/></g>
  </g>
    <circle cx="452" cy="1350" r="21" fill="#FFFFFF" fill-opacity=".94"/>
    <g transform="translate(440 1338) scale(1)"><path d="M20.8 4.7a5.5 5.5 0 0 0-7.8 0L12 5.8l-1.1-1.1a5.5 5.5 0 1 0-7.8 7.8l1.1 1L12 21l7.8-7.5 1-1a5.5 5.5 0 0 0 0-7.8Z" fill="none" stroke="#13151A" stroke-width="1.8" stroke-linecap="round" stroke-linejoin="round"/></g>
    <text x="80" y="1595" font-family="Onest, Inter, Arial, sans-serif" font-size="12" font-weight="500" fill="#6C717C" text-anchor="start" letter-spacing="0" opacity="1"><tspan x="80" dy="0">Интерьер · Скандинавский · 42 м²</tspan></text>
    <text x="80" y="1628" font-family="Onest, Inter, Arial, sans-serif" font-size="22" font-weight="650" fill="#13151A" text-anchor="start" letter-spacing="0" opacity="1"><tspan x="80" dy="0">Северная гостиная</tspan></text>
    <text x="80" y="1664" font-family="Onest, Inter, Arial, sans-serif" font-size="13" font-weight="650" fill="#005BFF" text-anchor="start" letter-spacing="0" opacity="1"><tspan x="80" dy="0">Nordform Studio</tspan></text>
    <rect id="HOTSPOT__COMPANY__OPEN_NORDIC_LIVING__TARGET" data-name="HOTSPOT__COMPANY__OPEN_NORDIC_LIVING__TARGET" x="80" y="1320" width="406" height="370" rx="8" fill="#FFFFFF" fill-opacity="0.001"/></g><g id="HOTSPOT__PROJECT__OAK_DINING" data-name="HOTSPOT__PROJECT__OAK_DINING"><rect x="506" y="1320" width="406" height="370" rx="18" fill="#FFFFFF" /><g id="ART__oak-dining" data-name="ART__oak-dining" transform="translate(506 1320)">
    <defs><clipPath id="ART_CLIP_71"><rect width="1200" height="760" rx="30"/></clipPath></defs>
    <g transform="scale(0.34 0.33)" clip-path="url(#ART_CLIP_71)"><rect x="0" y="0" width="1200" height="760" rx="0" fill="#EADFCF" /><rect x="0" y="540" width="1200" height="220" rx="0" fill="#7B9189" opacity=".64"/>
    <rect x="760" y="82" width="310" height="340" rx="6" fill="#CFE0E2" />
    <line x1="915" y1="82" x2="915" y2="422" stroke="#F7F5EF" stroke-width="8" /><line x1="760" y1="250" x2="1070" y2="250" stroke="#F7F5EF" stroke-width="8" />
    <ellipse cx="570" cy="626" rx="360" ry="72" fill="#EFE9DF" opacity=".86"/>
    <rect x="365" y="390" width="405" height="168" rx="28" fill="#F5F2EC" /><rect x="405" y="312" width="326" height="148" rx="26" fill="#EBE8E1" />
    <rect x="436" y="370" width="108" height="92" rx="16" fill="#C09A72" /><rect x="620" y="370" width="105" height="92" rx="16" fill="#7B9189" />
    <rect x="792" y="526" width="174" height="38" rx="14" fill="#382F2A" /><line x1="879" y1="558" x2="879" y2="650" stroke="#382F2A" stroke-width="16" stroke-linecap="round"/>
    <line x1="1010" y1="275" x2="1010" y2="565" stroke="#382F2A" stroke-width="12" stroke-linecap="round"/>
    <path d="M948 285c17-76 104-76 125 0Z" fill="#382F2A"/>
    <circle cx="206" cy="250" r="78" fill="#C09A72" opacity=".20"/>
    <path d="M207 190v235M150 268l57-47 61 46M164 327l43-41 52 42" stroke="#382F2A" stroke-width="8" stroke-linecap="round" opacity=".58" fill="none"/>
    <rect x="168" y="423" width="84" height="128" rx="18" fill="#382F2A" opacity=".72"/></g>
  </g>
    <circle cx="878" cy="1350" r="21" fill="#FFFFFF" fill-opacity=".94"/>
    <g transform="translate(866 1338) scale(1)"><path d="M20.8 4.7a5.5 5.5 0 0 0-7.8 0L12 5.8l-1.1-1.1a5.5 5.5 0 1 0-7.8 7.8l1.1 1L12 21l7.8-7.5 1-1a5.5 5.5 0 0 0 0-7.8Z" fill="none" stroke="#13151A" stroke-width="1.8" stroke-linecap="round" stroke-linejoin="round"/></g>
    <text x="506" y="1595" font-family="Onest, Inter, Arial, sans-serif" font-size="12" font-weight="500" fill="#6C717C" text-anchor="start" letter-spacing="0" opacity="1"><tspan x="506" dy="0">Интерьер · Скандинавский · 34 м²</tspan></text>
    <text x="506" y="1628" font-family="Onest, Inter, Arial, sans-serif" font-size="22" font-weight="650" fill="#13151A" text-anchor="start" letter-spacing="0" opacity="1"><tspan x="506" dy="0">Столовая из светлого дуба</tspan></text>
    <text x="506" y="1664" font-family="Onest, Inter, Arial, sans-serif" font-size="13" font-weight="650" fill="#005BFF" text-anchor="start" letter-spacing="0" opacity="1"><tspan x="506" dy="0">Nordform Studio</tspan></text>
    <rect id="HOTSPOT__PROJECT__OAK_DINING__TARGET" data-name="HOTSPOT__PROJECT__OAK_DINING__TARGET" x="506" y="1320" width="406" height="370" rx="8" fill="#FFFFFF" fill-opacity="0.001"/></g><g id="HOTSPOT__PROJECT__SOFT_BEDROOM" data-name="HOTSPOT__PROJECT__SOFT_BEDROOM"><rect x="932" y="1320" width="406" height="370" rx="18" fill="#FFFFFF" /><g id="ART__soft-bedroom" data-name="ART__soft-bedroom" transform="translate(932 1320)">
    <defs><clipPath id="ART_CLIP_72"><rect width="1200" height="760" rx="30"/></clipPath></defs>
    <g transform="scale(0.34 0.33)" clip-path="url(#ART_CLIP_72)"><rect x="0" y="0" width="1200" height="760" rx="0" fill="#EEE0DD" /><rect x="0" y="540" width="1200" height="220" rx="0" fill="#A8B5AC" opacity=".64"/>
    <rect x="760" y="82" width="310" height="340" rx="6" fill="#CFE0E2" />
    <line x1="915" y1="82" x2="915" y2="422" stroke="#F7F5EF" stroke-width="8" /><line x1="760" y1="250" x2="1070" y2="250" stroke="#F7F5EF" stroke-width="8" />
    <ellipse cx="570" cy="626" rx="360" ry="72" fill="#EFE9DF" opacity=".86"/>
    <rect x="365" y="390" width="405" height="168" rx="28" fill="#F5F2EC" /><rect x="405" y="312" width="326" height="148" rx="26" fill="#EBE8E1" />
    <rect x="436" y="370" width="108" height="92" rx="16" fill="#CFAFA7" /><rect x="620" y="370" width="105" height="92" rx="16" fill="#A8B5AC" />
    <rect x="792" y="526" width="174" height="38" rx="14" fill="#4B4140" /><line x1="879" y1="558" x2="879" y2="650" stroke="#4B4140" stroke-width="16" stroke-linecap="round"/>
    <line x1="1010" y1="275" x2="1010" y2="565" stroke="#4B4140" stroke-width="12" stroke-linecap="round"/>
    <path d="M948 285c17-76 104-76 125 0Z" fill="#4B4140"/>
    <circle cx="206" cy="250" r="78" fill="#CFAFA7" opacity=".20"/>
    <path d="M207 190v235M150 268l57-47 61 46M164 327l43-41 52 42" stroke="#4B4140" stroke-width="8" stroke-linecap="round" opacity=".58" fill="none"/>
    <rect x="168" y="423" width="84" height="128" rx="18" fill="#4B4140" opacity=".72"/></g>
  </g>
    <circle cx="1304" cy="1350" r="21" fill="#FFFFFF" fill-opacity=".94"/>
    <g transform="translate(1292 1338) scale(1)"><path d="M20.8 4.7a5.5 5.5 0 0 0-7.8 0L12 5.8l-1.1-1.1a5.5 5.5 0 1 0-7.8 7.8l1.1 1L12 21l7.8-7.5 1-1a5.5 5.5 0 0 0 0-7.8Z" fill="none" stroke="#13151A" stroke-width="1.8" stroke-linecap="round" stroke-linejoin="round"/></g>
    <text x="932" y="1595" font-family="Onest, Inter, Arial, sans-serif" font-size="12" font-weight="500" fill="#6C717C" text-anchor="start" letter-spacing="0" opacity="1"><tspan x="932" dy="0">Интерьер · Современный · 26 м²</tspan></text>
    <text x="932" y="1628" font-family="Onest, Inter, Arial, sans-serif" font-size="22" font-weight="650" fill="#13151A" text-anchor="start" letter-spacing="0" opacity="1"><tspan x="932" dy="0">Спальня с мягким светом</tspan></text>
    <text x="932" y="1664" font-family="Onest, Inter, Arial, sans-serif" font-size="13" font-weight="650" fill="#005BFF" text-anchor="start" letter-spacing="0" opacity="1"><tspan x="932" dy="0">Nordform Studio</tspan></text>
    <rect id="HOTSPOT__PROJECT__SOFT_BEDROOM__TARGET" data-name="HOTSPOT__PROJECT__SOFT_BEDROOM__TARGET" x="932" y="1320" width="406" height="370" rx="8" fill="#FFFFFF" fill-opacity="0.001"/></g><g id="HOTSPOT__PROJECT__PINE_HOUSE" data-name="HOTSPOT__PROJECT__PINE_HOUSE"><rect x="80" y="1710" width="406" height="370" rx="18" fill="#FFFFFF" /><g id="ART__pine-house" data-name="ART__pine-house" transform="translate(80 1710)">
    <defs><clipPath id="ART_CLIP_73"><rect width="1200" height="760" rx="30"/></clipPath></defs>
    <g transform="scale(0.34 0.33)" clip-path="url(#ART_CLIP_73)"><rect x="0" y="0" width="1200" height="760" rx="0" fill="#8FA096" /><circle cx="980" cy="148" r="72" fill="#F6E7BB" opacity=".82"/>
    <path d="M0 448 190 300l174 92 210-170 220 187 180-112 226 164v299H0Z" fill="#53645B" opacity=".48"/>
    <path d="M0 535c210-44 345-36 516 8 222 58 411 33 684-54v271H0Z" fill="#53645B"/>
    <path d="M210 488 526 312h390l132 176v170H210Z" fill="#252B29"/>
    <line x1="526" y1="312" x2="526" y2="658" stroke="#A78364" stroke-width="12" opacity=".88"/>
    <rect x="278" y="442" width="226" height="158" rx="0" fill="#D4E3E3" opacity=".92"/><rect x="566" y="370" width="300" height="230" rx="0" fill="#BFD2D4" opacity=".92"/>
    <line x1="716" y1="370" x2="716" y2="600" stroke="#F7F4EA" stroke-width="8" /><line x1="566" y1="486" x2="866" y2="486" stroke="#F7F4EA" stroke-width="8" />
    <line x1="163" y1="658" x2="1093" y2="658" stroke="#A78364" stroke-width="32" stroke-linecap="round"/>
    <path d="M0 700c280-74 535-52 754 8 146 40 294 44 446 8v44H0Z" fill="#769395" opacity=".86"/></g>
  </g>
    <circle cx="452" cy="1740" r="21" fill="#FFFFFF" fill-opacity=".94"/>
    <g transform="translate(440 1728) scale(1)"><path d="M20.8 4.7a5.5 5.5 0 0 0-7.8 0L12 5.8l-1.1-1.1a5.5 5.5 0 1 0-7.8 7.8l1.1 1L12 21l7.8-7.5 1-1a5.5 5.5 0 0 0 0-7.8Z" fill="none" stroke="#13151A" stroke-width="1.8" stroke-linecap="round" stroke-linejoin="round"/></g>
    <text x="80" y="1985" font-family="Onest, Inter, Arial, sans-serif" font-size="12" font-weight="500" fill="#6C717C" text-anchor="start" letter-spacing="0" opacity="1"><tspan x="80" dy="0">Архитектура · Экостиль · 148 м²</tspan></text>
    <text x="80" y="2018" font-family="Onest, Inter, Arial, sans-serif" font-size="22" font-weight="650" fill="#13151A" text-anchor="start" letter-spacing="0" opacity="1"><tspan x="80" dy="0">Дом в соснах</tspan></text>
    <text x="80" y="2054" font-family="Onest, Inter, Arial, sans-serif" font-size="13" font-weight="650" fill="#005BFF" text-anchor="start" letter-spacing="0" opacity="1"><tspan x="80" dy="0">Nordform Studio</tspan></text>
    <rect id="HOTSPOT__PROJECT__PINE_HOUSE__TARGET" data-name="HOTSPOT__PROJECT__PINE_HOUSE__TARGET" x="80" y="1710" width="406" height="370" rx="8" fill="#FFFFFF" fill-opacity="0.001"/></g><g id="HOTSPOT__PROJECT__LINE_OF_LIGHT" data-name="HOTSPOT__PROJECT__LINE_OF_LIGHT"><rect x="506" y="1710" width="406" height="370" rx="18" fill="#FFFFFF" /><g id="ART__line-of-light" data-name="ART__line-of-light" transform="translate(506 1710)">
    <defs><clipPath id="ART_CLIP_74"><rect width="1200" height="760" rx="30"/></clipPath></defs>
    <g transform="scale(0.34 0.33)" clip-path="url(#ART_CLIP_74)"><rect x="0" y="0" width="1200" height="760" rx="0" fill="#DFE6EF" /><rect x="0" y="540" width="1200" height="220" rx="0" fill="#F3B08D" opacity=".64"/>
    <rect x="760" y="82" width="310" height="340" rx="6" fill="#CFE0E2" />
    <line x1="915" y1="82" x2="915" y2="422" stroke="#F7F5EF" stroke-width="8" /><line x1="760" y1="250" x2="1070" y2="250" stroke="#F7F5EF" stroke-width="8" />
    <ellipse cx="570" cy="626" rx="360" ry="72" fill="#EFE9DF" opacity=".86"/>
    <rect x="365" y="390" width="405" height="168" rx="28" fill="#F5F2EC" /><rect x="405" y="312" width="326" height="148" rx="26" fill="#EBE8E1" />
    <rect x="436" y="370" width="108" height="92" rx="16" fill="#7591AD" /><rect x="620" y="370" width="105" height="92" rx="16" fill="#F3B08D" />
    <rect x="792" y="526" width="174" height="38" rx="14" fill="#242B36" /><line x1="879" y1="558" x2="879" y2="650" stroke="#242B36" stroke-width="16" stroke-linecap="round"/>
    <line x1="1010" y1="275" x2="1010" y2="565" stroke="#242B36" stroke-width="12" stroke-linecap="round"/>
    <path d="M948 285c17-76 104-76 125 0Z" fill="#242B36"/>
    <circle cx="206" cy="250" r="78" fill="#7591AD" opacity=".20"/>
    <path d="M207 190v235M150 268l57-47 61 46M164 327l43-41 52 42" stroke="#242B36" stroke-width="8" stroke-linecap="round" opacity=".58" fill="none"/>
    <rect x="168" y="423" width="84" height="128" rx="18" fill="#242B36" opacity=".72"/></g>
  </g>
    <circle cx="878" cy="1740" r="21" fill="#FFFFFF" fill-opacity=".94"/>
    <g transform="translate(866 1728) scale(1)"><path d="M20.8 4.7a5.5 5.5 0 0 0-7.8 0L12 5.8l-1.1-1.1a5.5 5.5 0 1 0-7.8 7.8l1.1 1L12 21l7.8-7.5 1-1a5.5 5.5 0 0 0 0-7.8Z" fill="none" stroke="#13151A" stroke-width="1.8" stroke-linecap="round" stroke-linejoin="round"/></g>
    <text x="506" y="1985" font-family="Onest, Inter, Arial, sans-serif" font-size="12" font-weight="500" fill="#6C717C" text-anchor="start" letter-spacing="0" opacity="1"><tspan x="506" dy="0">Освещение · Минимализм · 46 м²</tspan></text>
    <text x="506" y="2018" font-family="Onest, Inter, Arial, sans-serif" font-size="22" font-weight="650" fill="#13151A" text-anchor="start" letter-spacing="0" opacity="1"><tspan x="506" dy="0">Линия света</tspan></text>
    <text x="506" y="2054" font-family="Onest, Inter, Arial, sans-serif" font-size="13" font-weight="650" fill="#005BFF" text-anchor="start" letter-spacing="0" opacity="1"><tspan x="506" dy="0">Nordform Studio</tspan></text>
    <rect id="HOTSPOT__PROJECT__LINE_OF_LIGHT__TARGET" data-name="HOTSPOT__PROJECT__LINE_OF_LIGHT__TARGET" x="506" y="1710" width="406" height="370" rx="8" fill="#FFFFFF" fill-opacity="0.001"/></g><g id="HOTSPOT__PROJECT__OAK_MODULE" data-name="HOTSPOT__PROJECT__OAK_MODULE"><rect x="932" y="1710" width="406" height="370" rx="18" fill="#FFFFFF" /><g id="ART__oak-module" data-name="ART__oak-module" transform="translate(932 1710)">
    <defs><clipPath id="ART_CLIP_75"><rect width="1200" height="760" rx="30"/></clipPath></defs>
    <g transform="scale(0.34 0.33)" clip-path="url(#ART_CLIP_75)"><rect x="0" y="0" width="1200" height="760" rx="0" fill="#D8C6AE" /><rect x="0" y="540" width="1200" height="220" rx="0" fill="#586B69" opacity=".64"/>
    <rect x="760" y="82" width="310" height="340" rx="6" fill="#CFE0E2" />
    <line x1="915" y1="82" x2="915" y2="422" stroke="#F7F5EF" stroke-width="8" /><line x1="760" y1="250" x2="1070" y2="250" stroke="#F7F5EF" stroke-width="8" />
    <ellipse cx="570" cy="626" rx="360" ry="72" fill="#EFE9DF" opacity=".86"/>
    <rect x="365" y="390" width="405" height="168" rx="28" fill="#F5F2EC" /><rect x="405" y="312" width="326" height="148" rx="26" fill="#EBE8E1" />
    <rect x="436" y="370" width="108" height="92" rx="16" fill="#966F50" /><rect x="620" y="370" width="105" height="92" rx="16" fill="#586B69" />
    <rect x="792" y="526" width="174" height="38" rx="14" fill="#262A2A" /><line x1="879" y1="558" x2="879" y2="650" stroke="#262A2A" stroke-width="16" stroke-linecap="round"/>
    <line x1="1010" y1="275" x2="1010" y2="565" stroke="#262A2A" stroke-width="12" stroke-linecap="round"/>
    <path d="M948 285c17-76 104-76 125 0Z" fill="#262A2A"/>
    <circle cx="206" cy="250" r="78" fill="#966F50" opacity=".20"/>
    <path d="M207 190v235M150 268l57-47 61 46M164 327l43-41 52 42" stroke="#262A2A" stroke-width="8" stroke-linecap="round" opacity=".58" fill="none"/>
    <rect x="168" y="423" width="84" height="128" rx="18" fill="#262A2A" opacity=".72"/></g>
  </g>
    <circle cx="1304" cy="1740" r="21" fill="#FFFFFF" fill-opacity=".94"/>
    <g transform="translate(1292 1728) scale(1)"><path d="M20.8 4.7a5.5 5.5 0 0 0-7.8 0L12 5.8l-1.1-1.1a5.5 5.5 0 1 0-7.8 7.8l1.1 1L12 21l7.8-7.5 1-1a5.5 5.5 0 0 0 0-7.8Z" fill="none" stroke="#13151A" stroke-width="1.8" stroke-linecap="round" stroke-linejoin="round"/></g>
    <text x="932" y="1985" font-family="Onest, Inter, Arial, sans-serif" font-size="12" font-weight="500" fill="#6C717C" text-anchor="start" letter-spacing="0" opacity="1"><tspan x="932" dy="0">Мебель · Минимализм · 58 м²</tspan></text>
    <text x="932" y="2018" font-family="Onest, Inter, Arial, sans-serif" font-size="22" font-weight="650" fill="#13151A" text-anchor="start" letter-spacing="0" opacity="1"><tspan x="932" dy="0">Дубовый модуль</tspan></text>
    <text x="932" y="2054" font-family="Onest, Inter, Arial, sans-serif" font-size="13" font-weight="650" fill="#005BFF" text-anchor="start" letter-spacing="0" opacity="1"><tspan x="932" dy="0">Nordform Studio</tspan></text>
    <rect id="HOTSPOT__PROJECT__OAK_MODULE__TARGET" data-name="HOTSPOT__PROJECT__OAK_MODULE__TARGET" x="932" y="1710" width="406" height="370" rx="8" fill="#FFFFFF" fill-opacity="0.001"/></g><rect x="80" y="2180" width="610" height="440" rx="22" fill="#F5F6F8" /><text x="120" y="2250" font-family="Onest, Inter, Arial, sans-serif" font-size="30" font-weight="700" fill="#13151A" text-anchor="start" letter-spacing="0" opacity="1"><tspan x="120" dy="0">О студии</tspan></text><text x="120" y="2320" font-family="Onest, Inter, Arial, sans-serif" font-size="17" font-weight="430" fill="#6C717C" text-anchor="start" letter-spacing="0" opacity="1"><tspan x="120" dy="0">Команда объединяет интерьерных дизайнеров,</tspan><tspan x="120" dy="28">архитекторов и предметных специалистов. Проекты</tspan><tspan x="120" dy="28">начинаются с исследования привычек семьи, а не с</tspan><tspan x="120" dy="28">выбора стилистики.</tspan></text><text x="120" y="2490" font-family="Onest, Inter, Arial, sans-serif" font-size="14" font-weight="650" fill="#005BFF" text-anchor="start" letter-spacing="0" opacity="1"><tspan x="120" dy="0">2018 — год основания</tspan></text><rect x="730" y="2180" width="630" height="440" rx="22" fill="#13151A" /><text x="770" y="2250" font-family="Onest, Inter, Arial, sans-serif" font-size="30" font-weight="700" fill="#FFFFFF" text-anchor="start" letter-spacing="0" opacity="1"><tspan x="770" dy="0">Подход к работе</tspan></text><text x="770" y="2340" font-family="Onest, Inter, Arial, sans-serif" font-size="18" font-weight="580" fill="#FFFFFF" text-anchor="start" letter-spacing="0" opacity="1"><tspan x="770" dy="0">01 Сначала сценарии жизни</tspan></text><line x1="770" y1="2372" x2="1300" y2="2372" stroke="#383D45" stroke-width="1" /><text x="770" y="2422" font-family="Onest, Inter, Arial, sans-serif" font-size="18" font-weight="580" fill="#AFC3FF" text-anchor="start" letter-spacing="0" opacity="1"><tspan x="770" dy="0">02 Затем архитектура пространства</tspan></text><line x1="770" y1="2454" x2="1300" y2="2454" stroke="#383D45" stroke-width="1" /><text x="770" y="2504" font-family="Onest, Inter, Arial, sans-serif" font-size="18" font-weight="580" fill="#FFFFFF" text-anchor="start" letter-spacing="0" opacity="1"><tspan x="770" dy="0">03 После — материалы и предметы</tspan></text></g>
</svg>