<?xml version="1.0" encoding="UTF-8"?>
<svg xmlns="http://www.w3.org/2000/svg" width="1440" height="1770" viewBox="0 0 1440 1770">
  <title>Ozon Design — Товары проекта</title>
  <desc>Ozon Design — импортируемый экран для Figma Design. Корневой фрейм: FRAME__DESKTOP__COLLECTION__NORDIC_LIVING.</desc>
  <defs>
    <linearGradient id="heroShade" x1="0" y1="0" x2="1" y2="0"><stop offset="0" stop-color="#101318" stop-opacity=".58"/><stop offset=".62" stop-color="#101318" stop-opacity=".05"/><stop offset="1" stop-color="#101318" stop-opacity=".12"/></linearGradient>
  </defs>
  <g id="FRAME__DESKTOP__COLLECTION__NORDIC_LIVING" data-name="FRAME__DESKTOP__COLLECTION__NORDIC_LIVING"><rect x="0" y="0" width="1440" height="1770" rx="0" fill="#FFFFFF" /><rect x="0" y="0" width="1440" height="88" rx="0" fill="#FFFFFF" /><text x="80" y="54" font-family="Onest, Inter, Arial, sans-serif" font-size="22" font-weight="700" fill="#13151A" text-anchor="start" letter-spacing="0" opacity="1"><tspan x="80" dy="0">Ozon Design</tspan></text><g id="HOTSPOT__HEADER__CATALOG" data-name="HOTSPOT__HEADER__CATALOG"><text x="535.5" y="52" font-family="Onest, Inter, Arial, sans-serif" font-size="14" font-weight="650" fill="#13151A" text-anchor="middle" letter-spacing="0" opacity="1"><tspan x="535.5" dy="0">Каталог</tspan></text><rect id="HOTSPOT__HEADER__CATALOG__TARGET" data-name="HOTSPOT__HEADER__CATALOG__TARGET" x="490" y="22" width="91" height="44" rx="8" fill="#FFFFFF" fill-opacity="0.001"/></g><g id="HOTSPOT__HEADER__COMPANY" data-name="HOTSPOT__HEADER__COMPANY"><text x="649" y="52" font-family="Onest, Inter, Arial, sans-serif" font-size="14" font-weight="650" fill="#13151A" text-anchor="middle" letter-spacing="0" opacity="1"><tspan x="649" dy="0">Компании</tspan></text><rect id="HOTSPOT__HEADER__COMPANY__TARGET" data-name="HOTSPOT__HEADER__COMPANY__TARGET" x="599" y="22" width="100" height="44" rx="8" fill="#FFFFFF" fill-opacity="0.001"/></g><g id="HOTSPOT__HEADER__COLLECTION" data-name="HOTSPOT__HEADER__COLLECTION"><text x="767" y="52" font-family="Onest, Inter, Arial, sans-serif" font-size="14" font-weight="650" fill="#005BFF" text-anchor="middle" letter-spacing="0" opacity="1"><tspan x="767" dy="0">Подборки</tspan></text><rect id="HOTSPOT__HEADER__COLLECTION__TARGET" data-name="HOTSPOT__HEADER__COLLECTION__TARGET" x="717" y="22" width="100" height="44" rx="8" fill="#FFFFFF" fill-opacity="0.001"/></g><g id="HOTSPOT__HEADER__ABOUT" data-name="HOTSPOT__HEADER__ABOUT"><text x="889.5" y="52" font-family="Onest, Inter, Arial, sans-serif" font-size="14" font-weight="650" fill="#13151A" text-anchor="middle" letter-spacing="0" opacity="1"><tspan x="889.5" dy="0">О проекте</tspan></text><rect id="HOTSPOT__HEADER__ABOUT__TARGET" data-name="HOTSPOT__HEADER__ABOUT__TARGET" x="835" y="22" width="109" height="44" rx="8" fill="#FFFFFF" fill-opacity="0.001"/></g><g id="HOTSPOT__HEADER__SEARCH" data-name="HOTSPOT__HEADER__SEARCH"><rect x="1120" y="22" width="102" height="44" rx="22" fill="#F5F6F8" /><g transform="translate(1136 32) scale(0.92)"><circle cx="10.5" cy="10.5" r="6.5" fill="none" stroke="#6C717C" stroke-width="1.8"/><path d="m15.5 15.5 5 5" stroke="#6C717C" stroke-width="1.8" stroke-linecap="round"/></g><text x="1170" y="50" font-family="Onest, Inter, Arial, sans-serif" font-size="13" font-weight="600" fill="#6C717C" text-anchor="start" letter-spacing="0" opacity="1"><tspan x="1170" dy="0">Поиск</tspan></text><rect id="HOTSPOT__HEADER__SEARCH__TARGET" data-name="HOTSPOT__HEADER__SEARCH__TARGET" x="1120" y="22" width="102" height="44" rx="8" fill="#FFFFFF" fill-opacity="0.001"/></g><g id="HOTSPOT__HEADER__FAVORITES" data-name="HOTSPOT__HEADER__FAVORITES"><rect x="1236" y="22" width="124" height="44" rx="22" fill="#FFF0F6" /><g transform="translate(1250 32) scale(0.92)"><path d="M20.8 4.7a5.5 5.5 0 0 0-7.8 0L12 5.8l-1.1-1.1a5.5 5.5 0 1 0-7.8 7.8l1.1 1L12 21l7.8-7.5 1-1a5.5 5.5 0 0 0 0-7.8Z" fill="#F43F8C"/></g><text x="1282" y="50" font-family="Onest, Inter, Arial, sans-serif" font-size="13" font-weight="650" fill="#F43F8C" text-anchor="start" letter-spacing="0" opacity="1"><tspan x="1282" dy="0">Избранное 1</tspan></text><rect id="HOTSPOT__HEADER__FAVORITES__TARGET" data-name="HOTSPOT__HEADER__FAVORITES__TARGET" x="1236" y="22" width="124" height="44" rx="8" fill="#FFFFFF" fill-opacity="0.001"/></g><line x1="0" y1="87" x2="1440" y2="87" stroke="#E7E9ED" stroke-width="1" /><g id="HOTSPOT__COLLECTION__BACK_PROJECT" data-name="HOTSPOT__COLLECTION__BACK_PROJECT"><g transform="translate(80 128) scale(0.92)"><path d="M19 12H5m5-5-5 5 5 5" fill="none" stroke="#005BFF" stroke-width="1.8" stroke-linecap="round" stroke-linejoin="round"/></g><text x="114" y="145" font-family="Onest, Inter, Arial, sans-serif" font-size="13" font-weight="650" fill="#005BFF" text-anchor="start" letter-spacing="0" opacity="1"><tspan x="114" dy="0">Вернуться к проекту</tspan></text><rect id="HOTSPOT__COLLECTION__BACK_PROJECT__TARGET" data-name="HOTSPOT__COLLECTION__BACK_PROJECT__TARGET" x="76" y="112" width="210" height="44" rx="8" fill="#FFFFFF" fill-opacity="0.001"/></g><text x="80" y="225" font-family="Onest, Inter, Arial, sans-serif" font-size="48" font-weight="730" fill="#13151A" text-anchor="start" letter-spacing="0" opacity="1"><tspan x="80" dy="0">Товары из проекта</tspan><tspan x="80" dy="56">«Северная гостиная»</tspan></text><text x="80" y="355" font-family="Onest, Inter, Arial, sans-serif" font-size="17" font-weight="430" fill="#6C717C" text-anchor="start" letter-spacing="0" opacity="1"><tspan x="80" dy="0">Демонстрационная подборка предметов, использованных в интерьере.</tspan></text><g id="HOTSPOT__PRODUCT__SOFA" data-name="HOTSPOT__PRODUCT__SOFA"><rect x="80" y="440" width="406" height="420" rx="18" fill="#FFFFFF" stroke="#E7E9ED"/><g id="ART__sofa" data-name="ART__sofa" transform="translate(80 440)">
    <defs><clipPath id="ART_CLIP_76"><rect width="1200" height="760" rx="30"/></clipPath></defs>
    <g transform="scale(0.34 0.33)" clip-path="url(#ART_CLIP_76)"><rect x="0" y="0" width="1200" height="760" rx="0" fill="#E9E3D9" /><circle cx="980" cy="130" r="170" fill="#B4C2BB" opacity=".16"/><circle cx="185" cy="620" r="220" fill="#C48C71" opacity=".18"/><rect x="250" y="345" width="700" height="235" rx="60" fill="#B4C2BB" /><rect x="305" y="245" width="590" height="220" rx="62" fill="#EDE9E2" /><rect x="355" y="315" width="180" height="150" rx="34" fill="#C48C71" /><rect x="660" y="315" width="180" height="150" rx="34" fill="#B4C2BB" opacity=".78"/></g>
  </g><text x="98" y="722" font-family="Onest, Inter, Arial, sans-serif" font-size="12" font-weight="500" fill="#6C717C" text-anchor="start" letter-spacing="0" opacity="1"><tspan x="98" dy="0">Диваны</tspan></text><text x="98" y="756" font-family="Onest, Inter, Arial, sans-serif" font-size="18" font-weight="650" fill="#13151A" text-anchor="start" letter-spacing="0" opacity="1"><tspan x="98" dy="0">Модульный диван Norr</tspan></text><text x="98" y="800" font-family="Onest, Inter, Arial, sans-serif" font-size="18" font-weight="700" fill="#13151A" text-anchor="start" letter-spacing="0" opacity="1"><tspan x="98" dy="0">129 990 ₽</tspan></text><g transform="translate(410 786) scale(0.75)"><path d="m12 3 2.7 5.6 6.2.9-4.5 4.4 1.1 6.1-5.5-2.9L6.5 20l1.1-6.1-4.5-4.4 6.2-.9Z" fill="#F2A900"/></g><text x="438" y="800" font-family="Onest, Inter, Arial, sans-serif" font-size="13" font-weight="600" fill="#6C717C" text-anchor="start" letter-spacing="0" opacity="1"><tspan x="438" dy="0">4.9</tspan></text><rect x="98" y="818" width="370" height="1" rx="0" fill="#E7E9ED" /><text x="98" y="846" font-family="Onest, Inter, Arial, sans-serif" font-size="13" font-weight="650" fill="#005BFF" text-anchor="start" letter-spacing="0" opacity="1"><tspan x="98" dy="0">Посмотреть на Ozon</tspan></text><g transform="translate(444 829) scale(0.75)"><path d="M5 12h14m-5-5 5 5-5 5" fill="none" stroke="#005BFF" stroke-width="1.8" stroke-linecap="round" stroke-linejoin="round"/></g><rect id="HOTSPOT__PRODUCT__SOFA__TARGET" data-name="HOTSPOT__PRODUCT__SOFA__TARGET" x="80" y="440" width="406" height="420" rx="8" fill="#FFFFFF" fill-opacity="0.001"/></g><g id="HOTSPOT__PRODUCT__TABLE" data-name="HOTSPOT__PRODUCT__TABLE"><rect x="506" y="440" width="406" height="420" rx="18" fill="#FFFFFF" stroke="#E7E9ED"/><g id="ART__table" data-name="ART__table" transform="translate(506 440)">
    <defs><clipPath id="ART_CLIP_77"><rect width="1200" height="760" rx="30"/></clipPath></defs>
    <g transform="scale(0.34 0.33)" clip-path="url(#ART_CLIP_77)"><rect x="0" y="0" width="1200" height="760" rx="0" fill="#EEE5D8" /><circle cx="980" cy="130" r="170" fill="#AF7E57" opacity=".16"/><circle cx="185" cy="620" r="220" fill="#869990" opacity=".18"/><ellipse cx="600" cy="350" rx="330" ry="115" fill="#869990"/><line x1="520" y1="405" x2="430" y2="650" stroke="#352D28" stroke-width="38" stroke-linecap="round"/><line x1="680" y1="405" x2="770" y2="650" stroke="#352D28" stroke-width="38" stroke-linecap="round"/></g>
  </g><text x="524" y="722" font-family="Onest, Inter, Arial, sans-serif" font-size="12" font-weight="500" fill="#6C717C" text-anchor="start" letter-spacing="0" opacity="1"><tspan x="524" dy="0">Столы</tspan></text><text x="524" y="756" font-family="Onest, Inter, Arial, sans-serif" font-size="18" font-weight="650" fill="#13151A" text-anchor="start" letter-spacing="0" opacity="1"><tspan x="524" dy="0">Журнальный стол Oak 60</tspan></text><text x="524" y="800" font-family="Onest, Inter, Arial, sans-serif" font-size="18" font-weight="700" fill="#13151A" text-anchor="start" letter-spacing="0" opacity="1"><tspan x="524" dy="0">24 990 ₽</tspan></text><g transform="translate(836 786) scale(0.75)"><path d="m12 3 2.7 5.6 6.2.9-4.5 4.4 1.1 6.1-5.5-2.9L6.5 20l1.1-6.1-4.5-4.4 6.2-.9Z" fill="#F2A900"/></g><text x="864" y="800" font-family="Onest, Inter, Arial, sans-serif" font-size="13" font-weight="600" fill="#6C717C" text-anchor="start" letter-spacing="0" opacity="1"><tspan x="864" dy="0">4.8</tspan></text><rect x="524" y="818" width="370" height="1" rx="0" fill="#E7E9ED" /><text x="524" y="846" font-family="Onest, Inter, Arial, sans-serif" font-size="13" font-weight="650" fill="#005BFF" text-anchor="start" letter-spacing="0" opacity="1"><tspan x="524" dy="0">Посмотреть на Ozon</tspan></text><g transform="translate(870 829) scale(0.75)"><path d="M5 12h14m-5-5 5 5-5 5" fill="none" stroke="#005BFF" stroke-width="1.8" stroke-linecap="round" stroke-linejoin="round"/></g><rect id="HOTSPOT__PRODUCT__TABLE__TARGET" data-name="HOTSPOT__PRODUCT__TABLE__TARGET" x="506" y="440" width="406" height="420" rx="8" fill="#FFFFFF" fill-opacity="0.001"/></g><g id="HOTSPOT__PRODUCT__LAMP" data-name="HOTSPOT__PRODUCT__LAMP"><rect x="932" y="440" width="406" height="420" rx="18" fill="#FFFFFF" stroke="#E7E9ED"/><g id="ART__lamp" data-name="ART__lamp" transform="translate(932 440)">
    <defs><clipPath id="ART_CLIP_78"><rect width="1200" height="760" rx="30"/></clipPath></defs>
    <g transform="scale(0.34 0.33)" clip-path="url(#ART_CLIP_78)"><rect x="0" y="0" width="1200" height="760" rx="0" fill="#DFE7EF" /><circle cx="980" cy="130" r="170" fill="#7C94AF" opacity=".16"/><circle cx="185" cy="620" r="220" fill="#F3B27F" opacity=".18"/><line x1="610" y1="165" x2="610" y2="555" stroke="#252A31" stroke-width="30" stroke-linecap="round"/><path d="M430 276c32-165 308-165 340 0Z" fill="#7C94AF"/><ellipse cx="610" cy="588" rx="180" ry="44" fill="#252A31"/></g>
  </g><text x="950" y="722" font-family="Onest, Inter, Arial, sans-serif" font-size="12" font-weight="500" fill="#6C717C" text-anchor="start" letter-spacing="0" opacity="1"><tspan x="950" dy="0">Освещение</tspan></text><text x="950" y="756" font-family="Onest, Inter, Arial, sans-serif" font-size="18" font-weight="650" fill="#13151A" text-anchor="start" letter-spacing="0" opacity="1"><tspan x="950" dy="0">Напольный светильник Arc</tspan></text><text x="950" y="800" font-family="Onest, Inter, Arial, sans-serif" font-size="18" font-weight="700" fill="#13151A" text-anchor="start" letter-spacing="0" opacity="1"><tspan x="950" dy="0">18 990 ₽</tspan></text><g transform="translate(1262 786) scale(0.75)"><path d="m12 3 2.7 5.6 6.2.9-4.5 4.4 1.1 6.1-5.5-2.9L6.5 20l1.1-6.1-4.5-4.4 6.2-.9Z" fill="#F2A900"/></g><text x="1290" y="800" font-family="Onest, Inter, Arial, sans-serif" font-size="13" font-weight="600" fill="#6C717C" text-anchor="start" letter-spacing="0" opacity="1"><tspan x="1290" dy="0">4.7</tspan></text><rect x="950" y="818" width="370" height="1" rx="0" fill="#E7E9ED" /><text x="950" y="846" font-family="Onest, Inter, Arial, sans-serif" font-size="13" font-weight="650" fill="#005BFF" text-anchor="start" letter-spacing="0" opacity="1"><tspan x="950" dy="0">Посмотреть на Ozon</tspan></text><g transform="translate(1296 829) scale(0.75)"><path d="M5 12h14m-5-5 5 5-5 5" fill="none" stroke="#005BFF" stroke-width="1.8" stroke-linecap="round" stroke-linejoin="round"/></g><rect id="HOTSPOT__PRODUCT__LAMP__TARGET" data-name="HOTSPOT__PRODUCT__LAMP__TARGET" x="932" y="440" width="406" height="420" rx="8" fill="#FFFFFF" fill-opacity="0.001"/></g><g id="HOTSPOT__PRODUCT__RUG" data-name="HOTSPOT__PRODUCT__RUG"><rect x="80" y="910" width="406" height="420" rx="18" fill="#FFFFFF" stroke="#E7E9ED"/><g id="ART__rug" data-name="ART__rug" transform="translate(80 910)">
    <defs><clipPath id="ART_CLIP_79"><rect width="1200" height="760" rx="30"/></clipPath></defs>
    <g transform="scale(0.34 0.33)" clip-path="url(#ART_CLIP_79)"><rect x="0" y="0" width="1200" height="760" rx="0" fill="#E9DFD1" /><circle cx="980" cy="130" r="170" fill="#BAA082" opacity=".16"/><circle cx="185" cy="620" r="220" fill="#889C94" opacity=".18"/><rect x="220" y="195" width="760" height="370" rx="42" fill="#889C94" /><path d="M270 260c185 90 390 90 660 0M270 380c185 90 390 90 660 0M270 500c185 90 390 90 660 0" fill="none" stroke="#BAA082" stroke-width="26" opacity=".72"/></g>
  </g><text x="98" y="1192" font-family="Onest, Inter, Arial, sans-serif" font-size="12" font-weight="500" fill="#6C717C" text-anchor="start" letter-spacing="0" opacity="1"><tspan x="98" dy="0">Ковры</tspan></text><text x="98" y="1226" font-family="Onest, Inter, Arial, sans-serif" font-size="18" font-weight="650" fill="#13151A" text-anchor="start" letter-spacing="0" opacity="1"><tspan x="98" dy="0">Шерстяной ковёр Fjord</tspan></text><text x="98" y="1270" font-family="Onest, Inter, Arial, sans-serif" font-size="18" font-weight="700" fill="#13151A" text-anchor="start" letter-spacing="0" opacity="1"><tspan x="98" dy="0">32 990 ₽</tspan></text><g transform="translate(410 1256) scale(0.75)"><path d="m12 3 2.7 5.6 6.2.9-4.5 4.4 1.1 6.1-5.5-2.9L6.5 20l1.1-6.1-4.5-4.4 6.2-.9Z" fill="#F2A900"/></g><text x="438" y="1270" font-family="Onest, Inter, Arial, sans-serif" font-size="13" font-weight="600" fill="#6C717C" text-anchor="start" letter-spacing="0" opacity="1"><tspan x="438" dy="0">4.9</tspan></text><rect x="98" y="1288" width="370" height="1" rx="0" fill="#E7E9ED" /><text x="98" y="1316" font-family="Onest, Inter, Arial, sans-serif" font-size="13" font-weight="650" fill="#005BFF" text-anchor="start" letter-spacing="0" opacity="1"><tspan x="98" dy="0">Посмотреть на Ozon</tspan></text><g transform="translate(444 1299) scale(0.75)"><path d="M5 12h14m-5-5 5 5-5 5" fill="none" stroke="#005BFF" stroke-width="1.8" stroke-linecap="round" stroke-linejoin="round"/></g><rect id="HOTSPOT__PRODUCT__RUG__TARGET" data-name="HOTSPOT__PRODUCT__RUG__TARGET" x="80" y="910" width="406" height="420" rx="8" fill="#FFFFFF" fill-opacity="0.001"/></g><g id="HOTSPOT__PRODUCT__CHAIR" data-name="HOTSPOT__PRODUCT__CHAIR"><rect x="506" y="910" width="406" height="420" rx="18" fill="#FFFFFF" stroke="#E7E9ED"/><g id="ART__chair" data-name="ART__chair" transform="translate(506 910)">
    <defs><clipPath id="ART_CLIP_80"><rect width="1200" height="760" rx="30"/></clipPath></defs>
    <g transform="scale(0.34 0.33)" clip-path="url(#ART_CLIP_80)"><rect x="0" y="0" width="1200" height="760" rx="0" fill="#EADFDC" /><circle cx="980" cy="130" r="170" fill="#C59A8C" opacity=".16"/><circle cx="185" cy="620" r="220" fill="#7D918C" opacity=".18"/><path d="M420 250c0-85 360-85 360 0v245c0 95-360 95-360 0Z" fill="#C59A8C"/><rect x="382" y="420" width="436" height="150" rx="70" fill="#7D918C" /><line x1="450" y1="545" x2="410" y2="665" stroke="#363B3B" stroke-width="30" stroke-linecap="round"/><line x1="750" y1="545" x2="790" y2="665" stroke="#363B3B" stroke-width="30" stroke-linecap="round"/></g>
  </g><text x="524" y="1192" font-family="Onest, Inter, Arial, sans-serif" font-size="12" font-weight="500" fill="#6C717C" text-anchor="start" letter-spacing="0" opacity="1"><tspan x="524" dy="0">Кресла</tspan></text><text x="524" y="1226" font-family="Onest, Inter, Arial, sans-serif" font-size="18" font-weight="650" fill="#13151A" text-anchor="start" letter-spacing="0" opacity="1"><tspan x="524" dy="0">Кресло Soft Shell</tspan></text><text x="524" y="1270" font-family="Onest, Inter, Arial, sans-serif" font-size="18" font-weight="700" fill="#13151A" text-anchor="start" letter-spacing="0" opacity="1"><tspan x="524" dy="0">45 990 ₽</tspan></text><g transform="translate(836 1256) scale(0.75)"><path d="m12 3 2.7 5.6 6.2.9-4.5 4.4 1.1 6.1-5.5-2.9L6.5 20l1.1-6.1-4.5-4.4 6.2-.9Z" fill="#F2A900"/></g><text x="864" y="1270" font-family="Onest, Inter, Arial, sans-serif" font-size="13" font-weight="600" fill="#6C717C" text-anchor="start" letter-spacing="0" opacity="1"><tspan x="864" dy="0">4.8</tspan></text><rect x="524" y="1288" width="370" height="1" rx="0" fill="#E7E9ED" /><text x="524" y="1316" font-family="Onest, Inter, Arial, sans-serif" font-size="13" font-weight="650" fill="#005BFF" text-anchor="start" letter-spacing="0" opacity="1"><tspan x="524" dy="0">Посмотреть на Ozon</tspan></text><g transform="translate(870 1299) scale(0.75)"><path d="M5 12h14m-5-5 5 5-5 5" fill="none" stroke="#005BFF" stroke-width="1.8" stroke-linecap="round" stroke-linejoin="round"/></g><rect id="HOTSPOT__PRODUCT__CHAIR__TARGET" data-name="HOTSPOT__PRODUCT__CHAIR__TARGET" x="506" y="910" width="406" height="420" rx="8" fill="#FFFFFF" fill-opacity="0.001"/></g><g id="HOTSPOT__PRODUCT__SHELF" data-name="HOTSPOT__PRODUCT__SHELF"><rect x="932" y="910" width="406" height="420" rx="18" fill="#FFFFFF" stroke="#E7E9ED"/><g id="ART__shelf" data-name="ART__shelf" transform="translate(932 910)">
    <defs><clipPath id="ART_CLIP_81"><rect width="1200" height="760" rx="30"/></clipPath></defs>
    <g transform="scale(0.34 0.33)" clip-path="url(#ART_CLIP_81)"><rect x="0" y="0" width="1200" height="760" rx="0" fill="#E1D5C5" /><circle cx="980" cy="130" r="170" fill="#9D724F" opacity=".16"/><circle cx="185" cy="620" r="220" fill="#7A8D87" opacity=".18"/><rect x="250" y="180" width="700" height="56" rx="20" fill="#7A8D87" /><rect x="250" y="365" width="700" height="56" rx="20" fill="#7A8D87" /><rect x="250" y="550" width="700" height="56" rx="20" fill="#7A8D87" /><line x1="320" y1="210" x2="320" y2="578" stroke="#302D2A" stroke-width="28" /><line x1="880" y1="210" x2="880" y2="578" stroke="#302D2A" stroke-width="28" /><rect x="380" y="290" width="100" height="75" rx="10" fill="#9D724F" /><circle cx="710" cy="320" r="46" fill="#9D724F" /></g>
  </g><text x="950" y="1192" font-family="Onest, Inter, Arial, sans-serif" font-size="12" font-weight="500" fill="#6C717C" text-anchor="start" letter-spacing="0" opacity="1"><tspan x="950" dy="0">Хранение</tspan></text><text x="950" y="1226" font-family="Onest, Inter, Arial, sans-serif" font-size="18" font-weight="650" fill="#13151A" text-anchor="start" letter-spacing="0" opacity="1"><tspan x="950" dy="0">Настенная полка Line</tspan></text><text x="950" y="1270" font-family="Onest, Inter, Arial, sans-serif" font-size="18" font-weight="700" fill="#13151A" text-anchor="start" letter-spacing="0" opacity="1"><tspan x="950" dy="0">9 990 ₽</tspan></text><g transform="translate(1262 1256) scale(0.75)"><path d="m12 3 2.7 5.6 6.2.9-4.5 4.4 1.1 6.1-5.5-2.9L6.5 20l1.1-6.1-4.5-4.4 6.2-.9Z" fill="#F2A900"/></g><text x="1290" y="1270" font-family="Onest, Inter, Arial, sans-serif" font-size="13" font-weight="600" fill="#6C717C" text-anchor="start" letter-spacing="0" opacity="1"><tspan x="1290" dy="0">4.6</tspan></text><rect x="950" y="1288" width="370" height="1" rx="0" fill="#E7E9ED" /><text x="950" y="1316" font-family="Onest, Inter, Arial, sans-serif" font-size="13" font-weight="650" fill="#005BFF" text-anchor="start" letter-spacing="0" opacity="1"><tspan x="950" dy="0">Посмотреть на Ozon</tspan></text><g transform="translate(1296 1299) scale(0.75)"><path d="M5 12h14m-5-5 5 5-5 5" fill="none" stroke="#005BFF" stroke-width="1.8" stroke-linecap="round" stroke-linejoin="round"/></g><rect id="HOTSPOT__PRODUCT__SHELF__TARGET" data-name="HOTSPOT__PRODUCT__SHELF__TARGET" x="932" y="910" width="406" height="420" rx="8" fill="#FFFFFF" fill-opacity="0.001"/></g><rect x="80" y="1430" width="1280" height="180" rx="20" fill="#EEF4FF" /><text x="120" y="1495" font-family="Onest, Inter, Arial, sans-serif" font-size="18" font-weight="650" fill="#13151A" text-anchor="start" letter-spacing="0" opacity="1"><tspan x="120" dy="0">Изображения, цены и рейтинги показаны для демонстрации сценария.</tspan></text><text x="120" y="1542" font-family="Onest, Inter, Arial, sans-serif" font-size="14" font-weight="430" fill="#6C717C" text-anchor="start" letter-spacing="0" opacity="1"><tspan x="120" dy="0">Нажатие на товар откроет информационное окно, а не реальный Ozon.</tspan></text></g>
</svg>