<?xml version="1.0" encoding="UTF-8"?>
<svg xmlns="http://www.w3.org/2000/svg" width="1440" height="900" viewBox="0 0 1440 900">
  <title>Ozon Design — Демонстрационный переход</title>
  <desc>Ozon Design — импортируемый экран для Figma Design. Корневой фрейм: FRAME__DESKTOP__PRODUCT_MODAL.</desc>
  <defs>
    <linearGradient id="heroShade" x1="0" y1="0" x2="1" y2="0"><stop offset="0" stop-color="#101318" stop-opacity=".58"/><stop offset=".62" stop-color="#101318" stop-opacity=".05"/><stop offset="1" stop-color="#101318" stop-opacity=".12"/></linearGradient>
  </defs>
  <g id="FRAME__DESKTOP__PRODUCT_MODAL" data-name="FRAME__DESKTOP__PRODUCT_MODAL"><rect x="0" y="0" width="1440" height="900" rx="0" fill="#FFFFFF" /><rect x="0" y="0" width="1440" height="88" rx="0" fill="#FFFFFF" /><text x="80" y="54" font-family="Onest, Inter, Arial, sans-serif" font-size="22" font-weight="700" fill="#13151A" text-anchor="start" letter-spacing="0" opacity="1"><tspan x="80" dy="0">Ozon Design</tspan></text><g id="HOTSPOT__HEADER__CATALOG" data-name="HOTSPOT__HEADER__CATALOG"><text x="535.5" y="52" font-family="Onest, Inter, Arial, sans-serif" font-size="14" font-weight="650" fill="#13151A" text-anchor="middle" letter-spacing="0" opacity="1"><tspan x="535.5" dy="0">Каталог</tspan></text><rect id="HOTSPOT__HEADER__CATALOG__TARGET" data-name="HOTSPOT__HEADER__CATALOG__TARGET" x="490" y="22" width="91" height="44" rx="8" fill="#FFFFFF" fill-opacity="0.001"/></g><g id="HOTSPOT__HEADER__COMPANY" data-name="HOTSPOT__HEADER__COMPANY"><text x="649" y="52" font-family="Onest, Inter, Arial, sans-serif" font-size="14" font-weight="650" fill="#13151A" text-anchor="middle" letter-spacing="0" opacity="1"><tspan x="649" dy="0">Компании</tspan></text><rect id="HOTSPOT__HEADER__COMPANY__TARGET" data-name="HOTSPOT__HEADER__COMPANY__TARGET" x="599" y="22" width="100" height="44" rx="8" fill="#FFFFFF" fill-opacity="0.001"/></g><g id="HOTSPOT__HEADER__COLLECTION" data-name="HOTSPOT__HEADER__COLLECTION"><text x="767" y="52" font-family="Onest, Inter, Arial, sans-serif" font-size="14" font-weight="650" fill="#005BFF" text-anchor="middle" letter-spacing="0" opacity="1"><tspan x="767" dy="0">Подборки</tspan></text><rect id="HOTSPOT__HEADER__COLLECTION__TARGET" data-name="HOTSPOT__HEADER__COLLECTION__TARGET" x="717" y="22" width="100" height="44" rx="8" fill="#FFFFFF" fill-opacity="0.001"/></g><g id="HOTSPOT__HEADER__ABOUT" data-name="HOTSPOT__HEADER__ABOUT"><text x="889.5" y="52" font-family="Onest, Inter, Arial, sans-serif" font-size="14" font-weight="650" fill="#13151A" text-anchor="middle" letter-spacing="0" opacity="1"><tspan x="889.5" dy="0">О проекте</tspan></text><rect id="HOTSPOT__HEADER__ABOUT__TARGET" data-name="HOTSPOT__HEADER__ABOUT__TARGET" x="835" y="22" width="109" height="44" rx="8" fill="#FFFFFF" fill-opacity="0.001"/></g><g id="HOTSPOT__HEADER__SEARCH" data-name="HOTSPOT__HEADER__SEARCH"><rect x="1120" y="22" width="102" height="44" rx="22" fill="#F5F6F8" /><g transform="translate(1136 32) scale(0.92)"><circle cx="10.5" cy="10.5" r="6.5" fill="none" stroke="#6C717C" stroke-width="1.8"/><path d="m15.5 15.5 5 5" stroke="#6C717C" stroke-width="1.8" stroke-linecap="round"/></g><text x="1170" y="50" font-family="Onest, Inter, Arial, sans-serif" font-size="13" font-weight="600" fill="#6C717C" text-anchor="start" letter-spacing="0" opacity="1"><tspan x="1170" dy="0">Поиск</tspan></text><rect id="HOTSPOT__HEADER__SEARCH__TARGET" data-name="HOTSPOT__HEADER__SEARCH__TARGET" x="1120" y="22" width="102" height="44" rx="8" fill="#FFFFFF" fill-opacity="0.001"/></g><g id="HOTSPOT__HEADER__FAVORITES" data-name="HOTSPOT__HEADER__FAVORITES"><rect x="1236" y="22" width="124" height="44" rx="22" fill="#FFF0F6" /><g transform="translate(1250 32) scale(0.92)"><path d="M20.8 4.7a5.5 5.5 0 0 0-7.8 0L12 5.8l-1.1-1.1a5.5 5.5 0 1 0-7.8 7.8l1.1 1L12 21l7.8-7.5 1-1a5.5 5.5 0 0 0 0-7.8Z" fill="#F43F8C"/></g><text x="1282" y="50" font-family="Onest, Inter, Arial, sans-serif" font-size="13" font-weight="650" fill="#F43F8C" text-anchor="start" letter-spacing="0" opacity="1"><tspan x="1282" dy="0">Избранное 1</tspan></text><rect id="HOTSPOT__HEADER__FAVORITES__TARGET" data-name="HOTSPOT__HEADER__FAVORITES__TARGET" x="1236" y="22" width="124" height="44" rx="8" fill="#FFFFFF" fill-opacity="0.001"/></g><line x1="0" y1="87" x2="1440" y2="87" stroke="#E7E9ED" stroke-width="1" /><text x="80" y="175" font-family="Onest, Inter, Arial, sans-serif" font-size="36" font-weight="700" fill="#13151A" text-anchor="start" letter-spacing="0" opacity="1"><tspan x="80" dy="0">Товары из проекта «Северная гостиная»</tspan></text><g id="HOTSPOT__PRODUCT__SOFA__UNDERLAY" data-name="HOTSPOT__PRODUCT__SOFA__UNDERLAY"><rect x="80" y="250" width="406" height="420" rx="18" fill="#FFFFFF" stroke="#E7E9ED"/><g id="ART__sofa" data-name="ART__sofa" transform="translate(80 250)">
    <defs><clipPath id="ART_CLIP_82"><rect width="1200" height="760" rx="30"/></clipPath></defs>
    <g transform="scale(0.34 0.33)" clip-path="url(#ART_CLIP_82)"><rect x="0" y="0" width="1200" height="760" rx="0" fill="#E9E3D9" /><circle cx="980" cy="130" r="170" fill="#B4C2BB" opacity=".16"/><circle cx="185" cy="620" r="220" fill="#C48C71" opacity=".18"/><rect x="250" y="345" width="700" height="235" rx="60" fill="#B4C2BB" /><rect x="305" y="245" width="590" height="220" rx="62" fill="#EDE9E2" /><rect x="355" y="315" width="180" height="150" rx="34" fill="#C48C71" /><rect x="660" y="315" width="180" height="150" rx="34" fill="#B4C2BB" opacity=".78"/></g>
  </g><text x="98" y="532" font-family="Onest, Inter, Arial, sans-serif" font-size="12" font-weight="500" fill="#6C717C" text-anchor="start" letter-spacing="0" opacity="1"><tspan x="98" dy="0">Диваны</tspan></text><text x="98" y="566" font-family="Onest, Inter, Arial, sans-serif" font-size="18" font-weight="650" fill="#13151A" text-anchor="start" letter-spacing="0" opacity="1"><tspan x="98" dy="0">Модульный диван Norr</tspan></text><text x="98" y="610" font-family="Onest, Inter, Arial, sans-serif" font-size="18" font-weight="700" fill="#13151A" text-anchor="start" letter-spacing="0" opacity="1"><tspan x="98" dy="0">129 990 ₽</tspan></text><g transform="translate(410 596) scale(0.75)"><path d="m12 3 2.7 5.6 6.2.9-4.5 4.4 1.1 6.1-5.5-2.9L6.5 20l1.1-6.1-4.5-4.4 6.2-.9Z" fill="#F2A900"/></g><text x="438" y="610" font-family="Onest, Inter, Arial, sans-serif" font-size="13" font-weight="600" fill="#6C717C" text-anchor="start" letter-spacing="0" opacity="1"><tspan x="438" dy="0">4.9</tspan></text><rect x="98" y="628" width="370" height="1" rx="0" fill="#E7E9ED" /><text x="98" y="656" font-family="Onest, Inter, Arial, sans-serif" font-size="13" font-weight="650" fill="#005BFF" text-anchor="start" letter-spacing="0" opacity="1"><tspan x="98" dy="0">Посмотреть на Ozon</tspan></text><g transform="translate(444 639) scale(0.75)"><path d="M5 12h14m-5-5 5 5-5 5" fill="none" stroke="#005BFF" stroke-width="1.8" stroke-linecap="round" stroke-linejoin="round"/></g><rect id="HOTSPOT__PRODUCT__SOFA__UNDERLAY__TARGET" data-name="HOTSPOT__PRODUCT__SOFA__UNDERLAY__TARGET" x="80" y="250" width="406" height="420" rx="8" fill="#FFFFFF" fill-opacity="0.001"/></g><g id="HOTSPOT__PRODUCT__TABLE__UNDERLAY" data-name="HOTSPOT__PRODUCT__TABLE__UNDERLAY"><rect x="506" y="250" width="406" height="420" rx="18" fill="#FFFFFF" stroke="#E7E9ED"/><g id="ART__table" data-name="ART__table" transform="translate(506 250)">
    <defs><clipPath id="ART_CLIP_83"><rect width="1200" height="760" rx="30"/></clipPath></defs>
    <g transform="scale(0.34 0.33)" clip-path="url(#ART_CLIP_83)"><rect x="0" y="0" width="1200" height="760" rx="0" fill="#EEE5D8" /><circle cx="980" cy="130" r="170" fill="#AF7E57" opacity=".16"/><circle cx="185" cy="620" r="220" fill="#869990" opacity=".18"/><ellipse cx="600" cy="350" rx="330" ry="115" fill="#869990"/><line x1="520" y1="405" x2="430" y2="650" stroke="#352D28" stroke-width="38" stroke-linecap="round"/><line x1="680" y1="405" x2="770" y2="650" stroke="#352D28" stroke-width="38" stroke-linecap="round"/></g>
  </g><text x="524" y="532" font-family="Onest, Inter, Arial, sans-serif" font-size="12" font-weight="500" fill="#6C717C" text-anchor="start" letter-spacing="0" opacity="1"><tspan x="524" dy="0">Столы</tspan></text><text x="524" y="566" font-family="Onest, Inter, Arial, sans-serif" font-size="18" font-weight="650" fill="#13151A" text-anchor="start" letter-spacing="0" opacity="1"><tspan x="524" dy="0">Журнальный стол Oak 60</tspan></text><text x="524" y="610" font-family="Onest, Inter, Arial, sans-serif" font-size="18" font-weight="700" fill="#13151A" text-anchor="start" letter-spacing="0" opacity="1"><tspan x="524" dy="0">24 990 ₽</tspan></text><g transform="translate(836 596) scale(0.75)"><path d="m12 3 2.7 5.6 6.2.9-4.5 4.4 1.1 6.1-5.5-2.9L6.5 20l1.1-6.1-4.5-4.4 6.2-.9Z" fill="#F2A900"/></g><text x="864" y="610" font-family="Onest, Inter, Arial, sans-serif" font-size="13" font-weight="600" fill="#6C717C" text-anchor="start" letter-spacing="0" opacity="1"><tspan x="864" dy="0">4.8</tspan></text><rect x="524" y="628" width="370" height="1" rx="0" fill="#E7E9ED" /><text x="524" y="656" font-family="Onest, Inter, Arial, sans-serif" font-size="13" font-weight="650" fill="#005BFF" text-anchor="start" letter-spacing="0" opacity="1"><tspan x="524" dy="0">Посмотреть на Ozon</tspan></text><g transform="translate(870 639) scale(0.75)"><path d="M5 12h14m-5-5 5 5-5 5" fill="none" stroke="#005BFF" stroke-width="1.8" stroke-linecap="round" stroke-linejoin="round"/></g><rect id="HOTSPOT__PRODUCT__TABLE__UNDERLAY__TARGET" data-name="HOTSPOT__PRODUCT__TABLE__UNDERLAY__TARGET" x="506" y="250" width="406" height="420" rx="8" fill="#FFFFFF" fill-opacity="0.001"/></g><g id="HOTSPOT__PRODUCT__LAMP__UNDERLAY" data-name="HOTSPOT__PRODUCT__LAMP__UNDERLAY"><rect x="932" y="250" width="406" height="420" rx="18" fill="#FFFFFF" stroke="#E7E9ED"/><g id="ART__lamp" data-name="ART__lamp" transform="translate(932 250)">
    <defs><clipPath id="ART_CLIP_84"><rect width="1200" height="760" rx="30"/></clipPath></defs>
    <g transform="scale(0.34 0.33)" clip-path="url(#ART_CLIP_84)"><rect x="0" y="0" width="1200" height="760" rx="0" fill="#DFE7EF" /><circle cx="980" cy="130" r="170" fill="#7C94AF" opacity=".16"/><circle cx="185" cy="620" r="220" fill="#F3B27F" opacity=".18"/><line x1="610" y1="165" x2="610" y2="555" stroke="#252A31" stroke-width="30" stroke-linecap="round"/><path d="M430 276c32-165 308-165 340 0Z" fill="#7C94AF"/><ellipse cx="610" cy="588" rx="180" ry="44" fill="#252A31"/></g>
  </g><text x="950" y="532" font-family="Onest, Inter, Arial, sans-serif" font-size="12" font-weight="500" fill="#6C717C" text-anchor="start" letter-spacing="0" opacity="1"><tspan x="950" dy="0">Освещение</tspan></text><text x="950" y="566" font-family="Onest, Inter, Arial, sans-serif" font-size="18" font-weight="650" fill="#13151A" text-anchor="start" letter-spacing="0" opacity="1"><tspan x="950" dy="0">Напольный светильник Arc</tspan></text><text x="950" y="610" font-family="Onest, Inter, Arial, sans-serif" font-size="18" font-weight="700" fill="#13151A" text-anchor="start" letter-spacing="0" opacity="1"><tspan x="950" dy="0">18 990 ₽</tspan></text><g transform="translate(1262 596) scale(0.75)"><path d="m12 3 2.7 5.6 6.2.9-4.5 4.4 1.1 6.1-5.5-2.9L6.5 20l1.1-6.1-4.5-4.4 6.2-.9Z" fill="#F2A900"/></g><text x="1290" y="610" font-family="Onest, Inter, Arial, sans-serif" font-size="13" font-weight="600" fill="#6C717C" text-anchor="start" letter-spacing="0" opacity="1"><tspan x="1290" dy="0">4.7</tspan></text><rect x="950" y="628" width="370" height="1" rx="0" fill="#E7E9ED" /><text x="950" y="656" font-family="Onest, Inter, Arial, sans-serif" font-size="13" font-weight="650" fill="#005BFF" text-anchor="start" letter-spacing="0" opacity="1"><tspan x="950" dy="0">Посмотреть на Ozon</tspan></text><g transform="translate(1296 639) scale(0.75)"><path d="M5 12h14m-5-5 5 5-5 5" fill="none" stroke="#005BFF" stroke-width="1.8" stroke-linecap="round" stroke-linejoin="round"/></g><rect id="HOTSPOT__PRODUCT__LAMP__UNDERLAY__TARGET" data-name="HOTSPOT__PRODUCT__LAMP__UNDERLAY__TARGET" x="932" y="250" width="406" height="420" rx="8" fill="#FFFFFF" fill-opacity="0.001"/></g><rect x="0" y="0" width="1440" height="900" rx="0" fill="#13151A" fill-opacity=".62"/><rect x="425" y="210" width="590" height="470" rx="24" fill="#FFFFFF" stroke="#E7E9ED" stroke-width="1"/><circle cx="720" cy="302" r="48" fill="#EEF4FF" /><g transform="translate(696 278) scale(2)"><path d="M5 12h14m-5-5 5 5-5 5" fill="none" stroke="#005BFF" stroke-width="1.8" stroke-linecap="round" stroke-linejoin="round"/></g><text x="720" y="392" font-family="Onest, Inter, Arial, sans-serif" font-size="30" font-weight="700" fill="#13151A" text-anchor="middle" letter-spacing="0" opacity="1"><tspan x="720" dy="0">Демонстрационный переход</tspan></text><text x="720" y="448" font-family="Onest, Inter, Arial, sans-serif" font-size="16" font-weight="430" fill="#6C717C" text-anchor="middle" letter-spacing="0" opacity="1"><tspan x="720" dy="0">В рабочей версии здесь откроется карточка товара на</tspan><tspan x="720" dy="26">Ozon.</tspan></text><g id="HOTSPOT__PRODUCT_MODAL__CLOSE" data-name="HOTSPOT__PRODUCT_MODAL__CLOSE"><rect x="520" y="565" width="188" height="52" rx="12" fill="#005BFF" /><text x="614" y="598" font-family="Onest, Inter, Arial, sans-serif" font-size="14" font-weight="650" fill="#FFFFFF" text-anchor="middle" letter-spacing="0" opacity="1"><tspan x="614" dy="0">Понятно</tspan></text><rect id="HOTSPOT__PRODUCT_MODAL__CLOSE__TARGET" data-name="HOTSPOT__PRODUCT_MODAL__CLOSE__TARGET" x="520" y="565" width="188" height="52" rx="8" fill="#FFFFFF" fill-opacity="0.001"/></g><g id="HOTSPOT__PRODUCT_MODAL__BACK_PROJECT" data-name="HOTSPOT__PRODUCT_MODAL__BACK_PROJECT"><rect x="732" y="565" width="205" height="52" rx="12" fill="#FFFFFF" stroke="#E7E9ED" stroke-width="1"/><text x="834.5" y="598" font-family="Onest, Inter, Arial, sans-serif" font-size="14" font-weight="650" fill="#13151A" text-anchor="middle" letter-spacing="0" opacity="1"><tspan x="834.5" dy="0">Вернуться к проекту</tspan></text><rect id="HOTSPOT__PRODUCT_MODAL__BACK_PROJECT__TARGET" data-name="HOTSPOT__PRODUCT_MODAL__BACK_PROJECT__TARGET" x="732" y="565" width="205" height="52" rx="8" fill="#FFFFFF" fill-opacity="0.001"/></g></g>
</svg>