<?xml version="1.0" encoding="UTF-8"?>
<svg xmlns="http://www.w3.org/2000/svg" width="1440" height="1250" viewBox="0 0 1440 1250">
  <title>Ozon Design — Избранное — Сохранено</title>
  <desc>Ozon Design — импортируемый экран для Figma Design. Корневой фрейм: FRAME__DESKTOP__FAVORITES__SAVED.</desc>
  <defs>
    <linearGradient id="heroShade" x1="0" y1="0" x2="1" y2="0"><stop offset="0" stop-color="#101318" stop-opacity=".58"/><stop offset=".62" stop-color="#101318" stop-opacity=".05"/><stop offset="1" stop-color="#101318" stop-opacity=".12"/></linearGradient>
  </defs>
  <g id="FRAME__DESKTOP__FAVORITES__SAVED" data-name="FRAME__DESKTOP__FAVORITES__SAVED"><rect x="0" y="0" width="1440" height="1250" rx="0" fill="#FFFFFF" /><rect x="0" y="0" width="1440" height="88" rx="0" fill="#FFFFFF" /><text x="80" y="54" font-family="Onest, Inter, Arial, sans-serif" font-size="22" font-weight="700" fill="#13151A" text-anchor="start" letter-spacing="0" opacity="1"><tspan x="80" dy="0">Ozon Design</tspan></text><g id="HOTSPOT__HEADER__CATALOG" data-name="HOTSPOT__HEADER__CATALOG"><text x="535.5" y="52" font-family="Onest, Inter, Arial, sans-serif" font-size="14" font-weight="650" fill="#13151A" text-anchor="middle" letter-spacing="0" opacity="1"><tspan x="535.5" dy="0">Каталог</tspan></text><rect id="HOTSPOT__HEADER__CATALOG__TARGET" data-name="HOTSPOT__HEADER__CATALOG__TARGET" x="490" y="22" width="91" height="44" rx="8" fill="#FFFFFF" fill-opacity="0.001"/></g><g id="HOTSPOT__HEADER__COMPANY" data-name="HOTSPOT__HEADER__COMPANY"><text x="649" y="52" font-family="Onest, Inter, Arial, sans-serif" font-size="14" font-weight="650" fill="#13151A" text-anchor="middle" letter-spacing="0" opacity="1"><tspan x="649" dy="0">Компании</tspan></text><rect id="HOTSPOT__HEADER__COMPANY__TARGET" data-name="HOTSPOT__HEADER__COMPANY__TARGET" x="599" y="22" width="100" height="44" rx="8" fill="#FFFFFF" fill-opacity="0.001"/></g><g id="HOTSPOT__HEADER__COLLECTION" data-name="HOTSPOT__HEADER__COLLECTION"><text x="767" y="52" font-family="Onest, Inter, Arial, sans-serif" font-size="14" font-weight="650" fill="#13151A" text-anchor="middle" letter-spacing="0" opacity="1"><tspan x="767" dy="0">Подборки</tspan></text><rect id="HOTSPOT__HEADER__COLLECTION__TARGET" data-name="HOTSPOT__HEADER__COLLECTION__TARGET" x="717" y="22" width="100" height="44" rx="8" fill="#FFFFFF" fill-opacity="0.001"/></g><g id="HOTSPOT__HEADER__ABOUT" data-name="HOTSPOT__HEADER__ABOUT"><text x="889.5" y="52" font-family="Onest, Inter, Arial, sans-serif" font-size="14" font-weight="650" fill="#13151A" text-anchor="middle" letter-spacing="0" opacity="1"><tspan x="889.5" dy="0">О проекте</tspan></text><rect id="HOTSPOT__HEADER__ABOUT__TARGET" data-name="HOTSPOT__HEADER__ABOUT__TARGET" x="835" y="22" width="109" height="44" rx="8" fill="#FFFFFF" fill-opacity="0.001"/></g><g id="HOTSPOT__HEADER__SEARCH" data-name="HOTSPOT__HEADER__SEARCH"><rect x="1120" y="22" width="102" height="44" rx="22" fill="#F5F6F8" /><g transform="translate(1136 32) scale(0.92)"><circle cx="10.5" cy="10.5" r="6.5" fill="none" stroke="#6C717C" stroke-width="1.8"/><path d="m15.5 15.5 5 5" stroke="#6C717C" stroke-width="1.8" stroke-linecap="round"/></g><text x="1170" y="50" font-family="Onest, Inter, Arial, sans-serif" font-size="13" font-weight="600" fill="#6C717C" text-anchor="start" letter-spacing="0" opacity="1"><tspan x="1170" dy="0">Поиск</tspan></text><rect id="HOTSPOT__HEADER__SEARCH__TARGET" data-name="HOTSPOT__HEADER__SEARCH__TARGET" x="1120" y="22" width="102" height="44" rx="8" fill="#FFFFFF" fill-opacity="0.001"/></g><g id="HOTSPOT__HEADER__FAVORITES" data-name="HOTSPOT__HEADER__FAVORITES"><rect x="1236" y="22" width="124" height="44" rx="22" fill="#FFF0F6" /><g transform="translate(1250 32) scale(0.92)"><path d="M20.8 4.7a5.5 5.5 0 0 0-7.8 0L12 5.8l-1.1-1.1a5.5 5.5 0 1 0-7.8 7.8l1.1 1L12 21l7.8-7.5 1-1a5.5 5.5 0 0 0 0-7.8Z" fill="#F43F8C"/></g><text x="1282" y="50" font-family="Onest, Inter, Arial, sans-serif" font-size="13" font-weight="650" fill="#F43F8C" text-anchor="start" letter-spacing="0" opacity="1"><tspan x="1282" dy="0">Избранное 1</tspan></text><rect id="HOTSPOT__HEADER__FAVORITES__TARGET" data-name="HOTSPOT__HEADER__FAVORITES__TARGET" x="1236" y="22" width="124" height="44" rx="8" fill="#FFFFFF" fill-opacity="0.001"/></g><line x1="0" y1="87" x2="1440" y2="87" stroke="#E7E9ED" stroke-width="1" /><text x="80" y="190" font-family="Onest, Inter, Arial, sans-serif" font-size="48" font-weight="730" fill="#13151A" text-anchor="start" letter-spacing="0" opacity="1"><tspan x="80" dy="0">Избранные проекты</tspan></text><text x="80" y="238" font-family="Onest, Inter, Arial, sans-serif" font-size="17" font-weight="430" fill="#6C717C" text-anchor="start" letter-spacing="0" opacity="1"><tspan x="80" dy="0">Сохранённые идеи доступны до обновления демонстрационной сессии.</tspan></text><g id="HOTSPOT__FAVORITES__OPEN_NORDIC_LIVING" data-name="HOTSPOT__FAVORITES__OPEN_NORDIC_LIVING"><rect x="80" y="340" width="406" height="370" rx="18" fill="#FFFFFF" /><g id="ART__nordic-living" data-name="ART__nordic-living" transform="translate(80 340)">
    <defs><clipPath id="ART_CLIP_85"><rect width="1200" height="760" rx="30"/></clipPath></defs>
    <g transform="scale(0.34 0.33)" clip-path="url(#ART_CLIP_85)"><rect x="0" y="0" width="1200" height="760" rx="0" fill="#E9E1D5" /><rect x="0" y="540" width="1200" height="220" rx="0" fill="#C69479" opacity=".64"/>
    <rect x="760" y="82" width="310" height="340" rx="6" fill="#CFE0E2" />
    <line x1="915" y1="82" x2="915" y2="422" stroke="#F7F5EF" stroke-width="8" /><line x1="760" y1="250" x2="1070" y2="250" stroke="#F7F5EF" stroke-width="8" />
    <ellipse cx="570" cy="626" rx="360" ry="72" fill="#EFE9DF" opacity=".86"/>
    <rect x="365" y="390" width="405" height="168" rx="28" fill="#F5F2EC" /><rect x="405" y="312" width="326" height="148" rx="26" fill="#EBE8E1" />
    <rect x="436" y="370" width="108" height="92" rx="16" fill="#94AAA5" /><rect x="620" y="370" width="105" height="92" rx="16" fill="#C69479" />
    <rect x="792" y="526" width="174" height="38" rx="14" fill="#2D3334" /><line x1="879" y1="558" x2="879" y2="650" stroke="#2D3334" stroke-width="16" stroke-linecap="round"/>
    <line x1="1010" y1="275" x2="1010" y2="565" stroke="#2D3334" stroke-width="12" stroke-linecap="round"/>
    <path d="M948 285c17-76 104-76 125 0Z" fill="#2D3334"/>
    <circle cx="206" cy="250" r="78" fill="#94AAA5" opacity=".20"/>
    <path d="M207 190v235M150 268l57-47 61 46M164 327l43-41 52 42" stroke="#2D3334" stroke-width="8" stroke-linecap="round" opacity=".58" fill="none"/>
    <rect x="168" y="423" width="84" height="128" rx="18" fill="#2D3334" opacity=".72"/></g>
  </g>
    <circle cx="452" cy="370" r="21" fill="#FFFFFF" fill-opacity=".94"/>
    <g transform="translate(440 358) scale(1)"><path d="M20.8 4.7a5.5 5.5 0 0 0-7.8 0L12 5.8l-1.1-1.1a5.5 5.5 0 1 0-7.8 7.8l1.1 1L12 21l7.8-7.5 1-1a5.5 5.5 0 0 0 0-7.8Z" fill="#F43F8C"/></g>
    <text x="80" y="615" font-family="Onest, Inter, Arial, sans-serif" font-size="12" font-weight="500" fill="#6C717C" text-anchor="start" letter-spacing="0" opacity="1"><tspan x="80" dy="0">Интерьер · Скандинавский · 42 м²</tspan></text>
    <text x="80" y="648" font-family="Onest, Inter, Arial, sans-serif" font-size="22" font-weight="650" fill="#13151A" text-anchor="start" letter-spacing="0" opacity="1"><tspan x="80" dy="0">Северная гостиная</tspan></text>
    <text x="80" y="684" font-family="Onest, Inter, Arial, sans-serif" font-size="13" font-weight="650" fill="#005BFF" text-anchor="start" letter-spacing="0" opacity="1"><tspan x="80" dy="0">Nordform Studio</tspan></text>
    <rect id="HOTSPOT__FAVORITES__OPEN_NORDIC_LIVING__TARGET" data-name="HOTSPOT__FAVORITES__OPEN_NORDIC_LIVING__TARGET" x="80" y="340" width="406" height="370" rx="8" fill="#FFFFFF" fill-opacity="0.001"/></g><rect x="530" y="340" width="830" height="370" rx="22" fill="#EEF4FF" /><text x="580" y="420" font-family="Onest, Inter, Arial, sans-serif" font-size="14" font-weight="650" fill="#005BFF" text-anchor="start" letter-spacing="0" opacity="1"><tspan x="580" dy="0">1 сохранённый проект</tspan></text><text x="580" y="475" font-family="Onest, Inter, Arial, sans-serif" font-size="32" font-weight="700" fill="#13151A" text-anchor="start" letter-spacing="0" opacity="1"><tspan x="580" dy="0">Продолжите подбор</tspan></text><text x="580" y="535" font-family="Onest, Inter, Arial, sans-serif" font-size="16" font-weight="430" fill="#6C717C" text-anchor="start" letter-spacing="0" opacity="1"><tspan x="580" dy="0">Откройте каталог, чтобы найти похожие пространства и собрать</tspan><tspan x="580" dy="26">собственную подборку.</tspan></text><g id="HOTSPOT__FAVORITES__OPEN_CATALOG" data-name="HOTSPOT__FAVORITES__OPEN_CATALOG"><rect x="580" y="625" width="188" height="52" rx="12" fill="#005BFF" /><text x="674" y="658" font-family="Onest, Inter, Arial, sans-serif" font-size="14" font-weight="650" fill="#FFFFFF" text-anchor="middle" letter-spacing="0" opacity="1"><tspan x="674" dy="0">Открыть каталог</tspan></text><rect id="HOTSPOT__FAVORITES__OPEN_CATALOG__TARGET" data-name="HOTSPOT__FAVORITES__OPEN_CATALOG__TARGET" x="580" y="625" width="188" height="52" rx="8" fill="#FFFFFF" fill-opacity="0.001"/></g></g>
</svg>