<?xml version="1.0" encoding="UTF-8"?>
<svg xmlns="http://www.w3.org/2000/svg" width="1440" height="1740" viewBox="0 0 1440 1740">
  <title>Ozon Design — О проекте</title>
  <desc>Ozon Design — импортируемый экран для Figma Design. Корневой фрейм: FRAME__DESKTOP__ABOUT.</desc>
  <defs>
    <linearGradient id="heroShade" x1="0" y1="0" x2="1" y2="0"><stop offset="0" stop-color="#101318" stop-opacity=".58"/><stop offset=".62" stop-color="#101318" stop-opacity=".05"/><stop offset="1" stop-color="#101318" stop-opacity=".12"/></linearGradient>
  </defs>
  <g id="FRAME__DESKTOP__ABOUT" data-name="FRAME__DESKTOP__ABOUT"><rect x="0" y="0" width="1440" height="1740" rx="0" fill="#FFFFFF" /><rect x="0" y="0" width="1440" height="88" rx="0" fill="#FFFFFF" /><text x="80" y="54" font-family="Onest, Inter, Arial, sans-serif" font-size="22" font-weight="700" fill="#13151A" text-anchor="start" letter-spacing="0" opacity="1"><tspan x="80" dy="0">Ozon Design</tspan></text><g id="HOTSPOT__HEADER__CATALOG" data-name="HOTSPOT__HEADER__CATALOG"><text x="535.5" y="52" font-family="Onest, Inter, Arial, sans-serif" font-size="14" font-weight="650" fill="#13151A" text-anchor="middle" letter-spacing="0" opacity="1"><tspan x="535.5" dy="0">Каталог</tspan></text><rect id="HOTSPOT__HEADER__CATALOG__TARGET" data-name="HOTSPOT__HEADER__CATALOG__TARGET" x="490" y="22" width="91" height="44" rx="8" fill="#FFFFFF" fill-opacity="0.001"/></g><g id="HOTSPOT__HEADER__COMPANY" data-name="HOTSPOT__HEADER__COMPANY"><text x="649" y="52" font-family="Onest, Inter, Arial, sans-serif" font-size="14" font-weight="650" fill="#13151A" text-anchor="middle" letter-spacing="0" opacity="1"><tspan x="649" dy="0">Компании</tspan></text><rect id="HOTSPOT__HEADER__COMPANY__TARGET" data-name="HOTSPOT__HEADER__COMPANY__TARGET" x="599" y="22" width="100" height="44" rx="8" fill="#FFFFFF" fill-opacity="0.001"/></g><g id="HOTSPOT__HEADER__COLLECTION" data-name="HOTSPOT__HEADER__COLLECTION"><text x="767" y="52" font-family="Onest, Inter, Arial, sans-serif" font-size="14" font-weight="650" fill="#13151A" text-anchor="middle" letter-spacing="0" opacity="1"><tspan x="767" dy="0">Подборки</tspan></text><rect id="HOTSPOT__HEADER__COLLECTION__TARGET" data-name="HOTSPOT__HEADER__COLLECTION__TARGET" x="717" y="22" width="100" height="44" rx="8" fill="#FFFFFF" fill-opacity="0.001"/></g><g id="HOTSPOT__HEADER__ABOUT" data-name="HOTSPOT__HEADER__ABOUT"><text x="889.5" y="52" font-family="Onest, Inter, Arial, sans-serif" font-size="14" font-weight="650" fill="#005BFF" text-anchor="middle" letter-spacing="0" opacity="1"><tspan x="889.5" dy="0">О проекте</tspan></text><rect id="HOTSPOT__HEADER__ABOUT__TARGET" data-name="HOTSPOT__HEADER__ABOUT__TARGET" x="835" y="22" width="109" height="44" rx="8" fill="#FFFFFF" fill-opacity="0.001"/></g><g id="HOTSPOT__HEADER__SEARCH" data-name="HOTSPOT__HEADER__SEARCH"><rect x="1120" y="22" width="102" height="44" rx="22" fill="#F5F6F8" /><g transform="translate(1136 32) scale(0.92)"><circle cx="10.5" cy="10.5" r="6.5" fill="none" stroke="#6C717C" stroke-width="1.8"/><path d="m15.5 15.5 5 5" stroke="#6C717C" stroke-width="1.8" stroke-linecap="round"/></g><text x="1170" y="50" font-family="Onest, Inter, Arial, sans-serif" font-size="13" font-weight="600" fill="#6C717C" text-anchor="start" letter-spacing="0" opacity="1"><tspan x="1170" dy="0">Поиск</tspan></text><rect id="HOTSPOT__HEADER__SEARCH__TARGET" data-name="HOTSPOT__HEADER__SEARCH__TARGET" x="1120" y="22" width="102" height="44" rx="8" fill="#FFFFFF" fill-opacity="0.001"/></g><g id="HOTSPOT__HEADER__FAVORITES" data-name="HOTSPOT__HEADER__FAVORITES"><rect x="1236" y="22" width="124" height="44" rx="22" fill="#FFF0F6" /><g transform="translate(1250 32) scale(0.92)"><path d="M20.8 4.7a5.5 5.5 0 0 0-7.8 0L12 5.8l-1.1-1.1a5.5 5.5 0 1 0-7.8 7.8l1.1 1L12 21l7.8-7.5 1-1a5.5 5.5 0 0 0 0-7.8Z" fill="none" stroke="#F43F8C" stroke-width="1.8" stroke-linecap="round" stroke-linejoin="round"/></g><text x="1282" y="50" font-family="Onest, Inter, Arial, sans-serif" font-size="13" font-weight="650" fill="#F43F8C" text-anchor="start" letter-spacing="0" opacity="1"><tspan x="1282" dy="0">Избранное 0</tspan></text><rect id="HOTSPOT__HEADER__FAVORITES__TARGET" data-name="HOTSPOT__HEADER__FAVORITES__TARGET" x="1236" y="22" width="124" height="44" rx="8" fill="#FFFFFF" fill-opacity="0.001"/></g><line x1="0" y1="87" x2="1440" y2="87" stroke="#E7E9ED" stroke-width="1" /><rect x="80" y="130" width="1280" height="520" rx="24" fill="#13151A" /><text x="140" y="245" font-family="Onest, Inter, Arial, sans-serif" font-size="14" font-weight="700" fill="#F43F8C" text-anchor="start" letter-spacing="0" opacity="1"><tspan x="140" dy="0">О проекте</tspan></text><text x="140" y="330" font-family="Onest, Inter, Arial, sans-serif" font-size="56" font-weight="740" fill="#FFFFFF" text-anchor="start" letter-spacing="0" opacity="1"><tspan x="140" dy="0">От вдохновения —</tspan><tspan x="140" dy="64">к конкретным решениям</tspan></text><text x="140" y="500" font-family="Onest, Inter, Arial, sans-serif" font-size="19" font-weight="430" fill="#CFD2D8" text-anchor="start" letter-spacing="0" opacity="1"><tspan x="140" dy="0">Ozon Design помогает переходить от вдохновения к конкретным</tspan><tspan x="140" dy="30">решениям: смотреть реализованные пространства, знакомиться со</tspan><tspan x="140" dy="30">студиями и находить товары, использованные в проектах.</tspan></text><g id="ART__ABOUT_HERO" data-name="ART__ABOUT_HERO" transform="translate(940 170)">
    <defs><clipPath id="ART_CLIP_86"><rect width="1200" height="760" rx="30"/></clipPath></defs>
    <g transform="scale(0.3 0.57)" clip-path="url(#ART_CLIP_86)"><rect x="0" y="0" width="1200" height="760" rx="0" fill="#EFE5DA" /><rect x="0" y="540" width="1200" height="220" rx="0" fill="#839994" opacity=".64"/>
    <rect x="760" y="82" width="310" height="340" rx="6" fill="#CFE0E2" />
    <line x1="915" y1="82" x2="915" y2="422" stroke="#F7F5EF" stroke-width="8" /><line x1="760" y1="250" x2="1070" y2="250" stroke="#F7F5EF" stroke-width="8" />
    <ellipse cx="570" cy="626" rx="360" ry="72" fill="#EFE9DF" opacity=".86"/>
    <rect x="365" y="390" width="405" height="168" rx="28" fill="#F5F2EC" /><rect x="405" y="312" width="326" height="148" rx="26" fill="#EBE8E1" />
    <rect x="436" y="370" width="108" height="92" rx="16" fill="#B89379" /><rect x="620" y="370" width="105" height="92" rx="16" fill="#839994" />
    <rect x="792" y="526" width="174" height="38" rx="14" fill="#282D2E" /><line x1="879" y1="558" x2="879" y2="650" stroke="#282D2E" stroke-width="16" stroke-linecap="round"/>
    <line x1="1010" y1="275" x2="1010" y2="565" stroke="#282D2E" stroke-width="12" stroke-linecap="round"/>
    <path d="M948 285c17-76 104-76 125 0Z" fill="#282D2E"/>
    <circle cx="206" cy="250" r="78" fill="#B89379" opacity=".20"/>
    <path d="M207 190v235M150 268l57-47 61 46M164 327l43-41 52 42" stroke="#282D2E" stroke-width="8" stroke-linecap="round" opacity=".58" fill="none"/>
    <rect x="168" y="423" width="84" height="128" rx="18" fill="#282D2E" opacity=".72"/></g>
  </g><text x="80" y="790" font-family="Onest, Inter, Arial, sans-serif" font-size="40" font-weight="700" fill="#13151A" text-anchor="start" letter-spacing="0" opacity="1"><tspan x="80" dy="0">Почему это удобно</tspan></text><rect x="80" y="860" width="406" height="360" rx="20" fill="#EEF4FF" /><text x="110" y="915" font-family="Onest, Inter, Arial, sans-serif" font-size="18" font-weight="700" fill="#005BFF" text-anchor="start" letter-spacing="0" opacity="1"><tspan x="110" dy="0">01</tspan></text><text x="110" y="980" font-family="Onest, Inter, Arial, sans-serif" font-size="24" font-weight="680" fill="#13151A" text-anchor="start" letter-spacing="0" opacity="1"><tspan x="110" dy="0">Реальные дизайн-сценарии</tspan></text><text x="110" y="1090" font-family="Onest, Inter, Arial, sans-serif" font-size="15" font-weight="430" fill="#6C717C" text-anchor="start" letter-spacing="0" opacity="1"><tspan x="110" dy="0">Не отдельные товары, а целостные</tspan><tspan x="110" dy="24">пространства с понятной логикой</tspan><tspan x="110" dy="24">решений.</tspan></text><rect x="506" y="860" width="406" height="360" rx="20" fill="#F2EEE7" /><text x="536" y="915" font-family="Onest, Inter, Arial, sans-serif" font-size="18" font-weight="700" fill="#005BFF" text-anchor="start" letter-spacing="0" opacity="1"><tspan x="536" dy="0">02</tspan></text><text x="536" y="980" font-family="Onest, Inter, Arial, sans-serif" font-size="24" font-weight="680" fill="#13151A" text-anchor="start" letter-spacing="0" opacity="1"><tspan x="536" dy="0">Компании и проекты в одном</tspan><tspan x="536" dy="31">каталоге</tspan></text><text x="536" y="1090" font-family="Onest, Inter, Arial, sans-serif" font-size="15" font-weight="430" fill="#6C717C" text-anchor="start" letter-spacing="0" opacity="1"><tspan x="536" dy="0">Можно сразу увидеть автора проекта и</tspan><tspan x="536" dy="24">познакомиться с другими его работами.</tspan></text><rect x="932" y="860" width="406" height="360" rx="20" fill="#FFF0F6" /><text x="962" y="915" font-family="Onest, Inter, Arial, sans-serif" font-size="18" font-weight="700" fill="#F43F8C" text-anchor="start" letter-spacing="0" opacity="1"><tspan x="962" dy="0">03</tspan></text><text x="962" y="980" font-family="Onest, Inter, Arial, sans-serif" font-size="24" font-weight="680" fill="#13151A" text-anchor="start" letter-spacing="0" opacity="1"><tspan x="962" dy="0">Переход от идеи к товарам</tspan></text><text x="962" y="1090" font-family="Onest, Inter, Arial, sans-serif" font-size="15" font-weight="430" fill="#6C717C" text-anchor="start" letter-spacing="0" opacity="1"><tspan x="962" dy="0">Понравившийся образ превращается в</tspan><tspan x="962" dy="24">конкретный список предметов для</tspan><tspan x="962" dy="24">интерьера.</tspan></text><rect x="80" y="1325" width="1280" height="250" rx="22" fill="#EEF4FF" /><text x="120" y="1405" font-family="Onest, Inter, Arial, sans-serif" font-size="32" font-weight="700" fill="#13151A" text-anchor="start" letter-spacing="0" opacity="1"><tspan x="120" dy="0">Готовы найти своё пространство?</tspan></text><text x="120" y="1455" font-family="Onest, Inter, Arial, sans-serif" font-size="16" font-weight="430" fill="#6C717C" text-anchor="start" letter-spacing="0" opacity="1"><tspan x="120" dy="0">Начните с категории, комнаты или стиля.</tspan></text><g id="HOTSPOT__ABOUT__OPEN_CATALOG" data-name="HOTSPOT__ABOUT__OPEN_CATALOG"><rect x="1100" y="1418" width="200" height="52" rx="12" fill="#005BFF" /><text x="1200" y="1451" font-family="Onest, Inter, Arial, sans-serif" font-size="14" font-weight="650" fill="#FFFFFF" text-anchor="middle" letter-spacing="0" opacity="1"><tspan x="1200" dy="0">Перейти в каталог</tspan></text><rect id="HOTSPOT__ABOUT__OPEN_CATALOG__TARGET" data-name="HOTSPOT__ABOUT__OPEN_CATALOG__TARGET" x="1100" y="1418" width="200" height="52" rx="8" fill="#FFFFFF" fill-opacity="0.001"/></g></g>
</svg>