<?xml version="1.0" encoding="UTF-8"?>
<svg xmlns="http://www.w3.org/2000/svg" width="390" height="4140" viewBox="0 0 390 4140">
  <title>Ozon Design — Мобильная главная</title>
  <desc>Ozon Design — импортируемый экран для Figma Design. Корневой фрейм: FRAME__MOBILE__HOME.</desc>
  <defs>
    <linearGradient id="heroShade" x1="0" y1="0" x2="1" y2="0"><stop offset="0" stop-color="#101318" stop-opacity=".58"/><stop offset=".62" stop-color="#101318" stop-opacity=".05"/><stop offset="1" stop-color="#101318" stop-opacity=".12"/></linearGradient>
  </defs>
  <g id="FRAME__MOBILE__HOME" data-name="FRAME__MOBILE__HOME"><rect x="0" y="0" width="390" height="4140" rx="0" fill="#FFFFFF" /><rect x="0" y="0" width="390" height="72" rx="0" fill="#FFFFFF" /><text x="20" y="44" font-family="Onest, Inter, Arial, sans-serif" font-size="20" font-weight="700" fill="#13151A" text-anchor="start" letter-spacing="0" opacity="1"><tspan x="20" dy="0">Ozon Design</tspan></text>
      <g id="HOTSPOT__HEADER__FAVORITES" data-name="HOTSPOT__HEADER__FAVORITES"><circle cx="306" cy="36" r="22" fill="#FFF0F6" /><g transform="translate(294 24) scale(1)"><path d="M20.8 4.7a5.5 5.5 0 0 0-7.8 0L12 5.8l-1.1-1.1a5.5 5.5 0 1 0-7.8 7.8l1.1 1L12 21l7.8-7.5 1-1a5.5 5.5 0 0 0 0-7.8Z" fill="none" stroke="#F43F8C" stroke-width="1.8" stroke-linecap="round" stroke-linejoin="round"/></g><rect id="HOTSPOT__HEADER__FAVORITES__TARGET" data-name="HOTSPOT__HEADER__FAVORITES__TARGET" x="284" y="14" width="44" height="44" rx="8" fill="#FFFFFF" fill-opacity="0.001"/></g>
      <g id="HOTSPOT__HEADER__MENU" data-name="HOTSPOT__HEADER__MENU"><circle cx="358" cy="36" r="22" fill="#F5F6F8" /><g transform="translate(346 24) scale(1)"><path d="M3 6h18M3 12h18M3 18h18" stroke="#13151A" stroke-width="2" stroke-linecap="round"/></g><rect id="HOTSPOT__HEADER__MENU__TARGET" data-name="HOTSPOT__HEADER__MENU__TARGET" x="336" y="14" width="44" height="44" rx="8" fill="#FFFFFF" fill-opacity="0.001"/></g><line x1="0" y1="71" x2="390" y2="71" stroke="#E7E9ED" stroke-width="1" /><g id="ART__MOBILE_HOME_HERO" data-name="ART__MOBILE_HOME_HERO" transform="translate(16 92)">
    <defs><clipPath id="ART_CLIP_87"><rect width="1200" height="760" rx="30"/></clipPath></defs>
    <g transform="scale(0.3 0.75)" clip-path="url(#ART_CLIP_87)"><rect x="0" y="0" width="1200" height="760" rx="0" fill="#E9E1D5" /><rect x="0" y="540" width="1200" height="220" rx="0" fill="#C69479" opacity=".64"/>
    <rect x="760" y="82" width="310" height="340" rx="6" fill="#CFE0E2" />
    <line x1="915" y1="82" x2="915" y2="422" stroke="#F7F5EF" stroke-width="8" /><line x1="760" y1="250" x2="1070" y2="250" stroke="#F7F5EF" stroke-width="8" />
    <ellipse cx="570" cy="626" rx="360" ry="72" fill="#EFE9DF" opacity=".86"/>
    <rect x="365" y="390" width="405" height="168" rx="28" fill="#F5F2EC" /><rect x="405" y="312" width="326" height="148" rx="26" fill="#EBE8E1" />
    <rect x="436" y="370" width="108" height="92" rx="16" fill="#94AAA5" /><rect x="620" y="370" width="105" height="92" rx="16" fill="#C69479" />
    <rect x="792" y="526" width="174" height="38" rx="14" fill="#2D3334" /><line x1="879" y1="558" x2="879" y2="650" stroke="#2D3334" stroke-width="16" stroke-linecap="round"/>
    <line x1="1010" y1="275" x2="1010" y2="565" stroke="#2D3334" stroke-width="12" stroke-linecap="round"/>
    <path d="M948 285c17-76 104-76 125 0Z" fill="#2D3334"/>
    <circle cx="206" cy="250" r="78" fill="#94AAA5" opacity=".20"/>
    <path d="M207 190v235M150 268l57-47 61 46M164 327l43-41 52 42" stroke="#2D3334" stroke-width="8" stroke-linecap="round" opacity=".58" fill="none"/>
    <rect x="168" y="423" width="84" height="128" rx="18" fill="#2D3334" opacity=".72"/></g>
  </g><rect x="16" y="92" width="358" height="570" rx="20" fill="url(#heroShade)" /><text x="38" y="360" font-family="Onest, Inter, Arial, sans-serif" font-size="38" font-weight="760" fill="#FFFFFF" text-anchor="start" letter-spacing="0" opacity="1"><tspan x="38" dy="0">Пространства,</tspan><tspan x="38" dy="43">в которых</tspan><tspan x="38" dy="43">хочется жить</tspan></text><text x="38" y="510" font-family="Onest, Inter, Arial, sans-serif" font-size="15" font-weight="430" fill="#FFFFFF" text-anchor="start" letter-spacing="0" opacity="1"><tspan x="38" dy="0">Интерьеры, архитектура и предметный</tspan><tspan x="38" dy="22">дизайн — в одном каталоге</tspan></text><g id="HOTSPOT__MOBILE_HOME__CATALOG" data-name="HOTSPOT__MOBILE_HOME__CATALOG"><rect x="38" y="582" width="170" height="52" rx="12" fill="#005BFF" /><text x="123" y="615" font-family="Onest, Inter, Arial, sans-serif" font-size="14" font-weight="650" fill="#FFFFFF" text-anchor="middle" letter-spacing="0" opacity="1"><tspan x="123" dy="0">Смотреть проекты</tspan></text><rect id="HOTSPOT__MOBILE_HOME__CATALOG__TARGET" data-name="HOTSPOT__MOBILE_HOME__CATALOG__TARGET" x="38" y="582" width="170" height="52" rx="8" fill="#FFFFFF" fill-opacity="0.001"/></g><text x="16" y="740" font-family="Onest, Inter, Arial, sans-serif" font-size="28" font-weight="700" fill="#13151A" text-anchor="start" letter-spacing="0" opacity="1"><tspan x="16" dy="0">Выберите направление</tspan></text><g id="HOTSPOT__MOBILE_CATEGORY__INTERIOR" data-name="HOTSPOT__MOBILE_CATEGORY__INTERIOR"><rect x="16" y="790" width="171" height="176" rx="14" fill="#F5F6F8" /><g id="ART__INTERIOR" data-name="ART__INTERIOR" transform="translate(24 798)">
    <defs><clipPath id="ART_CLIP_88"><rect width="1200" height="760" rx="30"/></clipPath></defs>
    <g transform="scale(0.13 0.16)" clip-path="url(#ART_CLIP_88)"><rect x="0" y="0" width="1200" height="760" rx="0" fill="#E9E1D5" /><rect x="0" y="540" width="1200" height="220" rx="0" fill="#C69479" opacity=".64"/>
    <rect x="760" y="82" width="310" height="340" rx="6" fill="#CFE0E2" />
    <line x1="915" y1="82" x2="915" y2="422" stroke="#F7F5EF" stroke-width="8" /><line x1="760" y1="250" x2="1070" y2="250" stroke="#F7F5EF" stroke-width="8" />
    <ellipse cx="570" cy="626" rx="360" ry="72" fill="#EFE9DF" opacity=".86"/>
    <rect x="365" y="390" width="405" height="168" rx="28" fill="#F5F2EC" /><rect x="405" y="312" width="326" height="148" rx="26" fill="#EBE8E1" />
    <rect x="436" y="370" width="108" height="92" rx="16" fill="#94AAA5" /><rect x="620" y="370" width="105" height="92" rx="16" fill="#C69479" />
    <rect x="792" y="526" width="174" height="38" rx="14" fill="#2D3334" /><line x1="879" y1="558" x2="879" y2="650" stroke="#2D3334" stroke-width="16" stroke-linecap="round"/>
    <line x1="1010" y1="275" x2="1010" y2="565" stroke="#2D3334" stroke-width="12" stroke-linecap="round"/>
    <path d="M948 285c17-76 104-76 125 0Z" fill="#2D3334"/>
    <circle cx="206" cy="250" r="78" fill="#94AAA5" opacity=".20"/>
    <path d="M207 190v235M150 268l57-47 61 46M164 327l43-41 52 42" stroke="#2D3334" stroke-width="8" stroke-linecap="round" opacity=".58" fill="none"/>
    <rect x="168" y="423" width="84" height="128" rx="18" fill="#2D3334" opacity=".72"/></g>
  </g><text x="28" y="943" font-family="Onest, Inter, Arial, sans-serif" font-size="15" font-weight="650" fill="#13151A" text-anchor="start" letter-spacing="0" opacity="1"><tspan x="28" dy="0">Интерьер</tspan></text><rect id="HOTSPOT__MOBILE_CATEGORY__INTERIOR__TARGET" data-name="HOTSPOT__MOBILE_CATEGORY__INTERIOR__TARGET" x="16" y="790" width="171" height="176" rx="8" fill="#FFFFFF" fill-opacity="0.001"/></g><g id="HOTSPOT__MOBILE_CATEGORY__ARCHITECTURE" data-name="HOTSPOT__MOBILE_CATEGORY__ARCHITECTURE"><rect x="195" y="790" width="171" height="176" rx="14" fill="#F5F6F8" /><g id="ART__ARCHITECTURE" data-name="ART__ARCHITECTURE" transform="translate(203 798)">
    <defs><clipPath id="ART_CLIP_89"><rect width="1200" height="760" rx="30"/></clipPath></defs>
    <g transform="scale(0.13 0.16)" clip-path="url(#ART_CLIP_89)"><rect x="0" y="0" width="1200" height="760" rx="0" fill="#D6DFDF" /><circle cx="980" cy="148" r="72" fill="#F6E7BB" opacity=".82"/>
    <path d="M0 448 190 300l174 92 210-170 220 187 180-112 226 164v299H0Z" fill="#6C8587" opacity=".48"/>
    <path d="M0 535c210-44 345-36 516 8 222 58 411 33 684-54v271H0Z" fill="#6C8587"/>
    <path d="M210 488 526 312h390l132 176v170H210Z" fill="#2E3738"/>
    <line x1="526" y1="312" x2="526" y2="658" stroke="#B59A7D" stroke-width="12" opacity=".88"/>
    <rect x="278" y="442" width="226" height="158" rx="0" fill="#D4E3E3" opacity=".92"/><rect x="566" y="370" width="300" height="230" rx="0" fill="#BFD2D4" opacity=".92"/>
    <line x1="716" y1="370" x2="716" y2="600" stroke="#F7F4EA" stroke-width="8" /><line x1="566" y1="486" x2="866" y2="486" stroke="#F7F4EA" stroke-width="8" />
    <line x1="163" y1="658" x2="1093" y2="658" stroke="#B59A7D" stroke-width="32" stroke-linecap="round"/>
    <path d="M0 700c280-74 535-52 754 8 146 40 294 44 446 8v44H0Z" fill="#769395" opacity=".86"/></g>
  </g><text x="207" y="943" font-family="Onest, Inter, Arial, sans-serif" font-size="15" font-weight="650" fill="#13151A" text-anchor="start" letter-spacing="0" opacity="1"><tspan x="207" dy="0">Архитектура</tspan></text><rect id="HOTSPOT__MOBILE_CATEGORY__ARCHITECTURE__TARGET" data-name="HOTSPOT__MOBILE_CATEGORY__ARCHITECTURE__TARGET" x="195" y="790" width="171" height="176" rx="8" fill="#FFFFFF" fill-opacity="0.001"/></g><g id="HOTSPOT__MOBILE_CATEGORY__LANDSCAPE" data-name="HOTSPOT__MOBILE_CATEGORY__LANDSCAPE"><rect x="16" y="980" width="171" height="176" rx="14" fill="#F5F6F8" /><g id="ART__LANDSCAPE" data-name="ART__LANDSCAPE" transform="translate(24 988)">
    <defs><clipPath id="ART_CLIP_90"><rect width="1200" height="760" rx="30"/></clipPath></defs>
    <g transform="scale(0.13 0.16)" clip-path="url(#ART_CLIP_90)"><rect x="0" y="0" width="1200" height="760" rx="0" fill="#D3DFCD" /><circle cx="940" cy="145" r="68" fill="#F3DEB0" />
    <path d="M0 415c170-104 353-92 510 8 188 118 392 82 690-84v421H0Z" fill="#78906D" opacity=".55"/>
    <path d="M0 520c206-96 397-74 570 32 190 116 389 104 630-16v224H0Z" fill="#78906D"/>
    <path d="M352 760c82-156 209-261 380-315 132-42 258-48 378-24-213 62-380 168-498 339Z" fill="#C8A27C" opacity=".86"/>
    <path d="M480 690c90-122 202-196 336-230" fill="none" stroke="#EDE2D3" stroke-width="58" stroke-linecap="round"/>
    <circle cx="172" cy="390" r="58" fill="#334335" opacity=".78"/><circle cx="248" cy="428" r="72" fill="#334335" opacity=".78"/><circle cx="1010" cy="360" r="82" fill="#334335" opacity=".78"/>
    <line x1="114" y1="588" x2="114" y2="438" stroke="#334335" stroke-width="12" stroke-linecap="round" opacity=".62"/><line x1="178" y1="602" x2="178" y2="402" stroke="#334335" stroke-width="12" stroke-linecap="round" opacity=".62"/><line x1="264" y1="610" x2="264" y2="430" stroke="#334335" stroke-width="12" stroke-linecap="round" opacity=".62"/><line x1="1002" y1="596" x2="1002" y2="378" stroke="#334335" stroke-width="12" stroke-linecap="round" opacity=".62"/></g>
  </g><text x="28" y="1133" font-family="Onest, Inter, Arial, sans-serif" font-size="15" font-weight="650" fill="#13151A" text-anchor="start" letter-spacing="0" opacity="1"><tspan x="28" dy="0">Ландшафт</tspan></text><rect id="HOTSPOT__MOBILE_CATEGORY__LANDSCAPE__TARGET" data-name="HOTSPOT__MOBILE_CATEGORY__LANDSCAPE__TARGET" x="16" y="980" width="171" height="176" rx="8" fill="#FFFFFF" fill-opacity="0.001"/></g><g id="HOTSPOT__MOBILE_CATEGORY__FURNITURE" data-name="HOTSPOT__MOBILE_CATEGORY__FURNITURE"><rect x="195" y="980" width="171" height="176" rx="14" fill="#F5F6F8" /><g id="ART__FURNITURE" data-name="ART__FURNITURE" transform="translate(203 988)">
    <defs><clipPath id="ART_CLIP_91"><rect width="1200" height="760" rx="30"/></clipPath></defs>
    <g transform="scale(0.13 0.16)" clip-path="url(#ART_CLIP_91)"><rect x="0" y="0" width="1200" height="760" rx="0" fill="#D8C6AE" /><rect x="0" y="540" width="1200" height="220" rx="0" fill="#586B69" opacity=".64"/>
    <rect x="760" y="82" width="310" height="340" rx="6" fill="#CFE0E2" />
    <line x1="915" y1="82" x2="915" y2="422" stroke="#F7F5EF" stroke-width="8" /><line x1="760" y1="250" x2="1070" y2="250" stroke="#F7F5EF" stroke-width="8" />
    <ellipse cx="570" cy="626" rx="360" ry="72" fill="#EFE9DF" opacity=".86"/>
    <rect x="365" y="390" width="405" height="168" rx="28" fill="#F5F2EC" /><rect x="405" y="312" width="326" height="148" rx="26" fill="#EBE8E1" />
    <rect x="436" y="370" width="108" height="92" rx="16" fill="#966F50" /><rect x="620" y="370" width="105" height="92" rx="16" fill="#586B69" />
    <rect x="792" y="526" width="174" height="38" rx="14" fill="#262A2A" /><line x1="879" y1="558" x2="879" y2="650" stroke="#262A2A" stroke-width="16" stroke-linecap="round"/>
    <line x1="1010" y1="275" x2="1010" y2="565" stroke="#262A2A" stroke-width="12" stroke-linecap="round"/>
    <path d="M948 285c17-76 104-76 125 0Z" fill="#262A2A"/>
    <circle cx="206" cy="250" r="78" fill="#966F50" opacity=".20"/>
    <path d="M207 190v235M150 268l57-47 61 46M164 327l43-41 52 42" stroke="#262A2A" stroke-width="8" stroke-linecap="round" opacity=".58" fill="none"/>
    <rect x="168" y="423" width="84" height="128" rx="18" fill="#262A2A" opacity=".72"/></g>
  </g><text x="207" y="1133" font-family="Onest, Inter, Arial, sans-serif" font-size="15" font-weight="650" fill="#13151A" text-anchor="start" letter-spacing="0" opacity="1"><tspan x="207" dy="0">Мебель</tspan></text><rect id="HOTSPOT__MOBILE_CATEGORY__FURNITURE__TARGET" data-name="HOTSPOT__MOBILE_CATEGORY__FURNITURE__TARGET" x="195" y="980" width="171" height="176" rx="8" fill="#FFFFFF" fill-opacity="0.001"/></g><g id="HOTSPOT__MOBILE_CATEGORY__LIGHTING" data-name="HOTSPOT__MOBILE_CATEGORY__LIGHTING"><rect x="16" y="1170" width="171" height="176" rx="14" fill="#F5F6F8" /><g id="ART__LIGHTING" data-name="ART__LIGHTING" transform="translate(24 1178)">
    <defs><clipPath id="ART_CLIP_92"><rect width="1200" height="760" rx="30"/></clipPath></defs>
    <g transform="scale(0.13 0.16)" clip-path="url(#ART_CLIP_92)"><rect x="0" y="0" width="1200" height="760" rx="0" fill="#DFE6EF" /><rect x="0" y="540" width="1200" height="220" rx="0" fill="#F3B08D" opacity=".64"/>
    <rect x="760" y="82" width="310" height="340" rx="6" fill="#CFE0E2" />
    <line x1="915" y1="82" x2="915" y2="422" stroke="#F7F5EF" stroke-width="8" /><line x1="760" y1="250" x2="1070" y2="250" stroke="#F7F5EF" stroke-width="8" />
    <ellipse cx="570" cy="626" rx="360" ry="72" fill="#EFE9DF" opacity=".86"/>
    <rect x="365" y="390" width="405" height="168" rx="28" fill="#F5F2EC" /><rect x="405" y="312" width="326" height="148" rx="26" fill="#EBE8E1" />
    <rect x="436" y="370" width="108" height="92" rx="16" fill="#7591AD" /><rect x="620" y="370" width="105" height="92" rx="16" fill="#F3B08D" />
    <rect x="792" y="526" width="174" height="38" rx="14" fill="#242B36" /><line x1="879" y1="558" x2="879" y2="650" stroke="#242B36" stroke-width="16" stroke-linecap="round"/>
    <line x1="1010" y1="275" x2="1010" y2="565" stroke="#242B36" stroke-width="12" stroke-linecap="round"/>
    <path d="M948 285c17-76 104-76 125 0Z" fill="#242B36"/>
    <circle cx="206" cy="250" r="78" fill="#7591AD" opacity=".20"/>
    <path d="M207 190v235M150 268l57-47 61 46M164 327l43-41 52 42" stroke="#242B36" stroke-width="8" stroke-linecap="round" opacity=".58" fill="none"/>
    <rect x="168" y="423" width="84" height="128" rx="18" fill="#242B36" opacity=".72"/></g>
  </g><text x="28" y="1323" font-family="Onest, Inter, Arial, sans-serif" font-size="15" font-weight="650" fill="#13151A" text-anchor="start" letter-spacing="0" opacity="1"><tspan x="28" dy="0">Освещение</tspan></text><rect id="HOTSPOT__MOBILE_CATEGORY__LIGHTING__TARGET" data-name="HOTSPOT__MOBILE_CATEGORY__LIGHTING__TARGET" x="16" y="1170" width="171" height="176" rx="8" fill="#FFFFFF" fill-opacity="0.001"/></g><g id="HOTSPOT__MOBILE_CATEGORY__DECOR" data-name="HOTSPOT__MOBILE_CATEGORY__DECOR"><rect x="195" y="1170" width="171" height="176" rx="14" fill="#F5F6F8" /><g id="ART__DECOR" data-name="ART__DECOR" transform="translate(203 1178)">
    <defs><clipPath id="ART_CLIP_93"><rect width="1200" height="760" rx="30"/></clipPath></defs>
    <g transform="scale(0.13 0.16)" clip-path="url(#ART_CLIP_93)"><rect x="0" y="0" width="1200" height="760" rx="0" fill="#EADCE5" /><rect x="0" y="540" width="1200" height="220" rx="0" fill="#C39A79" opacity=".64"/>
    <rect x="760" y="82" width="310" height="340" rx="6" fill="#CFE0E2" />
    <line x1="915" y1="82" x2="915" y2="422" stroke="#F7F5EF" stroke-width="8" /><line x1="760" y1="250" x2="1070" y2="250" stroke="#F7F5EF" stroke-width="8" />
    <ellipse cx="570" cy="626" rx="360" ry="72" fill="#EFE9DF" opacity=".86"/>
    <rect x="365" y="390" width="405" height="168" rx="28" fill="#F5F2EC" /><rect x="405" y="312" width="326" height="148" rx="26" fill="#EBE8E1" />
    <rect x="436" y="370" width="108" height="92" rx="16" fill="#B895AA" /><rect x="620" y="370" width="105" height="92" rx="16" fill="#C39A79" />
    <rect x="792" y="526" width="174" height="38" rx="14" fill="#393035" /><line x1="879" y1="558" x2="879" y2="650" stroke="#393035" stroke-width="16" stroke-linecap="round"/>
    <line x1="1010" y1="275" x2="1010" y2="565" stroke="#393035" stroke-width="12" stroke-linecap="round"/>
    <path d="M948 285c17-76 104-76 125 0Z" fill="#393035"/>
    <circle cx="206" cy="250" r="78" fill="#B895AA" opacity=".20"/>
    <path d="M207 190v235M150 268l57-47 61 46M164 327l43-41 52 42" stroke="#393035" stroke-width="8" stroke-linecap="round" opacity=".58" fill="none"/>
    <rect x="168" y="423" width="84" height="128" rx="18" fill="#393035" opacity=".72"/></g>
  </g><text x="207" y="1323" font-family="Onest, Inter, Arial, sans-serif" font-size="15" font-weight="650" fill="#13151A" text-anchor="start" letter-spacing="0" opacity="1"><tspan x="207" dy="0">Декор</tspan></text><rect id="HOTSPOT__MOBILE_CATEGORY__DECOR__TARGET" data-name="HOTSPOT__MOBILE_CATEGORY__DECOR__TARGET" x="195" y="1170" width="171" height="176" rx="8" fill="#FFFFFF" fill-opacity="0.001"/></g><rect x="0" y="1380" width="390" height="1690" rx="0" fill="#F5F6F8" /><text x="16" y="1450" font-family="Onest, Inter, Arial, sans-serif" font-size="30" font-weight="700" fill="#13151A" text-anchor="start" letter-spacing="0" opacity="1"><tspan x="16" dy="0">Проекты недели</tspan></text><g id="HOTSPOT__PROJECT__NORDIC_LIVING" data-name="HOTSPOT__PROJECT__NORDIC_LIVING"><rect x="16" y="1510" width="358" height="350" rx="18" fill="#FFFFFF" /><g id="ART__nordic-living" data-name="ART__nordic-living" transform="translate(16 1510)">
    <defs><clipPath id="ART_CLIP_94"><rect width="1200" height="760" rx="30"/></clipPath></defs>
    <g transform="scale(0.3 0.3)" clip-path="url(#ART_CLIP_94)"><rect x="0" y="0" width="1200" height="760" rx="0" fill="#E9E1D5" /><rect x="0" y="540" width="1200" height="220" rx="0" fill="#C69479" opacity=".64"/>
    <rect x="760" y="82" width="310" height="340" rx="6" fill="#CFE0E2" />
    <line x1="915" y1="82" x2="915" y2="422" stroke="#F7F5EF" stroke-width="8" /><line x1="760" y1="250" x2="1070" y2="250" stroke="#F7F5EF" stroke-width="8" />
    <ellipse cx="570" cy="626" rx="360" ry="72" fill="#EFE9DF" opacity=".86"/>
    <rect x="365" y="390" width="405" height="168" rx="28" fill="#F5F2EC" /><rect x="405" y="312" width="326" height="148" rx="26" fill="#EBE8E1" />
    <rect x="436" y="370" width="108" height="92" rx="16" fill="#94AAA5" /><rect x="620" y="370" width="105" height="92" rx="16" fill="#C69479" />
    <rect x="792" y="526" width="174" height="38" rx="14" fill="#2D3334" /><line x1="879" y1="558" x2="879" y2="650" stroke="#2D3334" stroke-width="16" stroke-linecap="round"/>
    <line x1="1010" y1="275" x2="1010" y2="565" stroke="#2D3334" stroke-width="12" stroke-linecap="round"/>
    <path d="M948 285c17-76 104-76 125 0Z" fill="#2D3334"/>
    <circle cx="206" cy="250" r="78" fill="#94AAA5" opacity=".20"/>
    <path d="M207 190v235M150 268l57-47 61 46M164 327l43-41 52 42" stroke="#2D3334" stroke-width="8" stroke-linecap="round" opacity=".58" fill="none"/>
    <rect x="168" y="423" width="84" height="128" rx="18" fill="#2D3334" opacity=".72"/></g>
  </g>
    <circle cx="340" cy="1540" r="21" fill="#FFFFFF" fill-opacity=".94"/>
    <g transform="translate(328 1528) scale(1)"><path d="M20.8 4.7a5.5 5.5 0 0 0-7.8 0L12 5.8l-1.1-1.1a5.5 5.5 0 1 0-7.8 7.8l1.1 1L12 21l7.8-7.5 1-1a5.5 5.5 0 0 0 0-7.8Z" fill="none" stroke="#13151A" stroke-width="1.8" stroke-linecap="round" stroke-linejoin="round"/></g>
    <text x="16" y="1765" font-family="Onest, Inter, Arial, sans-serif" font-size="12" font-weight="500" fill="#6C717C" text-anchor="start" letter-spacing="0" opacity="1"><tspan x="16" dy="0">Интерьер · Скандинавский · 42 м²</tspan></text>
    <text x="16" y="1798" font-family="Onest, Inter, Arial, sans-serif" font-size="22" font-weight="650" fill="#13151A" text-anchor="start" letter-spacing="0" opacity="1"><tspan x="16" dy="0">Северная гостиная</tspan></text>
    <text x="16" y="1834" font-family="Onest, Inter, Arial, sans-serif" font-size="13" font-weight="650" fill="#005BFF" text-anchor="start" letter-spacing="0" opacity="1"><tspan x="16" dy="0">Nordform Studio</tspan></text>
    <rect id="HOTSPOT__PROJECT__NORDIC_LIVING__TARGET" data-name="HOTSPOT__PROJECT__NORDIC_LIVING__TARGET" x="16" y="1510" width="358" height="350" rx="8" fill="#FFFFFF" fill-opacity="0.001"/></g><g id="HOTSPOT__PROJECT__WATER_HOUSE" data-name="HOTSPOT__PROJECT__WATER_HOUSE"><rect x="16" y="1888" width="358" height="350" rx="18" fill="#FFFFFF" /><g id="ART__water-house" data-name="ART__water-house" transform="translate(16 1888)">
    <defs><clipPath id="ART_CLIP_95"><rect width="1200" height="760" rx="30"/></clipPath></defs>
    <g transform="scale(0.3 0.3)" clip-path="url(#ART_CLIP_95)"><rect x="0" y="0" width="1200" height="760" rx="0" fill="#D6DFDF" /><circle cx="980" cy="148" r="72" fill="#F6E7BB" opacity=".82"/>
    <path d="M0 448 190 300l174 92 210-170 220 187 180-112 226 164v299H0Z" fill="#6C8587" opacity=".48"/>
    <path d="M0 535c210-44 345-36 516 8 222 58 411 33 684-54v271H0Z" fill="#6C8587"/>
    <path d="M210 488 526 312h390l132 176v170H210Z" fill="#2E3738"/>
    <line x1="526" y1="312" x2="526" y2="658" stroke="#B59A7D" stroke-width="12" opacity=".88"/>
    <rect x="278" y="442" width="226" height="158" rx="0" fill="#D4E3E3" opacity=".92"/><rect x="566" y="370" width="300" height="230" rx="0" fill="#BFD2D4" opacity=".92"/>
    <line x1="716" y1="370" x2="716" y2="600" stroke="#F7F4EA" stroke-width="8" /><line x1="566" y1="486" x2="866" y2="486" stroke="#F7F4EA" stroke-width="8" />
    <line x1="163" y1="658" x2="1093" y2="658" stroke="#B59A7D" stroke-width="32" stroke-linecap="round"/>
    <path d="M0 700c280-74 535-52 754 8 146 40 294 44 446 8v44H0Z" fill="#769395" opacity=".86"/></g>
  </g>
    <circle cx="340" cy="1918" r="21" fill="#FFFFFF" fill-opacity=".94"/>
    <g transform="translate(328 1906) scale(1)"><path d="M20.8 4.7a5.5 5.5 0 0 0-7.8 0L12 5.8l-1.1-1.1a5.5 5.5 0 1 0-7.8 7.8l1.1 1L12 21l7.8-7.5 1-1a5.5 5.5 0 0 0 0-7.8Z" fill="none" stroke="#13151A" stroke-width="1.8" stroke-linecap="round" stroke-linejoin="round"/></g>
    <text x="16" y="2143" font-family="Onest, Inter, Arial, sans-serif" font-size="12" font-weight="500" fill="#6C717C" text-anchor="start" letter-spacing="0" opacity="1"><tspan x="16" dy="0">Архитектура · Современный · 168 м²</tspan></text>
    <text x="16" y="2176" font-family="Onest, Inter, Arial, sans-serif" font-size="22" font-weight="650" fill="#13151A" text-anchor="start" letter-spacing="0" opacity="1"><tspan x="16" dy="0">Дом у воды</tspan></text>
    <text x="16" y="2212" font-family="Onest, Inter, Arial, sans-serif" font-size="13" font-weight="650" fill="#005BFF" text-anchor="start" letter-spacing="0" opacity="1"><tspan x="16" dy="0">Terra Bureau</tspan></text>
    <rect id="HOTSPOT__PROJECT__WATER_HOUSE__TARGET" data-name="HOTSPOT__PROJECT__WATER_HOUSE__TARGET" x="16" y="1888" width="358" height="350" rx="8" fill="#FFFFFF" fill-opacity="0.001"/></g><g id="HOTSPOT__PROJECT__QUIET_OFFICE" data-name="HOTSPOT__PROJECT__QUIET_OFFICE"><rect x="16" y="2266" width="358" height="350" rx="18" fill="#FFFFFF" /><g id="ART__quiet-office" data-name="ART__quiet-office" transform="translate(16 2266)">
    <defs><clipPath id="ART_CLIP_96"><rect width="1200" height="760" rx="30"/></clipPath></defs>
    <g transform="scale(0.3 0.3)" clip-path="url(#ART_CLIP_96)"><rect x="0" y="0" width="1200" height="760" rx="0" fill="#9B9388" /><rect x="0" y="540" width="1200" height="220" rx="0" fill="#B47D5D" opacity=".64"/>
    <rect x="760" y="82" width="310" height="340" rx="6" fill="#CFE0E2" />
    <line x1="915" y1="82" x2="915" y2="422" stroke="#F7F5EF" stroke-width="8" /><line x1="760" y1="250" x2="1070" y2="250" stroke="#F7F5EF" stroke-width="8" />
    <ellipse cx="570" cy="626" rx="360" ry="72" fill="#EFE9DF" opacity=".86"/>
    <rect x="365" y="390" width="405" height="168" rx="28" fill="#F5F2EC" /><rect x="405" y="312" width="326" height="148" rx="26" fill="#EBE8E1" />
    <rect x="436" y="370" width="108" height="92" rx="16" fill="#40484A" /><rect x="620" y="370" width="105" height="92" rx="16" fill="#B47D5D" />
    <rect x="792" y="526" width="174" height="38" rx="14" fill="#202426" /><line x1="879" y1="558" x2="879" y2="650" stroke="#202426" stroke-width="16" stroke-linecap="round"/>
    <line x1="1010" y1="275" x2="1010" y2="565" stroke="#202426" stroke-width="12" stroke-linecap="round"/>
    <path d="M948 285c17-76 104-76 125 0Z" fill="#202426"/>
    <circle cx="206" cy="250" r="78" fill="#40484A" opacity=".20"/>
    <path d="M207 190v235M150 268l57-47 61 46M164 327l43-41 52 42" stroke="#202426" stroke-width="8" stroke-linecap="round" opacity=".58" fill="none"/>
    <rect x="168" y="423" width="84" height="128" rx="18" fill="#202426" opacity=".72"/></g>
  </g>
    <circle cx="340" cy="2296" r="21" fill="#FFFFFF" fill-opacity=".94"/>
    <g transform="translate(328 2284) scale(1)"><path d="M20.8 4.7a5.5 5.5 0 0 0-7.8 0L12 5.8l-1.1-1.1a5.5 5.5 0 1 0-7.8 7.8l1.1 1L12 21l7.8-7.5 1-1a5.5 5.5 0 0 0 0-7.8Z" fill="none" stroke="#13151A" stroke-width="1.8" stroke-linecap="round" stroke-linejoin="round"/></g>
    <text x="16" y="2521" font-family="Onest, Inter, Arial, sans-serif" font-size="12" font-weight="500" fill="#6C717C" text-anchor="start" letter-spacing="0" opacity="1"><tspan x="16" dy="0">Интерьер · Минимализм · 18 м²</tspan></text>
    <text x="16" y="2554" font-family="Onest, Inter, Arial, sans-serif" font-size="22" font-weight="650" fill="#13151A" text-anchor="start" letter-spacing="0" opacity="1"><tspan x="16" dy="0">Тихий кабинет</tspan></text>
    <text x="16" y="2590" font-family="Onest, Inter, Arial, sans-serif" font-size="13" font-weight="650" fill="#005BFF" text-anchor="start" letter-spacing="0" opacity="1"><tspan x="16" dy="0">Forma Lab</tspan></text>
    <rect id="HOTSPOT__PROJECT__QUIET_OFFICE__TARGET" data-name="HOTSPOT__PROJECT__QUIET_OFFICE__TARGET" x="16" y="2266" width="358" height="350" rx="8" fill="#FFFFFF" fill-opacity="0.001"/></g><g id="HOTSPOT__PROJECT__BRIGHT_KITCHEN" data-name="HOTSPOT__PROJECT__BRIGHT_KITCHEN"><rect x="16" y="2644" width="358" height="350" rx="18" fill="#FFFFFF" /><g id="ART__bright-kitchen" data-name="ART__bright-kitchen" transform="translate(16 2644)">
    <defs><clipPath id="ART_CLIP_97"><rect width="1200" height="760" rx="30"/></clipPath></defs>
    <g transform="scale(0.3 0.3)" clip-path="url(#ART_CLIP_97)"><rect x="0" y="0" width="1200" height="760" rx="0" fill="#EEEAE1" /><rect x="0" y="540" width="1200" height="220" rx="0" fill="#93A9A2" opacity=".64"/>
    <rect x="760" y="82" width="310" height="340" rx="6" fill="#CFE0E2" />
    <line x1="915" y1="82" x2="915" y2="422" stroke="#F7F5EF" stroke-width="8" /><line x1="760" y1="250" x2="1070" y2="250" stroke="#F7F5EF" stroke-width="8" />
    <ellipse cx="570" cy="626" rx="360" ry="72" fill="#EFE9DF" opacity=".86"/>
    <rect x="365" y="390" width="405" height="168" rx="28" fill="#F5F2EC" /><rect x="405" y="312" width="326" height="148" rx="26" fill="#EBE8E1" />
    <rect x="436" y="370" width="108" height="92" rx="16" fill="#C7C0B2" /><rect x="620" y="370" width="105" height="92" rx="16" fill="#93A9A2" />
    <rect x="792" y="526" width="174" height="38" rx="14" fill="#3B4140" /><line x1="879" y1="558" x2="879" y2="650" stroke="#3B4140" stroke-width="16" stroke-linecap="round"/>
    <line x1="1010" y1="275" x2="1010" y2="565" stroke="#3B4140" stroke-width="12" stroke-linecap="round"/>
    <path d="M948 285c17-76 104-76 125 0Z" fill="#3B4140"/>
    <circle cx="206" cy="250" r="78" fill="#C7C0B2" opacity=".20"/>
    <path d="M207 190v235M150 268l57-47 61 46M164 327l43-41 52 42" stroke="#3B4140" stroke-width="8" stroke-linecap="round" opacity=".58" fill="none"/>
    <rect x="168" y="423" width="84" height="128" rx="18" fill="#3B4140" opacity=".72"/></g>
  </g>
    <circle cx="340" cy="2674" r="21" fill="#FFFFFF" fill-opacity=".94"/>
    <g transform="translate(328 2662) scale(1)"><path d="M20.8 4.7a5.5 5.5 0 0 0-7.8 0L12 5.8l-1.1-1.1a5.5 5.5 0 1 0-7.8 7.8l1.1 1L12 21l7.8-7.5 1-1a5.5 5.5 0 0 0 0-7.8Z" fill="none" stroke="#13151A" stroke-width="1.8" stroke-linecap="round" stroke-linejoin="round"/></g>
    <text x="16" y="2899" font-family="Onest, Inter, Arial, sans-serif" font-size="12" font-weight="500" fill="#6C717C" text-anchor="start" letter-spacing="0" opacity="1"><tspan x="16" dy="0">Интерьер · Неоклассика · 27 м²</tspan></text>
    <text x="16" y="2932" font-family="Onest, Inter, Arial, sans-serif" font-size="22" font-weight="650" fill="#13151A" text-anchor="start" letter-spacing="0" opacity="1"><tspan x="16" dy="0">Светлая кухня</tspan></text>
    <text x="16" y="2968" font-family="Onest, Inter, Arial, sans-serif" font-size="13" font-weight="650" fill="#005BFF" text-anchor="start" letter-spacing="0" opacity="1"><tspan x="16" dy="0">Linea Interior</tspan></text>
    <rect id="HOTSPOT__PROJECT__BRIGHT_KITCHEN__TARGET" data-name="HOTSPOT__PROJECT__BRIGHT_KITCHEN__TARGET" x="16" y="2644" width="358" height="350" rx="8" fill="#FFFFFF" fill-opacity="0.001"/></g><text x="16" y="3150" font-family="Onest, Inter, Arial, sans-serif" font-size="30" font-weight="700" fill="#13151A" text-anchor="start" letter-spacing="0" opacity="1"><tspan x="16" dy="0">Студии и бренды</tspan></text><g id="HOTSPOT__COMPANY__NORDFORM" data-name="HOTSPOT__COMPANY__NORDFORM"><rect x="16" y="3210" width="171" height="190" rx="18" fill="#EEF4FF" /><circle cx="60" cy="3256" r="26" fill="#005BFF" /><text x="60" y="3262" font-family="Onest, Inter, Arial, sans-serif" font-size="12" font-weight="700" fill="#FFFFFF" text-anchor="middle" letter-spacing="0" opacity="1"><tspan x="60" dy="0">NF</tspan></text><text x="34" y="3314" font-family="Onest, Inter, Arial, sans-serif" font-size="15" font-weight="650" fill="#13151A" text-anchor="start" letter-spacing="0" opacity="1"><tspan x="34" dy="0">Nordform Studio</tspan></text><text x="34" y="3355" font-family="Onest, Inter, Arial, sans-serif" font-size="12" font-weight="450" fill="#6C717C" text-anchor="start" letter-spacing="0" opacity="1"><tspan x="34" dy="0">Жилые интерьеры</tspan></text><rect id="HOTSPOT__COMPANY__NORDFORM__TARGET" data-name="HOTSPOT__COMPANY__NORDFORM__TARGET" x="16" y="3210" width="171" height="190" rx="8" fill="#FFFFFF" fill-opacity="0.001"/></g><g id="HOTSPOT__COMPANY__TERRA" data-name="HOTSPOT__COMPANY__TERRA"><rect x="195" y="3210" width="171" height="190" rx="18" fill="#F2EEE7" /><circle cx="239" cy="3256" r="26" fill="#F43F8C" /><text x="239" y="3262" font-family="Onest, Inter, Arial, sans-serif" font-size="12" font-weight="700" fill="#FFFFFF" text-anchor="middle" letter-spacing="0" opacity="1"><tspan x="239" dy="0">TB</tspan></text><text x="213" y="3314" font-family="Onest, Inter, Arial, sans-serif" font-size="15" font-weight="650" fill="#13151A" text-anchor="start" letter-spacing="0" opacity="1"><tspan x="213" dy="0">Terra Bureau</tspan></text><text x="213" y="3355" font-family="Onest, Inter, Arial, sans-serif" font-size="12" font-weight="450" fill="#6C717C" text-anchor="start" letter-spacing="0" opacity="1"><tspan x="213" dy="0">Архитектура</tspan></text><rect id="HOTSPOT__COMPANY__TERRA__TARGET" data-name="HOTSPOT__COMPANY__TERRA__TARGET" x="195" y="3210" width="171" height="190" rx="8" fill="#FFFFFF" fill-opacity="0.001"/></g><g id="HOTSPOT__COMPANY__FORMA" data-name="HOTSPOT__COMPANY__FORMA"><rect x="16" y="3415" width="171" height="190" rx="18" fill="#EEF4FF" /><circle cx="60" cy="3461" r="26" fill="#005BFF" /><text x="60" y="3467" font-family="Onest, Inter, Arial, sans-serif" font-size="12" font-weight="700" fill="#FFFFFF" text-anchor="middle" letter-spacing="0" opacity="1"><tspan x="60" dy="0">FL</tspan></text><text x="34" y="3519" font-family="Onest, Inter, Arial, sans-serif" font-size="15" font-weight="650" fill="#13151A" text-anchor="start" letter-spacing="0" opacity="1"><tspan x="34" dy="0">Forma Lab</tspan></text><text x="34" y="3560" font-family="Onest, Inter, Arial, sans-serif" font-size="12" font-weight="450" fill="#6C717C" text-anchor="start" letter-spacing="0" opacity="1"><tspan x="34" dy="0">Компактные пространства</tspan></text><rect id="HOTSPOT__COMPANY__FORMA__TARGET" data-name="HOTSPOT__COMPANY__FORMA__TARGET" x="16" y="3415" width="171" height="190" rx="8" fill="#FFFFFF" fill-opacity="0.001"/></g><g id="HOTSPOT__COMPANY__LINEA" data-name="HOTSPOT__COMPANY__LINEA"><rect x="195" y="3415" width="171" height="190" rx="18" fill="#F2EEE7" /><circle cx="239" cy="3461" r="26" fill="#F43F8C" /><text x="239" y="3467" font-family="Onest, Inter, Arial, sans-serif" font-size="12" font-weight="700" fill="#FFFFFF" text-anchor="middle" letter-spacing="0" opacity="1"><tspan x="239" dy="0">LI</tspan></text><text x="213" y="3519" font-family="Onest, Inter, Arial, sans-serif" font-size="15" font-weight="650" fill="#13151A" text-anchor="start" letter-spacing="0" opacity="1"><tspan x="213" dy="0">Linea Interior</tspan></text><text x="213" y="3560" font-family="Onest, Inter, Arial, sans-serif" font-size="12" font-weight="450" fill="#6C717C" text-anchor="start" letter-spacing="0" opacity="1"><tspan x="213" dy="0">Семейные интерьеры</tspan></text><rect id="HOTSPOT__COMPANY__LINEA__TARGET" data-name="HOTSPOT__COMPANY__LINEA__TARGET" x="195" y="3415" width="171" height="190" rx="8" fill="#FFFFFF" fill-opacity="0.001"/></g><g id="HOTSPOT__COMPANY__LUMEN" data-name="HOTSPOT__COMPANY__LUMEN"><rect x="16" y="3620" width="171" height="190" rx="18" fill="#EEF4FF" /><circle cx="60" cy="3666" r="26" fill="#005BFF" /><text x="60" y="3672" font-family="Onest, Inter, Arial, sans-serif" font-size="12" font-weight="700" fill="#FFFFFF" text-anchor="middle" letter-spacing="0" opacity="1"><tspan x="60" dy="0">LA</tspan></text><text x="34" y="3724" font-family="Onest, Inter, Arial, sans-serif" font-size="15" font-weight="650" fill="#13151A" text-anchor="start" letter-spacing="0" opacity="1"><tspan x="34" dy="0">Lumen Atelier</tspan></text><text x="34" y="3765" font-family="Onest, Inter, Arial, sans-serif" font-size="12" font-weight="450" fill="#6C717C" text-anchor="start" letter-spacing="0" opacity="1"><tspan x="34" dy="0">Свет и предметы</tspan></text><rect id="HOTSPOT__COMPANY__LUMEN__TARGET" data-name="HOTSPOT__COMPANY__LUMEN__TARGET" x="16" y="3620" width="171" height="190" rx="8" fill="#FFFFFF" fill-opacity="0.001"/></g><g id="HOTSPOT__COMPANY__GREEN" data-name="HOTSPOT__COMPANY__GREEN"><rect x="195" y="3620" width="171" height="190" rx="18" fill="#F2EEE7" /><circle cx="239" cy="3666" r="26" fill="#F43F8C" /><text x="239" y="3672" font-family="Onest, Inter, Arial, sans-serif" font-size="12" font-weight="700" fill="#FFFFFF" text-anchor="middle" letter-spacing="0" opacity="1"><tspan x="239" dy="0">AG</tspan></text><text x="213" y="3724" font-family="Onest, Inter, Arial, sans-serif" font-size="15" font-weight="650" fill="#13151A" text-anchor="start" letter-spacing="0" opacity="1"><tspan x="213" dy="0">Atelier Green</tspan></text><text x="213" y="3765" font-family="Onest, Inter, Arial, sans-serif" font-size="12" font-weight="450" fill="#6C717C" text-anchor="start" letter-spacing="0" opacity="1"><tspan x="213" dy="0">Ландшафт</tspan></text><rect id="HOTSPOT__COMPANY__GREEN__TARGET" data-name="HOTSPOT__COMPANY__GREEN__TARGET" x="195" y="3620" width="171" height="190" rx="8" fill="#FFFFFF" fill-opacity="0.001"/></g><rect x="16" y="3860" width="358" height="230" rx="18" fill="#EEF4FF" /><text x="38" y="3920" font-family="Onest, Inter, Arial, sans-serif" font-size="25" font-weight="700" fill="#13151A" text-anchor="start" letter-spacing="0" opacity="1"><tspan x="38" dy="0">Начните с пространства,</tspan><tspan x="38" dy="31">которое хотите изменить</tspan></text><g id="HOTSPOT__MOBILE_HOME__BOTTOM_CATALOG" data-name="HOTSPOT__MOBILE_HOME__BOTTOM_CATALOG"><rect x="38" y="4015" width="182" height="52" rx="12" fill="#005BFF" /><text x="129" y="4048" font-family="Onest, Inter, Arial, sans-serif" font-size="14" font-weight="650" fill="#FFFFFF" text-anchor="middle" letter-spacing="0" opacity="1"><tspan x="129" dy="0">Перейти в каталог</tspan></text><rect id="HOTSPOT__MOBILE_HOME__BOTTOM_CATALOG__TARGET" data-name="HOTSPOT__MOBILE_HOME__BOTTOM_CATALOG__TARGET" x="38" y="4015" width="182" height="52" rx="8" fill="#FFFFFF" fill-opacity="0.001"/></g></g>
</svg>