<?xml version="1.0" encoding="UTF-8"?>
<svg xmlns="http://www.w3.org/2000/svg" width="390" height="844" viewBox="0 0 390 844">
  <title>Ozon Design — Мобильное меню</title>
  <desc>Ozon Design — импортируемый экран для Figma Design. Корневой фрейм: FRAME__MOBILE__MENU.</desc>
  <defs>
    <linearGradient id="heroShade" x1="0" y1="0" x2="1" y2="0"><stop offset="0" stop-color="#101318" stop-opacity=".58"/><stop offset=".62" stop-color="#101318" stop-opacity=".05"/><stop offset="1" stop-color="#101318" stop-opacity=".12"/></linearGradient>
  </defs>
  <g id="FRAME__MOBILE__MENU" data-name="FRAME__MOBILE__MENU"><rect x="0" y="0" width="390" height="844" rx="0" fill="#FFFFFF" /><rect x="0" y="0" width="390" height="844" rx="0" fill="#FFFFFF" /><text x="20" y="44" font-family="Onest, Inter, Arial, sans-serif" font-size="20" font-weight="700" fill="#13151A" text-anchor="start" letter-spacing="0" opacity="1"><tspan x="20" dy="0">Ozon Design</tspan></text><g id="HOTSPOT__MOBILE_MENU__CLOSE" data-name="HOTSPOT__MOBILE_MENU__CLOSE"><circle cx="358" cy="36" r="22" fill="#F5F6F8" /><g transform="translate(346 24) scale(1)"><path d="m5 5 14 14M19 5 5 19" stroke="#13151A" stroke-width="2" stroke-linecap="round"/></g><rect id="HOTSPOT__MOBILE_MENU__CLOSE__TARGET" data-name="HOTSPOT__MOBILE_MENU__CLOSE__TARGET" x="336" y="14" width="44" height="44" rx="8" fill="#FFFFFF" fill-opacity="0.001"/></g><line x1="0" y1="72" x2="390" y2="72" stroke="#E7E9ED" stroke-width="1" /><g id="HOTSPOT__MOBILE_MENU__CATALOG" data-name="HOTSPOT__MOBILE_MENU__CATALOG"><text x="24" y="150" font-family="Onest, Inter, Arial, sans-serif" font-size="24" font-weight="650" fill="#13151A" text-anchor="start" letter-spacing="0" opacity="1"><tspan x="24" dy="0">Каталог</tspan></text><g transform="translate(342 136) scale(1)"><path d="M5 12h14m-5-5 5 5-5 5" fill="none" stroke="#6C717C" stroke-width="1.8" stroke-linecap="round" stroke-linejoin="round"/></g><line x1="24" y1="178" x2="366" y2="178" stroke="#E7E9ED" stroke-width="1" /><rect id="HOTSPOT__MOBILE_MENU__CATALOG__TARGET" data-name="HOTSPOT__MOBILE_MENU__CATALOG__TARGET" x="16" y="118" width="358" height="64" rx="8" fill="#FFFFFF" fill-opacity="0.001"/></g><g id="HOTSPOT__MOBILE_MENU__COMPANY" data-name="HOTSPOT__MOBILE_MENU__COMPANY"><text x="24" y="226" font-family="Onest, Inter, Arial, sans-serif" font-size="24" font-weight="650" fill="#13151A" text-anchor="start" letter-spacing="0" opacity="1"><tspan x="24" dy="0">Компании</tspan></text><g transform="translate(342 212) scale(1)"><path d="M5 12h14m-5-5 5 5-5 5" fill="none" stroke="#6C717C" stroke-width="1.8" stroke-linecap="round" stroke-linejoin="round"/></g><line x1="24" y1="254" x2="366" y2="254" stroke="#E7E9ED" stroke-width="1" /><rect id="HOTSPOT__MOBILE_MENU__COMPANY__TARGET" data-name="HOTSPOT__MOBILE_MENU__COMPANY__TARGET" x="16" y="194" width="358" height="64" rx="8" fill="#FFFFFF" fill-opacity="0.001"/></g><g id="HOTSPOT__MOBILE_MENU__COLLECTION" data-name="HOTSPOT__MOBILE_MENU__COLLECTION"><text x="24" y="302" font-family="Onest, Inter, Arial, sans-serif" font-size="24" font-weight="650" fill="#13151A" text-anchor="start" letter-spacing="0" opacity="1"><tspan x="24" dy="0">Подборки</tspan></text><g transform="translate(342 288) scale(1)"><path d="M5 12h14m-5-5 5 5-5 5" fill="none" stroke="#6C717C" stroke-width="1.8" stroke-linecap="round" stroke-linejoin="round"/></g><line x1="24" y1="330" x2="366" y2="330" stroke="#E7E9ED" stroke-width="1" /><rect id="HOTSPOT__MOBILE_MENU__COLLECTION__TARGET" data-name="HOTSPOT__MOBILE_MENU__COLLECTION__TARGET" x="16" y="270" width="358" height="64" rx="8" fill="#FFFFFF" fill-opacity="0.001"/></g><g id="HOTSPOT__MOBILE_MENU__ABOUT" data-name="HOTSPOT__MOBILE_MENU__ABOUT"><text x="24" y="378" font-family="Onest, Inter, Arial, sans-serif" font-size="24" font-weight="650" fill="#13151A" text-anchor="start" letter-spacing="0" opacity="1"><tspan x="24" dy="0">О проекте</tspan></text><g transform="translate(342 364) scale(1)"><path d="M5 12h14m-5-5 5 5-5 5" fill="none" stroke="#6C717C" stroke-width="1.8" stroke-linecap="round" stroke-linejoin="round"/></g><line x1="24" y1="406" x2="366" y2="406" stroke="#E7E9ED" stroke-width="1" /><rect id="HOTSPOT__MOBILE_MENU__ABOUT__TARGET" data-name="HOTSPOT__MOBILE_MENU__ABOUT__TARGET" x="16" y="346" width="358" height="64" rx="8" fill="#FFFFFF" fill-opacity="0.001"/></g><g id="HOTSPOT__MOBILE_MENU__FAVORITES" data-name="HOTSPOT__MOBILE_MENU__FAVORITES"><text x="24" y="454" font-family="Onest, Inter, Arial, sans-serif" font-size="24" font-weight="650" fill="#13151A" text-anchor="start" letter-spacing="0" opacity="1"><tspan x="24" dy="0">Избранное</tspan></text><g transform="translate(342 440) scale(1)"><path d="M5 12h14m-5-5 5 5-5 5" fill="none" stroke="#6C717C" stroke-width="1.8" stroke-linecap="round" stroke-linejoin="round"/></g><line x1="24" y1="482" x2="366" y2="482" stroke="#E7E9ED" stroke-width="1" /><rect id="HOTSPOT__MOBILE_MENU__FAVORITES__TARGET" data-name="HOTSPOT__MOBILE_MENU__FAVORITES__TARGET" x="16" y="422" width="358" height="64" rx="8" fill="#FFFFFF" fill-opacity="0.001"/></g><rect x="20" y="600" width="350" height="180" rx="18" fill="#EEF4FF" /><text x="42" y="652" font-family="Onest, Inter, Arial, sans-serif" font-size="22" font-weight="680" fill="#13151A" text-anchor="start" letter-spacing="0" opacity="1"><tspan x="42" dy="0">Найдите проект для своего</tspan><tspan x="42" dy="29">пространства</tspan></text><g id="HOTSPOT__MOBILE_MENU__CTA" data-name="HOTSPOT__MOBILE_MENU__CTA"><rect x="42" y="708" width="172" height="52" rx="12" fill="#005BFF" /><text x="128" y="741" font-family="Onest, Inter, Arial, sans-serif" font-size="14" font-weight="650" fill="#FFFFFF" text-anchor="middle" letter-spacing="0" opacity="1"><tspan x="128" dy="0">Открыть каталог</tspan></text><rect id="HOTSPOT__MOBILE_MENU__CTA__TARGET" data-name="HOTSPOT__MOBILE_MENU__CTA__TARGET" x="42" y="708" width="172" height="52" rx="8" fill="#FFFFFF" fill-opacity="0.001"/></g></g>
</svg>