<?xml version="1.0" encoding="UTF-8"?>
<svg xmlns="http://www.w3.org/2000/svg" width="390" height="960" viewBox="0 0 390 960">
  <title>Ozon Design — Мобильные фильтры</title>
  <desc>Ozon Design — импортируемый экран для Figma Design. Корневой фрейм: FRAME__MOBILE__FILTERS.</desc>
  <defs>
    <linearGradient id="heroShade" x1="0" y1="0" x2="1" y2="0"><stop offset="0" stop-color="#101318" stop-opacity=".58"/><stop offset=".62" stop-color="#101318" stop-opacity=".05"/><stop offset="1" stop-color="#101318" stop-opacity=".12"/></linearGradient>
  </defs>
  <g id="FRAME__MOBILE__FILTERS" data-name="FRAME__MOBILE__FILTERS"><rect x="0" y="0" width="390" height="960" rx="0" fill="#FFFFFF" /><rect x="0" y="0" width="390" height="960" rx="0" fill="#13151A" fill-opacity=".36"/><rect x="0" y="96" width="390" height="864" rx="24" fill="#FFFFFF" /><rect x="165" y="110" width="60" height="5" rx="3" fill="#CFD2D8" /><text x="20" y="165" font-family="Onest, Inter, Arial, sans-serif" font-size="26" font-weight="700" fill="#13151A" text-anchor="start" letter-spacing="0" opacity="1"><tspan x="20" dy="0">Фильтры</tspan></text><g id="HOTSPOT__MOBILE_FILTERS__CLOSE" data-name="HOTSPOT__MOBILE_FILTERS__CLOSE"><circle cx="356" cy="154" r="22" fill="#F5F6F8" /><g transform="translate(344 142) scale(1)"><path d="m5 5 14 14M19 5 5 19" stroke="#13151A" stroke-width="2" stroke-linecap="round"/></g><rect id="HOTSPOT__MOBILE_FILTERS__CLOSE__TARGET" data-name="HOTSPOT__MOBILE_FILTERS__CLOSE__TARGET" x="334" y="132" width="44" height="44" rx="8" fill="#FFFFFF" fill-opacity="0.001"/></g><text x="20" y="220" font-family="Onest, Inter, Arial, sans-serif" font-size="15" font-weight="680" fill="#13151A" text-anchor="start" letter-spacing="0" opacity="1"><tspan x="20" dy="0">Категория</tspan></text><g id="HOTSPOT__MOBILE_FILTER__ИНТЕРЬЕР" data-name="HOTSPOT__MOBILE_FILTER__ИНТЕРЬЕР"><rect x="20" y="244" width="350" height="44" rx="10" fill="#EEF4FF" stroke="#005BFF"/><rect x="36" y="258" width="16" height="16" rx="4" fill="#005BFF" /><path d="m40 266 3 3 6-7" fill="none" stroke="#fff" stroke-width="2" stroke-linecap="round"/><text x="66" y="272" font-family="Onest, Inter, Arial, sans-serif" font-size="14" font-weight="650" fill="#005BFF" text-anchor="start" letter-spacing="0" opacity="1"><tspan x="66" dy="0">Интерьер</tspan></text><rect id="HOTSPOT__MOBILE_FILTER__ИНТЕРЬЕР__TARGET" data-name="HOTSPOT__MOBILE_FILTER__ИНТЕРЬЕР__TARGET" x="20" y="244" width="350" height="44" rx="8" fill="#FFFFFF" fill-opacity="0.001"/></g><g id="HOTSPOT__MOBILE_FILTER__АРХИТЕКТУРА" data-name="HOTSPOT__MOBILE_FILTER__АРХИТЕКТУРА"><rect x="20" y="296" width="350" height="44" rx="10" fill="#FFFFFF" stroke="#E7E9ED"/><rect x="36" y="310" width="16" height="16" rx="4" fill="#FFFFFF" stroke="#E7E9ED"/><text x="66" y="324" font-family="Onest, Inter, Arial, sans-serif" font-size="14" font-weight="450" fill="#13151A" text-anchor="start" letter-spacing="0" opacity="1"><tspan x="66" dy="0">Архитектура</tspan></text><rect id="HOTSPOT__MOBILE_FILTER__АРХИТЕКТУРА__TARGET" data-name="HOTSPOT__MOBILE_FILTER__АРХИТЕКТУРА__TARGET" x="20" y="296" width="350" height="44" rx="8" fill="#FFFFFF" fill-opacity="0.001"/></g><g id="HOTSPOT__MOBILE_FILTER__ЛАНДШАФТ" data-name="HOTSPOT__MOBILE_FILTER__ЛАНДШАФТ"><rect x="20" y="348" width="350" height="44" rx="10" fill="#FFFFFF" stroke="#E7E9ED"/><rect x="36" y="362" width="16" height="16" rx="4" fill="#FFFFFF" stroke="#E7E9ED"/><text x="66" y="376" font-family="Onest, Inter, Arial, sans-serif" font-size="14" font-weight="450" fill="#13151A" text-anchor="start" letter-spacing="0" opacity="1"><tspan x="66" dy="0">Ландшафт</tspan></text><rect id="HOTSPOT__MOBILE_FILTER__ЛАНДШАФТ__TARGET" data-name="HOTSPOT__MOBILE_FILTER__ЛАНДШАФТ__TARGET" x="20" y="348" width="350" height="44" rx="8" fill="#FFFFFF" fill-opacity="0.001"/></g><text x="20" y="414" font-family="Onest, Inter, Arial, sans-serif" font-size="15" font-weight="680" fill="#13151A" text-anchor="start" letter-spacing="0" opacity="1"><tspan x="20" dy="0">Пространство</tspan></text><g id="HOTSPOT__MOBILE_FILTER__ГОСТИНАЯ" data-name="HOTSPOT__MOBILE_FILTER__ГОСТИНАЯ"><rect x="20" y="438" width="350" height="44" rx="10" fill="#EEF4FF" stroke="#005BFF"/><rect x="36" y="452" width="16" height="16" rx="4" fill="#005BFF" /><path d="m40 460 3 3 6-7" fill="none" stroke="#fff" stroke-width="2" stroke-linecap="round"/><text x="66" y="466" font-family="Onest, Inter, Arial, sans-serif" font-size="14" font-weight="650" fill="#005BFF" text-anchor="start" letter-spacing="0" opacity="1"><tspan x="66" dy="0">Гостиная</tspan></text><rect id="HOTSPOT__MOBILE_FILTER__ГОСТИНАЯ__TARGET" data-name="HOTSPOT__MOBILE_FILTER__ГОСТИНАЯ__TARGET" x="20" y="438" width="350" height="44" rx="8" fill="#FFFFFF" fill-opacity="0.001"/></g><g id="HOTSPOT__MOBILE_FILTER__КУХНЯ" data-name="HOTSPOT__MOBILE_FILTER__КУХНЯ"><rect x="20" y="490" width="350" height="44" rx="10" fill="#FFFFFF" stroke="#E7E9ED"/><rect x="36" y="504" width="16" height="16" rx="4" fill="#FFFFFF" stroke="#E7E9ED"/><text x="66" y="518" font-family="Onest, Inter, Arial, sans-serif" font-size="14" font-weight="450" fill="#13151A" text-anchor="start" letter-spacing="0" opacity="1"><tspan x="66" dy="0">Кухня</tspan></text><rect id="HOTSPOT__MOBILE_FILTER__КУХНЯ__TARGET" data-name="HOTSPOT__MOBILE_FILTER__КУХНЯ__TARGET" x="20" y="490" width="350" height="44" rx="8" fill="#FFFFFF" fill-opacity="0.001"/></g><g id="HOTSPOT__MOBILE_FILTER__СПАЛЬНЯ" data-name="HOTSPOT__MOBILE_FILTER__СПАЛЬНЯ"><rect x="20" y="542" width="350" height="44" rx="10" fill="#FFFFFF" stroke="#E7E9ED"/><rect x="36" y="556" width="16" height="16" rx="4" fill="#FFFFFF" stroke="#E7E9ED"/><text x="66" y="570" font-family="Onest, Inter, Arial, sans-serif" font-size="14" font-weight="450" fill="#13151A" text-anchor="start" letter-spacing="0" opacity="1"><tspan x="66" dy="0">Спальня</tspan></text><rect id="HOTSPOT__MOBILE_FILTER__СПАЛЬНЯ__TARGET" data-name="HOTSPOT__MOBILE_FILTER__СПАЛЬНЯ__TARGET" x="20" y="542" width="350" height="44" rx="8" fill="#FFFFFF" fill-opacity="0.001"/></g><text x="20" y="608" font-family="Onest, Inter, Arial, sans-serif" font-size="15" font-weight="680" fill="#13151A" text-anchor="start" letter-spacing="0" opacity="1"><tspan x="20" dy="0">Стиль</tspan></text><g id="HOTSPOT__MOBILE_FILTER__МИНИМАЛИЗМ" data-name="HOTSPOT__MOBILE_FILTER__МИНИМАЛИЗМ"><rect x="20" y="632" width="350" height="44" rx="10" fill="#FFFFFF" stroke="#E7E9ED"/><rect x="36" y="646" width="16" height="16" rx="4" fill="#FFFFFF" stroke="#E7E9ED"/><text x="66" y="660" font-family="Onest, Inter, Arial, sans-serif" font-size="14" font-weight="450" fill="#13151A" text-anchor="start" letter-spacing="0" opacity="1"><tspan x="66" dy="0">Минимализм</tspan></text><rect id="HOTSPOT__MOBILE_FILTER__МИНИМАЛИЗМ__TARGET" data-name="HOTSPOT__MOBILE_FILTER__МИНИМАЛИЗМ__TARGET" x="20" y="632" width="350" height="44" rx="8" fill="#FFFFFF" fill-opacity="0.001"/></g><g id="HOTSPOT__MOBILE_FILTER__СОВРЕМЕННЫЙ" data-name="HOTSPOT__MOBILE_FILTER__СОВРЕМЕННЫЙ"><rect x="20" y="684" width="350" height="44" rx="10" fill="#FFFFFF" stroke="#E7E9ED"/><rect x="36" y="698" width="16" height="16" rx="4" fill="#FFFFFF" stroke="#E7E9ED"/><text x="66" y="712" font-family="Onest, Inter, Arial, sans-serif" font-size="14" font-weight="450" fill="#13151A" text-anchor="start" letter-spacing="0" opacity="1"><tspan x="66" dy="0">Современный</tspan></text><rect id="HOTSPOT__MOBILE_FILTER__СОВРЕМЕННЫЙ__TARGET" data-name="HOTSPOT__MOBILE_FILTER__СОВРЕМЕННЫЙ__TARGET" x="20" y="684" width="350" height="44" rx="8" fill="#FFFFFF" fill-opacity="0.001"/></g><g id="HOTSPOT__MOBILE_FILTER__СКАНДИНАВСКИЙ" data-name="HOTSPOT__MOBILE_FILTER__СКАНДИНАВСКИЙ"><rect x="20" y="736" width="350" height="44" rx="10" fill="#EEF4FF" stroke="#005BFF"/><rect x="36" y="750" width="16" height="16" rx="4" fill="#005BFF" /><path d="m40 758 3 3 6-7" fill="none" stroke="#fff" stroke-width="2" stroke-linecap="round"/><text x="66" y="764" font-family="Onest, Inter, Arial, sans-serif" font-size="14" font-weight="650" fill="#005BFF" text-anchor="start" letter-spacing="0" opacity="1"><tspan x="66" dy="0">Скандинавский</tspan></text><rect id="HOTSPOT__MOBILE_FILTER__СКАНДИНАВСКИЙ__TARGET" data-name="HOTSPOT__MOBILE_FILTER__СКАНДИНАВСКИЙ__TARGET" x="20" y="736" width="350" height="44" rx="8" fill="#FFFFFF" fill-opacity="0.001"/></g><rect x="0" y="872" width="390" height="88" rx="0" fill="#FFFFFF" stroke="#E7E9ED"/><g id="HOTSPOT__MOBILE_FILTERS__APPLY" data-name="HOTSPOT__MOBILE_FILTERS__APPLY"><rect x="20" y="890" width="230" height="52" rx="12" fill="#005BFF" /><text x="135" y="923" font-family="Onest, Inter, Arial, sans-serif" font-size="14" font-weight="650" fill="#FFFFFF" text-anchor="middle" letter-spacing="0" opacity="1"><tspan x="135" dy="0">Показать 1 проект</tspan></text><rect id="HOTSPOT__MOBILE_FILTERS__APPLY__TARGET" data-name="HOTSPOT__MOBILE_FILTERS__APPLY__TARGET" x="20" y="890" width="230" height="52" rx="8" fill="#FFFFFF" fill-opacity="0.001"/></g><g id="HOTSPOT__MOBILE_FILTERS__RESET" data-name="HOTSPOT__MOBILE_FILTERS__RESET"><text x="330" y="922" font-family="Onest, Inter, Arial, sans-serif" font-size="13" font-weight="650" fill="#005BFF" text-anchor="middle" letter-spacing="0" opacity="1"><tspan x="330" dy="0">Сбросить</tspan></text><rect id="HOTSPOT__MOBILE_FILTERS__RESET__TARGET" data-name="HOTSPOT__MOBILE_FILTERS__RESET__TARGET" x="270" y="890" width="100" height="52" rx="8" fill="#FFFFFF" fill-opacity="0.001"/></g></g>
</svg>