<?xml version="1.0" encoding="UTF-8"?>
<svg xmlns="http://www.w3.org/2000/svg" width="390" height="1180" viewBox="0 0 390 1180">
  <title>Ozon Design — Мобильный каталог — Фильтры применены</title>
  <desc>Ozon Design — импортируемый экран для Figma Design. Корневой фрейм: FRAME__MOBILE__CATALOG__FILTERED.</desc>
  <defs>
    <linearGradient id="heroShade" x1="0" y1="0" x2="1" y2="0"><stop offset="0" stop-color="#101318" stop-opacity=".58"/><stop offset=".62" stop-color="#101318" stop-opacity=".05"/><stop offset="1" stop-color="#101318" stop-opacity=".12"/></linearGradient>
  </defs>
  <g id="FRAME__MOBILE__CATALOG__FILTERED" data-name="FRAME__MOBILE__CATALOG__FILTERED"><rect x="0" y="0" width="390" height="1180" rx="0" fill="#FFFFFF" /><rect x="0" y="0" width="390" height="72" rx="0" fill="#FFFFFF" /><text x="20" y="44" font-family="Onest, Inter, Arial, sans-serif" font-size="20" font-weight="700" fill="#13151A" text-anchor="start" letter-spacing="0" opacity="1"><tspan x="20" dy="0">Ozon Design</tspan></text>
      <g id="HOTSPOT__HEADER__FAVORITES" data-name="HOTSPOT__HEADER__FAVORITES"><circle cx="306" cy="36" r="22" fill="#FFF0F6" /><g transform="translate(294 24) scale(1)"><path d="M20.8 4.7a5.5 5.5 0 0 0-7.8 0L12 5.8l-1.1-1.1a5.5 5.5 0 1 0-7.8 7.8l1.1 1L12 21l7.8-7.5 1-1a5.5 5.5 0 0 0 0-7.8Z" fill="none" stroke="#F43F8C" stroke-width="1.8" stroke-linecap="round" stroke-linejoin="round"/></g><rect id="HOTSPOT__HEADER__FAVORITES__TARGET" data-name="HOTSPOT__HEADER__FAVORITES__TARGET" x="284" y="14" width="44" height="44" rx="8" fill="#FFFFFF" fill-opacity="0.001"/></g>
      <g id="HOTSPOT__HEADER__MENU" data-name="HOTSPOT__HEADER__MENU"><circle cx="358" cy="36" r="22" fill="#F5F6F8" /><g transform="translate(346 24) scale(1)"><path d="M3 6h18M3 12h18M3 18h18" stroke="#13151A" stroke-width="2" stroke-linecap="round"/></g><rect id="HOTSPOT__HEADER__MENU__TARGET" data-name="HOTSPOT__HEADER__MENU__TARGET" x="336" y="14" width="44" height="44" rx="8" fill="#FFFFFF" fill-opacity="0.001"/></g><line x1="0" y1="71" x2="390" y2="71" stroke="#E7E9ED" stroke-width="1" /><text x="16" y="130" font-family="Onest, Inter, Arial, sans-serif" font-size="32" font-weight="720" fill="#13151A" text-anchor="start" letter-spacing="0" opacity="1"><tspan x="16" dy="0">Каталог дизайна</tspan></text><text x="16" y="170" font-family="Onest, Inter, Arial, sans-serif" font-size="14" font-weight="430" fill="#6C717C" text-anchor="start" letter-spacing="0" opacity="1"><tspan x="16" dy="0">Скандинавские гостиные</tspan></text><g id="HOTSPOT__MOBILE_CATALOG__SEARCH" data-name="HOTSPOT__MOBILE_CATALOG__SEARCH"><rect x="16" y="210" width="358" height="52" rx="12" fill="#FFFFFF" stroke="#E7E9ED"/><g transform="translate(32 224) scale(1)"><circle cx="10.5" cy="10.5" r="6.5" fill="none" stroke="#6C717C" stroke-width="1.8"/><path d="m15.5 15.5 5 5" stroke="#6C717C" stroke-width="1.8" stroke-linecap="round"/></g><text x="68" y="243" font-family="Onest, Inter, Arial, sans-serif" font-size="14" font-weight="450" fill="#6C717C" text-anchor="start" letter-spacing="0" opacity="1"><tspan x="68" dy="0">Поиск по проектам</tspan></text><rect id="HOTSPOT__MOBILE_CATALOG__SEARCH__TARGET" data-name="HOTSPOT__MOBILE_CATALOG__SEARCH__TARGET" x="16" y="210" width="358" height="52" rx="8" fill="#FFFFFF" fill-opacity="0.001"/></g><g id="HOTSPOT__MOBILE_CATALOG__OPEN_FILTERS" data-name="HOTSPOT__MOBILE_CATALOG__OPEN_FILTERS"><rect x="16" y="280" width="180" height="48" rx="12" fill="#EEF4FF" stroke="#005BFF"/><g transform="translate(30 292) scale(1)"><path d="M4 6h16M7 12h10M10 18h4" stroke="#005BFF" stroke-width="1.8" stroke-linecap="round"/></g><text x="66" y="310" font-family="Onest, Inter, Arial, sans-serif" font-size="14" font-weight="650" fill="#005BFF" text-anchor="start" letter-spacing="0" opacity="1"><tspan x="66" dy="0">Фильтры · 3</tspan></text><rect id="HOTSPOT__MOBILE_CATALOG__OPEN_FILTERS__TARGET" data-name="HOTSPOT__MOBILE_CATALOG__OPEN_FILTERS__TARGET" x="16" y="280" width="180" height="48" rx="8" fill="#FFFFFF" fill-opacity="0.001"/></g><g id="HOTSPOT__MOBILE_CATALOG__SORT" data-name="HOTSPOT__MOBILE_CATALOG__SORT"><rect x="208" y="280" width="166" height="48" rx="12" fill="#FFFFFF" stroke="#E7E9ED"/><text x="226" y="310" font-family="Onest, Inter, Arial, sans-serif" font-size="13" font-weight="600" fill="#13151A" text-anchor="start" letter-spacing="0" opacity="1"><tspan x="226" dy="0">Сначала новые</tspan></text><text x="350" y="310" font-family="Onest, Inter, Arial, sans-serif" font-size="16" font-weight="600" fill="#6C717C" text-anchor="start" letter-spacing="0" opacity="1"><tspan x="350" dy="0">⌄</tspan></text><rect id="HOTSPOT__MOBILE_CATALOG__SORT__TARGET" data-name="HOTSPOT__MOBILE_CATALOG__SORT__TARGET" x="208" y="280" width="166" height="48" rx="8" fill="#FFFFFF" fill-opacity="0.001"/></g><g id="HOTSPOT__MOBILE_CHIP__INTERIOR" data-name="HOTSPOT__MOBILE_CHIP__INTERIOR"><rect x="16" y="350" width="116" height="42" rx="21" fill="#005BFF" /><text x="74" y="377" font-family="Onest, Inter, Arial, sans-serif" font-size="13" font-weight="600" fill="#FFFFFF" text-anchor="middle" letter-spacing="0" opacity="1"><tspan x="74" dy="0">Интерьер</tspan></text><rect id="HOTSPOT__MOBILE_CHIP__INTERIOR__TARGET" data-name="HOTSPOT__MOBILE_CHIP__INTERIOR__TARGET" x="16" y="350" width="116" height="42" rx="8" fill="#FFFFFF" fill-opacity="0.001"/></g><g id="HOTSPOT__MOBILE_CHIP__LIVING" data-name="HOTSPOT__MOBILE_CHIP__LIVING"><rect x="140" y="350" width="116" height="42" rx="21" fill="#005BFF" /><text x="198" y="377" font-family="Onest, Inter, Arial, sans-serif" font-size="13" font-weight="600" fill="#FFFFFF" text-anchor="middle" letter-spacing="0" opacity="1"><tspan x="198" dy="0">Гостиная</tspan></text><rect id="HOTSPOT__MOBILE_CHIP__LIVING__TARGET" data-name="HOTSPOT__MOBILE_CHIP__LIVING__TARGET" x="140" y="350" width="116" height="42" rx="8" fill="#FFFFFF" fill-opacity="0.001"/></g><g id="HOTSPOT__MOBILE_CHIP__SCANDINAVIAN" data-name="HOTSPOT__MOBILE_CHIP__SCANDINAVIAN"><rect x="264" y="350" width="110" height="42" rx="21" fill="#005BFF" /><text x="319" y="377" font-family="Onest, Inter, Arial, sans-serif" font-size="13" font-weight="600" fill="#FFFFFF" text-anchor="middle" letter-spacing="0" opacity="1"><tspan x="319" dy="0">Скандинавский</tspan></text><rect id="HOTSPOT__MOBILE_CHIP__SCANDINAVIAN__TARGET" data-name="HOTSPOT__MOBILE_CHIP__SCANDINAVIAN__TARGET" x="264" y="350" width="110" height="42" rx="8" fill="#FFFFFF" fill-opacity="0.001"/></g><text x="16" y="438" font-family="Onest, Inter, Arial, sans-serif" font-size="13" font-weight="600" fill="#6C717C" text-anchor="start" letter-spacing="0" opacity="1"><tspan x="16" dy="0">1 проектов</tspan></text><g id="HOTSPOT__PROJECT__NORDIC_LIVING" data-name="HOTSPOT__PROJECT__NORDIC_LIVING"><rect x="16" y="475" width="358" height="405" rx="18" fill="#FFFFFF" /><g id="ART__nordic-living" data-name="ART__nordic-living" transform="translate(16 475)">
    <defs><clipPath id="ART_CLIP_102"><rect width="1200" height="760" rx="30"/></clipPath></defs>
    <g transform="scale(0.3 0.38)" clip-path="url(#ART_CLIP_102)"><rect x="0" y="0" width="1200" height="760" rx="0" fill="#E9E1D5" /><rect x="0" y="540" width="1200" height="220" rx="0" fill="#C69479" opacity=".64"/>
    <rect x="760" y="82" width="310" height="340" rx="6" fill="#CFE0E2" />
    <line x1="915" y1="82" x2="915" y2="422" stroke="#F7F5EF" stroke-width="8" /><line x1="760" y1="250" x2="1070" y2="250" stroke="#F7F5EF" stroke-width="8" />
    <ellipse cx="570" cy="626" rx="360" ry="72" fill="#EFE9DF" opacity=".86"/>
    <rect x="365" y="390" width="405" height="168" rx="28" fill="#F5F2EC" /><rect x="405" y="312" width="326" height="148" rx="26" fill="#EBE8E1" />
    <rect x="436" y="370" width="108" height="92" rx="16" fill="#94AAA5" /><rect x="620" y="370" width="105" height="92" rx="16" fill="#C69479" />
    <rect x="792" y="526" width="174" height="38" rx="14" fill="#2D3334" /><line x1="879" y1="558" x2="879" y2="650" stroke="#2D3334" stroke-width="16" stroke-linecap="round"/>
    <line x1="1010" y1="275" x2="1010" y2="565" stroke="#2D3334" stroke-width="12" stroke-linecap="round"/>
    <path d="M948 285c17-76 104-76 125 0Z" fill="#2D3334"/>
    <circle cx="206" cy="250" r="78" fill="#94AAA5" opacity=".20"/>
    <path d="M207 190v235M150 268l57-47 61 46M164 327l43-41 52 42" stroke="#2D3334" stroke-width="8" stroke-linecap="round" opacity=".58" fill="none"/>
    <rect x="168" y="423" width="84" height="128" rx="18" fill="#2D3334" opacity=".72"/></g>
  </g>
    <circle cx="340" cy="505" r="21" fill="#FFFFFF" fill-opacity=".94"/>
    <g transform="translate(328 493) scale(1)"><path d="M20.8 4.7a5.5 5.5 0 0 0-7.8 0L12 5.8l-1.1-1.1a5.5 5.5 0 1 0-7.8 7.8l1.1 1L12 21l7.8-7.5 1-1a5.5 5.5 0 0 0 0-7.8Z" fill="none" stroke="#13151A" stroke-width="1.8" stroke-linecap="round" stroke-linejoin="round"/></g>
    <text x="16" y="785" font-family="Onest, Inter, Arial, sans-serif" font-size="12" font-weight="500" fill="#6C717C" text-anchor="start" letter-spacing="0" opacity="1"><tspan x="16" dy="0">Интерьер · Скандинавский · 42 м²</tspan></text>
    <text x="16" y="818" font-family="Onest, Inter, Arial, sans-serif" font-size="22" font-weight="650" fill="#13151A" text-anchor="start" letter-spacing="0" opacity="1"><tspan x="16" dy="0">Северная гостиная</tspan></text>
    <text x="16" y="854" font-family="Onest, Inter, Arial, sans-serif" font-size="13" font-weight="650" fill="#005BFF" text-anchor="start" letter-spacing="0" opacity="1"><tspan x="16" dy="0">Nordform Studio</tspan></text>
    <rect id="HOTSPOT__PROJECT__NORDIC_LIVING__TARGET" data-name="HOTSPOT__PROJECT__NORDIC_LIVING__TARGET" x="16" y="475" width="358" height="405" rx="8" fill="#FFFFFF" fill-opacity="0.001"/></g></g>
</svg>