<?xml version="1.0" encoding="UTF-8"?>
<svg xmlns="http://www.w3.org/2000/svg" width="390" height="2450" viewBox="0 0 390 2450">
  <title>Ozon Design — Мобильный профиль Nordform Studio</title>
  <desc>Ozon Design — импортируемый экран для Figma Design. Корневой фрейм: FRAME__MOBILE__COMPANY__NORDFORM.</desc>
  <defs>
    <linearGradient id="heroShade" x1="0" y1="0" x2="1" y2="0"><stop offset="0" stop-color="#101318" stop-opacity=".58"/><stop offset=".62" stop-color="#101318" stop-opacity=".05"/><stop offset="1" stop-color="#101318" stop-opacity=".12"/></linearGradient>
  </defs>
  <g id="FRAME__MOBILE__COMPANY__NORDFORM" data-name="FRAME__MOBILE__COMPANY__NORDFORM"><rect x="0" y="0" width="390" height="2450" rx="0" fill="#FFFFFF" /><rect x="0" y="0" width="390" height="72" rx="0" fill="#FFFFFF" /><text x="20" y="44" font-family="Onest, Inter, Arial, sans-serif" font-size="20" font-weight="700" fill="#13151A" text-anchor="start" letter-spacing="0" opacity="1"><tspan x="20" dy="0">Ozon Design</tspan></text>
      <g id="HOTSPOT__HEADER__FAVORITES" data-name="HOTSPOT__HEADER__FAVORITES"><circle cx="306" cy="36" r="22" fill="#FFF0F6" /><g transform="translate(294 24) scale(1)"><path d="M20.8 4.7a5.5 5.5 0 0 0-7.8 0L12 5.8l-1.1-1.1a5.5 5.5 0 1 0-7.8 7.8l1.1 1L12 21l7.8-7.5 1-1a5.5 5.5 0 0 0 0-7.8Z" fill="#F43F8C"/></g><circle cx="322" cy="20" r="9" fill="#005BFF" /><text x="322" y="24" font-family="Onest, Inter, Arial, sans-serif" font-size="9" font-weight="700" fill="#FFFFFF" text-anchor="middle" letter-spacing="0" opacity="1"><tspan x="322" dy="0">1</tspan></text><rect id="HOTSPOT__HEADER__FAVORITES__TARGET" data-name="HOTSPOT__HEADER__FAVORITES__TARGET" x="284" y="14" width="44" height="44" rx="8" fill="#FFFFFF" fill-opacity="0.001"/></g>
      <g id="HOTSPOT__HEADER__MENU" data-name="HOTSPOT__HEADER__MENU"><circle cx="358" cy="36" r="22" fill="#F5F6F8" /><g transform="translate(346 24) scale(1)"><path d="M3 6h18M3 12h18M3 18h18" stroke="#13151A" stroke-width="2" stroke-linecap="round"/></g><rect id="HOTSPOT__HEADER__MENU__TARGET" data-name="HOTSPOT__HEADER__MENU__TARGET" x="336" y="14" width="44" height="44" rx="8" fill="#FFFFFF" fill-opacity="0.001"/></g><line x1="0" y1="71" x2="390" y2="71" stroke="#E7E9ED" stroke-width="1" /><g id="ART__MOBILE_COMPANY_COVER" data-name="ART__MOBILE_COMPANY_COVER" transform="translate(16 92)">
    <defs><clipPath id="ART_CLIP_121"><rect width="1200" height="760" rx="30"/></clipPath></defs>
    <g transform="scale(0.3 0.43)" clip-path="url(#ART_CLIP_121)"><rect x="0" y="0" width="1200" height="760" rx="0" fill="#DFE8E8" /><rect x="0" y="540" width="1200" height="220" rx="0" fill="#D1B191" opacity=".64"/>
    <rect x="760" y="82" width="310" height="340" rx="6" fill="#CFE0E2" />
    <line x1="915" y1="82" x2="915" y2="422" stroke="#F7F5EF" stroke-width="8" /><line x1="760" y1="250" x2="1070" y2="250" stroke="#F7F5EF" stroke-width="8" />
    <ellipse cx="570" cy="626" rx="360" ry="72" fill="#EFE9DF" opacity=".86"/>
    <rect x="365" y="390" width="405" height="168" rx="28" fill="#F5F2EC" /><rect x="405" y="312" width="326" height="148" rx="26" fill="#EBE8E1" />
    <rect x="436" y="370" width="108" height="92" rx="16" fill="#8FA8A5" /><rect x="620" y="370" width="105" height="92" rx="16" fill="#D1B191" />
    <rect x="792" y="526" width="174" height="38" rx="14" fill="#34393A" /><line x1="879" y1="558" x2="879" y2="650" stroke="#34393A" stroke-width="16" stroke-linecap="round"/>
    <line x1="1010" y1="275" x2="1010" y2="565" stroke="#34393A" stroke-width="12" stroke-linecap="round"/>
    <path d="M948 285c17-76 104-76 125 0Z" fill="#34393A"/>
    <circle cx="206" cy="250" r="78" fill="#8FA8A5" opacity=".20"/>
    <path d="M207 190v235M150 268l57-47 61 46M164 327l43-41 52 42" stroke="#34393A" stroke-width="8" stroke-linecap="round" opacity=".58" fill="none"/>
    <rect x="168" y="423" width="84" height="128" rx="18" fill="#34393A" opacity=".72"/></g>
  </g><rect x="16" y="92" width="358" height="330" rx="18" fill="url(#heroShade)" /><circle cx="58" cy="338" r="30" fill="#005BFF" /><text x="58" y="344" font-family="Onest, Inter, Arial, sans-serif" font-size="12" font-weight="750" fill="#FFFFFF" text-anchor="middle" letter-spacing="0" opacity="1"><tspan x="58" dy="0">NF</tspan></text><text x="100" y="338" font-family="Onest, Inter, Arial, sans-serif" font-size="25" font-weight="700" fill="#FFFFFF" text-anchor="start" letter-spacing="0" opacity="1"><tspan x="100" dy="0">Nordform Studio</tspan></text><text x="100" y="372" font-family="Onest, Inter, Arial, sans-serif" font-size="12" font-weight="520" fill="#FFFFFF" text-anchor="start" letter-spacing="0" opacity="1"><tspan x="100" dy="0">Интерьеры · Предметный дизайн</tspan></text><text x="16" y="500" font-family="Onest, Inter, Arial, sans-serif" font-size="28" font-weight="700" fill="#13151A" text-anchor="start" letter-spacing="0" opacity="1"><tspan x="16" dy="0">О студии</tspan></text><text x="16" y="558" font-family="Onest, Inter, Arial, sans-serif" font-size="16" font-weight="430" fill="#363A43" text-anchor="start" letter-spacing="0" opacity="1"><tspan x="16" dy="0">Nordform Studio создаёт спокойные</tspan><tspan x="16" dy="25">современные интерьеры, в которых</tspan><tspan x="16" dy="25">функциональность сочетается с</tspan><tspan x="16" dy="25">натуральными материалами и</tspan><tspan x="16" dy="25">выразительной архитектурой</tspan><tspan x="16" dy="25">пространства.</tspan></text><rect x="16" y="750" width="111" height="112" rx="14" fill="#EEF4FF" /><text x="32" y="794" font-family="Onest, Inter, Arial, sans-serif" font-size="24" font-weight="720" fill="#13151A" text-anchor="start" letter-spacing="0" opacity="1"><tspan x="32" dy="0">6</tspan></text><text x="32" y="833" font-family="Onest, Inter, Arial, sans-serif" font-size="11" font-weight="550" fill="#6C717C" text-anchor="start" letter-spacing="0" opacity="1"><tspan x="32" dy="0">проектов</tspan></text><rect x="135" y="750" width="111" height="112" rx="14" fill="#F2EEE7" /><text x="151" y="794" font-family="Onest, Inter, Arial, sans-serif" font-size="24" font-weight="720" fill="#13151A" text-anchor="start" letter-spacing="0" opacity="1"><tspan x="151" dy="0">2018</tspan></text><text x="151" y="833" font-family="Onest, Inter, Arial, sans-serif" font-size="11" font-weight="550" fill="#6C717C" text-anchor="start" letter-spacing="0" opacity="1"><tspan x="151" dy="0">год основания</tspan></text><rect x="254" y="750" width="111" height="112" rx="14" fill="#EEF4FF" /><text x="270" y="794" font-family="Onest, Inter, Arial, sans-serif" font-size="24" font-weight="720" fill="#13151A" text-anchor="start" letter-spacing="0" opacity="1"><tspan x="270" dy="0">2</tspan></text><text x="270" y="833" font-family="Onest, Inter, Arial, sans-serif" font-size="11" font-weight="550" fill="#6C717C" text-anchor="start" letter-spacing="0" opacity="1"><tspan x="270" dy="0">города</tspan></text><text x="16" y="950" font-family="Onest, Inter, Arial, sans-serif" font-size="28" font-weight="700" fill="#13151A" text-anchor="start" letter-spacing="0" opacity="1"><tspan x="16" dy="0">Проекты студии</tspan></text><g id="HOTSPOT__MOBILE_COMPANY__OPEN_NORDIC_LIVING" data-name="HOTSPOT__MOBILE_COMPANY__OPEN_NORDIC_LIVING"><rect x="16" y="1005" width="358" height="405" rx="18" fill="#FFFFFF" /><g id="ART__nordic-living" data-name="ART__nordic-living" transform="translate(16 1005)">
    <defs><clipPath id="ART_CLIP_122"><rect width="1200" height="760" rx="30"/></clipPath></defs>
    <g transform="scale(0.3 0.38)" clip-path="url(#ART_CLIP_122)"><rect x="0" y="0" width="1200" height="760" rx="0" fill="#E9E1D5" /><rect x="0" y="540" width="1200" height="220" rx="0" fill="#C69479" opacity=".64"/>
    <rect x="760" y="82" width="310" height="340" rx="6" fill="#CFE0E2" />
    <line x1="915" y1="82" x2="915" y2="422" stroke="#F7F5EF" stroke-width="8" /><line x1="760" y1="250" x2="1070" y2="250" stroke="#F7F5EF" stroke-width="8" />
    <ellipse cx="570" cy="626" rx="360" ry="72" fill="#EFE9DF" opacity=".86"/>
    <rect x="365" y="390" width="405" height="168" rx="28" fill="#F5F2EC" /><rect x="405" y="312" width="326" height="148" rx="26" fill="#EBE8E1" />
    <rect x="436" y="370" width="108" height="92" rx="16" fill="#94AAA5" /><rect x="620" y="370" width="105" height="92" rx="16" fill="#C69479" />
    <rect x="792" y="526" width="174" height="38" rx="14" fill="#2D3334" /><line x1="879" y1="558" x2="879" y2="650" stroke="#2D3334" stroke-width="16" stroke-linecap="round"/>
    <line x1="1010" y1="275" x2="1010" y2="565" stroke="#2D3334" stroke-width="12" stroke-linecap="round"/>
    <path d="M948 285c17-76 104-76 125 0Z" fill="#2D3334"/>
    <circle cx="206" cy="250" r="78" fill="#94AAA5" opacity=".20"/>
    <path d="M207 190v235M150 268l57-47 61 46M164 327l43-41 52 42" stroke="#2D3334" stroke-width="8" stroke-linecap="round" opacity=".58" fill="none"/>
    <rect x="168" y="423" width="84" height="128" rx="18" fill="#2D3334" opacity=".72"/></g>
  </g>
    <circle cx="340" cy="1035" r="21" fill="#FFFFFF" fill-opacity=".94"/>
    <g transform="translate(328 1023) scale(1)"><path d="M20.8 4.7a5.5 5.5 0 0 0-7.8 0L12 5.8l-1.1-1.1a5.5 5.5 0 1 0-7.8 7.8l1.1 1L12 21l7.8-7.5 1-1a5.5 5.5 0 0 0 0-7.8Z" fill="none" stroke="#13151A" stroke-width="1.8" stroke-linecap="round" stroke-linejoin="round"/></g>
    <text x="16" y="1315" font-family="Onest, Inter, Arial, sans-serif" font-size="12" font-weight="500" fill="#6C717C" text-anchor="start" letter-spacing="0" opacity="1"><tspan x="16" dy="0">Интерьер · Скандинавский · 42 м²</tspan></text>
    <text x="16" y="1348" font-family="Onest, Inter, Arial, sans-serif" font-size="22" font-weight="650" fill="#13151A" text-anchor="start" letter-spacing="0" opacity="1"><tspan x="16" dy="0">Северная гостиная</tspan></text>
    <text x="16" y="1384" font-family="Onest, Inter, Arial, sans-serif" font-size="13" font-weight="650" fill="#005BFF" text-anchor="start" letter-spacing="0" opacity="1"><tspan x="16" dy="0">Nordform Studio</tspan></text>
    <rect id="HOTSPOT__MOBILE_COMPANY__OPEN_NORDIC_LIVING__TARGET" data-name="HOTSPOT__MOBILE_COMPANY__OPEN_NORDIC_LIVING__TARGET" x="16" y="1005" width="358" height="405" rx="8" fill="#FFFFFF" fill-opacity="0.001"/></g><g id="HOTSPOT__PROJECT__OAK_DINING" data-name="HOTSPOT__PROJECT__OAK_DINING"><rect x="16" y="1445" width="358" height="405" rx="18" fill="#FFFFFF" /><g id="ART__oak-dining" data-name="ART__oak-dining" transform="translate(16 1445)">
    <defs><clipPath id="ART_CLIP_123"><rect width="1200" height="760" rx="30"/></clipPath></defs>
    <g transform="scale(0.3 0.38)" clip-path="url(#ART_CLIP_123)"><rect x="0" y="0" width="1200" height="760" rx="0" fill="#EADFCF" /><rect x="0" y="540" width="1200" height="220" rx="0" fill="#7B9189" opacity=".64"/>
    <rect x="760" y="82" width="310" height="340" rx="6" fill="#CFE0E2" />
    <line x1="915" y1="82" x2="915" y2="422" stroke="#F7F5EF" stroke-width="8" /><line x1="760" y1="250" x2="1070" y2="250" stroke="#F7F5EF" stroke-width="8" />
    <ellipse cx="570" cy="626" rx="360" ry="72" fill="#EFE9DF" opacity=".86"/>
    <rect x="365" y="390" width="405" height="168" rx="28" fill="#F5F2EC" /><rect x="405" y="312" width="326" height="148" rx="26" fill="#EBE8E1" />
    <rect x="436" y="370" width="108" height="92" rx="16" fill="#C09A72" /><rect x="620" y="370" width="105" height="92" rx="16" fill="#7B9189" />
    <rect x="792" y="526" width="174" height="38" rx="14" fill="#382F2A" /><line x1="879" y1="558" x2="879" y2="650" stroke="#382F2A" stroke-width="16" stroke-linecap="round"/>
    <line x1="1010" y1="275" x2="1010" y2="565" stroke="#382F2A" stroke-width="12" stroke-linecap="round"/>
    <path d="M948 285c17-76 104-76 125 0Z" fill="#382F2A"/>
    <circle cx="206" cy="250" r="78" fill="#C09A72" opacity=".20"/>
    <path d="M207 190v235M150 268l57-47 61 46M164 327l43-41 52 42" stroke="#382F2A" stroke-width="8" stroke-linecap="round" opacity=".58" fill="none"/>
    <rect x="168" y="423" width="84" height="128" rx="18" fill="#382F2A" opacity=".72"/></g>
  </g>
    <circle cx="340" cy="1475" r="21" fill="#FFFFFF" fill-opacity=".94"/>
    <g transform="translate(328 1463) scale(1)"><path d="M20.8 4.7a5.5 5.5 0 0 0-7.8 0L12 5.8l-1.1-1.1a5.5 5.5 0 1 0-7.8 7.8l1.1 1L12 21l7.8-7.5 1-1a5.5 5.5 0 0 0 0-7.8Z" fill="none" stroke="#13151A" stroke-width="1.8" stroke-linecap="round" stroke-linejoin="round"/></g>
    <text x="16" y="1755" font-family="Onest, Inter, Arial, sans-serif" font-size="12" font-weight="500" fill="#6C717C" text-anchor="start" letter-spacing="0" opacity="1"><tspan x="16" dy="0">Интерьер · Скандинавский · 34 м²</tspan></text>
    <text x="16" y="1788" font-family="Onest, Inter, Arial, sans-serif" font-size="22" font-weight="650" fill="#13151A" text-anchor="start" letter-spacing="0" opacity="1"><tspan x="16" dy="0">Столовая из светлого дуба</tspan></text>
    <text x="16" y="1824" font-family="Onest, Inter, Arial, sans-serif" font-size="13" font-weight="650" fill="#005BFF" text-anchor="start" letter-spacing="0" opacity="1"><tspan x="16" dy="0">Nordform Studio</tspan></text>
    <rect id="HOTSPOT__PROJECT__OAK_DINING__TARGET" data-name="HOTSPOT__PROJECT__OAK_DINING__TARGET" x="16" y="1445" width="358" height="405" rx="8" fill="#FFFFFF" fill-opacity="0.001"/></g><g id="HOTSPOT__PROJECT__SOFT_BEDROOM" data-name="HOTSPOT__PROJECT__SOFT_BEDROOM"><rect x="16" y="1885" width="358" height="405" rx="18" fill="#FFFFFF" /><g id="ART__soft-bedroom" data-name="ART__soft-bedroom" transform="translate(16 1885)">
    <defs><clipPath id="ART_CLIP_124"><rect width="1200" height="760" rx="30"/></clipPath></defs>
    <g transform="scale(0.3 0.38)" clip-path="url(#ART_CLIP_124)"><rect x="0" y="0" width="1200" height="760" rx="0" fill="#EEE0DD" /><rect x="0" y="540" width="1200" height="220" rx="0" fill="#A8B5AC" opacity=".64"/>
    <rect x="760" y="82" width="310" height="340" rx="6" fill="#CFE0E2" />
    <line x1="915" y1="82" x2="915" y2="422" stroke="#F7F5EF" stroke-width="8" /><line x1="760" y1="250" x2="1070" y2="250" stroke="#F7F5EF" stroke-width="8" />
    <ellipse cx="570" cy="626" rx="360" ry="72" fill="#EFE9DF" opacity=".86"/>
    <rect x="365" y="390" width="405" height="168" rx="28" fill="#F5F2EC" /><rect x="405" y="312" width="326" height="148" rx="26" fill="#EBE8E1" />
    <rect x="436" y="370" width="108" height="92" rx="16" fill="#CFAFA7" /><rect x="620" y="370" width="105" height="92" rx="16" fill="#A8B5AC" />
    <rect x="792" y="526" width="174" height="38" rx="14" fill="#4B4140" /><line x1="879" y1="558" x2="879" y2="650" stroke="#4B4140" stroke-width="16" stroke-linecap="round"/>
    <line x1="1010" y1="275" x2="1010" y2="565" stroke="#4B4140" stroke-width="12" stroke-linecap="round"/>
    <path d="M948 285c17-76 104-76 125 0Z" fill="#4B4140"/>
    <circle cx="206" cy="250" r="78" fill="#CFAFA7" opacity=".20"/>
    <path d="M207 190v235M150 268l57-47 61 46M164 327l43-41 52 42" stroke="#4B4140" stroke-width="8" stroke-linecap="round" opacity=".58" fill="none"/>
    <rect x="168" y="423" width="84" height="128" rx="18" fill="#4B4140" opacity=".72"/></g>
  </g>
    <circle cx="340" cy="1915" r="21" fill="#FFFFFF" fill-opacity=".94"/>
    <g transform="translate(328 1903) scale(1)"><path d="M20.8 4.7a5.5 5.5 0 0 0-7.8 0L12 5.8l-1.1-1.1a5.5 5.5 0 1 0-7.8 7.8l1.1 1L12 21l7.8-7.5 1-1a5.5 5.5 0 0 0 0-7.8Z" fill="none" stroke="#13151A" stroke-width="1.8" stroke-linecap="round" stroke-linejoin="round"/></g>
    <text x="16" y="2195" font-family="Onest, Inter, Arial, sans-serif" font-size="12" font-weight="500" fill="#6C717C" text-anchor="start" letter-spacing="0" opacity="1"><tspan x="16" dy="0">Интерьер · Современный · 26 м²</tspan></text>
    <text x="16" y="2228" font-family="Onest, Inter, Arial, sans-serif" font-size="22" font-weight="650" fill="#13151A" text-anchor="start" letter-spacing="0" opacity="1"><tspan x="16" dy="0">Спальня с мягким светом</tspan></text>
    <text x="16" y="2264" font-family="Onest, Inter, Arial, sans-serif" font-size="13" font-weight="650" fill="#005BFF" text-anchor="start" letter-spacing="0" opacity="1"><tspan x="16" dy="0">Nordform Studio</tspan></text>
    <rect id="HOTSPOT__PROJECT__SOFT_BEDROOM__TARGET" data-name="HOTSPOT__PROJECT__SOFT_BEDROOM__TARGET" x="16" y="1885" width="358" height="405" rx="8" fill="#FFFFFF" fill-opacity="0.001"/></g></g>
</svg>