<?xml version="1.0" encoding="UTF-8"?>
<svg xmlns="http://www.w3.org/2000/svg" width="390" height="3120" viewBox="0 0 390 3120">
  <title>Ozon Design — Мобильная подборка товаров</title>
  <desc>Ozon Design — импортируемый экран для Figma Design. Корневой фрейм: FRAME__MOBILE__COLLECTION.</desc>
  <defs>
    <linearGradient id="heroShade" x1="0" y1="0" x2="1" y2="0"><stop offset="0" stop-color="#101318" stop-opacity=".58"/><stop offset=".62" stop-color="#101318" stop-opacity=".05"/><stop offset="1" stop-color="#101318" stop-opacity=".12"/></linearGradient>
  </defs>
  <g id="FRAME__MOBILE__COLLECTION" data-name="FRAME__MOBILE__COLLECTION"><rect x="0" y="0" width="390" height="3120" rx="0" fill="#FFFFFF" /><rect x="0" y="0" width="390" height="72" rx="0" fill="#FFFFFF" /><text x="20" y="44" font-family="Onest, Inter, Arial, sans-serif" font-size="20" font-weight="700" fill="#13151A" text-anchor="start" letter-spacing="0" opacity="1"><tspan x="20" dy="0">Ozon Design</tspan></text>
      <g id="HOTSPOT__HEADER__FAVORITES" data-name="HOTSPOT__HEADER__FAVORITES"><circle cx="306" cy="36" r="22" fill="#FFF0F6" /><g transform="translate(294 24) scale(1)"><path d="M20.8 4.7a5.5 5.5 0 0 0-7.8 0L12 5.8l-1.1-1.1a5.5 5.5 0 1 0-7.8 7.8l1.1 1L12 21l7.8-7.5 1-1a5.5 5.5 0 0 0 0-7.8Z" fill="none" stroke="#F43F8C" stroke-width="1.8" stroke-linecap="round" stroke-linejoin="round"/></g><rect id="HOTSPOT__HEADER__FAVORITES__TARGET" data-name="HOTSPOT__HEADER__FAVORITES__TARGET" x="284" y="14" width="44" height="44" rx="8" fill="#FFFFFF" fill-opacity="0.001"/></g>
      <g id="HOTSPOT__HEADER__MENU" data-name="HOTSPOT__HEADER__MENU"><circle cx="358" cy="36" r="22" fill="#F5F6F8" /><g transform="translate(346 24) scale(1)"><path d="M3 6h18M3 12h18M3 18h18" stroke="#13151A" stroke-width="2" stroke-linecap="round"/></g><rect id="HOTSPOT__HEADER__MENU__TARGET" data-name="HOTSPOT__HEADER__MENU__TARGET" x="336" y="14" width="44" height="44" rx="8" fill="#FFFFFF" fill-opacity="0.001"/></g><line x1="0" y1="71" x2="390" y2="71" stroke="#E7E9ED" stroke-width="1" /><g id="HOTSPOT__MOBILE_COLLECTION__BACK" data-name="HOTSPOT__MOBILE_COLLECTION__BACK"><g transform="translate(16 96) scale(0.92)"><path d="M19 12H5m5-5-5 5 5 5" fill="none" stroke="#005BFF" stroke-width="1.8" stroke-linecap="round" stroke-linejoin="round"/></g><text x="48" y="113" font-family="Onest, Inter, Arial, sans-serif" font-size="13" font-weight="650" fill="#005BFF" text-anchor="start" letter-spacing="0" opacity="1"><tspan x="48" dy="0">К проекту</tspan></text><rect id="HOTSPOT__MOBILE_COLLECTION__BACK__TARGET" data-name="HOTSPOT__MOBILE_COLLECTION__BACK__TARGET" x="12" y="84" width="120" height="44" rx="8" fill="#FFFFFF" fill-opacity="0.001"/></g><text x="16" y="190" font-family="Onest, Inter, Arial, sans-serif" font-size="32" font-weight="720" fill="#13151A" text-anchor="start" letter-spacing="0" opacity="1"><tspan x="16" dy="0">Товары из проекта</tspan><tspan x="16" dy="39">«Северная гостиная»</tspan></text><text x="16" y="285" font-family="Onest, Inter, Arial, sans-serif" font-size="14" font-weight="430" fill="#6C717C" text-anchor="start" letter-spacing="0" opacity="1"><tspan x="16" dy="0">6 демонстрационных предметов</tspan></text><g id="HOTSPOT__PRODUCT__SOFA__MOBILE" data-name="HOTSPOT__PRODUCT__SOFA__MOBILE"><rect x="16" y="345" width="358" height="420" rx="18" fill="#FFFFFF" stroke="#E7E9ED"/><g id="ART__sofa" data-name="ART__sofa" transform="translate(16 345)">
    <defs><clipPath id="ART_CLIP_125"><rect width="1200" height="760" rx="30"/></clipPath></defs>
    <g transform="scale(0.3 0.33)" clip-path="url(#ART_CLIP_125)"><rect x="0" y="0" width="1200" height="760" rx="0" fill="#E9E3D9" /><circle cx="980" cy="130" r="170" fill="#B4C2BB" opacity=".16"/><circle cx="185" cy="620" r="220" fill="#C48C71" opacity=".18"/><rect x="250" y="345" width="700" height="235" rx="60" fill="#B4C2BB" /><rect x="305" y="245" width="590" height="220" rx="62" fill="#EDE9E2" /><rect x="355" y="315" width="180" height="150" rx="34" fill="#C48C71" /><rect x="660" y="315" width="180" height="150" rx="34" fill="#B4C2BB" opacity=".78"/></g>
  </g><text x="34" y="627" font-family="Onest, Inter, Arial, sans-serif" font-size="12" font-weight="500" fill="#6C717C" text-anchor="start" letter-spacing="0" opacity="1"><tspan x="34" dy="0">Диваны</tspan></text><text x="34" y="661" font-family="Onest, Inter, Arial, sans-serif" font-size="18" font-weight="650" fill="#13151A" text-anchor="start" letter-spacing="0" opacity="1"><tspan x="34" dy="0">Модульный диван Norr</tspan></text><text x="34" y="705" font-family="Onest, Inter, Arial, sans-serif" font-size="18" font-weight="700" fill="#13151A" text-anchor="start" letter-spacing="0" opacity="1"><tspan x="34" dy="0">129 990 ₽</tspan></text><g transform="translate(298 691) scale(0.75)"><path d="m12 3 2.7 5.6 6.2.9-4.5 4.4 1.1 6.1-5.5-2.9L6.5 20l1.1-6.1-4.5-4.4 6.2-.9Z" fill="#F2A900"/></g><text x="326" y="705" font-family="Onest, Inter, Arial, sans-serif" font-size="13" font-weight="600" fill="#6C717C" text-anchor="start" letter-spacing="0" opacity="1"><tspan x="326" dy="0">4.9</tspan></text><rect x="34" y="723" width="322" height="1" rx="0" fill="#E7E9ED" /><text x="34" y="751" font-family="Onest, Inter, Arial, sans-serif" font-size="13" font-weight="650" fill="#005BFF" text-anchor="start" letter-spacing="0" opacity="1"><tspan x="34" dy="0">Посмотреть на Ozon</tspan></text><g transform="translate(332 734) scale(0.75)"><path d="M5 12h14m-5-5 5 5-5 5" fill="none" stroke="#005BFF" stroke-width="1.8" stroke-linecap="round" stroke-linejoin="round"/></g><rect id="HOTSPOT__PRODUCT__SOFA__MOBILE__TARGET" data-name="HOTSPOT__PRODUCT__SOFA__MOBILE__TARGET" x="16" y="345" width="358" height="420" rx="8" fill="#FFFFFF" fill-opacity="0.001"/></g><g id="HOTSPOT__PRODUCT__TABLE__MOBILE" data-name="HOTSPOT__PRODUCT__TABLE__MOBILE"><rect x="16" y="790" width="358" height="420" rx="18" fill="#FFFFFF" stroke="#E7E9ED"/><g id="ART__table" data-name="ART__table" transform="translate(16 790)">
    <defs><clipPath id="ART_CLIP_126"><rect width="1200" height="760" rx="30"/></clipPath></defs>
    <g transform="scale(0.3 0.33)" clip-path="url(#ART_CLIP_126)"><rect x="0" y="0" width="1200" height="760" rx="0" fill="#EEE5D8" /><circle cx="980" cy="130" r="170" fill="#AF7E57" opacity=".16"/><circle cx="185" cy="620" r="220" fill="#869990" opacity=".18"/><ellipse cx="600" cy="350" rx="330" ry="115" fill="#869990"/><line x1="520" y1="405" x2="430" y2="650" stroke="#352D28" stroke-width="38" stroke-linecap="round"/><line x1="680" y1="405" x2="770" y2="650" stroke="#352D28" stroke-width="38" stroke-linecap="round"/></g>
  </g><text x="34" y="1072" font-family="Onest, Inter, Arial, sans-serif" font-size="12" font-weight="500" fill="#6C717C" text-anchor="start" letter-spacing="0" opacity="1"><tspan x="34" dy="0">Столы</tspan></text><text x="34" y="1106" font-family="Onest, Inter, Arial, sans-serif" font-size="18" font-weight="650" fill="#13151A" text-anchor="start" letter-spacing="0" opacity="1"><tspan x="34" dy="0">Журнальный стол Oak 60</tspan></text><text x="34" y="1150" font-family="Onest, Inter, Arial, sans-serif" font-size="18" font-weight="700" fill="#13151A" text-anchor="start" letter-spacing="0" opacity="1"><tspan x="34" dy="0">24 990 ₽</tspan></text><g transform="translate(298 1136) scale(0.75)"><path d="m12 3 2.7 5.6 6.2.9-4.5 4.4 1.1 6.1-5.5-2.9L6.5 20l1.1-6.1-4.5-4.4 6.2-.9Z" fill="#F2A900"/></g><text x="326" y="1150" font-family="Onest, Inter, Arial, sans-serif" font-size="13" font-weight="600" fill="#6C717C" text-anchor="start" letter-spacing="0" opacity="1"><tspan x="326" dy="0">4.8</tspan></text><rect x="34" y="1168" width="322" height="1" rx="0" fill="#E7E9ED" /><text x="34" y="1196" font-family="Onest, Inter, Arial, sans-serif" font-size="13" font-weight="650" fill="#005BFF" text-anchor="start" letter-spacing="0" opacity="1"><tspan x="34" dy="0">Посмотреть на Ozon</tspan></text><g transform="translate(332 1179) scale(0.75)"><path d="M5 12h14m-5-5 5 5-5 5" fill="none" stroke="#005BFF" stroke-width="1.8" stroke-linecap="round" stroke-linejoin="round"/></g><rect id="HOTSPOT__PRODUCT__TABLE__MOBILE__TARGET" data-name="HOTSPOT__PRODUCT__TABLE__MOBILE__TARGET" x="16" y="790" width="358" height="420" rx="8" fill="#FFFFFF" fill-opacity="0.001"/></g><g id="HOTSPOT__PRODUCT__LAMP__MOBILE" data-name="HOTSPOT__PRODUCT__LAMP__MOBILE"><rect x="16" y="1235" width="358" height="420" rx="18" fill="#FFFFFF" stroke="#E7E9ED"/><g id="ART__lamp" data-name="ART__lamp" transform="translate(16 1235)">
    <defs><clipPath id="ART_CLIP_127"><rect width="1200" height="760" rx="30"/></clipPath></defs>
    <g transform="scale(0.3 0.33)" clip-path="url(#ART_CLIP_127)"><rect x="0" y="0" width="1200" height="760" rx="0" fill="#DFE7EF" /><circle cx="980" cy="130" r="170" fill="#7C94AF" opacity=".16"/><circle cx="185" cy="620" r="220" fill="#F3B27F" opacity=".18"/><line x1="610" y1="165" x2="610" y2="555" stroke="#252A31" stroke-width="30" stroke-linecap="round"/><path d="M430 276c32-165 308-165 340 0Z" fill="#7C94AF"/><ellipse cx="610" cy="588" rx="180" ry="44" fill="#252A31"/></g>
  </g><text x="34" y="1517" font-family="Onest, Inter, Arial, sans-serif" font-size="12" font-weight="500" fill="#6C717C" text-anchor="start" letter-spacing="0" opacity="1"><tspan x="34" dy="0">Освещение</tspan></text><text x="34" y="1551" font-family="Onest, Inter, Arial, sans-serif" font-size="18" font-weight="650" fill="#13151A" text-anchor="start" letter-spacing="0" opacity="1"><tspan x="34" dy="0">Напольный светильник Arc</tspan></text><text x="34" y="1595" font-family="Onest, Inter, Arial, sans-serif" font-size="18" font-weight="700" fill="#13151A" text-anchor="start" letter-spacing="0" opacity="1"><tspan x="34" dy="0">18 990 ₽</tspan></text><g transform="translate(298 1581) scale(0.75)"><path d="m12 3 2.7 5.6 6.2.9-4.5 4.4 1.1 6.1-5.5-2.9L6.5 20l1.1-6.1-4.5-4.4 6.2-.9Z" fill="#F2A900"/></g><text x="326" y="1595" font-family="Onest, Inter, Arial, sans-serif" font-size="13" font-weight="600" fill="#6C717C" text-anchor="start" letter-spacing="0" opacity="1"><tspan x="326" dy="0">4.7</tspan></text><rect x="34" y="1613" width="322" height="1" rx="0" fill="#E7E9ED" /><text x="34" y="1641" font-family="Onest, Inter, Arial, sans-serif" font-size="13" font-weight="650" fill="#005BFF" text-anchor="start" letter-spacing="0" opacity="1"><tspan x="34" dy="0">Посмотреть на Ozon</tspan></text><g transform="translate(332 1624) scale(0.75)"><path d="M5 12h14m-5-5 5 5-5 5" fill="none" stroke="#005BFF" stroke-width="1.8" stroke-linecap="round" stroke-linejoin="round"/></g><rect id="HOTSPOT__PRODUCT__LAMP__MOBILE__TARGET" data-name="HOTSPOT__PRODUCT__LAMP__MOBILE__TARGET" x="16" y="1235" width="358" height="420" rx="8" fill="#FFFFFF" fill-opacity="0.001"/></g><g id="HOTSPOT__PRODUCT__RUG__MOBILE" data-name="HOTSPOT__PRODUCT__RUG__MOBILE"><rect x="16" y="1680" width="358" height="420" rx="18" fill="#FFFFFF" stroke="#E7E9ED"/><g id="ART__rug" data-name="ART__rug" transform="translate(16 1680)">
    <defs><clipPath id="ART_CLIP_128"><rect width="1200" height="760" rx="30"/></clipPath></defs>
    <g transform="scale(0.3 0.33)" clip-path="url(#ART_CLIP_128)"><rect x="0" y="0" width="1200" height="760" rx="0" fill="#E9DFD1" /><circle cx="980" cy="130" r="170" fill="#BAA082" opacity=".16"/><circle cx="185" cy="620" r="220" fill="#889C94" opacity=".18"/><rect x="220" y="195" width="760" height="370" rx="42" fill="#889C94" /><path d="M270 260c185 90 390 90 660 0M270 380c185 90 390 90 660 0M270 500c185 90 390 90 660 0" fill="none" stroke="#BAA082" stroke-width="26" opacity=".72"/></g>
  </g><text x="34" y="1962" font-family="Onest, Inter, Arial, sans-serif" font-size="12" font-weight="500" fill="#6C717C" text-anchor="start" letter-spacing="0" opacity="1"><tspan x="34" dy="0">Ковры</tspan></text><text x="34" y="1996" font-family="Onest, Inter, Arial, sans-serif" font-size="18" font-weight="650" fill="#13151A" text-anchor="start" letter-spacing="0" opacity="1"><tspan x="34" dy="0">Шерстяной ковёр Fjord</tspan></text><text x="34" y="2040" font-family="Onest, Inter, Arial, sans-serif" font-size="18" font-weight="700" fill="#13151A" text-anchor="start" letter-spacing="0" opacity="1"><tspan x="34" dy="0">32 990 ₽</tspan></text><g transform="translate(298 2026) scale(0.75)"><path d="m12 3 2.7 5.6 6.2.9-4.5 4.4 1.1 6.1-5.5-2.9L6.5 20l1.1-6.1-4.5-4.4 6.2-.9Z" fill="#F2A900"/></g><text x="326" y="2040" font-family="Onest, Inter, Arial, sans-serif" font-size="13" font-weight="600" fill="#6C717C" text-anchor="start" letter-spacing="0" opacity="1"><tspan x="326" dy="0">4.9</tspan></text><rect x="34" y="2058" width="322" height="1" rx="0" fill="#E7E9ED" /><text x="34" y="2086" font-family="Onest, Inter, Arial, sans-serif" font-size="13" font-weight="650" fill="#005BFF" text-anchor="start" letter-spacing="0" opacity="1"><tspan x="34" dy="0">Посмотреть на Ozon</tspan></text><g transform="translate(332 2069) scale(0.75)"><path d="M5 12h14m-5-5 5 5-5 5" fill="none" stroke="#005BFF" stroke-width="1.8" stroke-linecap="round" stroke-linejoin="round"/></g><rect id="HOTSPOT__PRODUCT__RUG__MOBILE__TARGET" data-name="HOTSPOT__PRODUCT__RUG__MOBILE__TARGET" x="16" y="1680" width="358" height="420" rx="8" fill="#FFFFFF" fill-opacity="0.001"/></g><g id="HOTSPOT__PRODUCT__CHAIR__MOBILE" data-name="HOTSPOT__PRODUCT__CHAIR__MOBILE"><rect x="16" y="2125" width="358" height="420" rx="18" fill="#FFFFFF" stroke="#E7E9ED"/><g id="ART__chair" data-name="ART__chair" transform="translate(16 2125)">
    <defs><clipPath id="ART_CLIP_129"><rect width="1200" height="760" rx="30"/></clipPath></defs>
    <g transform="scale(0.3 0.33)" clip-path="url(#ART_CLIP_129)"><rect x="0" y="0" width="1200" height="760" rx="0" fill="#EADFDC" /><circle cx="980" cy="130" r="170" fill="#C59A8C" opacity=".16"/><circle cx="185" cy="620" r="220" fill="#7D918C" opacity=".18"/><path d="M420 250c0-85 360-85 360 0v245c0 95-360 95-360 0Z" fill="#C59A8C"/><rect x="382" y="420" width="436" height="150" rx="70" fill="#7D918C" /><line x1="450" y1="545" x2="410" y2="665" stroke="#363B3B" stroke-width="30" stroke-linecap="round"/><line x1="750" y1="545" x2="790" y2="665" stroke="#363B3B" stroke-width="30" stroke-linecap="round"/></g>
  </g><text x="34" y="2407" font-family="Onest, Inter, Arial, sans-serif" font-size="12" font-weight="500" fill="#6C717C" text-anchor="start" letter-spacing="0" opacity="1"><tspan x="34" dy="0">Кресла</tspan></text><text x="34" y="2441" font-family="Onest, Inter, Arial, sans-serif" font-size="18" font-weight="650" fill="#13151A" text-anchor="start" letter-spacing="0" opacity="1"><tspan x="34" dy="0">Кресло Soft Shell</tspan></text><text x="34" y="2485" font-family="Onest, Inter, Arial, sans-serif" font-size="18" font-weight="700" fill="#13151A" text-anchor="start" letter-spacing="0" opacity="1"><tspan x="34" dy="0">45 990 ₽</tspan></text><g transform="translate(298 2471) scale(0.75)"><path d="m12 3 2.7 5.6 6.2.9-4.5 4.4 1.1 6.1-5.5-2.9L6.5 20l1.1-6.1-4.5-4.4 6.2-.9Z" fill="#F2A900"/></g><text x="326" y="2485" font-family="Onest, Inter, Arial, sans-serif" font-size="13" font-weight="600" fill="#6C717C" text-anchor="start" letter-spacing="0" opacity="1"><tspan x="326" dy="0">4.8</tspan></text><rect x="34" y="2503" width="322" height="1" rx="0" fill="#E7E9ED" /><text x="34" y="2531" font-family="Onest, Inter, Arial, sans-serif" font-size="13" font-weight="650" fill="#005BFF" text-anchor="start" letter-spacing="0" opacity="1"><tspan x="34" dy="0">Посмотреть на Ozon</tspan></text><g transform="translate(332 2514) scale(0.75)"><path d="M5 12h14m-5-5 5 5-5 5" fill="none" stroke="#005BFF" stroke-width="1.8" stroke-linecap="round" stroke-linejoin="round"/></g><rect id="HOTSPOT__PRODUCT__CHAIR__MOBILE__TARGET" data-name="HOTSPOT__PRODUCT__CHAIR__MOBILE__TARGET" x="16" y="2125" width="358" height="420" rx="8" fill="#FFFFFF" fill-opacity="0.001"/></g><g id="HOTSPOT__PRODUCT__SHELF__MOBILE" data-name="HOTSPOT__PRODUCT__SHELF__MOBILE"><rect x="16" y="2570" width="358" height="420" rx="18" fill="#FFFFFF" stroke="#E7E9ED"/><g id="ART__shelf" data-name="ART__shelf" transform="translate(16 2570)">
    <defs><clipPath id="ART_CLIP_130"><rect width="1200" height="760" rx="30"/></clipPath></defs>
    <g transform="scale(0.3 0.33)" clip-path="url(#ART_CLIP_130)"><rect x="0" y="0" width="1200" height="760" rx="0" fill="#E1D5C5" /><circle cx="980" cy="130" r="170" fill="#9D724F" opacity=".16"/><circle cx="185" cy="620" r="220" fill="#7A8D87" opacity=".18"/><rect x="250" y="180" width="700" height="56" rx="20" fill="#7A8D87" /><rect x="250" y="365" width="700" height="56" rx="20" fill="#7A8D87" /><rect x="250" y="550" width="700" height="56" rx="20" fill="#7A8D87" /><line x1="320" y1="210" x2="320" y2="578" stroke="#302D2A" stroke-width="28" /><line x1="880" y1="210" x2="880" y2="578" stroke="#302D2A" stroke-width="28" /><rect x="380" y="290" width="100" height="75" rx="10" fill="#9D724F" /><circle cx="710" cy="320" r="46" fill="#9D724F" /></g>
  </g><text x="34" y="2852" font-family="Onest, Inter, Arial, sans-serif" font-size="12" font-weight="500" fill="#6C717C" text-anchor="start" letter-spacing="0" opacity="1"><tspan x="34" dy="0">Хранение</tspan></text><text x="34" y="2886" font-family="Onest, Inter, Arial, sans-serif" font-size="18" font-weight="650" fill="#13151A" text-anchor="start" letter-spacing="0" opacity="1"><tspan x="34" dy="0">Настенная полка Line</tspan></text><text x="34" y="2930" font-family="Onest, Inter, Arial, sans-serif" font-size="18" font-weight="700" fill="#13151A" text-anchor="start" letter-spacing="0" opacity="1"><tspan x="34" dy="0">9 990 ₽</tspan></text><g transform="translate(298 2916) scale(0.75)"><path d="m12 3 2.7 5.6 6.2.9-4.5 4.4 1.1 6.1-5.5-2.9L6.5 20l1.1-6.1-4.5-4.4 6.2-.9Z" fill="#F2A900"/></g><text x="326" y="2930" font-family="Onest, Inter, Arial, sans-serif" font-size="13" font-weight="600" fill="#6C717C" text-anchor="start" letter-spacing="0" opacity="1"><tspan x="326" dy="0">4.6</tspan></text><rect x="34" y="2948" width="322" height="1" rx="0" fill="#E7E9ED" /><text x="34" y="2976" font-family="Onest, Inter, Arial, sans-serif" font-size="13" font-weight="650" fill="#005BFF" text-anchor="start" letter-spacing="0" opacity="1"><tspan x="34" dy="0">Посмотреть на Ozon</tspan></text><g transform="translate(332 2959) scale(0.75)"><path d="M5 12h14m-5-5 5 5-5 5" fill="none" stroke="#005BFF" stroke-width="1.8" stroke-linecap="round" stroke-linejoin="round"/></g><rect id="HOTSPOT__PRODUCT__SHELF__MOBILE__TARGET" data-name="HOTSPOT__PRODUCT__SHELF__MOBILE__TARGET" x="16" y="2570" width="358" height="420" rx="8" fill="#FFFFFF" fill-opacity="0.001"/></g></g>
</svg>