<?xml version="1.0" encoding="UTF-8"?>
<svg xmlns="http://www.w3.org/2000/svg" width="768" height="3180" viewBox="0 0 768 3180">
  <title>Ozon Design — Планшетная главная</title>
  <desc>Ozon Design — импортируемый экран для Figma Design. Корневой фрейм: FRAME__TABLET__HOME.</desc>
  <defs>
    <linearGradient id="heroShade" x1="0" y1="0" x2="1" y2="0"><stop offset="0" stop-color="#101318" stop-opacity=".58"/><stop offset=".62" stop-color="#101318" stop-opacity=".05"/><stop offset="1" stop-color="#101318" stop-opacity=".12"/></linearGradient>
  </defs>
  <g id="FRAME__TABLET__HOME" data-name="FRAME__TABLET__HOME"><rect x="0" y="0" width="768" height="3180" rx="0" fill="#FFFFFF" /><rect x="0" y="0" width="768" height="72" rx="0" fill="#FFFFFF" /><text x="20" y="44" font-family="Onest, Inter, Arial, sans-serif" font-size="20" font-weight="700" fill="#13151A" text-anchor="start" letter-spacing="0" opacity="1"><tspan x="20" dy="0">Ozon Design</tspan></text>
      <g id="HOTSPOT__HEADER__FAVORITES" data-name="HOTSPOT__HEADER__FAVORITES"><circle cx="684" cy="36" r="22" fill="#FFF0F6" /><g transform="translate(672 24) scale(1)"><path d="M20.8 4.7a5.5 5.5 0 0 0-7.8 0L12 5.8l-1.1-1.1a5.5 5.5 0 1 0-7.8 7.8l1.1 1L12 21l7.8-7.5 1-1a5.5 5.5 0 0 0 0-7.8Z" fill="none" stroke="#F43F8C" stroke-width="1.8" stroke-linecap="round" stroke-linejoin="round"/></g><rect id="HOTSPOT__HEADER__FAVORITES__TARGET" data-name="HOTSPOT__HEADER__FAVORITES__TARGET" x="662" y="14" width="44" height="44" rx="8" fill="#FFFFFF" fill-opacity="0.001"/></g>
      <g id="HOTSPOT__HEADER__MENU" data-name="HOTSPOT__HEADER__MENU"><circle cx="736" cy="36" r="22" fill="#F5F6F8" /><g transform="translate(724 24) scale(1)"><path d="M3 6h18M3 12h18M3 18h18" stroke="#13151A" stroke-width="2" stroke-linecap="round"/></g><rect id="HOTSPOT__HEADER__MENU__TARGET" data-name="HOTSPOT__HEADER__MENU__TARGET" x="714" y="14" width="44" height="44" rx="8" fill="#FFFFFF" fill-opacity="0.001"/></g><line x1="0" y1="71" x2="768" y2="71" stroke="#E7E9ED" stroke-width="1" /><g id="ART__TABLET_HOME_HERO" data-name="ART__TABLET_HOME_HERO" transform="translate(32 104)">
    <defs><clipPath id="ART_CLIP_132"><rect width="1200" height="760" rx="30"/></clipPath></defs>
    <g transform="scale(0.59 0.8)" clip-path="url(#ART_CLIP_132)"><rect x="0" y="0" width="1200" height="760" rx="0" fill="#E9E1D5" /><rect x="0" y="540" width="1200" height="220" rx="0" fill="#C69479" opacity=".64"/>
    <rect x="760" y="82" width="310" height="340" rx="6" fill="#CFE0E2" />
    <line x1="915" y1="82" x2="915" y2="422" stroke="#F7F5EF" stroke-width="8" /><line x1="760" y1="250" x2="1070" y2="250" stroke="#F7F5EF" stroke-width="8" />
    <ellipse cx="570" cy="626" rx="360" ry="72" fill="#EFE9DF" opacity=".86"/>
    <rect x="365" y="390" width="405" height="168" rx="28" fill="#F5F2EC" /><rect x="405" y="312" width="326" height="148" rx="26" fill="#EBE8E1" />
    <rect x="436" y="370" width="108" height="92" rx="16" fill="#94AAA5" /><rect x="620" y="370" width="105" height="92" rx="16" fill="#C69479" />
    <rect x="792" y="526" width="174" height="38" rx="14" fill="#2D3334" /><line x1="879" y1="558" x2="879" y2="650" stroke="#2D3334" stroke-width="16" stroke-linecap="round"/>
    <line x1="1010" y1="275" x2="1010" y2="565" stroke="#2D3334" stroke-width="12" stroke-linecap="round"/>
    <path d="M948 285c17-76 104-76 125 0Z" fill="#2D3334"/>
    <circle cx="206" cy="250" r="78" fill="#94AAA5" opacity=".20"/>
    <path d="M207 190v235M150 268l57-47 61 46M164 327l43-41 52 42" stroke="#2D3334" stroke-width="8" stroke-linecap="round" opacity=".58" fill="none"/>
    <rect x="168" y="423" width="84" height="128" rx="18" fill="#2D3334" opacity=".72"/></g>
  </g><rect x="32" y="104" width="704" height="610" rx="22" fill="url(#heroShade)" /><text x="78" y="418" font-family="Onest, Inter, Arial, sans-serif" font-size="52" font-weight="760" fill="#FFFFFF" text-anchor="start" letter-spacing="0" opacity="1"><tspan x="78" dy="0">Пространства,</tspan><tspan x="78" dy="58">в которых хочется жить</tspan></text><text x="78" y="565" font-family="Onest, Inter, Arial, sans-serif" font-size="17" font-weight="430" fill="#FFFFFF" text-anchor="start" letter-spacing="0" opacity="1"><tspan x="78" dy="0">Интерьеры, архитектура и предметный дизайн — в одном</tspan><tspan x="78" dy="26">каталоге</tspan></text><g id="HOTSPOT__TABLET_HOME__CATALOG" data-name="HOTSPOT__TABLET_HOME__CATALOG"><rect x="78" y="628" width="188" height="52" rx="12" fill="#005BFF" /><text x="172" y="661" font-family="Onest, Inter, Arial, sans-serif" font-size="14" font-weight="650" fill="#FFFFFF" text-anchor="middle" letter-spacing="0" opacity="1"><tspan x="172" dy="0">Смотреть проекты</tspan></text><rect id="HOTSPOT__TABLET_HOME__CATALOG__TARGET" data-name="HOTSPOT__TABLET_HOME__CATALOG__TARGET" x="78" y="628" width="188" height="52" rx="8" fill="#FFFFFF" fill-opacity="0.001"/></g><text x="32" y="820" font-family="Onest, Inter, Arial, sans-serif" font-size="34" font-weight="700" fill="#13151A" text-anchor="start" letter-spacing="0" opacity="1"><tspan x="32" dy="0">Выберите направление</tspan></text><g id="HOTSPOT__TABLET_CATEGORY__INTERIOR" data-name="HOTSPOT__TABLET_CATEGORY__INTERIOR"><g id="ART__TABLET_INTERIOR" data-name="ART__TABLET_INTERIOR" transform="translate(32 880)">
    <defs><clipPath id="ART_CLIP_133"><rect width="1200" height="760" rx="30"/></clipPath></defs>
    <g transform="scale(0.29 0.27)" clip-path="url(#ART_CLIP_133)"><rect x="0" y="0" width="1200" height="760" rx="0" fill="#E9E1D5" /><rect x="0" y="540" width="1200" height="220" rx="0" fill="#C69479" opacity=".64"/>
    <rect x="760" y="82" width="310" height="340" rx="6" fill="#CFE0E2" />
    <line x1="915" y1="82" x2="915" y2="422" stroke="#F7F5EF" stroke-width="8" /><line x1="760" y1="250" x2="1070" y2="250" stroke="#F7F5EF" stroke-width="8" />
    <ellipse cx="570" cy="626" rx="360" ry="72" fill="#EFE9DF" opacity=".86"/>
    <rect x="365" y="390" width="405" height="168" rx="28" fill="#F5F2EC" /><rect x="405" y="312" width="326" height="148" rx="26" fill="#EBE8E1" />
    <rect x="436" y="370" width="108" height="92" rx="16" fill="#94AAA5" /><rect x="620" y="370" width="105" height="92" rx="16" fill="#C69479" />
    <rect x="792" y="526" width="174" height="38" rx="14" fill="#2D3334" /><line x1="879" y1="558" x2="879" y2="650" stroke="#2D3334" stroke-width="16" stroke-linecap="round"/>
    <line x1="1010" y1="275" x2="1010" y2="565" stroke="#2D3334" stroke-width="12" stroke-linecap="round"/>
    <path d="M948 285c17-76 104-76 125 0Z" fill="#2D3334"/>
    <circle cx="206" cy="250" r="78" fill="#94AAA5" opacity=".20"/>
    <path d="M207 190v235M150 268l57-47 61 46M164 327l43-41 52 42" stroke="#2D3334" stroke-width="8" stroke-linecap="round" opacity=".58" fill="none"/>
    <rect x="168" y="423" width="84" height="128" rx="18" fill="#2D3334" opacity=".72"/></g>
  </g><text x="32" y="1122" font-family="Onest, Inter, Arial, sans-serif" font-size="20" font-weight="660" fill="#13151A" text-anchor="start" letter-spacing="0" opacity="1"><tspan x="32" dy="0">Интерьер</tspan></text><rect id="HOTSPOT__TABLET_CATEGORY__INTERIOR__TARGET" data-name="HOTSPOT__TABLET_CATEGORY__INTERIOR__TARGET" x="32" y="880" width="344" height="250" rx="8" fill="#FFFFFF" fill-opacity="0.001"/></g><g id="HOTSPOT__TABLET_CATEGORY__ARCHITECTURE" data-name="HOTSPOT__TABLET_CATEGORY__ARCHITECTURE"><g id="ART__TABLET_ARCHITECTURE" data-name="ART__TABLET_ARCHITECTURE" transform="translate(392 880)">
    <defs><clipPath id="ART_CLIP_134"><rect width="1200" height="760" rx="30"/></clipPath></defs>
    <g transform="scale(0.29 0.27)" clip-path="url(#ART_CLIP_134)"><rect x="0" y="0" width="1200" height="760" rx="0" fill="#D6DFDF" /><circle cx="980" cy="148" r="72" fill="#F6E7BB" opacity=".82"/>
    <path d="M0 448 190 300l174 92 210-170 220 187 180-112 226 164v299H0Z" fill="#6C8587" opacity=".48"/>
    <path d="M0 535c210-44 345-36 516 8 222 58 411 33 684-54v271H0Z" fill="#6C8587"/>
    <path d="M210 488 526 312h390l132 176v170H210Z" fill="#2E3738"/>
    <line x1="526" y1="312" x2="526" y2="658" stroke="#B59A7D" stroke-width="12" opacity=".88"/>
    <rect x="278" y="442" width="226" height="158" rx="0" fill="#D4E3E3" opacity=".92"/><rect x="566" y="370" width="300" height="230" rx="0" fill="#BFD2D4" opacity=".92"/>
    <line x1="716" y1="370" x2="716" y2="600" stroke="#F7F4EA" stroke-width="8" /><line x1="566" y1="486" x2="866" y2="486" stroke="#F7F4EA" stroke-width="8" />
    <line x1="163" y1="658" x2="1093" y2="658" stroke="#B59A7D" stroke-width="32" stroke-linecap="round"/>
    <path d="M0 700c280-74 535-52 754 8 146 40 294 44 446 8v44H0Z" fill="#769395" opacity=".86"/></g>
  </g><text x="392" y="1122" font-family="Onest, Inter, Arial, sans-serif" font-size="20" font-weight="660" fill="#13151A" text-anchor="start" letter-spacing="0" opacity="1"><tspan x="392" dy="0">Архитектура</tspan></text><rect id="HOTSPOT__TABLET_CATEGORY__ARCHITECTURE__TARGET" data-name="HOTSPOT__TABLET_CATEGORY__ARCHITECTURE__TARGET" x="392" y="880" width="344" height="250" rx="8" fill="#FFFFFF" fill-opacity="0.001"/></g><g id="HOTSPOT__TABLET_CATEGORY__LANDSCAPE" data-name="HOTSPOT__TABLET_CATEGORY__LANDSCAPE"><g id="ART__TABLET_LANDSCAPE" data-name="ART__TABLET_LANDSCAPE" transform="translate(32 1145)">
    <defs><clipPath id="ART_CLIP_135"><rect width="1200" height="760" rx="30"/></clipPath></defs>
    <g transform="scale(0.29 0.27)" clip-path="url(#ART_CLIP_135)"><rect x="0" y="0" width="1200" height="760" rx="0" fill="#D3DFCD" /><circle cx="940" cy="145" r="68" fill="#F3DEB0" />
    <path d="M0 415c170-104 353-92 510 8 188 118 392 82 690-84v421H0Z" fill="#78906D" opacity=".55"/>
    <path d="M0 520c206-96 397-74 570 32 190 116 389 104 630-16v224H0Z" fill="#78906D"/>
    <path d="M352 760c82-156 209-261 380-315 132-42 258-48 378-24-213 62-380 168-498 339Z" fill="#C8A27C" opacity=".86"/>
    <path d="M480 690c90-122 202-196 336-230" fill="none" stroke="#EDE2D3" stroke-width="58" stroke-linecap="round"/>
    <circle cx="172" cy="390" r="58" fill="#334335" opacity=".78"/><circle cx="248" cy="428" r="72" fill="#334335" opacity=".78"/><circle cx="1010" cy="360" r="82" fill="#334335" opacity=".78"/>
    <line x1="114" y1="588" x2="114" y2="438" stroke="#334335" stroke-width="12" stroke-linecap="round" opacity=".62"/><line x1="178" y1="602" x2="178" y2="402" stroke="#334335" stroke-width="12" stroke-linecap="round" opacity=".62"/><line x1="264" y1="610" x2="264" y2="430" stroke="#334335" stroke-width="12" stroke-linecap="round" opacity=".62"/><line x1="1002" y1="596" x2="1002" y2="378" stroke="#334335" stroke-width="12" stroke-linecap="round" opacity=".62"/></g>
  </g><text x="32" y="1387" font-family="Onest, Inter, Arial, sans-serif" font-size="20" font-weight="660" fill="#13151A" text-anchor="start" letter-spacing="0" opacity="1"><tspan x="32" dy="0">Ландшафт</tspan></text><rect id="HOTSPOT__TABLET_CATEGORY__LANDSCAPE__TARGET" data-name="HOTSPOT__TABLET_CATEGORY__LANDSCAPE__TARGET" x="32" y="1145" width="344" height="250" rx="8" fill="#FFFFFF" fill-opacity="0.001"/></g><g id="HOTSPOT__TABLET_CATEGORY__FURNITURE" data-name="HOTSPOT__TABLET_CATEGORY__FURNITURE"><g id="ART__TABLET_FURNITURE" data-name="ART__TABLET_FURNITURE" transform="translate(392 1145)">
    <defs><clipPath id="ART_CLIP_136"><rect width="1200" height="760" rx="30"/></clipPath></defs>
    <g transform="scale(0.29 0.27)" clip-path="url(#ART_CLIP_136)"><rect x="0" y="0" width="1200" height="760" rx="0" fill="#D8C6AE" /><rect x="0" y="540" width="1200" height="220" rx="0" fill="#586B69" opacity=".64"/>
    <rect x="760" y="82" width="310" height="340" rx="6" fill="#CFE0E2" />
    <line x1="915" y1="82" x2="915" y2="422" stroke="#F7F5EF" stroke-width="8" /><line x1="760" y1="250" x2="1070" y2="250" stroke="#F7F5EF" stroke-width="8" />
    <ellipse cx="570" cy="626" rx="360" ry="72" fill="#EFE9DF" opacity=".86"/>
    <rect x="365" y="390" width="405" height="168" rx="28" fill="#F5F2EC" /><rect x="405" y="312" width="326" height="148" rx="26" fill="#EBE8E1" />
    <rect x="436" y="370" width="108" height="92" rx="16" fill="#966F50" /><rect x="620" y="370" width="105" height="92" rx="16" fill="#586B69" />
    <rect x="792" y="526" width="174" height="38" rx="14" fill="#262A2A" /><line x1="879" y1="558" x2="879" y2="650" stroke="#262A2A" stroke-width="16" stroke-linecap="round"/>
    <line x1="1010" y1="275" x2="1010" y2="565" stroke="#262A2A" stroke-width="12" stroke-linecap="round"/>
    <path d="M948 285c17-76 104-76 125 0Z" fill="#262A2A"/>
    <circle cx="206" cy="250" r="78" fill="#966F50" opacity=".20"/>
    <path d="M207 190v235M150 268l57-47 61 46M164 327l43-41 52 42" stroke="#262A2A" stroke-width="8" stroke-linecap="round" opacity=".58" fill="none"/>
    <rect x="168" y="423" width="84" height="128" rx="18" fill="#262A2A" opacity=".72"/></g>
  </g><text x="392" y="1387" font-family="Onest, Inter, Arial, sans-serif" font-size="20" font-weight="660" fill="#13151A" text-anchor="start" letter-spacing="0" opacity="1"><tspan x="392" dy="0">Мебель</tspan></text><rect id="HOTSPOT__TABLET_CATEGORY__FURNITURE__TARGET" data-name="HOTSPOT__TABLET_CATEGORY__FURNITURE__TARGET" x="392" y="1145" width="344" height="250" rx="8" fill="#FFFFFF" fill-opacity="0.001"/></g><rect x="0" y="1460" width="768" height="1350" rx="0" fill="#F5F6F8" /><text x="32" y="1540" font-family="Onest, Inter, Arial, sans-serif" font-size="34" font-weight="700" fill="#13151A" text-anchor="start" letter-spacing="0" opacity="1"><tspan x="32" dy="0">Проекты недели</tspan></text><g id="HOTSPOT__PROJECT__NORDIC_LIVING" data-name="HOTSPOT__PROJECT__NORDIC_LIVING"><rect x="32" y="1610" width="344" height="430" rx="18" fill="#FFFFFF" /><g id="ART__nordic-living" data-name="ART__nordic-living" transform="translate(32 1610)">
    <defs><clipPath id="ART_CLIP_137"><rect width="1200" height="760" rx="30"/></clipPath></defs>
    <g transform="scale(0.29 0.41)" clip-path="url(#ART_CLIP_137)"><rect x="0" y="0" width="1200" height="760" rx="0" fill="#E9E1D5" /><rect x="0" y="540" width="1200" height="220" rx="0" fill="#C69479" opacity=".64"/>
    <rect x="760" y="82" width="310" height="340" rx="6" fill="#CFE0E2" />
    <line x1="915" y1="82" x2="915" y2="422" stroke="#F7F5EF" stroke-width="8" /><line x1="760" y1="250" x2="1070" y2="250" stroke="#F7F5EF" stroke-width="8" />
    <ellipse cx="570" cy="626" rx="360" ry="72" fill="#EFE9DF" opacity=".86"/>
    <rect x="365" y="390" width="405" height="168" rx="28" fill="#F5F2EC" /><rect x="405" y="312" width="326" height="148" rx="26" fill="#EBE8E1" />
    <rect x="436" y="370" width="108" height="92" rx="16" fill="#94AAA5" /><rect x="620" y="370" width="105" height="92" rx="16" fill="#C69479" />
    <rect x="792" y="526" width="174" height="38" rx="14" fill="#2D3334" /><line x1="879" y1="558" x2="879" y2="650" stroke="#2D3334" stroke-width="16" stroke-linecap="round"/>
    <line x1="1010" y1="275" x2="1010" y2="565" stroke="#2D3334" stroke-width="12" stroke-linecap="round"/>
    <path d="M948 285c17-76 104-76 125 0Z" fill="#2D3334"/>
    <circle cx="206" cy="250" r="78" fill="#94AAA5" opacity=".20"/>
    <path d="M207 190v235M150 268l57-47 61 46M164 327l43-41 52 42" stroke="#2D3334" stroke-width="8" stroke-linecap="round" opacity=".58" fill="none"/>
    <rect x="168" y="423" width="84" height="128" rx="18" fill="#2D3334" opacity=".72"/></g>
  </g>
    <circle cx="342" cy="1640" r="21" fill="#FFFFFF" fill-opacity=".94"/>
    <g transform="translate(330 1628) scale(1)"><path d="M20.8 4.7a5.5 5.5 0 0 0-7.8 0L12 5.8l-1.1-1.1a5.5 5.5 0 1 0-7.8 7.8l1.1 1L12 21l7.8-7.5 1-1a5.5 5.5 0 0 0 0-7.8Z" fill="none" stroke="#13151A" stroke-width="1.8" stroke-linecap="round" stroke-linejoin="round"/></g>
    <text x="32" y="1945" font-family="Onest, Inter, Arial, sans-serif" font-size="12" font-weight="500" fill="#6C717C" text-anchor="start" letter-spacing="0" opacity="1"><tspan x="32" dy="0">Интерьер · Скандинавский · 42 м²</tspan></text>
    <text x="32" y="1978" font-family="Onest, Inter, Arial, sans-serif" font-size="22" font-weight="650" fill="#13151A" text-anchor="start" letter-spacing="0" opacity="1"><tspan x="32" dy="0">Северная гостиная</tspan></text>
    <text x="32" y="2014" font-family="Onest, Inter, Arial, sans-serif" font-size="13" font-weight="650" fill="#005BFF" text-anchor="start" letter-spacing="0" opacity="1"><tspan x="32" dy="0">Nordform Studio</tspan></text>
    <rect id="HOTSPOT__PROJECT__NORDIC_LIVING__TARGET" data-name="HOTSPOT__PROJECT__NORDIC_LIVING__TARGET" x="32" y="1610" width="344" height="430" rx="8" fill="#FFFFFF" fill-opacity="0.001"/></g><g id="HOTSPOT__PROJECT__WATER_HOUSE" data-name="HOTSPOT__PROJECT__WATER_HOUSE"><rect x="392" y="1610" width="344" height="430" rx="18" fill="#FFFFFF" /><g id="ART__water-house" data-name="ART__water-house" transform="translate(392 1610)">
    <defs><clipPath id="ART_CLIP_138"><rect width="1200" height="760" rx="30"/></clipPath></defs>
    <g transform="scale(0.29 0.41)" clip-path="url(#ART_CLIP_138)"><rect x="0" y="0" width="1200" height="760" rx="0" fill="#D6DFDF" /><circle cx="980" cy="148" r="72" fill="#F6E7BB" opacity=".82"/>
    <path d="M0 448 190 300l174 92 210-170 220 187 180-112 226 164v299H0Z" fill="#6C8587" opacity=".48"/>
    <path d="M0 535c210-44 345-36 516 8 222 58 411 33 684-54v271H0Z" fill="#6C8587"/>
    <path d="M210 488 526 312h390l132 176v170H210Z" fill="#2E3738"/>
    <line x1="526" y1="312" x2="526" y2="658" stroke="#B59A7D" stroke-width="12" opacity=".88"/>
    <rect x="278" y="442" width="226" height="158" rx="0" fill="#D4E3E3" opacity=".92"/><rect x="566" y="370" width="300" height="230" rx="0" fill="#BFD2D4" opacity=".92"/>
    <line x1="716" y1="370" x2="716" y2="600" stroke="#F7F4EA" stroke-width="8" /><line x1="566" y1="486" x2="866" y2="486" stroke="#F7F4EA" stroke-width="8" />
    <line x1="163" y1="658" x2="1093" y2="658" stroke="#B59A7D" stroke-width="32" stroke-linecap="round"/>
    <path d="M0 700c280-74 535-52 754 8 146 40 294 44 446 8v44H0Z" fill="#769395" opacity=".86"/></g>
  </g>
    <circle cx="702" cy="1640" r="21" fill="#FFFFFF" fill-opacity=".94"/>
    <g transform="translate(690 1628) scale(1)"><path d="M20.8 4.7a5.5 5.5 0 0 0-7.8 0L12 5.8l-1.1-1.1a5.5 5.5 0 1 0-7.8 7.8l1.1 1L12 21l7.8-7.5 1-1a5.5 5.5 0 0 0 0-7.8Z" fill="none" stroke="#13151A" stroke-width="1.8" stroke-linecap="round" stroke-linejoin="round"/></g>
    <text x="392" y="1945" font-family="Onest, Inter, Arial, sans-serif" font-size="12" font-weight="500" fill="#6C717C" text-anchor="start" letter-spacing="0" opacity="1"><tspan x="392" dy="0">Архитектура · Современный · 168 м²</tspan></text>
    <text x="392" y="1978" font-family="Onest, Inter, Arial, sans-serif" font-size="22" font-weight="650" fill="#13151A" text-anchor="start" letter-spacing="0" opacity="1"><tspan x="392" dy="0">Дом у воды</tspan></text>
    <text x="392" y="2014" font-family="Onest, Inter, Arial, sans-serif" font-size="13" font-weight="650" fill="#005BFF" text-anchor="start" letter-spacing="0" opacity="1"><tspan x="392" dy="0">Terra Bureau</tspan></text>
    <rect id="HOTSPOT__PROJECT__WATER_HOUSE__TARGET" data-name="HOTSPOT__PROJECT__WATER_HOUSE__TARGET" x="392" y="1610" width="344" height="430" rx="8" fill="#FFFFFF" fill-opacity="0.001"/></g><g id="HOTSPOT__PROJECT__QUIET_OFFICE" data-name="HOTSPOT__PROJECT__QUIET_OFFICE"><rect x="32" y="2130" width="344" height="430" rx="18" fill="#FFFFFF" /><g id="ART__quiet-office" data-name="ART__quiet-office" transform="translate(32 2130)">
    <defs><clipPath id="ART_CLIP_139"><rect width="1200" height="760" rx="30"/></clipPath></defs>
    <g transform="scale(0.29 0.41)" clip-path="url(#ART_CLIP_139)"><rect x="0" y="0" width="1200" height="760" rx="0" fill="#9B9388" /><rect x="0" y="540" width="1200" height="220" rx="0" fill="#B47D5D" opacity=".64"/>
    <rect x="760" y="82" width="310" height="340" rx="6" fill="#CFE0E2" />
    <line x1="915" y1="82" x2="915" y2="422" stroke="#F7F5EF" stroke-width="8" /><line x1="760" y1="250" x2="1070" y2="250" stroke="#F7F5EF" stroke-width="8" />
    <ellipse cx="570" cy="626" rx="360" ry="72" fill="#EFE9DF" opacity=".86"/>
    <rect x="365" y="390" width="405" height="168" rx="28" fill="#F5F2EC" /><rect x="405" y="312" width="326" height="148" rx="26" fill="#EBE8E1" />
    <rect x="436" y="370" width="108" height="92" rx="16" fill="#40484A" /><rect x="620" y="370" width="105" height="92" rx="16" fill="#B47D5D" />
    <rect x="792" y="526" width="174" height="38" rx="14" fill="#202426" /><line x1="879" y1="558" x2="879" y2="650" stroke="#202426" stroke-width="16" stroke-linecap="round"/>
    <line x1="1010" y1="275" x2="1010" y2="565" stroke="#202426" stroke-width="12" stroke-linecap="round"/>
    <path d="M948 285c17-76 104-76 125 0Z" fill="#202426"/>
    <circle cx="206" cy="250" r="78" fill="#40484A" opacity=".20"/>
    <path d="M207 190v235M150 268l57-47 61 46M164 327l43-41 52 42" stroke="#202426" stroke-width="8" stroke-linecap="round" opacity=".58" fill="none"/>
    <rect x="168" y="423" width="84" height="128" rx="18" fill="#202426" opacity=".72"/></g>
  </g>
    <circle cx="342" cy="2160" r="21" fill="#FFFFFF" fill-opacity=".94"/>
    <g transform="translate(330 2148) scale(1)"><path d="M20.8 4.7a5.5 5.5 0 0 0-7.8 0L12 5.8l-1.1-1.1a5.5 5.5 0 1 0-7.8 7.8l1.1 1L12 21l7.8-7.5 1-1a5.5 5.5 0 0 0 0-7.8Z" fill="none" stroke="#13151A" stroke-width="1.8" stroke-linecap="round" stroke-linejoin="round"/></g>
    <text x="32" y="2465" font-family="Onest, Inter, Arial, sans-serif" font-size="12" font-weight="500" fill="#6C717C" text-anchor="start" letter-spacing="0" opacity="1"><tspan x="32" dy="0">Интерьер · Минимализм · 18 м²</tspan></text>
    <text x="32" y="2498" font-family="Onest, Inter, Arial, sans-serif" font-size="22" font-weight="650" fill="#13151A" text-anchor="start" letter-spacing="0" opacity="1"><tspan x="32" dy="0">Тихий кабинет</tspan></text>
    <text x="32" y="2534" font-family="Onest, Inter, Arial, sans-serif" font-size="13" font-weight="650" fill="#005BFF" text-anchor="start" letter-spacing="0" opacity="1"><tspan x="32" dy="0">Forma Lab</tspan></text>
    <rect id="HOTSPOT__PROJECT__QUIET_OFFICE__TARGET" data-name="HOTSPOT__PROJECT__QUIET_OFFICE__TARGET" x="32" y="2130" width="344" height="430" rx="8" fill="#FFFFFF" fill-opacity="0.001"/></g><g id="HOTSPOT__PROJECT__BRIGHT_KITCHEN" data-name="HOTSPOT__PROJECT__BRIGHT_KITCHEN"><rect x="392" y="2130" width="344" height="430" rx="18" fill="#FFFFFF" /><g id="ART__bright-kitchen" data-name="ART__bright-kitchen" transform="translate(392 2130)">
    <defs><clipPath id="ART_CLIP_140"><rect width="1200" height="760" rx="30"/></clipPath></defs>
    <g transform="scale(0.29 0.41)" clip-path="url(#ART_CLIP_140)"><rect x="0" y="0" width="1200" height="760" rx="0" fill="#EEEAE1" /><rect x="0" y="540" width="1200" height="220" rx="0" fill="#93A9A2" opacity=".64"/>
    <rect x="760" y="82" width="310" height="340" rx="6" fill="#CFE0E2" />
    <line x1="915" y1="82" x2="915" y2="422" stroke="#F7F5EF" stroke-width="8" /><line x1="760" y1="250" x2="1070" y2="250" stroke="#F7F5EF" stroke-width="8" />
    <ellipse cx="570" cy="626" rx="360" ry="72" fill="#EFE9DF" opacity=".86"/>
    <rect x="365" y="390" width="405" height="168" rx="28" fill="#F5F2EC" /><rect x="405" y="312" width="326" height="148" rx="26" fill="#EBE8E1" />
    <rect x="436" y="370" width="108" height="92" rx="16" fill="#C7C0B2" /><rect x="620" y="370" width="105" height="92" rx="16" fill="#93A9A2" />
    <rect x="792" y="526" width="174" height="38" rx="14" fill="#3B4140" /><line x1="879" y1="558" x2="879" y2="650" stroke="#3B4140" stroke-width="16" stroke-linecap="round"/>
    <line x1="1010" y1="275" x2="1010" y2="565" stroke="#3B4140" stroke-width="12" stroke-linecap="round"/>
    <path d="M948 285c17-76 104-76 125 0Z" fill="#3B4140"/>
    <circle cx="206" cy="250" r="78" fill="#C7C0B2" opacity=".20"/>
    <path d="M207 190v235M150 268l57-47 61 46M164 327l43-41 52 42" stroke="#3B4140" stroke-width="8" stroke-linecap="round" opacity=".58" fill="none"/>
    <rect x="168" y="423" width="84" height="128" rx="18" fill="#3B4140" opacity=".72"/></g>
  </g>
    <circle cx="702" cy="2160" r="21" fill="#FFFFFF" fill-opacity=".94"/>
    <g transform="translate(690 2148) scale(1)"><path d="M20.8 4.7a5.5 5.5 0 0 0-7.8 0L12 5.8l-1.1-1.1a5.5 5.5 0 1 0-7.8 7.8l1.1 1L12 21l7.8-7.5 1-1a5.5 5.5 0 0 0 0-7.8Z" fill="none" stroke="#13151A" stroke-width="1.8" stroke-linecap="round" stroke-linejoin="round"/></g>
    <text x="392" y="2465" font-family="Onest, Inter, Arial, sans-serif" font-size="12" font-weight="500" fill="#6C717C" text-anchor="start" letter-spacing="0" opacity="1"><tspan x="392" dy="0">Интерьер · Неоклассика · 27 м²</tspan></text>
    <text x="392" y="2498" font-family="Onest, Inter, Arial, sans-serif" font-size="22" font-weight="650" fill="#13151A" text-anchor="start" letter-spacing="0" opacity="1"><tspan x="392" dy="0">Светлая кухня</tspan></text>
    <text x="392" y="2534" font-family="Onest, Inter, Arial, sans-serif" font-size="13" font-weight="650" fill="#005BFF" text-anchor="start" letter-spacing="0" opacity="1"><tspan x="392" dy="0">Linea Interior</tspan></text>
    <rect id="HOTSPOT__PROJECT__BRIGHT_KITCHEN__TARGET" data-name="HOTSPOT__PROJECT__BRIGHT_KITCHEN__TARGET" x="392" y="2130" width="344" height="430" rx="8" fill="#FFFFFF" fill-opacity="0.001"/></g><rect x="32" y="2750" width="704" height="300" rx="22" fill="#EEF4FF" /><text x="72" y="2845" font-family="Onest, Inter, Arial, sans-serif" font-size="34" font-weight="720" fill="#13151A" text-anchor="start" letter-spacing="0" opacity="1"><tspan x="72" dy="0">Найдите пространство,</tspan><tspan x="72" dy="42">которое хочется повторить</tspan></text><g id="HOTSPOT__TABLET_HOME__BOTTOM_CATALOG" data-name="HOTSPOT__TABLET_HOME__BOTTOM_CATALOG"><rect x="500" y="2915" width="184" height="52" rx="12" fill="#005BFF" /><text x="592" y="2948" font-family="Onest, Inter, Arial, sans-serif" font-size="14" font-weight="650" fill="#FFFFFF" text-anchor="middle" letter-spacing="0" opacity="1"><tspan x="592" dy="0">Открыть каталог</tspan></text><rect id="HOTSPOT__TABLET_HOME__BOTTOM_CATALOG__TARGET" data-name="HOTSPOT__TABLET_HOME__BOTTOM_CATALOG__TARGET" x="500" y="2915" width="184" height="52" rx="8" fill="#FFFFFF" fill-opacity="0.001"/></g></g>
</svg>