<?xml version="1.0" encoding="UTF-8"?>
<svg xmlns="http://www.w3.org/2000/svg" width="768" height="3820" viewBox="0 0 768 3820">
  <title>Ozon Design — Планшетная страница проекта</title>
  <desc>Ozon Design — импортируемый экран для Figma Design. Корневой фрейм: FRAME__TABLET__PROJECT__NORDIC_LIVING.</desc>
  <defs>
    <linearGradient id="heroShade" x1="0" y1="0" x2="1" y2="0"><stop offset="0" stop-color="#101318" stop-opacity=".58"/><stop offset=".62" stop-color="#101318" stop-opacity=".05"/><stop offset="1" stop-color="#101318" stop-opacity=".12"/></linearGradient>
  </defs>
  <g id="FRAME__TABLET__PROJECT__NORDIC_LIVING" data-name="FRAME__TABLET__PROJECT__NORDIC_LIVING"><rect x="0" y="0" width="768" height="3820" rx="0" fill="#FFFFFF" /><rect x="0" y="0" width="768" height="72" rx="0" fill="#FFFFFF" /><text x="20" y="44" font-family="Onest, Inter, Arial, sans-serif" font-size="20" font-weight="700" fill="#13151A" text-anchor="start" letter-spacing="0" opacity="1"><tspan x="20" dy="0">Ozon Design</tspan></text>
      <g id="HOTSPOT__HEADER__FAVORITES" data-name="HOTSPOT__HEADER__FAVORITES"><circle cx="684" cy="36" r="22" fill="#FFF0F6" /><g transform="translate(672 24) scale(1)"><path d="M20.8 4.7a5.5 5.5 0 0 0-7.8 0L12 5.8l-1.1-1.1a5.5 5.5 0 1 0-7.8 7.8l1.1 1L12 21l7.8-7.5 1-1a5.5 5.5 0 0 0 0-7.8Z" fill="#F43F8C"/></g><circle cx="700" cy="20" r="9" fill="#005BFF" /><text x="700" y="24" font-family="Onest, Inter, Arial, sans-serif" font-size="9" font-weight="700" fill="#FFFFFF" text-anchor="middle" letter-spacing="0" opacity="1"><tspan x="700" dy="0">1</tspan></text><rect id="HOTSPOT__HEADER__FAVORITES__TARGET" data-name="HOTSPOT__HEADER__FAVORITES__TARGET" x="662" y="14" width="44" height="44" rx="8" fill="#FFFFFF" fill-opacity="0.001"/></g>
      <g id="HOTSPOT__HEADER__MENU" data-name="HOTSPOT__HEADER__MENU"><circle cx="736" cy="36" r="22" fill="#F5F6F8" /><g transform="translate(724 24) scale(1)"><path d="M3 6h18M3 12h18M3 18h18" stroke="#13151A" stroke-width="2" stroke-linecap="round"/></g><rect id="HOTSPOT__HEADER__MENU__TARGET" data-name="HOTSPOT__HEADER__MENU__TARGET" x="714" y="14" width="44" height="44" rx="8" fill="#FFFFFF" fill-opacity="0.001"/></g><line x1="0" y1="71" x2="768" y2="71" stroke="#E7E9ED" stroke-width="1" /><g id="ART__TABLET_PROJECT_HERO" data-name="ART__TABLET_PROJECT_HERO" transform="translate(32 104)">
    <defs><clipPath id="ART_CLIP_147"><rect width="1200" height="760" rx="30"/></clipPath></defs>
    <g transform="scale(0.59 0.72)" clip-path="url(#ART_CLIP_147)"><rect x="0" y="0" width="1200" height="760" rx="0" fill="#E9E1D5" /><rect x="0" y="540" width="1200" height="220" rx="0" fill="#C69479" opacity=".64"/>
    <rect x="760" y="82" width="310" height="340" rx="6" fill="#CFE0E2" />
    <line x1="915" y1="82" x2="915" y2="422" stroke="#F7F5EF" stroke-width="8" /><line x1="760" y1="250" x2="1070" y2="250" stroke="#F7F5EF" stroke-width="8" />
    <ellipse cx="570" cy="626" rx="360" ry="72" fill="#EFE9DF" opacity=".86"/>
    <rect x="365" y="390" width="405" height="168" rx="28" fill="#F5F2EC" /><rect x="405" y="312" width="326" height="148" rx="26" fill="#EBE8E1" />
    <rect x="436" y="370" width="108" height="92" rx="16" fill="#94AAA5" /><rect x="620" y="370" width="105" height="92" rx="16" fill="#C69479" />
    <rect x="792" y="526" width="174" height="38" rx="14" fill="#2D3334" /><line x1="879" y1="558" x2="879" y2="650" stroke="#2D3334" stroke-width="16" stroke-linecap="round"/>
    <line x1="1010" y1="275" x2="1010" y2="565" stroke="#2D3334" stroke-width="12" stroke-linecap="round"/>
    <path d="M948 285c17-76 104-76 125 0Z" fill="#2D3334"/>
    <circle cx="206" cy="250" r="78" fill="#94AAA5" opacity=".20"/>
    <path d="M207 190v235M150 268l57-47 61 46M164 327l43-41 52 42" stroke="#2D3334" stroke-width="8" stroke-linecap="round" opacity=".58" fill="none"/>
    <rect x="168" y="423" width="84" height="128" rx="18" fill="#2D3334" opacity=".72"/></g>
  </g><text x="32" y="730" font-family="Onest, Inter, Arial, sans-serif" font-size="13" font-weight="650" fill="#005BFF" text-anchor="start" letter-spacing="0" opacity="1"><tspan x="32" dy="0">Интерьер · Скандинавский минимализм</tspan></text><text x="32" y="810" font-family="Onest, Inter, Arial, sans-serif" font-size="52" font-weight="740" fill="#13151A" text-anchor="start" letter-spacing="0" opacity="1"><tspan x="32" dy="0">Северная</tspan><tspan x="32" dy="58">гостиная</tspan></text><text x="32" y="950" font-family="Onest, Inter, Arial, sans-serif" font-size="17" font-weight="600" fill="#6C717C" text-anchor="start" letter-spacing="0" opacity="1"><tspan x="32" dy="0">Nordform Studio · 42 м²</tspan></text><g id="HOTSPOT__TABLET_PROJECT__FAVORITE" data-name="HOTSPOT__TABLET_PROJECT__FAVORITE"><rect x="474" y="904" width="262" height="54" rx="12" fill="#F43F8C" /><g transform="translate(496 919) scale(1)"><path d="M20.8 4.7a5.5 5.5 0 0 0-7.8 0L12 5.8l-1.1-1.1a5.5 5.5 0 1 0-7.8 7.8l1.1 1L12 21l7.8-7.5 1-1a5.5 5.5 0 0 0 0-7.8Z" fill="#FFFFFF"/></g><text x="536" y="938" font-family="Onest, Inter, Arial, sans-serif" font-size="14" font-weight="650" fill="#FFFFFF" text-anchor="start" letter-spacing="0" opacity="1"><tspan x="536" dy="0">В избранном</tspan></text><rect id="HOTSPOT__TABLET_PROJECT__FAVORITE__TARGET" data-name="HOTSPOT__TABLET_PROJECT__FAVORITE__TARGET" x="474" y="904" width="262" height="54" rx="8" fill="#FFFFFF" fill-opacity="0.001"/></g><text x="32" y="1080" font-family="Onest, Inter, Arial, sans-serif" font-size="32" font-weight="700" fill="#13151A" text-anchor="start" letter-spacing="0" opacity="1"><tspan x="32" dy="0">О проекте</tspan></text><text x="32" y="1140" font-family="Onest, Inter, Arial, sans-serif" font-size="18" font-weight="430" fill="#363A43" text-anchor="start" letter-spacing="0" opacity="1"><tspan x="32" dy="0">Светлая гостиная для городской квартиры, построенная на сочетании</tspan><tspan x="32" dy="29">натурального дерева, мягкого текстиля и спокойных нейтральных оттенков.</tspan><tspan x="32" dy="29">Пространство разделено на зону отдыха, чтения и общения без визуальной</tspan><tspan x="32" dy="29">перегрузки.</tspan></text><rect x="32" y="1340" width="704" height="390" rx="20" fill="#F5F6F8" /><text x="68" y="1400" font-family="Onest, Inter, Arial, sans-serif" font-size="28" font-weight="690" fill="#13151A" text-anchor="start" letter-spacing="0" opacity="1"><tspan x="68" dy="0">Основные решения</tspan></text><circle cx="88" cy="1488" r="20" fill="#EEF4FF" /><text x="88" y="1494" font-family="Onest, Inter, Arial, sans-serif" font-size="11" font-weight="700" fill="#005BFF" text-anchor="middle" letter-spacing="0" opacity="1"><tspan x="88" dy="0">1</tspan></text><text x="122" y="1495" font-family="Onest, Inter, Arial, sans-serif" font-size="15" font-weight="560" fill="#13151A" text-anchor="start" letter-spacing="0" opacity="1"><tspan x="122" dy="0">Зонирование светом и ковром</tspan></text><circle cx="418" cy="1488" r="20" fill="#FFF0F6" /><text x="418" y="1494" font-family="Onest, Inter, Arial, sans-serif" font-size="11" font-weight="700" fill="#F43F8C" text-anchor="middle" letter-spacing="0" opacity="1"><tspan x="418" dy="0">2</tspan></text><text x="452" y="1495" font-family="Onest, Inter, Arial, sans-serif" font-size="15" font-weight="560" fill="#13151A" text-anchor="start" letter-spacing="0" opacity="1"><tspan x="452" dy="0">Хранение в цвет стен</tspan></text><circle cx="88" cy="1603" r="20" fill="#EEF4FF" /><text x="88" y="1609" font-family="Onest, Inter, Arial, sans-serif" font-size="11" font-weight="700" fill="#005BFF" text-anchor="middle" letter-spacing="0" opacity="1"><tspan x="88" dy="0">3</tspan></text><text x="122" y="1610" font-family="Onest, Inter, Arial, sans-serif" font-size="15" font-weight="560" fill="#13151A" text-anchor="start" letter-spacing="0" opacity="1"><tspan x="122" dy="0">Тёплая вечерняя подсветка</tspan></text><circle cx="418" cy="1603" r="20" fill="#FFF0F6" /><text x="418" y="1609" font-family="Onest, Inter, Arial, sans-serif" font-size="11" font-weight="700" fill="#F43F8C" text-anchor="middle" letter-spacing="0" opacity="1"><tspan x="418" dy="0">4</tspan></text><text x="452" y="1610" font-family="Onest, Inter, Arial, sans-serif" font-size="15" font-weight="560" fill="#13151A" text-anchor="start" letter-spacing="0" opacity="1"><tspan x="452" dy="0">Мобильные журнальные</tspan><tspan x="452" dy="22">столики</tspan></text><text x="32" y="1845" font-family="Onest, Inter, Arial, sans-serif" font-size="30" font-weight="700" fill="#13151A" text-anchor="start" letter-spacing="0" opacity="1"><tspan x="32" dy="0">Материалы и палитра</tspan></text><g id="TABLET_MATERIAL_1" data-name="TABLET_MATERIAL_1"><rect x="32" y="1900" width="126" height="42" rx="21" fill="#FFFFFF" stroke="#E7E9ED"/><text x="95" y="1927" font-family="Onest, Inter, Arial, sans-serif" font-size="13" font-weight="600" fill="#13151A" text-anchor="middle" letter-spacing="0" opacity="1"><tspan x="95" dy="0">Дуб</tspan></text><rect id="TABLET_MATERIAL_1__TARGET" data-name="TABLET_MATERIAL_1__TARGET" x="32" y="1900" width="126" height="42" rx="8" fill="#FFFFFF" fill-opacity="0.001"/></g><g id="TABLET_MATERIAL_2" data-name="TABLET_MATERIAL_2"><rect x="174" y="1900" width="126" height="42" rx="21" fill="#FFFFFF" stroke="#E7E9ED"/><text x="237" y="1927" font-family="Onest, Inter, Arial, sans-serif" font-size="13" font-weight="600" fill="#13151A" text-anchor="middle" letter-spacing="0" opacity="1"><tspan x="237" dy="0">Лён</tspan></text><rect id="TABLET_MATERIAL_2__TARGET" data-name="TABLET_MATERIAL_2__TARGET" x="174" y="1900" width="126" height="42" rx="8" fill="#FFFFFF" fill-opacity="0.001"/></g><g id="TABLET_MATERIAL_3" data-name="TABLET_MATERIAL_3"><rect x="316" y="1900" width="126" height="42" rx="21" fill="#FFFFFF" stroke="#E7E9ED"/><text x="379" y="1927" font-family="Onest, Inter, Arial, sans-serif" font-size="13" font-weight="600" fill="#13151A" text-anchor="middle" letter-spacing="0" opacity="1"><tspan x="379" dy="0">Шерсть</tspan></text><rect id="TABLET_MATERIAL_3__TARGET" data-name="TABLET_MATERIAL_3__TARGET" x="316" y="1900" width="126" height="42" rx="8" fill="#FFFFFF" fill-opacity="0.001"/></g><g id="TABLET_MATERIAL_4" data-name="TABLET_MATERIAL_4"><rect x="458" y="1900" width="126" height="42" rx="21" fill="#FFFFFF" stroke="#E7E9ED"/><text x="521" y="1927" font-family="Onest, Inter, Arial, sans-serif" font-size="13" font-weight="600" fill="#13151A" text-anchor="middle" letter-spacing="0" opacity="1"><tspan x="521" dy="0">Керамика</tspan></text><rect id="TABLET_MATERIAL_4__TARGET" data-name="TABLET_MATERIAL_4__TARGET" x="458" y="1900" width="126" height="42" rx="8" fill="#FFFFFF" fill-opacity="0.001"/></g><rect x="32" y="1980" width="88" height="72" rx="14" fill="#F3EFE8" /><rect x="140" y="1980" width="88" height="72" rx="14" fill="#D6CBBE" /><rect x="248" y="1980" width="88" height="72" rx="14" fill="#91A49F" /><rect x="356" y="1980" width="88" height="72" rx="14" fill="#7B6556" /><rect x="464" y="1980" width="88" height="72" rx="14" fill="#24282B" /><text x="32" y="2160" font-family="Onest, Inter, Arial, sans-serif" font-size="32" font-weight="700" fill="#13151A" text-anchor="start" letter-spacing="0" opacity="1"><tspan x="32" dy="0">Галерея проекта</tspan></text><g id="HOTSPOT__TABLET_GALLERY__1" data-name="HOTSPOT__TABLET_GALLERY__1"><g id="ART__TABLET_GALLERY_1" data-name="ART__TABLET_GALLERY_1" transform="translate(32 2220)">
    <defs><clipPath id="ART_CLIP_148"><rect width="1200" height="760" rx="30"/></clipPath></defs>
    <g transform="scale(0.29 0.32)" clip-path="url(#ART_CLIP_148)"><rect x="0" y="0" width="1200" height="760" rx="0" fill="#E9E1D5" /><rect x="0" y="540" width="1200" height="220" rx="0" fill="#C69479" opacity=".64"/>
    <rect x="760" y="82" width="310" height="340" rx="6" fill="#CFE0E2" />
    <line x1="915" y1="82" x2="915" y2="422" stroke="#F7F5EF" stroke-width="8" /><line x1="760" y1="250" x2="1070" y2="250" stroke="#F7F5EF" stroke-width="8" />
    <ellipse cx="570" cy="626" rx="360" ry="72" fill="#EFE9DF" opacity=".86"/>
    <rect x="365" y="390" width="405" height="168" rx="28" fill="#F5F2EC" /><rect x="405" y="312" width="326" height="148" rx="26" fill="#EBE8E1" />
    <rect x="436" y="370" width="108" height="92" rx="16" fill="#94AAA5" /><rect x="620" y="370" width="105" height="92" rx="16" fill="#C69479" />
    <rect x="792" y="526" width="174" height="38" rx="14" fill="#2D3334" /><line x1="879" y1="558" x2="879" y2="650" stroke="#2D3334" stroke-width="16" stroke-linecap="round"/>
    <line x1="1010" y1="275" x2="1010" y2="565" stroke="#2D3334" stroke-width="12" stroke-linecap="round"/>
    <path d="M948 285c17-76 104-76 125 0Z" fill="#2D3334"/>
    <circle cx="206" cy="250" r="78" fill="#94AAA5" opacity=".20"/>
    <path d="M207 190v235M150 268l57-47 61 46M164 327l43-41 52 42" stroke="#2D3334" stroke-width="8" stroke-linecap="round" opacity=".58" fill="none"/>
    <rect x="168" y="423" width="84" height="128" rx="18" fill="#2D3334" opacity=".72"/></g>
  </g><rect id="HOTSPOT__TABLET_GALLERY__1__TARGET" data-name="HOTSPOT__TABLET_GALLERY__1__TARGET" x="32" y="2220" width="344" height="245" rx="8" fill="#FFFFFF" fill-opacity="0.001"/></g><g id="HOTSPOT__TABLET_GALLERY__2" data-name="HOTSPOT__TABLET_GALLERY__2"><g id="ART__TABLET_GALLERY_2" data-name="ART__TABLET_GALLERY_2" transform="translate(392 2220)">
    <defs><clipPath id="ART_CLIP_149"><rect width="1200" height="760" rx="30"/></clipPath></defs>
    <g transform="scale(0.29 0.32)" clip-path="url(#ART_CLIP_149)"><rect x="0" y="0" width="1200" height="760" rx="0" fill="#DFE8E8" /><rect x="0" y="540" width="1200" height="220" rx="0" fill="#D1B191" opacity=".64"/>
    <rect x="760" y="82" width="310" height="340" rx="6" fill="#CFE0E2" />
    <line x1="915" y1="82" x2="915" y2="422" stroke="#F7F5EF" stroke-width="8" /><line x1="760" y1="250" x2="1070" y2="250" stroke="#F7F5EF" stroke-width="8" />
    <ellipse cx="570" cy="626" rx="360" ry="72" fill="#EFE9DF" opacity=".86"/>
    <rect x="365" y="390" width="405" height="168" rx="28" fill="#F5F2EC" /><rect x="405" y="312" width="326" height="148" rx="26" fill="#EBE8E1" />
    <rect x="436" y="370" width="108" height="92" rx="16" fill="#8FA8A5" /><rect x="620" y="370" width="105" height="92" rx="16" fill="#D1B191" />
    <rect x="792" y="526" width="174" height="38" rx="14" fill="#34393A" /><line x1="879" y1="558" x2="879" y2="650" stroke="#34393A" stroke-width="16" stroke-linecap="round"/>
    <line x1="1010" y1="275" x2="1010" y2="565" stroke="#34393A" stroke-width="12" stroke-linecap="round"/>
    <path d="M948 285c17-76 104-76 125 0Z" fill="#34393A"/>
    <circle cx="206" cy="250" r="78" fill="#8FA8A5" opacity=".20"/>
    <path d="M207 190v235M150 268l57-47 61 46M164 327l43-41 52 42" stroke="#34393A" stroke-width="8" stroke-linecap="round" opacity=".58" fill="none"/>
    <rect x="168" y="423" width="84" height="128" rx="18" fill="#34393A" opacity=".72"/></g>
  </g><rect id="HOTSPOT__TABLET_GALLERY__2__TARGET" data-name="HOTSPOT__TABLET_GALLERY__2__TARGET" x="392" y="2220" width="344" height="245" rx="8" fill="#FFFFFF" fill-opacity="0.001"/></g><g id="HOTSPOT__TABLET_GALLERY__3" data-name="HOTSPOT__TABLET_GALLERY__3"><g id="ART__TABLET_GALLERY_3" data-name="ART__TABLET_GALLERY_3" transform="translate(32 2490)">
    <defs><clipPath id="ART_CLIP_150"><rect width="1200" height="760" rx="30"/></clipPath></defs>
    <g transform="scale(0.29 0.32)" clip-path="url(#ART_CLIP_150)"><rect x="0" y="0" width="1200" height="760" rx="0" fill="#EFE5DA" /><rect x="0" y="540" width="1200" height="220" rx="0" fill="#839994" opacity=".64"/>
    <rect x="760" y="82" width="310" height="340" rx="6" fill="#CFE0E2" />
    <line x1="915" y1="82" x2="915" y2="422" stroke="#F7F5EF" stroke-width="8" /><line x1="760" y1="250" x2="1070" y2="250" stroke="#F7F5EF" stroke-width="8" />
    <ellipse cx="570" cy="626" rx="360" ry="72" fill="#EFE9DF" opacity=".86"/>
    <rect x="365" y="390" width="405" height="168" rx="28" fill="#F5F2EC" /><rect x="405" y="312" width="326" height="148" rx="26" fill="#EBE8E1" />
    <rect x="436" y="370" width="108" height="92" rx="16" fill="#B89379" /><rect x="620" y="370" width="105" height="92" rx="16" fill="#839994" />
    <rect x="792" y="526" width="174" height="38" rx="14" fill="#282D2E" /><line x1="879" y1="558" x2="879" y2="650" stroke="#282D2E" stroke-width="16" stroke-linecap="round"/>
    <line x1="1010" y1="275" x2="1010" y2="565" stroke="#282D2E" stroke-width="12" stroke-linecap="round"/>
    <path d="M948 285c17-76 104-76 125 0Z" fill="#282D2E"/>
    <circle cx="206" cy="250" r="78" fill="#B89379" opacity=".20"/>
    <path d="M207 190v235M150 268l57-47 61 46M164 327l43-41 52 42" stroke="#282D2E" stroke-width="8" stroke-linecap="round" opacity=".58" fill="none"/>
    <rect x="168" y="423" width="84" height="128" rx="18" fill="#282D2E" opacity=".72"/></g>
  </g><rect id="HOTSPOT__TABLET_GALLERY__3__TARGET" data-name="HOTSPOT__TABLET_GALLERY__3__TARGET" x="32" y="2490" width="344" height="245" rx="8" fill="#FFFFFF" fill-opacity="0.001"/></g><g id="HOTSPOT__TABLET_GALLERY__4" data-name="HOTSPOT__TABLET_GALLERY__4"><g id="ART__TABLET_GALLERY_4" data-name="ART__TABLET_GALLERY_4" transform="translate(392 2490)">
    <defs><clipPath id="ART_CLIP_151"><rect width="1200" height="760" rx="30"/></clipPath></defs>
    <g transform="scale(0.29 0.32)" clip-path="url(#ART_CLIP_151)"><rect x="0" y="0" width="1200" height="760" rx="0" fill="#DEDAD1" /><rect x="0" y="540" width="1200" height="220" rx="0" fill="#B78267" opacity=".64"/>
    <rect x="760" y="82" width="310" height="340" rx="6" fill="#CFE0E2" />
    <line x1="915" y1="82" x2="915" y2="422" stroke="#F7F5EF" stroke-width="8" /><line x1="760" y1="250" x2="1070" y2="250" stroke="#F7F5EF" stroke-width="8" />
    <ellipse cx="570" cy="626" rx="360" ry="72" fill="#EFE9DF" opacity=".86"/>
    <rect x="365" y="390" width="405" height="168" rx="28" fill="#F5F2EC" /><rect x="405" y="312" width="326" height="148" rx="26" fill="#EBE8E1" />
    <rect x="436" y="370" width="108" height="92" rx="16" fill="#76918A" /><rect x="620" y="370" width="105" height="92" rx="16" fill="#B78267" />
    <rect x="792" y="526" width="174" height="38" rx="14" fill="#222829" /><line x1="879" y1="558" x2="879" y2="650" stroke="#222829" stroke-width="16" stroke-linecap="round"/>
    <line x1="1010" y1="275" x2="1010" y2="565" stroke="#222829" stroke-width="12" stroke-linecap="round"/>
    <path d="M948 285c17-76 104-76 125 0Z" fill="#222829"/>
    <circle cx="206" cy="250" r="78" fill="#76918A" opacity=".20"/>
    <path d="M207 190v235M150 268l57-47 61 46M164 327l43-41 52 42" stroke="#222829" stroke-width="8" stroke-linecap="round" opacity=".58" fill="none"/>
    <rect x="168" y="423" width="84" height="128" rx="18" fill="#222829" opacity=".72"/></g>
  </g><rect id="HOTSPOT__TABLET_GALLERY__4__TARGET" data-name="HOTSPOT__TABLET_GALLERY__4__TARGET" x="392" y="2490" width="344" height="245" rx="8" fill="#FFFFFF" fill-opacity="0.001"/></g><rect x="32" y="2810" width="704" height="300" rx="20" fill="#EEF4FF" /><circle cx="88" cy="2880" r="32" fill="#005BFF" /><text x="88" y="2887" font-family="Onest, Inter, Arial, sans-serif" font-size="12" font-weight="750" fill="#FFFFFF" text-anchor="middle" letter-spacing="0" opacity="1"><tspan x="88" dy="0">NF</tspan></text><text x="140" y="2878" font-family="Onest, Inter, Arial, sans-serif" font-size="24" font-weight="680" fill="#13151A" text-anchor="start" letter-spacing="0" opacity="1"><tspan x="140" dy="0">Nordform Studio</tspan></text><text x="68" y="2960" font-family="Onest, Inter, Arial, sans-serif" font-size="15" font-weight="430" fill="#6C717C" text-anchor="start" letter-spacing="0" opacity="1"><tspan x="68" dy="0">Студия современных интерьеров и предметного дизайна.</tspan></text><g id="HOTSPOT__TABLET_PROJECT__COMPANY" data-name="HOTSPOT__TABLET_PROJECT__COMPANY"><rect x="68" y="3028" width="176" height="52" rx="12" fill="#005BFF" /><text x="156" y="3061" font-family="Onest, Inter, Arial, sans-serif" font-size="14" font-weight="650" fill="#FFFFFF" text-anchor="middle" letter-spacing="0" opacity="1"><tspan x="156" dy="0">Открыть профиль</tspan></text><rect id="HOTSPOT__TABLET_PROJECT__COMPANY__TARGET" data-name="HOTSPOT__TABLET_PROJECT__COMPANY__TARGET" x="68" y="3028" width="176" height="52" rx="8" fill="#FFFFFF" fill-opacity="0.001"/></g><text x="32" y="3230" font-family="Onest, Inter, Arial, sans-serif" font-size="32" font-weight="700" fill="#13151A" text-anchor="start" letter-spacing="0" opacity="1"><tspan x="32" dy="0">Товары из проекта</tspan></text><g id="HOTSPOT__PRODUCT__SOFA__TABLET" data-name="HOTSPOT__PRODUCT__SOFA__TABLET"><rect x="32" y="3290" width="344" height="420" rx="18" fill="#FFFFFF" stroke="#E7E9ED"/><g id="ART__sofa" data-name="ART__sofa" transform="translate(32 3290)">
    <defs><clipPath id="ART_CLIP_152"><rect width="1200" height="760" rx="30"/></clipPath></defs>
    <g transform="scale(0.29 0.33)" clip-path="url(#ART_CLIP_152)"><rect x="0" y="0" width="1200" height="760" rx="0" fill="#E9E3D9" /><circle cx="980" cy="130" r="170" fill="#B4C2BB" opacity=".16"/><circle cx="185" cy="620" r="220" fill="#C48C71" opacity=".18"/><rect x="250" y="345" width="700" height="235" rx="60" fill="#B4C2BB" /><rect x="305" y="245" width="590" height="220" rx="62" fill="#EDE9E2" /><rect x="355" y="315" width="180" height="150" rx="34" fill="#C48C71" /><rect x="660" y="315" width="180" height="150" rx="34" fill="#B4C2BB" opacity=".78"/></g>
  </g><text x="50" y="3572" font-family="Onest, Inter, Arial, sans-serif" font-size="12" font-weight="500" fill="#6C717C" text-anchor="start" letter-spacing="0" opacity="1"><tspan x="50" dy="0">Диваны</tspan></text><text x="50" y="3606" font-family="Onest, Inter, Arial, sans-serif" font-size="18" font-weight="650" fill="#13151A" text-anchor="start" letter-spacing="0" opacity="1"><tspan x="50" dy="0">Модульный диван Norr</tspan></text><text x="50" y="3650" font-family="Onest, Inter, Arial, sans-serif" font-size="18" font-weight="700" fill="#13151A" text-anchor="start" letter-spacing="0" opacity="1"><tspan x="50" dy="0">129 990 ₽</tspan></text><g transform="translate(300 3636) scale(0.75)"><path d="m12 3 2.7 5.6 6.2.9-4.5 4.4 1.1 6.1-5.5-2.9L6.5 20l1.1-6.1-4.5-4.4 6.2-.9Z" fill="#F2A900"/></g><text x="328" y="3650" font-family="Onest, Inter, Arial, sans-serif" font-size="13" font-weight="600" fill="#6C717C" text-anchor="start" letter-spacing="0" opacity="1"><tspan x="328" dy="0">4.9</tspan></text><rect x="50" y="3668" width="308" height="1" rx="0" fill="#E7E9ED" /><text x="50" y="3696" font-family="Onest, Inter, Arial, sans-serif" font-size="13" font-weight="650" fill="#005BFF" text-anchor="start" letter-spacing="0" opacity="1"><tspan x="50" dy="0">Посмотреть на Ozon</tspan></text><g transform="translate(334 3679) scale(0.75)"><path d="M5 12h14m-5-5 5 5-5 5" fill="none" stroke="#005BFF" stroke-width="1.8" stroke-linecap="round" stroke-linejoin="round"/></g><rect id="HOTSPOT__PRODUCT__SOFA__TABLET__TARGET" data-name="HOTSPOT__PRODUCT__SOFA__TABLET__TARGET" x="32" y="3290" width="344" height="420" rx="8" fill="#FFFFFF" fill-opacity="0.001"/></g><g id="HOTSPOT__PRODUCT__TABLE__TABLET" data-name="HOTSPOT__PRODUCT__TABLE__TABLET"><rect x="392" y="3290" width="344" height="420" rx="18" fill="#FFFFFF" stroke="#E7E9ED"/><g id="ART__table" data-name="ART__table" transform="translate(392 3290)">
    <defs><clipPath id="ART_CLIP_153"><rect width="1200" height="760" rx="30"/></clipPath></defs>
    <g transform="scale(0.29 0.33)" clip-path="url(#ART_CLIP_153)"><rect x="0" y="0" width="1200" height="760" rx="0" fill="#EEE5D8" /><circle cx="980" cy="130" r="170" fill="#AF7E57" opacity=".16"/><circle cx="185" cy="620" r="220" fill="#869990" opacity=".18"/><ellipse cx="600" cy="350" rx="330" ry="115" fill="#869990"/><line x1="520" y1="405" x2="430" y2="650" stroke="#352D28" stroke-width="38" stroke-linecap="round"/><line x1="680" y1="405" x2="770" y2="650" stroke="#352D28" stroke-width="38" stroke-linecap="round"/></g>
  </g><text x="410" y="3572" font-family="Onest, Inter, Arial, sans-serif" font-size="12" font-weight="500" fill="#6C717C" text-anchor="start" letter-spacing="0" opacity="1"><tspan x="410" dy="0">Столы</tspan></text><text x="410" y="3606" font-family="Onest, Inter, Arial, sans-serif" font-size="18" font-weight="650" fill="#13151A" text-anchor="start" letter-spacing="0" opacity="1"><tspan x="410" dy="0">Журнальный стол Oak 60</tspan></text><text x="410" y="3650" font-family="Onest, Inter, Arial, sans-serif" font-size="18" font-weight="700" fill="#13151A" text-anchor="start" letter-spacing="0" opacity="1"><tspan x="410" dy="0">24 990 ₽</tspan></text><g transform="translate(660 3636) scale(0.75)"><path d="m12 3 2.7 5.6 6.2.9-4.5 4.4 1.1 6.1-5.5-2.9L6.5 20l1.1-6.1-4.5-4.4 6.2-.9Z" fill="#F2A900"/></g><text x="688" y="3650" font-family="Onest, Inter, Arial, sans-serif" font-size="13" font-weight="600" fill="#6C717C" text-anchor="start" letter-spacing="0" opacity="1"><tspan x="688" dy="0">4.8</tspan></text><rect x="410" y="3668" width="308" height="1" rx="0" fill="#E7E9ED" /><text x="410" y="3696" font-family="Onest, Inter, Arial, sans-serif" font-size="13" font-weight="650" fill="#005BFF" text-anchor="start" letter-spacing="0" opacity="1"><tspan x="410" dy="0">Посмотреть на Ozon</tspan></text><g transform="translate(694 3679) scale(0.75)"><path d="M5 12h14m-5-5 5 5-5 5" fill="none" stroke="#005BFF" stroke-width="1.8" stroke-linecap="round" stroke-linejoin="round"/></g><rect id="HOTSPOT__PRODUCT__TABLE__TABLET__TARGET" data-name="HOTSPOT__PRODUCT__TABLE__TABLET__TARGET" x="392" y="3290" width="344" height="420" rx="8" fill="#FFFFFF" fill-opacity="0.001"/></g><g id="HOTSPOT__TABLET_PROJECT__COLLECTION" data-name="HOTSPOT__TABLET_PROJECT__COLLECTION"><rect x="32" y="3745" width="206" height="52" rx="12" fill="#13151A" /><text x="135" y="3778" font-family="Onest, Inter, Arial, sans-serif" font-size="14" font-weight="650" fill="#FFFFFF" text-anchor="middle" letter-spacing="0" opacity="1"><tspan x="135" dy="0">Все товары проекта</tspan></text><rect id="HOTSPOT__TABLET_PROJECT__COLLECTION__TARGET" data-name="HOTSPOT__TABLET_PROJECT__COLLECTION__TARGET" x="32" y="3745" width="206" height="52" rx="8" fill="#FFFFFF" fill-opacity="0.001"/></g></g>
</svg>